<?xml version="1.0" standalone="no"?>
<!DOCTYPE svg PUBLIC "-//W3C//DTD SVG 1.1//EN" "http://www.w3.org/Graphics/SVG/1.1/DTD/svg11.dtd" >
<svg xmlns="http://www.w3.org/2000/svg" xmlns:xlink="http://www.w3.org/1999/xlink" version="1.1">
<metadata>
Created by FontForge 20141024 at Mon Dec  8 12:42:51 2014
 By System Administrator
Reuss 2001
</metadata>
<defs>
<font id="NiveaLightCY" horiz-adv-x="1203" vert-adv-y="2048" >
  <font-face 
    font-family="NiveaLightCY"
    font-weight="400"
    font-stretch="normal"
    units-per-em="2048"
    panose-1="0 0 0 0 0 0 0 0 0 0"
    ascent="1536"
    descent="-512"
    x-height="1138"
    cap-height="1450"
    bbox="-33 -503 2768 1920"
    underline-thickness="158"
    underline-position="-238"
    unicode-range="U+0020-2265"
  />
<missing-glyph horiz-adv-x="588" vert-adv-y="2458" 
d="M59 0v1450h470v-1450h-470zM470 59v1332h-352v-1332h352z" />
    <glyph glyph-name=".notdef" horiz-adv-x="588" vert-adv-y="2458" 
d="M59 0v1450h470v-1450h-470zM470 59v1332h-352v-1332h352z" />
    <glyph glyph-name="glyph1" horiz-adv-x="0" vert-adv-y="0" 
 />
    <glyph glyph-name="glyph2" horiz-adv-x="588" vert-adv-y="2458" 
 />
    <glyph glyph-name="space" unicode=" " horiz-adv-x="588" vert-adv-y="2458" 
 />
    <glyph glyph-name="exclam" unicode="!" horiz-adv-x="672" vert-adv-y="2458" 
d="M266 383l-25 1067l195 34l-30 -1067zM335 181q43 0 73 -30q31 -31 31 -74t-30 -73q-31 -31 -74 -31q-58 0 -89 50q-15 25 -15 53q0 44 31 74q32 31 73 31z" />
    <glyph glyph-name="quotedbl" unicode="&#x22;" horiz-adv-x="643" vert-adv-y="2458" 
d="M86 1436h150v-557h-150v557zM409 1436h150v-557h-150v557z" />
    <glyph glyph-name="numbersign" unicode="#" horiz-adv-x="1327" vert-adv-y="2458" 
d="M512 877l-54 -303h357l53 303h-356zM430 416l-61 -348h-159l62 348h-256v158h284l53 303h-256v158h284l61 344h158l-61 -344h357l60 344h159l-61 -344h256v-158h-284l-53 -303h256v-158h-284l-61 -344h-158l61 344h-357z" />
    <glyph glyph-name="dollar" unicode="$" vert-adv-y="2458" 
d="M525 1470v149h157v-143q149 -13 303 -86l-8 -177q-87 45 -133 65q-118 50 -235 50q-104 0 -174 -44q-97 -60 -97 -170q0 -87 85 -156q45 -36 146 -84l207 -100q156 -74 224 -167q64 -87 64 -205q0 -139 -79 -246q-104 -143 -316 -175v-199h-157v192q-181 12 -339 85
l-23 201q121 -67 189 -93q117 -44 236 -44q154 0 238 71q94 80 94 197q0 103 -79 173q-38 34 -155 92l-187 92q-155 77 -225 150q-80 84 -80 206q0 113 67 208q88 123 277 158z" />
    <glyph glyph-name="percent" unicode="%" horiz-adv-x="1541" vert-adv-y="2458" 
d="M406 1477q147 0 251 -103q103 -102 103 -241q0 -147 -103 -250t-251 -103q-146 0 -250 103q-103 103 -103 245q0 146 103 246q106 103 250 103zM407 1330q-82 0 -139 -57q-61 -61 -61 -142q0 -86 61 -147q57 -57 139 -57q81 0 138 57q61 61 61 144q0 86 -61 145
q-59 57 -138 57zM1049 1450h157l-714 -1450h-157zM1135 670q147 0 251 -103q103 -103 103 -241q0 -147 -103 -250q-104 -103 -252 -103q-146 0 -250 103q-103 103 -103 245q0 146 103 246q107 103 251 103zM1135 523q-81 0 -139 -57q-61 -60 -61 -142q0 -86 61 -147
q58 -57 139 -57q82 0 139 57q61 61 61 144q0 86 -61 145q-59 57 -139 57z" />
    <glyph glyph-name="ampersand" unicode="&#x26;" horiz-adv-x="1436" vert-adv-y="2458" 
d="M1183 0l-154 190q-57 -61 -105 -98q-158 -120 -359 -120q-217 0 -350 122q-128 117 -128 305q0 147 83 263q57 81 203 182l74 52l-46 56q-44 53 -73 100q-36 61 -36 132q0 147 131 235q88 58 192 58q115 0 196 -73q95 -85 95 -209q0 -156 -195 -294l-42 -30l358 -426
q86 138 143 298l140 -48q-67 -202 -185 -372l269 -323h-211zM931 309l-388 472l-66 -45q-122 -84 -173 -149q-60 -76 -60 -174q0 -156 122 -237q81 -54 203 -54q176 0 291 108q31 28 71 79zM579 983l38 28q64 48 85 72q47 55 47 115t-48 97q-41 32 -98 32q-72 0 -117 -49
q-37 -40 -37 -89q0 -50 55 -116z" />
    <glyph glyph-name="quotesingle" unicode="'" horiz-adv-x="320" vert-adv-y="2458" 
d="M86 1436h150v-557h-150v557z" />
    <glyph glyph-name="parenleft" unicode="(" horiz-adv-x="495" vert-adv-y="2458" 
d="M454 1522q-103 -179 -146 -279q-110 -255 -110 -499q0 -157 44 -315q42 -148 122 -303q29 -54 90 -160h-162q-98 161 -141 263q-110 257 -110 515q0 174 51 349q40 138 109 270q28 54 91 159h162z" />
    <glyph glyph-name="parenright" unicode=")" horiz-adv-x="495" vert-adv-y="2458" 
d="M41 -34q104 179 147 279q109 254 109 499q0 157 -44 315q-41 148 -122 303q-28 54 -90 160h162q98 -161 141 -263q110 -257 110 -515q0 -174 -51 -349q-40 -137 -109 -270q-28 -54 -91 -159h-162z" />
    <glyph glyph-name="asterisk" unicode="*" horiz-adv-x="1042" vert-adv-y="2458" 
d="M520 969l-184 -280l-136 96l215 261l-327 62l50 167l319 -109l-24 331h176l-23 -331l318 109l50 -167l-327 -62l215 -261l-136 -98z" />
    <glyph glyph-name="plus" unicode="+" horiz-adv-x="1106" vert-adv-y="2458" 
d="M632 735h392v-158h-392v-393h-158v393h-392v158h392v391h158v-391z" />
    <glyph glyph-name="comma" unicode="," horiz-adv-x="550" vert-adv-y="2458" 
d="M37 -340l172 528h177l-209 -528h-140z" />
    <glyph glyph-name="hyphen" unicode="-" horiz-adv-x="522" vert-adv-y="2458" 
d="M0 577v158h522v-158h-522z" />
    <glyph glyph-name="period" unicode="." horiz-adv-x="536" vert-adv-y="2458" 
d="M269 182q42 0 73 -31q31 -30 31 -74q0 -43 -30 -73q-32 -31 -75 -31q-57 0 -88 50q-16 25 -16 54q0 43 32 74q31 31 73 31z" />
    <glyph glyph-name="slash" unicode="/" horiz-adv-x="730" vert-adv-y="2458" 
d="M716 1450l-538 -1450h-164l539 1450h163z" />
    <glyph glyph-name="zero" unicode="0" vert-adv-y="2458" 
d="M601 1477q139 0 253 -84q144 -108 213 -333q46 -152 46 -326q0 -348 -154 -569q-76 -109 -193 -160q-77 -33 -166 -33q-139 0 -251 84q-146 110 -215 333q-45 147 -45 336q0 348 154 559q141 193 358 193zM601 1327q-148 0 -242 -144q-113 -173 -113 -451
q0 -321 133 -494q89 -116 222 -116q148 0 241 144q114 173 114 458q0 187 -52 332q-98 271 -303 271z" />
    <glyph glyph-name="one" unicode="1" horiz-adv-x="602" vert-adv-y="2458" 
d="M286 0v1300h-171l35 150h293v-1450h-157z" />
    <glyph glyph-name="two" unicode="2" vert-adv-y="2458" 
d="M12 0l649 651q94 95 156 178q83 110 83 215q0 130 -107 214q-90 70 -223 70q-152 0 -239 -94q-46 -48 -101 -150l-140 65q55 115 117 179q144 150 368 150q213 0 355 -137q128 -124 128 -300q0 -133 -65 -238q-52 -82 -129 -160l-183 -186l-303 -307h749l-38 -150h-1077z
" />
    <glyph glyph-name="three" unicode="3" vert-adv-y="2458" 
d="M184 319q66 -76 117 -114q108 -82 264 -82q131 0 217 63q119 88 119 231q0 103 -70 172q-63 62 -179 81q-63 11 -169 11h-76v150h76q138 0 208 24q99 34 142 106q32 53 32 116q0 119 -98 193q-76 58 -189 58q-147 0 -267 -104q-35 -31 -93 -96l-110 99q80 93 150 144
q144 107 320 107q204 0 330 -128q53 -54 84 -127q30 -72 30 -144q0 -136 -87 -229q-37 -40 -117 -82q90 -42 133 -85q107 -105 107 -270q0 -173 -122 -298q-138 -142 -373 -142q-232 0 -397 142q-40 34 -93 91z" />
    <glyph glyph-name="four" unicode="4" vert-adv-y="2458" 
d="M805 0v293h-817l974 1209v-1059h173l-27 -150h-146v-293h-157zM805 443v629l-503 -629h503z" />
    <glyph glyph-name="five" unicode="5" vert-adv-y="2458" 
d="M189 293q66 -64 113 -95q110 -75 261 -75q127 0 217 62q149 102 149 299q0 171 -115 266q-100 84 -259 84q-160 0 -352 -80l37 696h725l-28 -150h-546l-15 -336q122 20 191 20q231 0 376 -137q143 -136 143 -360t-140 -366q-144 -148 -387 -148q-220 0 -379 120
q-43 32 -99 90z" />
    <glyph glyph-name="six" unicode="6" vert-adv-y="2458" 
d="M441 960q93 24 173 24q212 0 351 -134q150 -144 150 -365q0 -229 -150 -373q-145 -139 -365 -139q-211 0 -355 134q-159 148 -159 376q0 180 101 358t294 401q177 205 179 208h212q-240 -253 -431 -490zM601 834q-155 0 -252 -92q-105 -100 -105 -258q0 -173 105 -272
q95 -89 253 -89q156 0 251 89q105 99 105 267q0 165 -105 263q-98 92 -252 92z" />
    <glyph glyph-name="seven" unicode="7" vert-adv-y="2458" 
d="M244 0l662 1300h-796l27 150h1011l-727 -1450h-177z" />
    <glyph glyph-name="eight" unicode="8" vert-adv-y="2458" 
d="M400 799q-107 54 -150 97q-85 84 -85 208q0 147 104 251q54 53 131 84q96 38 201 38q145 0 258 -66q93 -54 140 -147q39 -76 39 -160q0 -124 -85 -208q-42 -42 -149 -97q131 -65 184 -121q107 -110 107 -271q0 -170 -123 -292q-145 -142 -371 -142t-371 142
q-124 122 -124 291q0 161 108 272q54 56 186 121zM602 881q143 49 194 81q83 51 83 152q0 94 -69 149q-80 64 -207 64q-129 0 -211 -66q-70 -56 -70 -147q0 -97 83 -150q41 -25 92 -45q101 -39 105 -38zM602 715q-162 -48 -232 -99q-107 -78 -107 -208q0 -126 93 -206
q93 -79 246 -79t245 78q91 78 91 205q0 134 -102 210q-48 35 -103 56q-122 45 -131 43z" />
    <glyph glyph-name="nine" unicode="9" vert-adv-y="2458" 
d="M757 490q-93 -24 -173 -24q-212 0 -351 134q-150 144 -150 365q0 229 150 373q145 139 365 139q210 0 354 -134q159 -147 159 -388q0 -154 -75 -297q-100 -190 -293 -420l-133 -154l-72 -84h-212q240 253 431 490zM596 1327q-156 0 -251 -89q-105 -99 -105 -267
q0 -163 105 -263q96 -92 252 -92t252 92q105 100 105 258q0 174 -105 272q-96 89 -253 89z" />
    <glyph glyph-name="colon" unicode=":" horiz-adv-x="537" vert-adv-y="2458" 
d="M270 182q42 0 73 -31q30 -30 30 -74q0 -43 -30 -73q-31 -31 -74 -31q-58 0 -90 51q-15 25 -15 52q0 44 31 74q32 32 75 32zM270 888q42 0 73 -31q30 -30 30 -74q0 -42 -30 -73q-31 -31 -74 -31q-58 0 -90 51q-15 25 -15 52q0 44 31 74q32 32 75 32z" />
    <glyph glyph-name="semicolon" unicode=";" horiz-adv-x="573" vert-adv-y="2458" 
d="M37 -340l172 528h177l-207 -528h-142zM305 887q43 0 73 -30q31 -31 31 -74t-30 -73q-31 -31 -74 -31q-57 0 -89 50q-15 25 -15 53q0 44 31 74q32 31 73 31z" />
    <glyph glyph-name="less" unicode="&#x3c;" horiz-adv-x="832" vert-adv-y="2458" 
d="M82 655l517 518l110 -110l-401 -408l401 -407l-110 -110z" />
    <glyph glyph-name="equal" unicode="=" horiz-adv-x="1106" vert-adv-y="2458" 
d="M82 371v158h942v-158h-942zM82 781v158h942v-158h-942z" />
    <glyph glyph-name="greater" unicode="&#x3e;" horiz-adv-x="832" vert-adv-y="2458" 
d="M750 655l-517 -517l-110 110l401 407l-401 408l110 110z" />
    <glyph glyph-name="question" unicode="?" horiz-adv-x="1006" vert-adv-y="2458" 
d="M348 181q43 0 73 -30q31 -31 31 -74t-30 -73q-31 -31 -74 -31q-57 0 -89 50q-15 25 -15 53q0 44 31 74q31 31 73 31zM262 383v311l50 19q223 86 321 179q70 67 70 179q0 132 -101 205q-80 58 -224 58q-84 0 -194 -23l14 155q111 18 189 18q234 0 365 -130
q108 -108 108 -270q0 -180 -132 -298q-72 -63 -220 -131l-89 -40v-198z" />
    <glyph glyph-name="at" unicode="@" horiz-adv-x="1495" vert-adv-y="2458" 
d="M1227 922q-95 44 -186 44q-121 0 -191 -65q-71 -66 -71 -182q0 -228 235 -228q100 0 213 57v374zM1124 184l40 -144q-111 -39 -180.5 -53t-156.5 -14q-319 0 -525 202q-208 204 -208 544q0 345 216 554q112 109 261 162q121 43 243 43q217 0 461 -122q44 -22 109 -59
v-688q0 -156 13 -235l-149 -20l-10 54q-121 -60 -247 -60q-157 0 -256 88q-113 101 -113 278q0 181 113 289q110 105 283 105q97 0 209 -43v150q-200 113 -399 113q-211 0 -369 -127q-208 -167 -208 -475q0 -277 171 -443q165 -160 405 -160q127 0 297 61z" />
    <glyph glyph-name="A" unicode="A" horiz-adv-x="1380" vert-adv-y="2458" 
d="M157 0h-177l724 1501l697 -1501h-174l-137 300h-792zM366 450h658l-320 730z" />
    <glyph glyph-name="B" unicode="B" horiz-adv-x="1260" vert-adv-y="2458" 
d="M194 0v1450h410q244 0 362 -80q75 -50 113 -136q31 -69 31 -152q0 -147 -95 -241q-43 -42 -131 -80q84 -32 131 -69q128 -101 128 -283q0 -147 -82 -250q-88 -111 -242 -142q-82 -17 -232 -17h-393zM358 1300v-467h235q166 0 243 40q117 61 117 207q0 132 -105 182
q-79 38 -255 38h-235zM358 683v-533h274q98 0 158 13t103 45q93 66 93 204q0 137 -90 207q-51 39 -107 50q-67 14 -157 14h-274z" />
    <glyph glyph-name="C" unicode="C" horiz-adv-x="1359" vert-adv-y="2458" 
d="M1261 114q-90 -60 -155 -86q-136 -55 -283 -55q-289 0 -497 195q-118 111 -178 264q-54 136 -54 288q0 227 115 413q108 175 288 266q154 78 332 78q157 0 296 -62q52 -23 132 -75l-26 -173q-81 68 -145 99q-127 61 -264 61q-209 0 -367 -137q-204 -178 -204 -470
q0 -288 202 -462q158 -135 367 -135q165 0 311 87q56 34 145 116z" />
    <glyph glyph-name="D" unicode="D" horiz-adv-x="1506" vert-adv-y="2458" 
d="M194 1450h350q249 0 445 -65q131 -44 236 -153q188 -196 188 -507t-188 -507q-105 -109 -236 -153q-196 -65 -445 -65h-350v1450zM358 1300v-1150h200q283 0 438 86q260 143 260 489q0 240 -126 382q-99 111 -239 151q-152 42 -333 42h-200z" />
    <glyph glyph-name="E" unicode="E" horiz-adv-x="1174" vert-adv-y="2458" 
d="M194 0v1450h844v-150h-680v-474h596v-150h-596v-526h690v-150h-854z" />
    <glyph glyph-name="F" unicode="F" horiz-adv-x="1137" vert-adv-y="2458" 
d="M194 0v1450h854v-150h-690v-467h622v-150h-622v-683h-164z" />
    <glyph glyph-name="G" unicode="G" horiz-adv-x="1535" vert-adv-y="2458" 
d="M1312 1326l-26 -173q-81 69 -145 101q-146 74 -299 74q-230 0 -398 -151q-193 -174 -193 -457q0 -271 191 -448q161 -149 386 -149q242 0 418 147v362h-443v150h600v-557q-121 -117 -227 -171q-159 -81 -348 -81q-292 0 -503 197q-231 217 -231 548q0 336 222 553
q213 207 522 207q181 0 342 -76q51 -23 132 -76z" />
    <glyph glyph-name="H" unicode="H" horiz-adv-x="1582" vert-adv-y="2458" 
d="M194 0v1450h164v-617h866v617h164v-1450h-164v683h-866v-683h-164z" />
    <glyph glyph-name="I" unicode="I" horiz-adv-x="552" vert-adv-y="2458" 
d="M194 0v1450h164v-1450h-164z" />
    <glyph glyph-name="J" unicode="J" horiz-adv-x="812" vert-adv-y="2458" 
d="M-10 168q98 -38 200 -38q147 0 213 63q68 65 68 237v1020h164v-997q0 -247 -120 -363q-113 -109 -311 -109q-93 0 -190 23z" />
    <glyph glyph-name="K" unicode="K" horiz-adv-x="1393" vert-adv-y="2458" 
d="M194 0v1450h164v-679l781 679h218l-818 -703l888 -747h-220l-849 709v-709h-164z" />
    <glyph glyph-name="L" unicode="L" horiz-adv-x="1094" vert-adv-y="2458" 
d="M194 0v1450h164v-1300h713v-150h-877z" />
    <glyph glyph-name="M" unicode="M" horiz-adv-x="1711" vert-adv-y="2458" 
d="M26 0l320 1502l511 -1189l510 1189l318 -1502h-164l-207 997l-456 -1052l-462 1052l-206 -997h-164z" />
    <glyph glyph-name="N" unicode="N" horiz-adv-x="1596" vert-adv-y="2458" 
d="M194 0v1502l1044 -1142v1090h164v-1505l-1044 1147v-1092h-164z" />
    <glyph glyph-name="O" unicode="O" horiz-adv-x="1629" vert-adv-y="2458" 
d="M821 1478q301 0 507 -215q208 -217 208 -533q0 -321 -208 -538q-211 -219 -514 -219q-300 0 -510 217q-210 218 -210 531q0 275 147 469q219 288 580 288zM813 1328q-258 0 -419 -187q-143 -166 -143 -407q0 -257 144 -424q161 -187 419 -187q256 0 417 186
q148 171 148 416q0 248 -147 417q-162 186 -419 186z" />
    <glyph glyph-name="P" unicode="P" horiz-adv-x="1217" vert-adv-y="2458" 
d="M194 0v1450h336q199 0 299 -29q170 -49 256 -180q68 -102 68 -230q0 -98 -40.5 -185.5t-112.5 -147.5q-89 -74 -202 -96q-110 -22 -243 -22h-197v-560h-164zM358 1300v-590h137q168 0 234 10q151 24 216 117q51 72 51 168q0 116 -72 195t-234 95q-55 5 -195 5h-137z" />
    <glyph glyph-name="Q" unicode="Q" horiz-adv-x="1629" vert-adv-y="2458" 
d="M442 96q-40 18 -93 60q-255 207 -255 564q0 268 146 466q102 139 257 216q151 76 318 76q204 0 379 -109t266 -300q76 -161 76 -349q0 -316 -208 -531q-202 -207 -480 -207q-17 0 -45 2v-11q193 -86 259 -110q128 -45 314 -71l-50 -154q-150 22 -275 66q-99 38 -268 124
q-178 91 -293 128q-91 28 -192 40l56 115q34 -4 88 -15zM813 1328q-257 0 -419 -187q-143 -165 -143 -407q0 -257 144 -424q161 -187 419 -187q256 0 417 186q148 171 148 416q0 249 -147 417q-162 186 -419 186z" />
    <glyph glyph-name="R" unicode="R" horiz-adv-x="1324" vert-adv-y="2458" 
d="M194 0v1450h309q194 0 284 -17q158 -29 256 -132q110 -115 110 -282q0 -141 -80 -247q-85 -112 -256 -157l487 -615h-202l-446 593h-298v-593h-164zM358 1300v-557h194q218 0 301 40q64 31 101 88q42 66 42 150q0 112 -70 186q-61 65 -182 83q-67 10 -192 10h-194z" />
    <glyph glyph-name="S" unicode="S" horiz-adv-x="1110" vert-adv-y="2458" 
d="M98 259q120 -66 189 -92q117 -45 236 -45q154 0 239 72q94 80 94 197q0 102 -79 172q-39 34 -156 92l-187 93q-155 76 -225 149q-81 84 -81 206q0 146 103 250q123 125 341 125q171 0 362 -89l-9 -177q-86 46 -133 66q-118 50 -235 50q-104 0 -175 -44q-97 -61 -97 -170
q0 -88 85 -156q45 -36 147 -85l208 -99q155 -74 223 -167q64 -88 64 -206q0 -175 -118 -292q-137 -137 -385 -137q-193 0 -388 87z" />
    <glyph glyph-name="T" unicode="T" horiz-adv-x="1255" vert-adv-y="2458" 
d="M710 1300v-1300h-164v1300h-532v150h1227v-150h-531z" />
    <glyph glyph-name="U" unicode="U" horiz-adv-x="1571" vert-adv-y="2458" 
d="M1394 1450v-783q0 -287 -95 -439q-161 -255 -513 -255q-272 0 -433 157q-84 81 -118 174q-58 156 -58 363v783h164v-788q0 -209 51 -319q57 -124 192 -181q93 -39 201 -39q131 0 236 56q127 66 173 200q36 106 36 283v788h164z" />
    <glyph glyph-name="V" unicode="V" horiz-adv-x="1310" vert-adv-y="2458" 
d="M653 -55l-667 1505h177l499 -1157l484 1157h177z" />
    <glyph glyph-name="W" unicode="W" horiz-adv-x="1797" vert-adv-y="2458" 
d="M534 -55l-548 1505h177l369 -1054l369 1106l370 -1106l362 1054h178l-545 -1505l-367 1079z" />
    <glyph glyph-name="X" unicode="X" horiz-adv-x="1385" vert-adv-y="2458" 
d="M172 0h-191l592 762l-572 688h192l476 -573l440 573h191l-535 -683l639 -767h-191l-541 646z" />
    <glyph glyph-name="Y" unicode="Y" horiz-adv-x="1313" vert-adv-y="2458" 
d="M575 0v664l-602 786h191l493 -649l493 649h191l-602 -782v-668h-164z" />
    <glyph glyph-name="Z" unicode="Z" horiz-adv-x="1379" vert-adv-y="2458" 
d="M75 0l928 1300h-828l35 150h1088l-923 -1300h906l-39 -150h-1167z" />
    <glyph glyph-name="bracketleft" unicode="[" horiz-adv-x="642" vert-adv-y="2458" 
d="M601 -34h-417v1556h417v-150h-260v-1256h260v-150z" />
    <glyph glyph-name="backslash" unicode="\" horiz-adv-x="730" vert-adv-y="2458" 
d="M14 1450h164l538 -1450h-163z" />
    <glyph glyph-name="bracketright" unicode="]" horiz-adv-x="642" vert-adv-y="2458" 
d="M41 1522h417v-1556h-417v150h260v1256h-260v150z" />
    <glyph glyph-name="asciicircum" unicode="^" horiz-adv-x="1117" vert-adv-y="2458" 
d="M559 1310l517 -517l-109 -110l-408 401l-408 -401l-110 110z" />
    <glyph glyph-name="underscore" unicode="_" horiz-adv-x="1024" vert-adv-y="2458" 
d="M0 -238h1024v-158h-1024v158z" />
    <glyph glyph-name="grave" unicode="`" horiz-adv-x="1365" vert-adv-y="2458" 
d="M429 1661l541 -198l-55 -151l-541 198z" />
    <glyph glyph-name="a" unicode="a" horiz-adv-x="1396" vert-adv-y="2458" 
d="M1245 0l-162 -26q-13 52 -18 93q-112 -46 -171 -64q-103 -30 -223 -30q-186 0 -307 71q-130 77 -206 214q-76 136 -76 297q0 269 196 448q180 165 453 165q127 0 332 -41l155 32v-909q4 -162 27 -250zM1060 217v759q-183 42 -305 42q-160 0 -254 -45q-128 -60 -198 -178
q-64 -107 -64 -238q0 -201 136 -329q112 -105 307 -105q132 0 247 41q41 14 131 53z" />
    <glyph glyph-name="b" unicode="b" horiz-adv-x="1396" vert-adv-y="2458" 
d="M335 1476v-403q98 46 166 65q108 30 222 30q251 0 407 -146q79 -75 127 -178q56 -122 56 -258q0 -270 -196 -449q-180 -165 -453 -165q-129 0 -332 42l-155 -33v1469zM335 923v-759q182 -42 305 -42q160 0 254 45q128 60 198 178q64 107 64 238q0 130 -64 238
q-115 197 -382 197q-127 0 -244 -40q-47 -17 -131 -55z" />
    <glyph glyph-name="c" unicode="c" horiz-adv-x="1198" vert-adv-y="2458" 
d="M1102 98q-88 -57 -158 -80q-133 -46 -268 -46q-250 0 -419 165q-174 172 -174 426q0 259 178 433q177 172 451 172q203 0 409 -104l-26 -157q-101 51 -165 73q-112 38 -223 38q-201 0 -331 -124q-136 -129 -136 -326q0 -194 131 -323q125 -123 313 -123q150 0 295 73
q53 26 152 90z" />
    <glyph glyph-name="d" unicode="d" horiz-adv-x="1396" vert-adv-y="2458" 
d="M1245 0l-162 -26q-13 52 -18 93q-112 -46 -171 -64q-103 -30 -223 -30q-186 0 -307 71q-130 77 -206 214q-76 136 -76 297q0 269 196 448q180 165 452 165q135 0 330 -41v323l158 26v-1226q4 -162 27 -250zM1060 217v759q-183 42 -305 42q-160 0 -254 -45
q-128 -60 -198 -178q-64 -107 -64 -238q0 -201 136 -329q112 -105 307 -105q132 0 247 41q41 14 131 53z" />
    <glyph glyph-name="e" unicode="e" horiz-adv-x="1286" vert-adv-y="2458" 
d="M1142 305l-9 -185q-111 -64 -173 -90q-138 -57 -285 -57q-262 0 -427 163t-165 425q0 258 164 427q82 85 194 132q113 48 237 48q220 0 368 -138q157 -147 157 -372q0 -41 -5 -108l-944 -61q15 -90 53 -158q49 -89 136 -143q104 -65 232 -65q144 0 304 82q58 30 163 100z
M1039 680q-5 82 -37 149q-45 95 -140 147q-81 44 -182 44q-160 0 -282 -100q-123 -100 -146 -292z" />
    <glyph glyph-name="f" unicode="f" horiz-adv-x="755" vert-adv-y="2458" 
d="M369 0h-157v988h-198v150h198v76q0 143 77 222q90 94 256 94q93 0 210 -41l-37 -155q-97 46 -178 46q-98 0 -138 -49q-33 -39 -33 -117v-76h368v-150h-368v-988z" />
    <glyph glyph-name="g" unicode="g" horiz-adv-x="1383" vert-adv-y="2458" 
d="M190 -176q121 -93 207 -128q121 -49 262 -49q182 0 287 89q114 97 114 278v53q-101 -45 -166 -64q-105 -30 -221 -30q-188 0 -309 71q-130 76 -206 214q-76 136 -76 297q0 269 196 448q180 165 453 165q130 0 332 -41l155 32v-1031q0 -283 -88 -418q-137 -213 -476 -213
q-192 0 -333 62q-48 21 -123 69zM1060 217v759q-184 42 -305 42q-160 0 -254 -45q-128 -60 -198 -178q-64 -107 -64 -237q0 -202 136 -330q112 -105 307 -105q132 0 247 41q41 15 131 53z" />
    <glyph glyph-name="h" unicode="h" horiz-adv-x="1400" vert-adv-y="2458" 
d="M177 0v1450l157 26v-549q66 87 133 136q144 105 348 105q235 0 352 -136q59 -69 75 -162q13 -72 13 -158v-712h-157v644q0 131 -11 176q-24 97 -87 146q-69 53 -198 53q-192 0 -323 -125q-103 -99 -132 -238q-13 -60 -13 -166v-490h-157z" />
    <glyph glyph-name="i" unicode="i" horiz-adv-x="512" vert-adv-y="2458" 
d="M335 1159v-1159h-157v1133zM256 1476q45 0 77 -32t32 -77t-31 -76q-32 -32 -78 -32q-61 0 -92 51q-16 25 -16 56q0 48 32 79t76 31z" />
    <glyph glyph-name="j" unicode="j" horiz-adv-x="512" vert-adv-y="2458" 
d="M335 1159v-1522l-157 -26v1522zM256 1476q45 0 77 -32t32 -77t-31 -76q-32 -32 -78 -32q-61 0 -92 51q-16 26 -16 56q0 48 32 79t76 31z" />
    <glyph glyph-name="k" unicode="k" horiz-adv-x="1260" vert-adv-y="2458" 
d="M334 587v-587h-157v1450l157 26v-834l567 498h213l-592 -513l765 -627h-232z" />
    <glyph glyph-name="l" unicode="l" horiz-adv-x="512" vert-adv-y="2458" 
d="M334 0h-157v1450l157 26v-1476z" />
    <glyph glyph-name="m" unicode="m" horiz-adv-x="2125" vert-adv-y="2458" 
d="M991 0v644q0 130 -11 175q-46 200 -245 200q-164 0 -293 -125q-100 -97 -128 -238q-12 -64 -12 -166v-490h-157v1133l157 26v-232q65 86 133 135q145 106 310 106q126 0 231 -65q107 -66 154 -202q27 41 50 67q77 90 180 142q113 58 230 58q126 0 232 -65
q115 -70 151 -198q21 -74 21 -193v-712h-157v644q0 130 -11 175q-46 200 -245 200q-164 0 -293 -125q-100 -97 -128 -238q-12 -64 -12 -166v-490h-157z" />
    <glyph glyph-name="n" unicode="n" horiz-adv-x="1386" vert-adv-y="2458" 
d="M164 0v1133l157 26v-232q66 87 133 136q144 105 348 105q235 0 352 -136q59 -69 75 -162q13 -72 13 -158v-712h-157v644q0 131 -11 176q-24 97 -87 146q-69 53 -198 53q-192 0 -323 -125q-103 -99 -132 -238q-13 -60 -13 -166v-490h-157z" />
    <glyph glyph-name="o" unicode="o" horiz-adv-x="1377" vert-adv-y="2458" 
d="M690 1168q256 0 428 -171q82 -81 128 -191q47 -113 47 -236q0 -172 -89 -318q-85 -138 -228 -212q-131 -67 -287 -67q-260 0 -433 173q-80 80 -126 188q-47 113 -47 229q0 180 88 326q83 136 229 212q131 67 290 67zM688 1018q-169 0 -291 -102q-91 -76 -131 -189
q-26 -74 -26 -150q0 -220 157 -352q122 -102 292 -102q168 0 290 102q157 132 157 346q0 132 -66 240q-72 118 -203 173q-82 34 -179 34z" />
    <glyph glyph-name="p" unicode="p" horiz-adv-x="1382" vert-adv-y="2458" 
d="M137 1140l162 26q13 -52 18 -93q112 47 171 64q104 31 223 31q186 0 307 -71q130 -76 206 -214q76 -136 76 -296q0 -270 -196 -451q-176 -163 -441 -163q-166 0 -341 54v-390l-158 -26v1279q-4 161 -27 250zM322 923v-746q171 -54 321 -54q205 0 335 106q165 135 165 354
q0 202 -136 330q-112 105 -302 105q-128 0 -252 -41q-49 -16 -131 -54z" />
    <glyph glyph-name="q" unicode="q" horiz-adv-x="1383" vert-adv-y="2458" 
d="M1060 -389v456q-101 -45 -166 -64q-105 -30 -221 -30q-188 0 -309 71q-130 76 -206 214q-76 136 -76 297q0 269 196 448q180 165 453 165q130 0 332 -41l155 32v-1522zM1060 217v759q-183 42 -305 42q-160 0 -254 -45q-128 -60 -198 -178q-64 -107 -64 -238
q0 -201 136 -329q112 -105 307 -105q132 0 247 41q41 15 131 53z" />
    <glyph glyph-name="r" unicode="r" horiz-adv-x="820" vert-adv-y="2458" 
d="M827 1167l-28 -150q-16 1 -24 1q-79 0 -156 -29q-188 -70 -264 -263q-34 -86 -34 -236v-490h-157v1133l157 26v-232q65 91 166 158q131 83 340 82z" />
    <glyph glyph-name="s" unicode="s" horiz-adv-x="1016" vert-adv-y="2458" 
d="M108 243q218 -121 399 -121q150 0 223 68q40 37 40 100q0 66 -45 106q-50 46 -169 95l-161 67q-167 69 -223 132q-59 67 -59 158q0 129 104 216q123 104 322 104q138 0 306 -65l-3 -173q-101 50 -161 66q-76 21 -154 21q-153 0 -225 -75q-32 -34 -32 -82q0 -66 69 -110
q44 -28 137 -64l161 -64q131 -51 200 -115q90 -81 90 -216q0 -138 -98 -219q-120 -100 -332 -100q-179 0 -364 92z" />
    <glyph glyph-name="t" unicode="t" horiz-adv-x="771" vert-adv-y="2458" 
d="M728 178l-25 -161q-75 -31 -156 -31q-162 0 -249 95q-77 84 -77 239v668h-207v150h207v312l157 26v-338h359v-150h-359v-662q0 -107 41 -146q54 -51 153 -51q77 0 156 49z" />
    <glyph glyph-name="u" unicode="u" horiz-adv-x="1386" vert-adv-y="2458" 
d="M1223 1159v-1159l-157 -26v239q-66 -87 -133 -136q-144 -105 -348 -105q-235 0 -352 136q-58 69 -75 162q-13 72 -13 159v704l157 26v-663q0 -131 11 -176q24 -97 87 -146q69 -53 198 -53q192 0 323 125q103 99 132 238q13 61 13 166v483z" />
    <glyph glyph-name="v" unicode="v" horiz-adv-x="1137" vert-adv-y="2458" 
d="M567 -54l-567 1192h177l390 -872l392 872h178z" />
    <glyph glyph-name="w" unicode="w" horiz-adv-x="1741" vert-adv-y="2458" 
d="M532 -54l-532 1192h177l349 -817l343 872l356 -872l339 817h177l-520 -1192l-352 846z" />
    <glyph glyph-name="x" unicode="x" horiz-adv-x="1209" vert-adv-y="2458" 
d="M0 0l512 601l-451 537h205l342 -424l347 424h205l-457 -540l506 -598h-205l-393 491l-406 -491h-205z" />
    <glyph glyph-name="y" unicode="y" horiz-adv-x="1117" vert-adv-y="2458" 
d="M0 1138h177l390 -946l372 946h178l-613 -1502l-183 -26l164 390z" />
    <glyph glyph-name="z" unicode="z" horiz-adv-x="1074" vert-adv-y="2458" 
d="M0 0l765 988h-695l39 150h952l-751 -988h749l-33 -150h-1026z" />
    <glyph glyph-name="braceleft" unicode="{" horiz-adv-x="671" vert-adv-y="2458" 
d="M284 744q63 -49 72 -73q15 -21 20 -91v-9l-8 -250q0 -3 -1 -14q-14 -185 176 -191h74v-150h-43q-166 0 -253 68q-111 87 -111 262q0 2 1 27l8 165q1 14 1 30q0 81 -18 117q-22 47 -106 109q83 62 106 109q18 36 18 116q0 17 -1 31l-8 165v26q0 331 363 331h43v-150h-74
q-90 0 -139 -52q-36 -39 -36 -138v-15l8 -250q1 -26 -8 -65q-6 -38 -37 -68q-19 -24 -47 -40z" />
    <glyph glyph-name="bar" unicode="|" horiz-adv-x="1024" vert-adv-y="2458" 
d="M433 -410v1860h157v-1860h-157z" />
    <glyph glyph-name="braceright" unicode="}" horiz-adv-x="671" vert-adv-y="2458" 
d="M387 744q-52 40 -72 72q-22 36 -20 92v9l8 250l1 9v5q0 109 -48 150q-50 41 -128 41h-73v150h43q166 0 253 -68q111 -87 111 -262q0 -2 -1 -27l-8 -165q-1 -14 -1 -30q0 -81 17 -117q23 -47 107 -109q-84 -62 -107 -109q-17 -36 -17 -116q0 -17 1 -31l8 -165v-26
q0 -331 -363 -331h-43v150h73q77 0 127 41q27 22 36 59q16 82 12 105l-8 250v9q0 60 20 91q20 33 72 73z" />
    <glyph glyph-name="asciitilde" unicode="~" horiz-adv-x="1106" vert-adv-y="2458" 
d="M946 717q-55 -49 -92 -69q-76 -41 -163 -41q-58 0 -106 19l-80 33q-63 25 -111 25q-69 0 -161 -67l-72 127q55 48 92 68q76 41 162 41q61 0 107 -19l80 -32q63 -26 110 -26q70 0 162 68z" />
    <glyph glyph-name="Agrave" unicode="&#xc0;" horiz-adv-x="1380" vert-adv-y="2458" 
d="M157 0h-177l724 1501l697 -1501h-174l-137 300h-792zM366 450h658l-320 730z" />
    <glyph glyph-name="Aacute" unicode="&#xc1;" horiz-adv-x="1210" vert-adv-y="2458" 
d="M358 826h235q196 0 293 -38q125 -48 194 -156q63 -98 63 -226q0 -143 -82 -247q-88 -111 -242 -142q-82 -17 -232 -17h-393v1450h844v-150h-680v-474zM358 676v-526h274q98 0 158 13t103 45q93 66 93 204q0 130 -90 200q-51 39 -107 50q-67 14 -157 14h-274z" />
    <glyph glyph-name="Acircumflex" unicode="&#xc2;" horiz-adv-x="1260" vert-adv-y="2458" 
d="M194 0v1450h410q244 0 362 -80q75 -50 113 -136q31 -69 31 -152q0 -147 -95 -241q-43 -42 -131 -80q84 -32 131 -69q128 -101 128 -283q0 -147 -82 -250q-88 -111 -242 -142q-82 -17 -232 -17h-393zM358 1300v-467h235q166 0 243 40q117 61 117 207q0 132 -105 182
q-79 38 -255 38h-235zM358 683v-533h274q98 0 158 13t103 45q93 66 93 204q0 137 -90 207q-51 39 -107 50q-67 14 -157 14h-274z" />
    <glyph glyph-name="Atilde" unicode="&#xc3;" horiz-adv-x="1038" vert-adv-y="2458" 
d="M358 0h-164v1450h844v-150h-680v-1300z" />
    <glyph glyph-name="Adieresis" unicode="&#xc4;" horiz-adv-x="1420" vert-adv-y="2458" 
d="M41 -389v539q139 36 183 86q45 49 57 129q6 33 6 264v821h928v-1300h82v-513l-164 -26v389h-928v-363zM328 150h723v1150h-600v-850q0 -126 -29 -196q-24 -55 -94 -104z" />
    <glyph glyph-name="Aring" unicode="&#xc5;" horiz-adv-x="1174" vert-adv-y="2458" 
d="M194 0v1450h844v-150h-680v-474h596v-150h-596v-526h690v-150h-854z" />
    <glyph glyph-name="AE" unicode="&#xc6;" horiz-adv-x="2235" vert-adv-y="2458" 
d="M1200 0h-164v709l-849 -709h-220l888 747l-818 703h218l781 -679v679h164v-679l781 679h218l-818 -703l888 -747h-220l-849 709v-709z" />
    <glyph glyph-name="Ccedilla" unicode="&#xc7;" horiz-adv-x="1163" vert-adv-y="2458" 
d="M179 319q66 -76 117 -114q108 -82 264 -82q131 0 217 63q119 88 119 231q0 103 -70 172q-63 62 -179 81q-63 11 -169 11h-76v150h76q138 0 208 24q99 34 142 106q32 53 32 116q0 119 -98 193q-76 58 -189 58q-147 0 -267 -104q-35 -31 -93 -96l-110 99q80 93 150 144
q144 107 320 107q204 0 330 -128q53 -54 84 -127q30 -72 30 -144q0 -136 -87 -229q-37 -40 -117 -82q90 -42 133 -85q107 -105 107 -270q0 -173 -122 -298q-138 -142 -373 -142q-232 0 -397 142q-40 34 -93 91z" />
    <glyph glyph-name="Egrave" unicode="&#xc8;" horiz-adv-x="1596" vert-adv-y="2458" 
d="M1402 0h-164v1092l-1044 -1147v1505h164v-1090l1044 1142v-1502z" />
    <glyph glyph-name="Eacute" unicode="&#xc9;" horiz-adv-x="1596" vert-adv-y="2458" 
d="M1402 0h-164v1092l-1044 -1147v1505h164v-1090l1044 1142v-1502zM1203 1753q-66 -60 -108 -85q-119 -70 -272 -70q-165 0 -288 81q-34 23 -91 74l93 111q68 -51 111 -72q88 -41 175 -41q99 0 194 51q34 18 93 62z" />
    <glyph glyph-name="Ecircumflex" unicode="&#xca;" horiz-adv-x="1393" vert-adv-y="2458" 
d="M194 0v1450h164v-679l781 679h218l-818 -703l888 -747h-220l-849 709v-709h-164z" />
    <glyph glyph-name="Edieresis" unicode="&#xcb;" horiz-adv-x="1423" vert-adv-y="2458" 
d="M0 116q146 64 191 121q52 62 64 155q4 19 4 231v827h970v-1450h-164v1300h-642v-796q-1 -204 -50 -299q-60 -122 -200 -193q-14 -8 -85 -39z" />
    <glyph glyph-name="Igrave" unicode="&#xcc;" horiz-adv-x="1711" vert-adv-y="2458" 
d="M26 0l320 1502l511 -1189l510 1189l318 -1502h-164l-207 997l-456 -1052l-462 1052l-206 -997h-164z" />
    <glyph glyph-name="Iacute" unicode="&#xcd;" horiz-adv-x="1582" vert-adv-y="2458" 
d="M194 0v1450h164v-617h866v617h164v-1450h-164v683h-866v-683h-164z" />
    <glyph glyph-name="Icircumflex" unicode="&#xce;" horiz-adv-x="1629" vert-adv-y="2458" 
d="M821 1478q301 0 507 -215q208 -217 208 -533q0 -321 -208 -538q-211 -219 -514 -219q-300 0 -510 217q-210 218 -210 531q0 275 147 469q219 288 580 288zM813 1328q-258 0 -419 -187q-143 -166 -143 -407q0 -257 144 -424q161 -187 419 -187q256 0 417 186
q148 171 148 416q0 248 -147 417q-162 186 -419 186z" />
    <glyph glyph-name="Idieresis" unicode="&#xcf;" horiz-adv-x="1582" vert-adv-y="2458" 
d="M194 0v1450h1194v-1450h-164v1300h-866v-1300h-164z" />
    <glyph glyph-name="Eth" unicode="&#xd0;" horiz-adv-x="1217" vert-adv-y="2458" 
d="M194 0v1450h336q199 0 299 -29q170 -49 256 -180q68 -102 68 -230q0 -98 -40.5 -185.5t-112.5 -147.5q-89 -74 -202 -96q-110 -22 -243 -22h-197v-560h-164zM358 1300v-590h137q168 0 234 10q151 24 216 117q51 72 51 168q0 116 -72 195t-234 95q-55 5 -195 5h-137z" />
    <glyph glyph-name="Ntilde" unicode="&#xd1;" horiz-adv-x="1359" vert-adv-y="2458" 
d="M1261 114q-90 -60 -155 -86q-136 -55 -283 -55q-289 0 -497 195q-118 111 -178 264q-54 136 -54 288q0 227 115 413q108 175 288 266q154 78 332 78q157 0 296 -62q52 -23 132 -75l-26 -173q-81 68 -145 99q-127 61 -264 61q-209 0 -367 -137q-204 -178 -204 -470
q0 -288 202 -462q158 -135 367 -135q165 0 311 87q56 34 145 116z" />
    <glyph glyph-name="Ograve" unicode="&#xd2;" horiz-adv-x="1255" vert-adv-y="2458" 
d="M710 1300v-1300h-164v1300h-532v150h1227v-150h-531z" />
    <glyph glyph-name="Oacute" unicode="&#xd3;" horiz-adv-x="1313" vert-adv-y="2458" 
d="M425 -27l186 362l-638 1115h191l529 -952l457 952h191l-739 -1450z" />
    <glyph glyph-name="Ocircumflex" unicode="&#xd4;" horiz-adv-x="1606" vert-adv-y="2458" 
d="M721 140q-192 19 -338 105q-145 86 -223 211t-78 274q0 162 95 294q180 247 544 283v143h164v-142q194 -16 342 -103q142 -84 219 -207q78 -123 78 -270q0 -197 -137 -350q-184 -206 -502 -238v-140h-164v140zM721 1171q-172 -21 -280 -94q-202 -135 -202 -353
q0 -142 90 -251q139 -171 392 -196v894zM885 1170v-893q164 20 275 93q102 67 157 165q50 91 50 189q0 136 -93 251q-132 164 -389 195z" />
    <glyph glyph-name="Otilde" unicode="&#xd5;" horiz-adv-x="1385" vert-adv-y="2458" 
d="M172 0h-191l592 762l-572 688h192l476 -573l440 573h191l-535 -683l639 -767h-191l-541 646z" />
    <glyph glyph-name="Odieresis" unicode="&#xd6;" horiz-adv-x="1593" vert-adv-y="2458" 
d="M194 0v1450h164v-1300h866v1300h164v-1300h82v-513l-164 -26v389h-1112z" />
    <glyph glyph-name="multiply" unicode="&#xd7;" horiz-adv-x="1483" vert-adv-y="2458" 
d="M1126 0v669q-217 -27 -385 -27q-263 0 -397 64q-172 81 -222 249q-26 88 -26 274v221h162v-219q0 -152 17 -212q30 -109 125 -163q103 -57 349 -57q201 0 377 31v620h164v-1450h-164z" />
    <glyph glyph-name="Oslash" unicode="&#xd8;" horiz-adv-x="2530" vert-adv-y="2458" 
d="M194 0v1450h164v-1300h825v1300h164v-1300h825v1300h164v-1450h-2142z" />
    <glyph glyph-name="Ugrave" unicode="&#xd9;" horiz-adv-x="2541" vert-adv-y="2458" 
d="M194 0v1450h164v-1300h825v1300h164v-1300h825v1300h164v-1300h82v-513l-164 -26v389h-2060z" />
    <glyph glyph-name="Uacute" unicode="&#xda;" horiz-adv-x="1464" vert-adv-y="2458" 
d="M615 826h235q196 0 293 -38q125 -48 194 -156q63 -98 63 -226q0 -143 -82 -247q-88 -111 -242 -142q-82 -17 -232 -17h-393v1300h-478v150h642v-624zM615 676v-526h274q135 0 201 25q153 58 153 237q0 130 -90 200q-51 39 -107 50q-67 14 -157 14h-274z" />
    <glyph glyph-name="Ucircumflex" unicode="&#xdb;" horiz-adv-x="1621" vert-adv-y="2458" 
d="M358 826h235q196 0 293 -38q125 -48 194 -156q63 -98 63 -226q0 -143 -82 -247q-88 -111 -242 -142q-82 -17 -232 -17h-393v1450h164v-624zM358 676v-526h274q98 0 158 13t103 45q93 66 93 204q0 130 -90 200q-51 39 -107 50q-67 14 -157 14h-274zM1263 0v1450h164v-1450
h-164z" />
    <glyph glyph-name="Udieresis" unicode="&#xdc;" horiz-adv-x="1207" vert-adv-y="2458" 
d="M358 826h235q196 0 293 -38q125 -48 194 -156q63 -98 63 -226q0 -143 -82 -247q-88 -111 -242 -142q-82 -17 -232 -17h-393v1450h164v-624zM358 676v-526h274q98 0 158 13t103 45q93 66 93 204q0 130 -90 200q-51 39 -107 50q-67 14 -157 14h-274z" />
    <glyph glyph-name="Yacute" unicode="&#xdd;" horiz-adv-x="1364" vert-adv-y="2458" 
d="M1111 676h-810v150h804q-27 167 -120 285q-85 106 -204 163q-112 53 -240 53q-152 0 -289 -74q-53 -29 -139 -101l15 200q190 125 407 125q301 0 511 -207q104 -103 162 -241q62 -146 62 -309q0 -221 -111 -403q-118 -192 -324 -283q-140 -61 -294 -61q-163 0 -309 66
q-56 25 -143 86l14 189q90 -84 162 -122q133 -69 280 -69q167 0 306 90q243 159 260 463z" />
    <glyph glyph-name="Thorn" unicode="&#xde;" horiz-adv-x="2006" vert-adv-y="2458" 
d="M473 683h-115v-683h-164v1450h164v-617h119q18 150 88 275q96 170 250 267q165 103 381 103q304 0 509 -215q208 -217 208 -533q0 -320 -208 -538q-210 -219 -514 -219q-235 0 -421 140q-275 206 -297 570zM1190 1328q-258 0 -419 -187q-143 -166 -143 -407
q0 -257 144 -424q161 -187 419 -187q256 0 417 186q148 171 148 417q0 248 -147 416q-162 186 -419 186z" />
    <glyph glyph-name="germandbls" unicode="&#xdf;" horiz-adv-x="1324" vert-adv-y="2458" 
d="M1130 0h-164v593h-298l-446 -593h-202l487 615q-105 27 -172 75q-75 54 -118 136q-46 88 -46 193q0 167 110 282q98 103 256 132q90 17 284 17h309v-1450zM966 1300h-194q-218 0 -301 -40q-64 -31 -101 -88q-42 -66 -42 -151q0 -111 70 -185q61 -66 182 -83
q67 -10 192 -10h194v557z" />
    <glyph glyph-name="dagger" unicode="&#x2020;" horiz-adv-x="969" vert-adv-y="2458" 
d="M406 993h-310v150h310v307h158v-307h310v-150h-310v-993h-158v993z" />
    <glyph glyph-name="degree" unicode="&#xb0;" horiz-adv-x="674" vert-adv-y="2458" 
d="M335 1323q-71 0 -118 -52q-40 -44 -40 -103q0 -71 52 -117q44 -40 104 -40q69 0 116 51q40 45 40 105q0 68 -52 116q-44 40 -102 40zM342 1462q126 0 216 -98q76 -85 76 -199q0 -132 -98 -220q-86 -77 -199 -77q-132 0 -221 98q-76 85 -76 201q0 128 99 218q83 77 203 77
z" />
    <glyph glyph-name="cent" horiz-adv-x="1182" vert-adv-y="2458" 
d="M592 1217v221h164v-216q197 -17 369 -107l-27 -164q-105 53 -172 76q-118 40 -235 40q-211 0 -347 -130q-143 -136 -143 -343q0 -203 138 -339q130 -128 328 -128q158 0 310 76q56 28 159 95l-30 -196q-148 -99 -350 -126v-194h-164v191q-173 17 -305 113
q-113 82 -179 207q-72 137 -72 297q0 216 126 384q153 205 430 243z" />
    <glyph glyph-name="sterling" vert-adv-y="2458" 
d="M112 123q102 18 165 81q105 107 105 302q0 67 -16 143h-254v150h212q-71 189 -71 290q0 167 108 275q114 113 293 113q164 0 290 -101q59 -47 123 -141l-122 -75q-47 62 -85 94q-83 73 -205 73q-109 0 -172 -54q-73 -61 -73 -182q0 -72 38 -179q5 -12 28 -73
q7 -20 15 -40h352v-150h-315q11 -81 11 -142q0 -156 -54 -270q77 -53 122 -75q83 -40 160 -40q84 0 137 50q47 45 99 149l131 -76q-59 -125 -114 -181q-89 -92 -248 -92q-120 0 -249 62q-45 22 -127 71q-101 -104 -284 -132v150z" />
    <glyph glyph-name="section" unicode="&#xa7;" horiz-adv-x="1042" vert-adv-y="2458" 
d="M826 302q67 -47 97 -88q59 -78 59 -170q0 -125 -98 -221q-119 -117 -333 -117q-105 0 -209 33q-70 23 -210 90l-26 205q132 -81 210 -116q139 -62 257 -62q141 0 216 81q37 39 37 93q0 67 -53 113q-54 46 -203 110l-152 64q-171 73 -221 121q-71 68 -71 162
q0 123 108 219q30 26 93 64q-74 39 -112 81q-68 74 -68 183q0 137 99 228q111 102 287 102q168 0 357 -82v-190q-190 122 -363 122q-125 0 -189 -70q-35 -39 -35 -93q0 -62 37 -98q47 -46 190 -109l169 -74q165 -72 221 -126q85 -81 85 -190q0 -99 -80 -185q-30 -31 -99 -80
zM677 375q157 92 157 196q0 75 -140 138l-225 102q-97 -57 -134 -96q-39 -42 -39 -92q0 -33 21 -63q28 -39 126 -82z" />
    <glyph glyph-name="bullet" unicode="&#x2022;" horiz-adv-x="1208" vert-adv-y="2458" 
d="M604 1057q121 0 208 -86t87 -209q0 -121 -87 -209q-88 -88 -210 -88q-96 0 -173 56q-78 57 -107 147q-15 47 -15 92q0 127 87 211q89 86 210 86z" />
    <glyph glyph-name="paragraph" unicode="&#xb6;" horiz-adv-x="1024" vert-adv-y="2458" 
d="M976 1450l-34 -164h-77v-1662l-156 -13v1675h-143v-1682l-156 -14v1166q-83 9 -126 24q-110 39 -170 123q-59 85 -59 199q0 146 94 240q108 108 297 108h530z" />
    <glyph glyph-name="twosuperior" unicode="&#xb2;" horiz-adv-x="552" vert-adv-y="2458" 
d="M194 0v1450h164v-1450h-164z" />
    <glyph glyph-name="registered" unicode="&#xae;" horiz-adv-x="1100" vert-adv-y="2458" 
d="M550 1569q211 0 359 -140q151 -145 151 -368t-151 -368q-147 -140 -358 -140q-212 0 -359 140q-151 145 -151 375q0 143 73 263q74 124 212 189q104 49 224 49zM547 1447q-161 0 -273 -107q-115 -110 -115 -274q0 -174 115 -284q112 -107 273 -107q160 0 272 107
q115 110 115 279q0 172 -115 279t-272 107zM366 777v580h135q98 0 146 -21q103 -45 103 -145q0 -110 -127 -159l187 -255h-132l-176 241h-22v-241h-114zM480 1106h27q77 0 102 20q26 20 26 59q0 33 -20 51q-29 25 -108 25h-27v-155z" />
    <glyph glyph-name="copyright" unicode="&#xa9;" horiz-adv-x="1100" vert-adv-y="2458" 
d="M550 1569q211 0 359 -140q151 -145 151 -368t-151 -368q-147 -140 -358 -140q-212 0 -359 140q-151 145 -151 375q0 143 73 263q74 124 212 189q104 49 224 49zM547 1447q-161 0 -273 -107q-115 -110 -115 -274q0 -174 115 -284q112 -107 273 -107q160 0 272 107
q115 110 115 279q0 172 -115 279t-272 107zM740 810q-86 -57 -174 -57q-116 0 -200 79q-93 89 -93 222q0 135 90 224q83 83 204 83q87 0 172 -55l-11 -127q-80 70 -150 70q-75 0 -130 -54q-56 -56 -56 -140q0 -83 56 -137q54 -53 126 -53q86 0 172 87z" />
    <glyph glyph-name="trademark" unicode="&#x2122;" horiz-adv-x="1671" vert-adv-y="2458" 
d="M312 580v731h-298v139h727v-139h-284v-731h-145zM609 580l239 901l286 -580l286 580l238 -901h-166l-117 485l-241 -525l-244 525l-124 -485h-157z" />
    <glyph glyph-name="afii10051" horiz-adv-x="1624" vert-adv-y="2458" 
d="M594 927q66 87 133 136q144 105 348 105q235 0 352 -136q58 -69 75 -162q13 -72 13 -159v-287q0 -182 -49 -275q-91 -176 -376 -176q-116 0 -250 27l-28 164q126 -41 264 -41q162 0 221 57q54 50 54 162v302q0 145 -7 175q-48 200 -282 200q-192 0 -323 -125
q-103 -99 -132 -238q-12 -56 -13 -166v-490h-164v1300h-430v150h1024v-150h-430v-373z" />
    <glyph glyph-name="afii10099" horiz-adv-x="1557" vert-adv-y="2458" 
d="M492 0h-157v988h-362v150h362v312l157 27v-550q66 87 133 136q144 105 349 105q234 0 351 -136q58 -68 75 -162q13 -72 13 -158v-565q0 -199 -41 -276q-90 -172 -347 -172q-105 0 -239 28l-28 164q126 -42 253 -42q136 0 191 53q54 51 54 163v579q0 131 -11 177
q-24 97 -87 145q-69 53 -198 53q-192 0 -323 -125q-103 -99 -132 -238q-13 -60 -13 -166v-490z" />
    <glyph glyph-name="notequal" unicode="&#x2260;" horiz-adv-x="1106" vert-adv-y="2458" 
d="M902 1166l122 -102l-105 -125h105v-158h-239l-210 -252h449v-158h-580l-195 -231l-121 102l108 129h-154v158h288l212 252h-500v158h632z" />
    <glyph glyph-name="afii10052" horiz-adv-x="1038" vert-adv-y="2458" 
d="M358 0h-164v1450h844v-150h-680v-1300zM872 1920l55 -150l-541 -198l-55 150z" />
    <glyph glyph-name="florin" unicode="&#x192;" horiz-adv-x="1008" vert-adv-y="2458" 
d="M164 0v1138h844v-150h-687v-988h-157zM818 1661l55 -151l-541 -198l-55 151z" />
    <glyph glyph-name="infinity" unicode="&#x221e;" horiz-adv-x="1539" vert-adv-y="2458" 
d="M771 886q38 113 79 162q94 113 233 113q144 0 250 -104q125 -124 125 -332q0 -209 -125 -332q-106 -104 -249 -104q-149 0 -240 124q-49 66 -75 138q-26 -79 -83 -152q-87 -110 -230 -110t-249 104q-125 123 -125 332q0 208 125 332q106 104 249 104q150 0 241 -123
q33 -45 74 -152zM691 726q-33 75 -44 99q-44 94 -89 132q-44 39 -109 39q-91 0 -146 -69q-64 -81 -64 -201t66 -203q56 -71 143 -71q89 0 147 83q28 42 52 92q46 96 44 99zM848 726q59 -136 97 -191q57 -83 147 -83q87 0 143 71q66 83 66 203t-64 201q-55 69 -146 69
q-92 0 -149 -83q-33 -50 -94 -187z" />
    <glyph glyph-name="plusminus" unicode="&#xb1;" horiz-adv-x="1106" vert-adv-y="2458" 
d="M632 926h392v-158h-392v-352h-158v352h-392v158h392v364h158v-364zM82 164v158h942v-158h-942z" />
    <glyph glyph-name="lessequal" unicode="&#x2264;" horiz-adv-x="830" vert-adv-y="2458" 
d="M53 57v158h695v-158h-695zM98 792l517 517l110 -109l-401 -408l401 -408l-110 -110z" />
    <glyph glyph-name="greaterequal" unicode="&#x2265;" horiz-adv-x="830" vert-adv-y="2458" 
d="M82 57v158h695v-158h-695zM754 792l-517 -518l-110 110l401 408l-401 408l110 109z" />
    <glyph glyph-name="threesuperior" unicode="&#xb3;" horiz-adv-x="512" vert-adv-y="2458" 
d="M335 1159v-1159h-157v1133zM256 1476q45 0 77 -32t32 -77t-31 -76q-32 -32 -78 -32q-61 0 -92 51q-16 25 -16 56q0 48 32 79t76 31z" />
    <glyph glyph-name="mu" unicode="&#xb5;" horiz-adv-x="1406" vert-adv-y="2458" 
d="M1086 213q-67 -88 -132 -136q-143 -105 -355 -105q-155 0 -238 58q-18 13 -40 32v-425l-157 -26v1522l157 26v-663q0 -131 11 -176q24 -97 87 -146q70 -53 199 -53q192 0 322 125q104 99 133 238q13 60 13 166v483l157 26v-1159l-157 -26v239z" />
    <glyph glyph-name="partialdiff" unicode="&#x2202;" vert-adv-y="2458" 
d="M761 960q-126 155 -201 238q-82 87 -174 185q-31 33 -63 67h219l72 -84q187 -215 278 -338q92 -124 150 -236q74 -145 74 -309q0 -228 -159 -376q-144 -134 -355 -134q-220 0 -365 139q-150 144 -150 373q0 221 150 365q139 134 351 134q80 0 173 -24zM601 827
q-148 0 -245 -92q-105 -100 -105 -256q0 -161 105 -260q95 -89 245 -89q151 0 246 89q105 99 105 265q0 154 -105 251q-99 92 -246 92z" />
    <glyph glyph-name="sterling" unicode="&#xa3;" horiz-adv-x="812" vert-adv-y="2458" 
d="M-10 168q98 -38 200 -38q147 0 213 63q68 65 68 237v1020h164v-997q0 -247 -120 -363q-113 -109 -311 -109q-93 0 -190 23z" />
    <glyph glyph-name="ordfeminine" unicode="&#xaa;" horiz-adv-x="1364" vert-adv-y="2458" 
d="M253 676q11 -199 126 -341q83 -103 200 -158q113 -54 241 -54q166 0 311 87q56 34 145 116l-14 -212q-91 -60 -155 -86q-136 -55 -284 -55q-289 0 -497 195q-118 111 -178 264q-54 136 -54 288q0 227 115 413q108 175 288 266q154 78 332 78q158 0 297 -62
q51 -23 132 -75l-27 -173q-81 68 -145 99q-127 61 -264 61q-168 0 -306 -91q-213 -141 -257 -410h800v-150h-806z" />
    <glyph glyph-name="ordmasculine" unicode="&#xba;" horiz-adv-x="1198" vert-adv-y="2458" 
d="M242 533q10 -129 78 -228q128 -183 364 -183q151 0 295 73q54 27 152 91l-28 -188q-89 -57 -158 -80q-134 -46 -268 -46q-251 0 -420 166q-174 171 -174 425q0 259 178 433q176 172 451 172q203 0 409 -104l-26 -157q-100 51 -164 73q-112 38 -224 38q-152 0 -265 -72
q-141 -90 -188 -263h718v-150h-730z" />
    <glyph glyph-name="macron" unicode="&#xaf;" horiz-adv-x="552" vert-adv-y="2458" 
d="M193 0v1450h164v-1450h-164zM123 1807q46 0 80 -34q35 -35 35 -85q0 -49 -34 -83q-33 -33 -81 -33q-69 0 -103 56q-17 27 -17 60q0 48 35 83q38 36 85 36zM431 1807q47 0 82 -35t35 -84t-34 -82q-33 -34 -83 -34q-67 0 -101 55q-17 28 -17 61q0 50 35 84q37 35 83 35z
" />
    <glyph glyph-name="questiondown" unicode="&#xbf;" horiz-adv-x="512" vert-adv-y="2458" 
d="M334 1159v-1159h-157v1133zM114 1543q44 0 77 -32q33 -34 33 -81q0 -48 -32 -80q-32 -31 -78 -31q-66 0 -98 53q-16 26 -16 57q0 47 34 80q35 34 80 34zM401 1543q44 0 78 -33q33 -34 33 -80q0 -47 -32 -79t-80 -32q-63 0 -96 53q-16 26 -16 58q0 47 34 80t79 33z" />
    <glyph glyph-name="Scaron" unicode="&#x160;" horiz-adv-x="2078" vert-adv-y="2458" 
d="M1065 1300h-642v-796q-1 -204 -50 -299q-60 -122 -201 -193q-12 -7 -84 -39l-88 143q146 64 191 121q52 62 65 155q3 18 3 231v827h970v-624h235q196 0 293 -38q125 -48 194 -156q63 -98 63 -226q0 -144 -82 -247q-88 -111 -242 -142q-82 -17 -232 -17h-393v1300z
M1229 676v-526h274q135 0 201 25q153 58 153 237q0 130 -90 200q-51 39 -107 50q-67 14 -157 14h-274z" />
    <glyph glyph-name="scaron" unicode="&#x161;" horiz-adv-x="1905" vert-adv-y="2458" 
d="M1085 1138v-469h253q264 0 366 -59q159 -92 159 -279q0 -124 -78 -210q-81 -90 -230 -111q-66 -10 -222 -10h-405v988h-512v-484q-1 -204 -50 -299q-60 -122 -200 -193q-13 -7 -85 -39l-81 136q146 65 191 121q52 62 64 155q4 19 4 231v522h826zM1085 150h290
q182 0 253 38q78 42 78 146q0 105 -78 147q-71 38 -253 38h-290v-369z" />
    <glyph glyph-name="OE" unicode="&#x152;" horiz-adv-x="2237" vert-adv-y="2458" 
d="M1388 676v-526h274q135 0 201 25q153 58 153 237q0 130 -90 200q-51 39 -107 50q-67 14 -157 14h-274zM1224 826v624h164v-624h235q196 0 293 -38q125 -48 194 -156q63 -98 63 -226q0 -143 -82 -247q-88 -111 -242 -142q-82 -17 -232 -17h-393v676h-866v-676h-164v1450
h164v-624h866z" />
    <glyph glyph-name="oe" unicode="&#x153;" horiz-adv-x="1939" vert-adv-y="2458" 
d="M1120 150h290q135 0 193 15q138 35 138 169q0 105 -78 147q-71 38 -253 38h-290v-369zM963 519h-642v-519h-157v1138h157v-469h642v469h157v-469h253q264 0 366 -59q159 -92 159 -278q0 -125 -78 -211q-81 -90 -230 -111q-66 -10 -222 -10h-405v519z" />
    <glyph glyph-name="onequarter" unicode="&#xbc;" horiz-adv-x="512" vert-adv-y="2458" 
d="M335 1159v-1522l-157 -26v1522zM256 1476q45 0 77 -32t32 -77t-31 -76q-32 -32 -78 -32q-61 0 -92 51q-16 26 -16 56q0 48 32 79t76 31z" />
    <glyph glyph-name="onehalf" unicode="&#xbd;" horiz-adv-x="1110" vert-adv-y="2458" 
d="M98 259q120 -66 189 -92q117 -45 236 -45q154 0 239 72q94 80 94 197q0 102 -79 172q-39 34 -156 92l-187 93q-155 76 -225 149q-81 84 -81 206q0 146 103 250q123 125 341 125q171 0 362 -89l-9 -177q-86 46 -133 66q-118 50 -235 50q-104 0 -175 -44q-97 -61 -97 -170
q0 -88 85 -156q45 -36 147 -85l208 -99q155 -74 223 -167q64 -88 64 -206q0 -175 -118 -292q-137 -137 -385 -137q-193 0 -388 87z" />
    <glyph glyph-name="logicalnot" unicode="&#xac;" horiz-adv-x="1706" vert-adv-y="2458" 
d="M254 862h1198v-502h-166v336h-1032v166z" />
    <glyph glyph-name="radical" unicode="&#x221a;" horiz-adv-x="1450" vert-adv-y="2458" 
d="M1437 1798v-172h-405l-466 -1626h-210l-170 617h-179v172h292l159 -584l436 1593h543z" />
    <glyph glyph-name="florin" vert-adv-y="2458" 
d="M431 -368l-164 -41l188 1065h-201v150h227l85 484q26 146 106 226q96 98 251 98q69 0 161 -22l-45 -144q-56 14 -102 14q-101 0 -153 -47q-46 -43 -64 -142l-82 -467h326v-150h-352z" />
    <glyph glyph-name="approxequal" unicode="&#x2248;" horiz-adv-x="1106" vert-adv-y="2458" 
d="M946 375q-55 -48 -92 -68q-76 -41 -163 -41q-59 0 -106 19l-80 32q-63 26 -111 26q-69 0 -161 -68l-72 128q55 48 92 68q76 41 162 41q60 0 107 -19l80 -33q63 -25 110 -25q70 0 162 68zM946 785q-55 -48 -92 -69q-76 -41 -163 -41q-58 0 -106 20l-80 32q-62 25 -111 25
q-69 0 -161 -67l-72 127q55 48 92 68q76 41 162 41q62 0 107 -18l80 -33q64 -26 110 -26q70 0 162 68z" />
    <glyph glyph-name="Delta" unicode="&#x2206;" horiz-adv-x="1380" vert-adv-y="2458" 
d="M1401 0h-1421l730 1502zM248 162h895l-446 965z" />
    <glyph glyph-name="guillemotleft" unicode="&#xab;" horiz-adv-x="896" vert-adv-y="2458" 
d="M82 655l252 311l114 -91l-183 -220l183 -220l-114 -91zM469 655l225 278l120 -80l-159 -198l159 -197l-120 -81z" />
    <glyph glyph-name="guillemotright" unicode="&#xbb;" horiz-adv-x="896" vert-adv-y="2458" 
d="M814 655l-252 -311l-114 91l183 220l-183 220l114 91zM427 655l-225 -278l-120 81l159 197l-159 198l120 80z" />
    <glyph glyph-name="ellipsis" unicode="&#x2026;" horiz-adv-x="1608" vert-adv-y="2458" 
d="M269 182q42 0 73 -31q31 -30 31 -74q0 -43 -30 -73q-32 -31 -75 -31q-57 0 -88 50q-16 25 -16 54q0 43 32 74q31 31 73 31zM805 182q43 0 73 -31q31 -30 31 -74q0 -42 -30 -73q-31 -31 -75 -31q-57 0 -88 50q-16 25 -16 54q0 43 32 74q31 31 73 31zM1341 182q43 0 73 -31
q31 -30 31 -74q0 -43 -30 -73q-32 -31 -75 -31q-57 0 -88 50q-16 25 -16 54q0 43 32 74q31 31 73 31z" />
    <glyph glyph-name="glyph172" vert-adv-y="1203" 
 />
    <glyph glyph-name="afii10060" horiz-adv-x="1624" vert-adv-y="2458" 
d="M594 927q66 87 133 136q144 105 348 105q235 0 352 -136q58 -68 75 -162q13 -72 13 -158v-712h-164v644q0 145 -7 175q-48 200 -282 200q-192 0 -323 -125q-104 -99 -132 -238q-12 -56 -13 -166v-490h-164v1300h-430v150h1024v-150h-430v-373z" />
    <glyph glyph-name="afii10108" horiz-adv-x="1557" vert-adv-y="2458" 
d="M492 0h-157v988h-362v150h362v312l157 27v-550q66 87 133 136q144 105 349 105q234 0 351 -136q59 -68 75 -162q13 -72 13 -158v-712h-157v644q0 131 -11 177q-24 97 -87 145q-69 53 -198 53q-192 0 -323 -125q-103 -99 -132 -237q-13 -61 -13 -167v-490z" />
    <glyph glyph-name="afii10061" horiz-adv-x="1393" vert-adv-y="2458" 
d="M194 0v1450h164v-679l781 679h218l-818 -703l888 -747h-220l-849 709v-709h-164zM1053 1920l55 -150l-541 -198l-55 150z" />
    <glyph glyph-name="afii10109" horiz-adv-x="1246" vert-adv-y="2458" 
d="M321 587v-587h-157v1138h157v-496l567 496h213l-592 -511l765 -627h-232zM842 1661l55 -151l-541 -198l-55 151z" />
    <glyph glyph-name="threequarters" unicode="&#xbe;" horiz-adv-x="1016" vert-adv-y="2458" 
d="M108 243q218 -121 399 -121q150 0 223 68q40 37 40 100q0 66 -45 106q-50 46 -169 95l-161 67q-167 69 -223 132q-59 67 -59 158q0 129 104 216q123 104 322 104q138 0 306 -65l-3 -173q-101 50 -161 66q-76 21 -154 21q-153 0 -225 -75q-32 -34 -32 -82q0 -66 69 -110
q44 -28 137 -64l161 -64q131 -51 200 -115q90 -81 90 -216q0 -138 -98 -219q-120 -100 -332 -100q-179 0 -364 92z" />
    <glyph glyph-name="endash" unicode="&#x2013;" horiz-adv-x="1106" vert-adv-y="2458" 
d="M82 577v158h942v-158h-942z" />
    <glyph glyph-name="emdash" unicode="&#x2014;" horiz-adv-x="1993" vert-adv-y="2458" 
d="M41 577v158h1911v-158h-1911z" />
    <glyph glyph-name="quotedblleft" unicode="&#x201c;" horiz-adv-x="1009" vert-adv-y="2458" 
d="M917 1450l-173 -528h-176l207 528h142zM486 1450l-172 -528h-222l252 528h142z" />
    <glyph glyph-name="quotedblright" unicode="&#x201d;" horiz-adv-x="964" vert-adv-y="2458" 
d="M92 922l172 528h177l-207 -528h-142zM523 922l172 528h177l-207 -528h-142z" />
    <glyph glyph-name="quoteleft" unicode="&#x2018;" horiz-adv-x="533" vert-adv-y="2458" 
d="M441 1450l-172 -528h-177l207 528h142z" />
    <glyph glyph-name="quoteright" unicode="&#x2019;" horiz-adv-x="533" vert-adv-y="2458" 
d="M92 922l172 528h177l-207 -528h-142z" />
    <glyph glyph-name="divide" horiz-adv-x="1106" vert-adv-y="2458" 
d="M554 337q42 0 73 -31q30 -30 30 -74q0 -43 -30 -73q-31 -31 -74 -31q-58 0 -90 51q-15 25 -15 52q0 44 31 74q32 32 75 32zM554 1190q42 0 73 -31q30 -30 30 -74q0 -43 -30 -73q-31 -31 -74 -31q-58 0 -90 51q-15 25 -15 52q0 44 31 74q32 32 75 32zM82 577v158h942v-158
h-942z" />
    <glyph glyph-name="quotedblbase" unicode="&#x201e;" horiz-adv-x="939" vert-adv-y="2458" 
d="M38 -340l172 528h177l-207 -528h-142zM469 -340l172 528h177l-207 -528h-142z" />
    <glyph glyph-name="exclamdown" unicode="&#xa1;" horiz-adv-x="1318" vert-adv-y="2458" 
d="M-27 1450h191l537 -1032l459 1032h185l-673 -1450l-176 -27l126 274zM1042 1753q-66 -60 -108 -85q-118 -70 -272 -70q-165 0 -288 81q-34 23 -91 74l93 111q68 -51 112 -72q87 -41 174 -41q99 0 194 51q35 18 93 62z" />
    <glyph glyph-name="cent" unicode="&#xa2;" horiz-adv-x="1117" vert-adv-y="2458" 
d="M0 1138h177l390 -946l372 946h178l-613 -1502l-183 -26l164 390zM951 1465q-67 -59 -109 -84q-118 -70 -271 -70q-166 0 -289 81q-34 22 -91 73l93 112q68 -51 112 -72q87 -41 175 -41q99 0 194 51q34 18 93 62z" />
    <glyph glyph-name="afii10145" horiz-adv-x="1582" vert-adv-y="2458" 
d="M194 0v1450h164v-1300h866v1300h164v-1450h-515v-363l-164 -26v389h-515z" />
    <glyph glyph-name="Ydieresis" unicode="&#x178;" horiz-adv-x="1420" vert-adv-y="2458" 
d="M164 0v1138h157v-988h778v988h157v-1138h-461v-363l-157 -26v389h-474z" />
    <glyph glyph-name="onesuperior" unicode="&#xb9;" horiz-adv-x="2864" vert-adv-y="2458" 
d="M194 0v1502l1044 -1142v1090h164v-1505l-1044 1147v-1092h-164zM2165 1477q256 0 428 -171q82 -80 128 -190q47 -114 47 -236q0 -172 -89 -318q-85 -138 -228 -212q-131 -67 -287 -67q-260 0 -433 173q-80 80 -126 188q-47 113 -47 229q0 179 88 325q83 136 229 212
q131 67 290 67zM2163 1327q-169 0 -291 -102q-91 -76 -131 -189q-26 -73 -26 -150q0 -219 157 -351q122 -102 292 -102q168 0 290 102q157 132 157 345q0 132 -66 240q-72 118 -203 173q-82 34 -179 34zM1643 0v158h1051v-158h-1051z" />
    <glyph glyph-name="dieresis" unicode="&#xa8;" horiz-adv-x="1174" vert-adv-y="2458" 
d="M194 0v1450h844v-150h-680v-474h596v-150h-596v-526h690v-150h-854zM317 1807q46 0 80 -34q35 -35 35 -85q0 -49 -34 -83q-33 -33 -81 -33q-69 0 -103 56q-17 27 -17 60q0 48 35 83q38 36 85 36zM917 1807q47 0 82 -35t35 -83q0 -50 -34 -83q-33 -34 -83 -34
q-67 0 -101 55q-17 28 -17 61q0 50 35 84q37 35 83 35z" />
    <glyph glyph-name="cedilla" unicode="&#xb8;" horiz-adv-x="1286" vert-adv-y="2458" 
d="M1142 305l-9 -185q-111 -64 -173 -90q-138 -57 -285 -57q-262 0 -427 163t-165 425q0 258 164 427q82 85 194 132q113 48 237 48q220 0 368 -138q157 -147 157 -372q0 -41 -5 -108l-944 -61q15 -90 53 -158q49 -89 136 -143q104 -65 232 -65q144 0 304 82q58 30 163 100z
M1039 680q-5 82 -37 149q-45 95 -140 147q-81 44 -182 44q-160 0 -282 -100q-123 -100 -146 -292zM406 1543q44 0 77 -32q33 -34 33 -81q0 -48 -32 -80q-32 -31 -78 -31q-66 0 -98 53q-16 27 -16 57q0 47 34 80q35 34 80 34zM926 1543q44 0 78 -33q33 -34 33 -80
q0 -47 -32 -79t-80 -32q-63 0 -95 53q-17 27 -17 58q0 47 34 80t79 33z" />
    <glyph glyph-name="ydieresis" unicode="&#xff;" horiz-adv-x="1257" vert-adv-y="2458" 
d="M1093 0h-157v469h-267l-432 -469h-210l467 484q-99 13 -164 43q-86 41 -130 117q-43 73 -43 162q0 147 105 237q90 77 253 90q51 5 281 5h297v-1138zM935 619v369h-290q-182 0 -253 -38q-78 -42 -78 -147q0 -104 78 -146q71 -38 253 -38h290z" />
    <glyph glyph-name="agrave" unicode="&#xe0;" horiz-adv-x="1396" vert-adv-y="2458" 
d="M1245 0l-162 -26q-13 52 -18 93q-112 -46 -171 -64q-103 -30 -223 -30q-186 0 -307 71q-130 77 -206 214q-76 136 -76 297q0 269 196 448q180 165 453 165q127 0 332 -41l155 32v-909q4 -162 27 -250zM1060 217v759q-183 42 -305 42q-160 0 -254 -45q-128 -60 -198 -178
q-64 -107 -64 -238q0 -201 136 -329q112 -105 307 -105q132 0 247 41q41 14 131 53z" />
    <glyph glyph-name="aacute" unicode="&#xe1;" horiz-adv-x="1377" vert-adv-y="2458" 
d="M688 1017q-169 0 -291 -102q-91 -76 -131 -189q-26 -73 -26 -150q0 -219 157 -351q122 -102 292 -102q168 0 290 102q157 132 157 345q0 132 -66 240q-72 118 -203 173q-82 34 -179 34zM918 1450l173 26q-30 -114 -68 -153q-58 -58 -159 -80q-61 -13 -178 -21
q-145 -10 -195 -28q-91 -32 -156 -116q-16 -20 -51 -79q63 54 114 83q126 72 297 72q261 0 423 -157q81 -78 128 -191q47 -114 47 -236q0 -172 -89 -318q-85 -138 -228 -212q-131 -67 -287 -67q-206 0 -364 114q-176 128 -222 341q-23 105 -23 227q0 198 64 355
q91 226 282 301q92 37 270 49q128 9 169 28q20 9 30.5 21t22.5 41z" />
    <glyph glyph-name="acircumflex" unicode="&#xe2;" horiz-adv-x="1182" vert-adv-y="2458" 
d="M164 0v1138h421q187 0 271 -27q216 -68 216 -274q0 -108 -73 -175q-40 -37 -118 -63q219 -58 219 -267q0 -125 -79 -211q-81 -90 -230 -111q-66 -10 -222 -10h-405zM321 988v-326h253q152 0 205 11q136 28 136 152q0 88 -73 130q-36 22 -108 29q-45 4 -160 4h-253z
M321 150h290q183 0 254 38q78 42 78 146q0 105 -78 147q-71 38 -254 38h-290v-369z" />
    <glyph glyph-name="atilde" unicode="&#xe3;" horiz-adv-x="1008" vert-adv-y="2458" 
d="M164 0v1138h844v-150h-687v-988h-157z" />
    <glyph glyph-name="adieresis" unicode="&#xe4;" horiz-adv-x="1311" vert-adv-y="2458" 
d="M14 -389v539q132 27 176 68q44 40 57 102q5 26 6 207v611h881v-988h81v-513l-157 -26v389h-887v-363zM292 150h685v838h-567v-601q0 -101 -28 -155q-23 -44 -90 -82z" />
    <glyph glyph-name="aring" unicode="&#xe5;" horiz-adv-x="1286" vert-adv-y="2458" 
d="M1142 305l-9 -185q-111 -64 -173 -90q-138 -57 -285 -57q-262 0 -427 163t-165 425q0 258 164 427q82 85 194 132q113 48 237 48q220 0 368 -138q157 -147 157 -372q0 -41 -5 -108l-944 -61q15 -90 53 -158q49 -89 136 -143q104 -65 232 -65q144 0 304 82q58 30 163 100z
M1039 680q-5 82 -37 149q-45 95 -140 147q-81 44 -182 44q-160 0 -282 -100q-123 -100 -146 -292z" />
    <glyph glyph-name="ae" unicode="&#xe6;" horiz-adv-x="2008" vert-adv-y="2458" 
d="M1083 0h-157v587l-722 -587h-231l764 627l-592 511h214l567 -496v496h157v-496l566 496h214l-592 -511l764 -627h-231l-721 587v-587z" />
    <glyph glyph-name="ccedilla" unicode="&#xe7;" horiz-adv-x="1081" vert-adv-y="2458" 
d="M147 277q65 -60 114 -90q104 -64 250 -64q172 0 266 86q51 47 51 120q0 91 -93 146q-85 51 -315 51h-59v144h73q164 0 249 26q111 35 111 137q0 90 -84 140q-73 45 -182 45q-144 0 -258 -81q-34 -25 -90 -76l-106 110q78 74 145 114q137 83 306 83q191 0 317 -101
q109 -88 109 -218q0 -108 -72 -179q-38 -37 -123 -71q86 -33 128 -66q101 -82 101 -213q0 -141 -115 -236q-134 -111 -360 -111q-221 0 -379 111q-40 27 -90 73z" />
    <glyph glyph-name="egrave" unicode="&#xe8;" horiz-adv-x="1420" vert-adv-y="2458" 
d="M1256 0h-157v840l-935 -881v1179h157v-838l935 879v-1179z" />
    <glyph glyph-name="eacute" unicode="&#xe9;" horiz-adv-x="1420" vert-adv-y="2458" 
d="M1256 0h-157v840l-935 -881v1179h157v-838l935 879v-1179zM1105 1465q-67 -59 -109 -84q-117 -70 -271 -70q-165 0 -289 81q-33 22 -91 73l94 112q68 -51 111 -72q87 -41 175 -41q99 0 194 51q34 18 93 62z" />
    <glyph glyph-name="ecircumflex" unicode="&#xea;" horiz-adv-x="1246" vert-adv-y="2458" 
d="M321 587v-587h-157v1138h157v-496l567 496h213l-592 -511l765 -627h-232z" />
    <glyph glyph-name="edieresis" unicode="&#xeb;" horiz-adv-x="1399" vert-adv-y="2458" 
d="M0 109q146 65 191 121q52 62 64 155q4 19 4 231v522h963v-1138h-157v988h-649v-484q-1 -203 -50 -299q-60 -122 -200 -193q-13 -7 -85 -39z" />
    <glyph glyph-name="igrave" unicode="&#xec;" horiz-adv-x="1584" vert-adv-y="2458" 
d="M27 0l295 1182l471 -916l470 916l293 -1182h-164l-178 771l-420 -814l-426 814l-177 -771h-164z" />
    <glyph glyph-name="iacute" unicode="&#xed;" horiz-adv-x="1420" vert-adv-y="2458" 
d="M164 0v1138h157v-455h778v455h157v-1138h-157v533h-778v-533h-157z" />
    <glyph glyph-name="icircumflex" unicode="&#xee;" horiz-adv-x="1377" vert-adv-y="2458" 
d="M690 1168q256 0 428 -171q82 -81 128 -191q47 -113 47 -236q0 -172 -89 -318q-85 -138 -228 -212q-131 -67 -287 -67q-260 0 -433 173q-80 80 -126 188q-47 113 -47 229q0 180 88 326q83 136 229 212q131 67 290 67zM688 1018q-169 0 -291 -102q-91 -76 -131 -189
q-26 -74 -26 -150q0 -220 157 -352q122 -102 292 -102q168 0 290 102q157 132 157 346q0 132 -66 240q-72 118 -203 173q-82 34 -179 34z" />
    <glyph glyph-name="idieresis" unicode="&#xef;" horiz-adv-x="1420" vert-adv-y="2458" 
d="M164 0v1138h1092v-1138h-157v988h-778v-988h-157z" />
    <glyph glyph-name="eth" unicode="&#xf0;" horiz-adv-x="1382" vert-adv-y="2458" 
d="M137 1140l162 26q13 -52 18 -93q112 47 171 64q104 31 223 31q186 0 307 -71q130 -76 206 -214q76 -136 76 -296q0 -270 -196 -451q-176 -163 -441 -163q-166 0 -341 54v-390l-158 -26v1279q-4 161 -27 250zM322 923v-746q171 -54 321 -54q205 0 335 106q165 135 165 354
q0 202 -136 330q-112 105 -302 105q-128 0 -252 -41q-49 -16 -131 -54z" />
    <glyph glyph-name="ntilde" unicode="&#xf1;" horiz-adv-x="1198" vert-adv-y="2458" 
d="M1102 98q-88 -57 -158 -80q-133 -46 -268 -46q-250 0 -419 165q-174 172 -174 426q0 259 178 433q177 172 451 172q203 0 409 -104l-26 -157q-101 51 -165 73q-112 38 -223 38q-201 0 -331 -124q-136 -129 -136 -326q0 -194 131 -323q125 -123 313 -123q150 0 295 73
q53 26 152 90z" />
    <glyph glyph-name="ograve" unicode="&#xf2;" horiz-adv-x="997" vert-adv-y="2458" 
d="M573 988v-988h-150v988h-423v150h997v-150h-424z" />
    <glyph glyph-name="oacute" unicode="&#xf3;" horiz-adv-x="1117" vert-adv-y="2458" 
d="M0 1138h177l390 -946l372 946h178l-613 -1502l-183 -26l164 390z" />
    <glyph glyph-name="ocircumflex" unicode="&#xf4;" horiz-adv-x="1377" vert-adv-y="2458" 
d="M610 -23q-160 19 -284 109q-112 81 -176 206q-67 131 -67 279q0 197 114 355q145 199 413 237v287l157 26v-313q161 -19 285 -109q111 -81 175 -206q67 -131 67 -278q0 -198 -115 -357q-148 -205 -412 -236v-340l-157 -26v366zM610 1011q-87 -14 -159 -57
q-111 -67 -167 -185q-44 -91 -44 -199q0 -159 93 -278q105 -135 277 -163v882zM767 1011v-882q87 14 159 58q111 66 167 184q44 91 44 199q0 159 -93 278q-105 135 -277 163z" />
    <glyph glyph-name="otilde" unicode="&#xf5;" horiz-adv-x="1209" vert-adv-y="2458" 
d="M0 0l512 601l-451 537h205l342 -424l347 424h205l-457 -540l506 -598h-205l-393 491l-406 -491h-205z" />
    <glyph glyph-name="odieresis" unicode="&#xf6;" horiz-adv-x="1434" vert-adv-y="2458" 
d="M164 0v1138h157v-988h778v988h157v-988h82v-513l-157 -26v389h-1017z" />
    <glyph glyph-name="divide" unicode="&#xf7;" horiz-adv-x="1339" vert-adv-y="2458" 
d="M1018 0v494q-180 -23 -325 -23q-250 0 -372 57q-160 75 -211 241q-27 88 -27 241v128h157v-105q0 -146 15 -203q26 -101 119 -151q95 -51 325 -51q183 0 319 27v483h157v-1138h-157z" />
    <glyph glyph-name="oslash" unicode="&#xf8;" horiz-adv-x="2355" vert-adv-y="2458" 
d="M164 0v1138h157v-988h778v988h157v-988h779v988h157v-1138h-2028z" />
    <glyph glyph-name="ugrave" unicode="&#xf9;" horiz-adv-x="2369" vert-adv-y="2458" 
d="M164 0v1138h157v-988h778v988h157v-988h779v988h157v-988h81v-513l-157 -26v389h-1952z" />
    <glyph glyph-name="uacute" unicode="&#xfa;" horiz-adv-x="1509" vert-adv-y="2458" 
d="M532 0v988h-546v150h703v-469h253q264 0 366 -59q159 -92 159 -279q0 -124 -78 -210q-81 -90 -230 -111q-66 -10 -222 -10h-405zM689 150h290q135 0 193 15q138 35 138 169q0 105 -78 147q-71 38 -253 38h-290v-369z" />
    <glyph glyph-name="ucircumflex" unicode="&#xfb;" horiz-adv-x="1581" vert-adv-y="2458" 
d="M164 0v1138h157v-469h253q264 0 366 -59q159 -92 159 -279q0 -124 -78 -210q-81 -90 -230 -111q-66 -10 -222 -10h-405zM321 150h290q135 0 193 15q138 35 138 169q0 105 -78 147q-71 38 -253 38h-290v-369zM1417 1138v-1138h-157v1138h157z" />
    <glyph glyph-name="udieresis" unicode="&#xfc;" horiz-adv-x="1140" vert-adv-y="2458" 
d="M164 0v1138h157v-469h253q264 0 366 -59q159 -92 159 -279q0 -124 -78 -210q-81 -90 -230 -111q-66 -10 -222 -10h-405zM321 150h290q135 0 193 15q138 35 138 169q0 105 -78 147q-71 38 -253 38h-290v-369z" />
    <glyph glyph-name="yacute" unicode="&#xfd;" horiz-adv-x="1193" vert-adv-y="2458" 
d="M952 533h-733v150h720q-23 86 -68 150q-133 185 -385 185q-167 0 -374 -104l14 177q180 77 354 77q276 0 452 -172q178 -174 178 -433q0 -254 -174 -425q-168 -166 -419 -166q-152 0 -295 55q-61 24 -155 88l11 161q105 -68 169 -97q127 -57 262 -57q140 0 246 69
q179 116 197 342z" />
    <glyph glyph-name="thorn" unicode="&#xfe;" horiz-adv-x="1707" vert-adv-y="2458" 
d="M415 533h-94v-533h-157v1138h157v-455h103q26 136 104 243q80 112 203 175q131 67 288 67q259 0 430 -171q82 -81 128 -190q47 -114 47 -236q0 -172 -89 -319q-85 -138 -228 -212q-131 -67 -287 -67q-207 0 -364 114q-165 119 -221 322q-16 60 -20 124zM1019 1018
q-169 0 -291 -102q-91 -76 -131 -189q-26 -74 -26 -150q0 -220 157 -352q122 -102 292 -102q168 0 290 102q157 132 157 346q0 132 -66 240q-72 118 -203 173q-82 34 -179 34z" />
    <glyph glyph-name="currency" unicode="&#xa4;" horiz-adv-x="1241" vert-adv-y="2458" 
d="M969 1124q3 -6 14 -21q64 -88 64 -218q0 -131 -64 -219q-11 -14 -14 -20l205 -207l-104 -104l-205 205q-5 -3 -21 -15q-88 -64 -222 -64q-133 0 -222 64q-15 12 -21 15l-205 -205l-103 104l205 207q-4 6 -14 20q-64 88 -64 219q0 130 64 218l14 21l-205 207l103 103
l205 -205q6 4 21 15q89 65 222 65t222 -65q15 -11 21 -15l205 205l104 -103zM623 1165q-114 0 -198 -83q-82 -82 -82 -198q0 -114 81 -195q82 -81 199 -81q116 0 197 81q82 81 82 196q0 89 -54 163q-85 117 -225 117z" />
    <glyph glyph-name="nonbreakingspace" unicode="&#xa0;" horiz-adv-x="588" vert-adv-y="2458" 
 />
    <glyph glyph-name="yen" unicode="&#xa5;" horiz-adv-x="1051" vert-adv-y="2458" 
d="M358 0h-164v1450h680v137l164 27v-314h-680v-1300z" />
    <glyph glyph-name="brokenbar" unicode="&#xa6;" horiz-adv-x="1024" vert-adv-y="2458" 
d="M590 -410h-157v815h157v-815zM433 1450h157v-772h-157v772z" />
    <glyph glyph-name="sfthyphen" unicode="&#xad;" horiz-adv-x="522" vert-adv-y="2458" 
d="M0 577v158h522v-158h-522z" />
    <glyph glyph-name="acute" unicode="&#xb4;" horiz-adv-x="1008" vert-adv-y="2458" 
d="M164 0v1138h687v137l157 27v-314h-687v-988h-157z" />
    <glyph glyph-name="middot" unicode="&#xb7;" horiz-adv-x="588" vert-adv-y="2458" 
d="M295 823q42 0 73 -31q31 -30 31 -74q0 -43 -30 -73q-32 -31 -75 -31q-57 0 -88 50q-16 25 -16 54q0 43 32 74q31 31 73 31z" />
    <glyph glyph-name="semicolon" unicode="&#x37e;" horiz-adv-x="573" vert-adv-y="2458" 
d="M37 -340l172 528h177l-207 -528h-142zM305 887q43 0 73 -30q31 -31 31 -74t-30 -73q-31 -31 -74 -31q-57 0 -89 50q-15 25 -15 53q0 44 31 74q32 31 73 31z" />
    <glyph glyph-name="afii10023" unicode="&#x401;" horiz-adv-x="1174" vert-adv-y="2458" 
d="M194 0v1450h844v-150h-680v-474h596v-150h-596v-526h690v-150h-854zM317 1807q46 0 80 -34q35 -35 35 -85q0 -49 -34 -83q-33 -33 -81 -33q-69 0 -103 56q-17 27 -17 60q0 48 35 83q38 36 85 36zM917 1807q47 0 82 -35t35 -83q0 -50 -34 -83q-33 -34 -83 -34
q-67 0 -101 55q-17 28 -17 61q0 50 35 84q37 35 83 35z" />
    <glyph glyph-name="afii10051" unicode="&#x402;" horiz-adv-x="1624" vert-adv-y="2458" 
d="M594 927q66 87 133 136q144 105 348 105q235 0 352 -136q58 -69 75 -162q13 -72 13 -159v-287q0 -182 -49 -275q-91 -176 -376 -176q-116 0 -250 27l-28 164q126 -41 264 -41q162 0 221 57q54 50 54 162v302q0 145 -7 175q-48 200 -282 200q-192 0 -323 -125
q-103 -99 -132 -238q-12 -56 -13 -166v-490h-164v1300h-430v150h1024v-150h-430v-373z" />
    <glyph glyph-name="afii10052" unicode="&#x403;" horiz-adv-x="1038" vert-adv-y="2458" 
d="M358 0h-164v1450h844v-150h-680v-1300zM872 1920l55 -150l-541 -198l-55 150z" />
    <glyph glyph-name="afii10053" unicode="&#x404;" horiz-adv-x="1364" vert-adv-y="2458" 
d="M253 676q11 -199 126 -341q83 -103 200 -158q113 -54 241 -54q166 0 311 87q56 34 145 116l-14 -212q-91 -60 -155 -86q-136 -55 -284 -55q-289 0 -497 195q-118 111 -178 264q-54 136 -54 288q0 227 115 413q108 175 288 266q154 78 332 78q158 0 297 -62
q51 -23 132 -75l-27 -173q-81 68 -145 99q-127 61 -264 61q-168 0 -306 -91q-213 -141 -257 -410h800v-150h-806z" />
    <glyph glyph-name="afii10054" unicode="&#x405;" horiz-adv-x="1110" vert-adv-y="2458" 
d="M98 259q120 -66 189 -92q117 -45 236 -45q154 0 239 72q94 80 94 197q0 102 -79 172q-39 34 -156 92l-187 93q-155 76 -225 149q-81 84 -81 206q0 146 103 250q123 125 341 125q171 0 362 -89l-9 -177q-86 46 -133 66q-118 50 -235 50q-104 0 -175 -44q-97 -61 -97 -170
q0 -88 85 -156q45 -36 147 -85l208 -99q155 -74 223 -167q64 -88 64 -206q0 -175 -118 -292q-137 -137 -385 -137q-193 0 -388 87z" />
    <glyph glyph-name="afii10055" unicode="&#x406;" horiz-adv-x="552" vert-adv-y="2458" 
d="M194 0v1450h164v-1450h-164z" />
    <glyph glyph-name="afii10056" unicode="&#x407;" horiz-adv-x="552" vert-adv-y="2458" 
d="M193 0v1450h164v-1450h-164zM123 1807q46 0 80 -34q35 -35 35 -85q0 -49 -34 -83q-33 -33 -81 -33q-69 0 -103 56q-17 27 -17 60q0 48 35 83q38 36 85 36zM431 1807q47 0 82 -35t35 -84t-34 -82q-33 -34 -83 -34q-67 0 -101 55q-17 28 -17 61q0 50 35 84q37 35 83 35z
" />
    <glyph glyph-name="afii10057" unicode="&#x408;" horiz-adv-x="812" vert-adv-y="2458" 
d="M-10 168q98 -38 200 -38q147 0 213 63q68 65 68 237v1020h164v-997q0 -247 -120 -363q-113 -109 -311 -109q-93 0 -190 23z" />
    <glyph glyph-name="afii10058" unicode="&#x409;" horiz-adv-x="2078" vert-adv-y="2458" 
d="M1065 1300h-642v-796q-1 -204 -50 -299q-60 -122 -201 -193q-12 -7 -84 -39l-88 143q146 64 191 121q52 62 65 155q3 18 3 231v827h970v-624h235q196 0 293 -38q125 -48 194 -156q63 -98 63 -226q0 -144 -82 -247q-88 -111 -242 -142q-82 -17 -232 -17h-393v1300z
M1229 676v-526h274q135 0 201 25q153 58 153 237q0 130 -90 200q-51 39 -107 50q-67 14 -157 14h-274z" />
    <glyph glyph-name="afii10059" unicode="&#x40a;" horiz-adv-x="2237" vert-adv-y="2458" 
d="M1388 676v-526h274q135 0 201 25q153 58 153 237q0 130 -90 200q-51 39 -107 50q-67 14 -157 14h-274zM1224 826v624h164v-624h235q196 0 293 -38q125 -48 194 -156q63 -98 63 -226q0 -143 -82 -247q-88 -111 -242 -142q-82 -17 -232 -17h-393v676h-866v-676h-164v1450
h164v-624h866z" />
    <glyph glyph-name="afii10060" unicode="&#x40b;" horiz-adv-x="1624" vert-adv-y="2458" 
d="M594 927q66 87 133 136q144 105 348 105q235 0 352 -136q58 -68 75 -162q13 -72 13 -158v-712h-164v644q0 145 -7 175q-48 200 -282 200q-192 0 -323 -125q-104 -99 -132 -238q-12 -56 -13 -166v-490h-164v1300h-430v150h1024v-150h-430v-373z" />
    <glyph glyph-name="afii10061" unicode="&#x40c;" horiz-adv-x="1393" vert-adv-y="2458" 
d="M194 0v1450h164v-679l781 679h218l-818 -703l888 -747h-220l-849 709v-709h-164zM1053 1920l55 -150l-541 -198l-55 150z" />
    <glyph glyph-name="afii10062" unicode="&#x40e;" horiz-adv-x="1318" vert-adv-y="2458" 
d="M-27 1450h191l537 -1032l459 1032h185l-673 -1450l-176 -27l126 274zM1042 1753q-66 -60 -108 -85q-118 -70 -272 -70q-165 0 -288 81q-34 23 -91 74l93 111q68 -51 112 -72q87 -41 174 -41q99 0 194 51q35 18 93 62z" />
    <glyph glyph-name="afii10145" unicode="&#x40f;" horiz-adv-x="1582" vert-adv-y="2458" 
d="M194 0v1450h164v-1300h866v1300h164v-1450h-515v-363l-164 -26v389h-515z" />
    <glyph glyph-name="afii10017" unicode="&#x410;" horiz-adv-x="1380" vert-adv-y="2458" 
d="M157 0h-177l724 1501l697 -1501h-174l-137 300h-792zM366 450h658l-320 730z" />
    <glyph glyph-name="afii10018" unicode="&#x411;" horiz-adv-x="1210" vert-adv-y="2458" 
d="M358 826h235q196 0 293 -38q125 -48 194 -156q63 -98 63 -226q0 -143 -82 -247q-88 -111 -242 -142q-82 -17 -232 -17h-393v1450h844v-150h-680v-474zM358 676v-526h274q98 0 158 13t103 45q93 66 93 204q0 130 -90 200q-51 39 -107 50q-67 14 -157 14h-274z" />
    <glyph glyph-name="afii10019" unicode="&#x412;" horiz-adv-x="1260" vert-adv-y="2458" 
d="M194 0v1450h410q244 0 362 -80q75 -50 113 -136q31 -69 31 -152q0 -147 -95 -241q-43 -42 -131 -80q84 -32 131 -69q128 -101 128 -283q0 -147 -82 -250q-88 -111 -242 -142q-82 -17 -232 -17h-393zM358 1300v-467h235q166 0 243 40q117 61 117 207q0 132 -105 182
q-79 38 -255 38h-235zM358 683v-533h274q98 0 158 13t103 45q93 66 93 204q0 137 -90 207q-51 39 -107 50q-67 14 -157 14h-274z" />
    <glyph glyph-name="afii10020" unicode="&#x413;" horiz-adv-x="1038" vert-adv-y="2458" 
d="M358 0h-164v1450h844v-150h-680v-1300z" />
    <glyph glyph-name="afii10021" unicode="&#x414;" horiz-adv-x="1420" vert-adv-y="2458" 
d="M41 -389v539q139 36 183 86q45 49 57 129q6 33 6 264v821h928v-1300h82v-513l-164 -26v389h-928v-363zM328 150h723v1150h-600v-850q0 -126 -29 -196q-24 -55 -94 -104z" />
    <glyph glyph-name="afii10022" unicode="&#x415;" horiz-adv-x="1174" vert-adv-y="2458" 
d="M194 0v1450h844v-150h-680v-474h596v-150h-596v-526h690v-150h-854z" />
    <glyph glyph-name="afii10024" unicode="&#x416;" horiz-adv-x="2235" vert-adv-y="2458" 
d="M1200 0h-164v709l-849 -709h-220l888 747l-818 703h218l781 -679v679h164v-679l781 679h218l-818 -703l888 -747h-220l-849 709v-709z" />
    <glyph glyph-name="afii10025" unicode="&#x417;" horiz-adv-x="1163" vert-adv-y="2458" 
d="M179 319q66 -76 117 -114q108 -82 264 -82q131 0 217 63q119 88 119 231q0 103 -70 172q-63 62 -179 81q-63 11 -169 11h-76v150h76q138 0 208 24q99 34 142 106q32 53 32 116q0 119 -98 193q-76 58 -189 58q-147 0 -267 -104q-35 -31 -93 -96l-110 99q80 93 150 144
q144 107 320 107q204 0 330 -128q53 -54 84 -127q30 -72 30 -144q0 -136 -87 -229q-37 -40 -117 -82q90 -42 133 -85q107 -105 107 -270q0 -173 -122 -298q-138 -142 -373 -142q-232 0 -397 142q-40 34 -93 91z" />
    <glyph glyph-name="afii10026" unicode="&#x418;" horiz-adv-x="1596" vert-adv-y="2458" 
d="M1402 0h-164v1092l-1044 -1147v1505h164v-1090l1044 1142v-1502z" />
    <glyph glyph-name="afii10027" unicode="&#x419;" horiz-adv-x="1596" vert-adv-y="2458" 
d="M1402 0h-164v1092l-1044 -1147v1505h164v-1090l1044 1142v-1502zM1203 1753q-66 -60 -108 -85q-119 -70 -272 -70q-165 0 -288 81q-34 23 -91 74l93 111q68 -51 111 -72q88 -41 175 -41q99 0 194 51q34 18 93 62z" />
    <glyph glyph-name="afii10028" unicode="&#x41a;" horiz-adv-x="1393" vert-adv-y="2458" 
d="M194 0v1450h164v-679l781 679h218l-818 -703l888 -747h-220l-849 709v-709h-164z" />
    <glyph glyph-name="afii10029" unicode="&#x41b;" horiz-adv-x="1423" vert-adv-y="2458" 
d="M0 116q146 64 191 121q52 62 64 155q4 19 4 231v827h970v-1450h-164v1300h-642v-796q-1 -204 -50 -299q-60 -122 -200 -193q-14 -8 -85 -39z" />
    <glyph glyph-name="afii10030" unicode="&#x41c;" horiz-adv-x="1711" vert-adv-y="2458" 
d="M26 0l320 1502l511 -1189l510 1189l318 -1502h-164l-207 997l-456 -1052l-462 1052l-206 -997h-164z" />
    <glyph glyph-name="afii10031" unicode="&#x41d;" horiz-adv-x="1582" vert-adv-y="2458" 
d="M194 0v1450h164v-617h866v617h164v-1450h-164v683h-866v-683h-164z" />
    <glyph glyph-name="afii10032" unicode="&#x41e;" horiz-adv-x="1629" vert-adv-y="2458" 
d="M821 1478q301 0 507 -215q208 -217 208 -533q0 -321 -208 -538q-211 -219 -514 -219q-300 0 -510 217q-210 218 -210 531q0 275 147 469q219 288 580 288zM813 1328q-258 0 -419 -187q-143 -166 -143 -407q0 -257 144 -424q161 -187 419 -187q256 0 417 186
q148 171 148 416q0 248 -147 417q-162 186 -419 186z" />
    <glyph glyph-name="afii10033" unicode="&#x41f;" horiz-adv-x="1582" vert-adv-y="2458" 
d="M194 0v1450h1194v-1450h-164v1300h-866v-1300h-164z" />
    <glyph glyph-name="afii10034" unicode="&#x420;" horiz-adv-x="1217" vert-adv-y="2458" 
d="M194 0v1450h336q199 0 299 -29q170 -49 256 -180q68 -102 68 -230q0 -98 -40.5 -185.5t-112.5 -147.5q-89 -74 -202 -96q-110 -22 -243 -22h-197v-560h-164zM358 1300v-590h137q168 0 234 10q151 24 216 117q51 72 51 168q0 116 -72 195t-234 95q-55 5 -195 5h-137z" />
    <glyph glyph-name="afii10035" unicode="&#x421;" horiz-adv-x="1359" vert-adv-y="2458" 
d="M1261 114q-90 -60 -155 -86q-136 -55 -283 -55q-289 0 -497 195q-118 111 -178 264q-54 136 -54 288q0 227 115 413q108 175 288 266q154 78 332 78q157 0 296 -62q52 -23 132 -75l-26 -173q-81 68 -145 99q-127 61 -264 61q-209 0 -367 -137q-204 -178 -204 -470
q0 -288 202 -462q158 -135 367 -135q165 0 311 87q56 34 145 116z" />
    <glyph glyph-name="afii10036" unicode="&#x422;" horiz-adv-x="1255" vert-adv-y="2458" 
d="M710 1300v-1300h-164v1300h-532v150h1227v-150h-531z" />
    <glyph glyph-name="afii10037" unicode="&#x423;" horiz-adv-x="1313" vert-adv-y="2458" 
d="M425 -27l186 362l-638 1115h191l529 -952l457 952h191l-739 -1450z" />
    <glyph glyph-name="afii10038" unicode="&#x424;" horiz-adv-x="1606" vert-adv-y="2458" 
d="M721 140q-192 19 -338 105q-145 86 -223 211t-78 274q0 162 95 294q180 247 544 283v143h164v-142q194 -16 342 -103q142 -84 219 -207q78 -123 78 -270q0 -197 -137 -350q-184 -206 -502 -238v-140h-164v140zM721 1171q-172 -21 -280 -94q-202 -135 -202 -353
q0 -142 90 -251q139 -171 392 -196v894zM885 1170v-893q164 20 275 93q102 67 157 165q50 91 50 189q0 136 -93 251q-132 164 -389 195z" />
    <glyph glyph-name="afii10039" unicode="&#x425;" horiz-adv-x="1385" vert-adv-y="2458" 
d="M172 0h-191l592 762l-572 688h192l476 -573l440 573h191l-535 -683l639 -767h-191l-541 646z" />
    <glyph glyph-name="afii10040" unicode="&#x426;" horiz-adv-x="1593" vert-adv-y="2458" 
d="M194 0v1450h164v-1300h866v1300h164v-1300h82v-513l-164 -26v389h-1112z" />
    <glyph glyph-name="afii10041" unicode="&#x427;" horiz-adv-x="1483" vert-adv-y="2458" 
d="M1126 0v669q-217 -27 -385 -27q-263 0 -397 64q-172 81 -222 249q-26 88 -26 274v221h162v-219q0 -152 17 -212q30 -109 125 -163q103 -57 349 -57q201 0 377 31v620h164v-1450h-164z" />
    <glyph glyph-name="afii10042" unicode="&#x428;" horiz-adv-x="2530" vert-adv-y="2458" 
d="M194 0v1450h164v-1300h825v1300h164v-1300h825v1300h164v-1450h-2142z" />
    <glyph glyph-name="afii10043" unicode="&#x429;" horiz-adv-x="2541" vert-adv-y="2458" 
d="M194 0v1450h164v-1300h825v1300h164v-1300h825v1300h164v-1300h82v-513l-164 -26v389h-2060z" />
    <glyph glyph-name="afii10044" unicode="&#x42a;" horiz-adv-x="1464" vert-adv-y="2458" 
d="M615 826h235q196 0 293 -38q125 -48 194 -156q63 -98 63 -226q0 -143 -82 -247q-88 -111 -242 -142q-82 -17 -232 -17h-393v1300h-478v150h642v-624zM615 676v-526h274q135 0 201 25q153 58 153 237q0 130 -90 200q-51 39 -107 50q-67 14 -157 14h-274z" />
    <glyph glyph-name="afii10045" unicode="&#x42b;" horiz-adv-x="1621" vert-adv-y="2458" 
d="M358 826h235q196 0 293 -38q125 -48 194 -156q63 -98 63 -226q0 -143 -82 -247q-88 -111 -242 -142q-82 -17 -232 -17h-393v1450h164v-624zM358 676v-526h274q98 0 158 13t103 45q93 66 93 204q0 130 -90 200q-51 39 -107 50q-67 14 -157 14h-274zM1263 0v1450h164v-1450
h-164z" />
    <glyph glyph-name="afii10046" unicode="&#x42c;" horiz-adv-x="1207" vert-adv-y="2458" 
d="M358 826h235q196 0 293 -38q125 -48 194 -156q63 -98 63 -226q0 -143 -82 -247q-88 -111 -242 -142q-82 -17 -232 -17h-393v1450h164v-624zM358 676v-526h274q98 0 158 13t103 45q93 66 93 204q0 130 -90 200q-51 39 -107 50q-67 14 -157 14h-274z" />
    <glyph glyph-name="afii10047" unicode="&#x42d;" horiz-adv-x="1364" vert-adv-y="2458" 
d="M1111 676h-810v150h804q-27 167 -120 285q-85 106 -204 163q-112 53 -240 53q-152 0 -289 -74q-53 -29 -139 -101l15 200q190 125 407 125q301 0 511 -207q104 -103 162 -241q62 -146 62 -309q0 -221 -111 -403q-118 -192 -324 -283q-140 -61 -294 -61q-163 0 -309 66
q-56 25 -143 86l14 189q90 -84 162 -122q133 -69 280 -69q167 0 306 90q243 159 260 463z" />
    <glyph glyph-name="afii10048" unicode="&#x42e;" horiz-adv-x="2006" vert-adv-y="2458" 
d="M473 683h-115v-683h-164v1450h164v-617h119q18 150 88 275q96 170 250 267q165 103 381 103q304 0 509 -215q208 -217 208 -533q0 -320 -208 -538q-210 -219 -514 -219q-235 0 -421 140q-275 206 -297 570zM1190 1328q-258 0 -419 -187q-143 -166 -143 -407
q0 -257 144 -424q161 -187 419 -187q256 0 417 186q148 171 148 417q0 248 -147 416q-162 186 -419 186z" />
    <glyph glyph-name="afii10049" unicode="&#x42f;" horiz-adv-x="1324" vert-adv-y="2458" 
d="M1130 0h-164v593h-298l-446 -593h-202l487 615q-105 27 -172 75q-75 54 -118 136q-46 88 -46 193q0 167 110 282q98 103 256 132q90 17 284 17h309v-1450zM966 1300h-194q-218 0 -301 -40q-64 -31 -101 -88q-42 -66 -42 -151q0 -111 70 -185q61 -66 182 -83
q67 -10 192 -10h194v557z" />
    <glyph glyph-name="afii10065" unicode="&#x430;" horiz-adv-x="1396" vert-adv-y="2458" 
d="M1245 0l-162 -26q-13 52 -18 93q-112 -46 -171 -64q-103 -30 -223 -30q-186 0 -307 71q-130 77 -206 214q-76 136 -76 297q0 269 196 448q180 165 453 165q127 0 332 -41l155 32v-909q4 -162 27 -250zM1060 217v759q-183 42 -305 42q-160 0 -254 -45q-128 -60 -198 -178
q-64 -107 -64 -238q0 -201 136 -329q112 -105 307 -105q132 0 247 41q41 14 131 53z" />
    <glyph glyph-name="afii10066" unicode="&#x431;" horiz-adv-x="1377" vert-adv-y="2458" 
d="M688 1017q-169 0 -291 -102q-91 -76 -131 -189q-26 -73 -26 -150q0 -219 157 -351q122 -102 292 -102q168 0 290 102q157 132 157 345q0 132 -66 240q-72 118 -203 173q-82 34 -179 34zM918 1450l173 26q-30 -114 -68 -153q-58 -58 -159 -80q-61 -13 -178 -21
q-145 -10 -195 -28q-91 -32 -156 -116q-16 -20 -51 -79q63 54 114 83q126 72 297 72q261 0 423 -157q81 -78 128 -191q47 -114 47 -236q0 -172 -89 -318q-85 -138 -228 -212q-131 -67 -287 -67q-206 0 -364 114q-176 128 -222 341q-23 105 -23 227q0 198 64 355
q91 226 282 301q92 37 270 49q128 9 169 28q20 9 30.5 21t22.5 41z" />
    <glyph glyph-name="afii10067" unicode="&#x432;" horiz-adv-x="1182" vert-adv-y="2458" 
d="M164 0v1138h421q187 0 271 -27q216 -68 216 -274q0 -108 -73 -175q-40 -37 -118 -63q219 -58 219 -267q0 -125 -79 -211q-81 -90 -230 -111q-66 -10 -222 -10h-405zM321 988v-326h253q152 0 205 11q136 28 136 152q0 88 -73 130q-36 22 -108 29q-45 4 -160 4h-253z
M321 150h290q183 0 254 38q78 42 78 146q0 105 -78 147q-71 38 -254 38h-290v-369z" />
    <glyph glyph-name="afii10068" unicode="&#x433;" horiz-adv-x="1008" vert-adv-y="2458" 
d="M164 0v1138h844v-150h-687v-988h-157z" />
    <glyph glyph-name="afii10069" unicode="&#x434;" horiz-adv-x="1311" vert-adv-y="2458" 
d="M14 -389v539q132 27 176 68q44 40 57 102q5 26 6 207v611h881v-988h81v-513l-157 -26v389h-887v-363zM292 150h685v838h-567v-601q0 -101 -28 -155q-23 -44 -90 -82z" />
    <glyph glyph-name="afii10070" unicode="&#x435;" horiz-adv-x="1286" vert-adv-y="2458" 
d="M1142 305l-9 -185q-111 -64 -173 -90q-138 -57 -285 -57q-262 0 -427 163t-165 425q0 258 164 427q82 85 194 132q113 48 237 48q220 0 368 -138q157 -147 157 -372q0 -41 -5 -108l-944 -61q15 -90 53 -158q49 -89 136 -143q104 -65 232 -65q144 0 304 82q58 30 163 100z
M1039 680q-5 82 -37 149q-45 95 -140 147q-81 44 -182 44q-160 0 -282 -100q-123 -100 -146 -292z" />
    <glyph glyph-name="afii10072" unicode="&#x436;" horiz-adv-x="2008" vert-adv-y="2458" 
d="M1083 0h-157v587l-722 -587h-231l764 627l-592 511h214l567 -496v496h157v-496l566 496h214l-592 -511l764 -627h-231l-721 587v-587z" />
    <glyph glyph-name="afii10073" unicode="&#x437;" horiz-adv-x="1081" vert-adv-y="2458" 
d="M147 277q65 -60 114 -90q104 -64 250 -64q172 0 266 86q51 47 51 120q0 91 -93 146q-85 51 -315 51h-59v144h73q164 0 249 26q111 35 111 137q0 90 -84 140q-73 45 -182 45q-144 0 -258 -81q-34 -25 -90 -76l-106 110q78 74 145 114q137 83 306 83q191 0 317 -101
q109 -88 109 -218q0 -108 -72 -179q-38 -37 -123 -71q86 -33 128 -66q101 -82 101 -213q0 -141 -115 -236q-134 -111 -360 -111q-221 0 -379 111q-40 27 -90 73z" />
    <glyph glyph-name="afii10074" unicode="&#x438;" horiz-adv-x="1420" vert-adv-y="2458" 
d="M1256 0h-157v840l-935 -881v1179h157v-838l935 879v-1179z" />
    <glyph glyph-name="afii10075" unicode="&#x439;" horiz-adv-x="1420" vert-adv-y="2458" 
d="M1256 0h-157v840l-935 -881v1179h157v-838l935 879v-1179zM1105 1465q-67 -59 -109 -84q-117 -70 -271 -70q-165 0 -289 81q-33 22 -91 73l94 112q68 -51 111 -72q87 -41 175 -41q99 0 194 51q34 18 93 62z" />
    <glyph glyph-name="afii10076" unicode="&#x43a;" horiz-adv-x="1246" vert-adv-y="2458" 
d="M321 587v-587h-157v1138h157v-496l567 496h213l-592 -511l765 -627h-232z" />
    <glyph glyph-name="afii10077" unicode="&#x43b;" horiz-adv-x="1399" vert-adv-y="2458" 
d="M0 109q146 65 191 121q52 62 64 155q4 19 4 231v522h963v-1138h-157v988h-649v-484q-1 -203 -50 -299q-60 -122 -200 -193q-13 -7 -85 -39z" />
    <glyph glyph-name="afii10078" unicode="&#x43c;" horiz-adv-x="1584" vert-adv-y="2458" 
d="M27 0l295 1182l471 -916l470 916l293 -1182h-164l-178 771l-420 -814l-426 814l-177 -771h-164z" />
    <glyph glyph-name="afii10079" unicode="&#x43d;" horiz-adv-x="1420" vert-adv-y="2458" 
d="M164 0v1138h157v-455h778v455h157v-1138h-157v533h-778v-533h-157z" />
    <glyph glyph-name="afii10080" unicode="&#x43e;" horiz-adv-x="1377" vert-adv-y="2458" 
d="M690 1168q256 0 428 -171q82 -81 128 -191q47 -113 47 -236q0 -172 -89 -318q-85 -138 -228 -212q-131 -67 -287 -67q-260 0 -433 173q-80 80 -126 188q-47 113 -47 229q0 180 88 326q83 136 229 212q131 67 290 67zM688 1018q-169 0 -291 -102q-91 -76 -131 -189
q-26 -74 -26 -150q0 -220 157 -352q122 -102 292 -102q168 0 290 102q157 132 157 346q0 132 -66 240q-72 118 -203 173q-82 34 -179 34z" />
    <glyph glyph-name="afii10081" unicode="&#x43f;" horiz-adv-x="1420" vert-adv-y="2458" 
d="M164 0v1138h1092v-1138h-157v988h-778v-988h-157z" />
    <glyph glyph-name="afii10082" unicode="&#x440;" horiz-adv-x="1382" vert-adv-y="2458" 
d="M137 1140l162 26q13 -52 18 -93q112 47 171 64q104 31 223 31q186 0 307 -71q130 -76 206 -214q76 -136 76 -296q0 -270 -196 -451q-176 -163 -441 -163q-166 0 -341 54v-390l-158 -26v1279q-4 161 -27 250zM322 923v-746q171 -54 321 -54q205 0 335 106q165 135 165 354
q0 202 -136 330q-112 105 -302 105q-128 0 -252 -41q-49 -16 -131 -54z" />
    <glyph glyph-name="afii10083" unicode="&#x441;" horiz-adv-x="1198" vert-adv-y="2458" 
d="M1102 98q-88 -57 -158 -80q-133 -46 -268 -46q-250 0 -419 165q-174 172 -174 426q0 259 178 433q177 172 451 172q203 0 409 -104l-26 -157q-101 51 -165 73q-112 38 -223 38q-201 0 -331 -124q-136 -129 -136 -326q0 -194 131 -323q125 -123 313 -123q150 0 295 73
q53 26 152 90z" />
    <glyph glyph-name="afii10084" unicode="&#x442;" horiz-adv-x="997" vert-adv-y="2458" 
d="M573 988v-988h-150v988h-423v150h997v-150h-424z" />
    <glyph glyph-name="afii10085" unicode="&#x443;" horiz-adv-x="1117" vert-adv-y="2458" 
d="M0 1138h177l390 -946l372 946h178l-613 -1502l-183 -26l164 390z" />
    <glyph glyph-name="afii10086" unicode="&#x444;" horiz-adv-x="1377" vert-adv-y="2458" 
d="M610 -23q-160 19 -284 109q-112 81 -176 206q-67 131 -67 279q0 197 114 355q145 199 413 237v287l157 26v-313q161 -19 285 -109q111 -81 175 -206q67 -131 67 -278q0 -198 -115 -357q-148 -205 -412 -236v-340l-157 -26v366zM610 1011q-87 -14 -159 -57
q-111 -67 -167 -185q-44 -91 -44 -199q0 -159 93 -278q105 -135 277 -163v882zM767 1011v-882q87 14 159 58q111 66 167 184q44 91 44 199q0 159 -93 278q-105 135 -277 163z" />
    <glyph glyph-name="afii10087" unicode="&#x445;" horiz-adv-x="1209" vert-adv-y="2458" 
d="M0 0l512 601l-451 537h205l342 -424l347 424h205l-457 -540l506 -598h-205l-393 491l-406 -491h-205z" />
    <glyph glyph-name="afii10088" unicode="&#x446;" horiz-adv-x="1434" vert-adv-y="2458" 
d="M164 0v1138h157v-988h778v988h157v-988h82v-513l-157 -26v389h-1017z" />
    <glyph glyph-name="afii10089" unicode="&#x447;" horiz-adv-x="1339" vert-adv-y="2458" 
d="M1018 0v494q-180 -23 -325 -23q-250 0 -372 57q-160 75 -211 241q-27 88 -27 241v128h157v-105q0 -146 15 -203q26 -101 119 -151q95 -51 325 -51q183 0 319 27v483h157v-1138h-157z" />
    <glyph glyph-name="afii10090" unicode="&#x448;" horiz-adv-x="2355" vert-adv-y="2458" 
d="M164 0v1138h157v-988h778v988h157v-988h779v988h157v-1138h-2028z" />
    <glyph glyph-name="afii10091" unicode="&#x449;" horiz-adv-x="2369" vert-adv-y="2458" 
d="M164 0v1138h157v-988h778v988h157v-988h779v988h157v-988h81v-513l-157 -26v389h-1952z" />
    <glyph glyph-name="afii10092" unicode="&#x44a;" horiz-adv-x="1509" vert-adv-y="2458" 
d="M532 0v988h-546v150h703v-469h253q264 0 366 -59q159 -92 159 -279q0 -124 -78 -210q-81 -90 -230 -111q-66 -10 -222 -10h-405zM689 150h290q135 0 193 15q138 35 138 169q0 105 -78 147q-71 38 -253 38h-290v-369z" />
    <glyph glyph-name="afii10093" unicode="&#x44b;" horiz-adv-x="1581" vert-adv-y="2458" 
d="M164 0v1138h157v-469h253q264 0 366 -59q159 -92 159 -279q0 -124 -78 -210q-81 -90 -230 -111q-66 -10 -222 -10h-405zM321 150h290q135 0 193 15q138 35 138 169q0 105 -78 147q-71 38 -253 38h-290v-369zM1417 1138v-1138h-157v1138h157z" />
    <glyph glyph-name="afii10094" unicode="&#x44c;" horiz-adv-x="1140" vert-adv-y="2458" 
d="M164 0v1138h157v-469h253q264 0 366 -59q159 -92 159 -279q0 -124 -78 -210q-81 -90 -230 -111q-66 -10 -222 -10h-405zM321 150h290q135 0 193 15q138 35 138 169q0 105 -78 147q-71 38 -253 38h-290v-369z" />
    <glyph glyph-name="afii10095" unicode="&#x44d;" horiz-adv-x="1193" vert-adv-y="2458" 
d="M952 533h-733v150h720q-23 86 -68 150q-133 185 -385 185q-167 0 -374 -104l14 177q180 77 354 77q276 0 452 -172q178 -174 178 -433q0 -254 -174 -425q-168 -166 -419 -166q-152 0 -295 55q-61 24 -155 88l11 161q105 -68 169 -97q127 -57 262 -57q140 0 246 69
q179 116 197 342z" />
    <glyph glyph-name="afii10096" unicode="&#x44e;" horiz-adv-x="1707" vert-adv-y="2458" 
d="M415 533h-94v-533h-157v1138h157v-455h103q26 136 104 243q80 112 203 175q131 67 288 67q259 0 430 -171q82 -81 128 -190q47 -114 47 -236q0 -172 -89 -319q-85 -138 -228 -212q-131 -67 -287 -67q-207 0 -364 114q-165 119 -221 322q-16 60 -20 124zM1019 1018
q-169 0 -291 -102q-91 -76 -131 -189q-26 -74 -26 -150q0 -220 157 -352q122 -102 292 -102q168 0 290 102q157 132 157 346q0 132 -66 240q-72 118 -203 173q-82 34 -179 34z" />
    <glyph glyph-name="afii10097" unicode="&#x44f;" horiz-adv-x="1257" vert-adv-y="2458" 
d="M1093 0h-157v469h-267l-432 -469h-210l467 484q-99 13 -164 43q-86 41 -130 117q-43 73 -43 162q0 147 105 237q90 77 253 90q51 5 281 5h297v-1138zM935 619v369h-290q-182 0 -253 -38q-78 -42 -78 -147q0 -104 78 -146q71 -38 253 -38h290z" />
    <glyph glyph-name="afii10071" unicode="&#x451;" horiz-adv-x="1286" vert-adv-y="2458" 
d="M1142 305l-9 -185q-111 -64 -173 -90q-138 -57 -285 -57q-262 0 -427 163t-165 425q0 258 164 427q82 85 194 132q113 48 237 48q220 0 368 -138q157 -147 157 -372q0 -41 -5 -108l-944 -61q15 -90 53 -158q49 -89 136 -143q104 -65 232 -65q144 0 304 82q58 30 163 100z
M1039 680q-5 82 -37 149q-45 95 -140 147q-81 44 -182 44q-160 0 -282 -100q-123 -100 -146 -292zM406 1543q44 0 77 -32q33 -34 33 -81q0 -48 -32 -80q-32 -31 -78 -31q-66 0 -98 53q-16 27 -16 57q0 47 34 80q35 34 80 34zM926 1543q44 0 78 -33q33 -34 33 -80
q0 -47 -32 -79t-80 -32q-63 0 -95 53q-17 27 -17 58q0 47 34 80t79 33z" />
    <glyph glyph-name="afii10099" unicode="&#x452;" horiz-adv-x="1557" vert-adv-y="2458" 
d="M492 0h-157v988h-362v150h362v312l157 27v-550q66 87 133 136q144 105 349 105q234 0 351 -136q58 -68 75 -162q13 -72 13 -158v-565q0 -199 -41 -276q-90 -172 -347 -172q-105 0 -239 28l-28 164q126 -42 253 -42q136 0 191 53q54 51 54 163v579q0 131 -11 177
q-24 97 -87 145q-69 53 -198 53q-192 0 -323 -125q-103 -99 -132 -238q-13 -60 -13 -166v-490z" />
    <glyph glyph-name="afii10100" unicode="&#x453;" horiz-adv-x="1008" vert-adv-y="2458" 
d="M164 0v1138h844v-150h-687v-988h-157zM818 1661l55 -151l-541 -198l-55 151z" />
    <glyph glyph-name="afii10101" unicode="&#x454;" horiz-adv-x="1198" vert-adv-y="2458" 
d="M242 533q10 -129 78 -228q128 -183 364 -183q151 0 295 73q54 27 152 91l-28 -188q-89 -57 -158 -80q-134 -46 -268 -46q-251 0 -420 166q-174 171 -174 425q0 259 178 433q176 172 451 172q203 0 409 -104l-26 -157q-100 51 -164 73q-112 38 -224 38q-152 0 -265 -72
q-141 -90 -188 -263h718v-150h-730z" />
    <glyph glyph-name="afii10102" unicode="&#x455;" horiz-adv-x="1016" vert-adv-y="2458" 
d="M108 243q218 -121 399 -121q150 0 223 68q40 37 40 100q0 66 -45 106q-50 46 -169 95l-161 67q-167 69 -223 132q-59 67 -59 158q0 129 104 216q123 104 322 104q138 0 306 -65l-3 -173q-101 50 -161 66q-76 21 -154 21q-153 0 -225 -75q-32 -34 -32 -82q0 -66 69 -110
q44 -28 137 -64l161 -64q131 -51 200 -115q90 -81 90 -216q0 -138 -98 -219q-120 -100 -332 -100q-179 0 -364 92z" />
    <glyph glyph-name="afii10103" unicode="&#x456;" horiz-adv-x="512" vert-adv-y="2458" 
d="M335 1159v-1159h-157v1133zM256 1476q45 0 77 -32t32 -77t-31 -76q-32 -32 -78 -32q-61 0 -92 51q-16 25 -16 56q0 48 32 79t76 31z" />
    <glyph glyph-name="afii10104" unicode="&#x457;" horiz-adv-x="512" vert-adv-y="2458" 
d="M334 1159v-1159h-157v1133zM114 1543q44 0 77 -32q33 -34 33 -81q0 -48 -32 -80q-32 -31 -78 -31q-66 0 -98 53q-16 26 -16 57q0 47 34 80q35 34 80 34zM401 1543q44 0 78 -33q33 -34 33 -80q0 -47 -32 -79t-80 -32q-63 0 -96 53q-16 26 -16 58q0 47 34 80t79 33z" />
    <glyph glyph-name="afii10105" unicode="&#x458;" horiz-adv-x="512" vert-adv-y="2458" 
d="M335 1159v-1522l-157 -26v1522zM256 1476q45 0 77 -32t32 -77t-31 -76q-32 -32 -78 -32q-61 0 -92 51q-16 26 -16 56q0 48 32 79t76 31z" />
    <glyph glyph-name="afii10106" unicode="&#x459;" horiz-adv-x="1905" vert-adv-y="2458" 
d="M1085 1138v-469h253q264 0 366 -59q159 -92 159 -279q0 -124 -78 -210q-81 -90 -230 -111q-66 -10 -222 -10h-405v988h-512v-484q-1 -204 -50 -299q-60 -122 -200 -193q-13 -7 -85 -39l-81 136q146 65 191 121q52 62 64 155q4 19 4 231v522h826zM1085 150h290
q182 0 253 38q78 42 78 146q0 105 -78 147q-71 38 -253 38h-290v-369z" />
    <glyph glyph-name="afii10107" unicode="&#x45a;" horiz-adv-x="1939" vert-adv-y="2458" 
d="M1120 150h290q135 0 193 15q138 35 138 169q0 105 -78 147q-71 38 -253 38h-290v-369zM963 519h-642v-519h-157v1138h157v-469h642v469h157v-469h253q264 0 366 -59q159 -92 159 -278q0 -125 -78 -211q-81 -90 -230 -111q-66 -10 -222 -10h-405v519z" />
    <glyph glyph-name="afii10108" unicode="&#x45b;" horiz-adv-x="1557" vert-adv-y="2458" 
d="M492 0h-157v988h-362v150h362v312l157 27v-550q66 87 133 136q144 105 349 105q234 0 351 -136q59 -68 75 -162q13 -72 13 -158v-712h-157v644q0 131 -11 177q-24 97 -87 145q-69 53 -198 53q-192 0 -323 -125q-103 -99 -132 -237q-13 -61 -13 -167v-490z" />
    <glyph glyph-name="afii10109" unicode="&#x45c;" horiz-adv-x="1246" vert-adv-y="2458" 
d="M321 587v-587h-157v1138h157v-496l567 496h213l-592 -511l765 -627h-232zM842 1661l55 -151l-541 -198l-55 151z" />
    <glyph glyph-name="afii10110" unicode="&#x45e;" horiz-adv-x="1117" vert-adv-y="2458" 
d="M0 1138h177l390 -946l372 946h178l-613 -1502l-183 -26l164 390zM951 1465q-67 -59 -109 -84q-118 -70 -271 -70q-166 0 -289 81q-34 22 -91 73l93 112q68 -51 112 -72q87 -41 175 -41q99 0 194 51q34 18 93 62z" />
    <glyph glyph-name="afii10193" unicode="&#x45f;" horiz-adv-x="1420" vert-adv-y="2458" 
d="M164 0v1138h157v-988h778v988h157v-1138h-461v-363l-157 -26v389h-474z" />
    <glyph glyph-name="afii10050" unicode="&#x490;" horiz-adv-x="1051" vert-adv-y="2458" 
d="M358 0h-164v1450h680v137l164 27v-314h-680v-1300z" />
    <glyph glyph-name="afii10098" unicode="&#x491;" horiz-adv-x="1008" vert-adv-y="2458" 
d="M164 0v1138h687v137l157 27v-314h-687v-988h-157z" />
    <glyph glyph-name="hyphen" unicode="&#x2010;" horiz-adv-x="522" vert-adv-y="2458" 
d="M0 577v158h522v-158h-522z" />
    <glyph glyph-name="nbhyphen" unicode="&#x2011;" horiz-adv-x="522" vert-adv-y="2458" 
d="M0 577v158h522v-158h-522z" />
    <glyph glyph-name="figuredash" unicode="&#x2012;" horiz-adv-x="1106" vert-adv-y="2458" 
d="M82 577v158h942v-158h-942z" />
    <glyph glyph-name="horizontalbar" unicode="&#x2015;" horiz-adv-x="1993" vert-adv-y="2458" 
d="M41 577v158h1911v-158h-1911z" />
    <glyph glyph-name="quotesinglbase" unicode="&#x201a;" horiz-adv-x="550" vert-adv-y="2458" 
d="M37 -340l172 528h177l-209 -528h-140z" />
    <glyph glyph-name="quotereversed" unicode="&#x201b;" horiz-adv-x="588" vert-adv-y="2458" 
 />
    <glyph glyph-name="daggerdbl" unicode="&#x2021;" horiz-adv-x="970" vert-adv-y="2458" 
d="M406 993h-310v150h310v307h158v-307h310v-150h-310v-178h310v-150h-310v-665h-158v665h-310v150h310v178z" />
    <glyph glyph-name="perthousand" unicode="&#x2030;" horiz-adv-x="2324" vert-adv-y="2458" 
d="M406 1477q147 0 251 -103q103 -102 103 -241q0 -147 -103 -250t-251 -103q-146 0 -250 103q-103 103 -103 245q0 146 103 246q106 103 250 103zM407 1330q-82 0 -139 -57q-61 -61 -61 -142q0 -86 61 -147q57 -57 139 -57q81 0 138 57q61 61 61 144q0 86 -61 145
q-59 57 -138 57zM1049 1450h157l-714 -1450h-157zM1135 670q147 0 251 -103q103 -103 103 -241q0 -147 -103 -250q-104 -103 -252 -103q-146 0 -250 103q-103 103 -103 245q0 146 103 246q107 103 251 103zM1135 523q-81 0 -139 -57q-61 -60 -61 -142q0 -86 61 -147
q58 -57 139 -57q82 0 139 57q61 61 61 144q0 86 -61 145q-59 57 -139 57zM1917 670q147 0 251 -103q103 -102 103 -241q0 -147 -103 -250q-104 -103 -252 -103q-146 0 -250 103q-103 103 -103 245q0 146 103 246q107 103 251 103zM1917 523q-81 0 -139 -57q-61 -60 -61 -142
q0 -86 61 -147q57 -57 139 -57q81 0 139 57q61 61 61 144q0 86 -61 145q-59 57 -139 57z" />
    <glyph glyph-name="guilsinglleft" unicode="&#x2039;" horiz-adv-x="544" vert-adv-y="2458" 
d="M82 655l252 311l114 -91l-183 -220l183 -220l-114 -91z" />
    <glyph glyph-name="guilsinglright" unicode="&#x203a;" horiz-adv-x="544" vert-adv-y="2458" 
d="M462 655l-252 -311l-114 91l183 220l-183 220l114 91z" />
    <glyph glyph-name="numero" unicode="&#x2116;" horiz-adv-x="2864" vert-adv-y="2458" 
d="M194 0v1502l1044 -1142v1090h164v-1505l-1044 1147v-1092h-164zM2165 1477q256 0 428 -171q82 -80 128 -190q47 -114 47 -236q0 -172 -89 -318q-85 -138 -228 -212q-131 -67 -287 -67q-260 0 -433 173q-80 80 -126 188q-47 113 -47 229q0 179 88 325q83 136 229 212
q131 67 290 67zM2163 1327q-169 0 -291 -102q-91 -76 -131 -189q-26 -73 -26 -150q0 -219 157 -351q122 -102 292 -102q168 0 290 102q157 132 157 345q0 132 -66 240q-72 118 -203 173q-82 34 -179 34zM1643 0v158h1051v-158h-1051z" />
    <glyph glyph-name="periodcentered" unicode="&#x2219;" horiz-adv-x="588" vert-adv-y="2458" 
d="M295 823q42 0 73 -31q31 -30 31 -74q0 -43 -30 -73q-32 -31 -75 -31q-57 0 -88 50q-16 25 -16 54q0 43 32 74q31 31 73 31z" />
    <glyph glyph-name="glyph339" horiz-adv-x="1365" vert-adv-y="2458" 
d="M424 1543q44 0 77 -32q33 -34 33 -81q0 -48 -32 -80q-32 -31 -78 -31q-66 0 -98 53q-16 27 -16 57q0 47 34 80q35 34 80 34zM944 1543q44 0 78 -33q33 -34 33 -80q0 -47 -32 -79t-80 -32q-63 0 -95 53q-17 27 -17 58q0 47 34 80t79 33z" />
    <glyph glyph-name="glyph340" horiz-adv-x="1365" vert-adv-y="2458" 
d="M937 1661l55 -151l-541 -198l-55 151z" />
    <glyph glyph-name="glyph341" horiz-adv-x="1365" vert-adv-y="2458" 
d="M937 1920l55 -150l-541 -198l-55 150z" />
    <glyph glyph-name="glyph342" horiz-adv-x="1365" vert-adv-y="2458" 
d="M384 1807q46 0 80 -34q35 -35 35 -85q0 -49 -34 -83q-33 -33 -81 -33q-69 0 -103 56q-17 27 -17 60q0 48 35 83q38 36 85 36zM984 1807q47 0 82 -35t35 -83q0 -50 -34 -83q-33 -34 -83 -34q-67 0 -101 55q-17 28 -17 61q0 50 35 84q37 35 83 35z" />
    <glyph glyph-name="glyph343" horiz-adv-x="588" vert-adv-y="2458" 
 />
    </font>
</defs>
</svg>
