<?xml version="1.0" standalone="no"?>
<!DOCTYPE svg PUBLIC "-//W3C//DTD SVG 1.1//EN" "http://www.w3.org/Graphics/SVG/1.1/DTD/svg11.dtd" >
<svg>
<metadata>
Created by FontForge 20090914 at Thu Oct  2 16:26:18 2014
 By www-data
Reuss 2001
</metadata>
<defs>
<font id="NiveaBookCY" horiz-adv-x="1176" vert-adv-y="2048" >
  <font-face 
    font-family="NiveaBookCY"
    font-weight="400"
    font-stretch="normal"
    units-per-em="2048"
    panose-1="0 0 0 0 0 0 0 0 0 0"
    ascent="1536"
    descent="-512"
    x-height="1138"
    cap-height="1450"
    bbox="-47 -503.002 2603 1975"
    underline-thickness="213"
    underline-position="-197"
    unicode-range="U+0020-U+2265"
  />
<missing-glyph horiz-adv-x="588" vert-adv-y="2458" 
d="M59 0v1450h470v-1450h-470zM470 59v1332h-352v-1332h352z" />
    <glyph glyph-name=".notdef" horiz-adv-x="588" vert-adv-y="2458" 
d="M59 0v1450h470v-1450h-470zM470 59v1332h-352v-1332h352z" />
    <glyph glyph-name="space" unicode=" " horiz-adv-x="588" vert-adv-y="2458" 
 />
    <glyph glyph-name="exclam" unicode="!" horiz-adv-x="645" vert-adv-y="2458" 
d="M225 383l-45 1067l291 34l-51 -1067zM321 226c36 0 66.667 -12.667 92 -38s38 -56 38 -92s-12.667 -66.333 -38 -91c-25.333 -26 -56 -39 -92 -39c-48 0 -85 21 -111 63c-12.667 20 -19 42 -19 66c0 36.667 13 67.667 39 93s56.333 38 91 38z" />
    <glyph glyph-name="quotedbl" unicode="&#x22;" horiz-adv-x="643" vert-adv-y="2458" 
d="M86 1436h164v-557h-164v557zM395 1436h164v-557h-164v557z" />
    <glyph glyph-name="numbersign" unicode="#" horiz-adv-x="1301" vert-adv-y="2458" 
d="M449 396l-58 -328h-213l58 328h-236v213h273l42 233h-236v213h273l57 324h213l-57 -324h288l57 324h213l-57 -324h235v-213h-272l-42 -233h236v-213h-273l-57 -324h-213l57 324h-288zM528 842l-42 -233h288l42 233h-288z" />
    <glyph glyph-name="dollar" unicode="$" vert-adv-y="2458" 
d="M668 -24l-0.00488281 -194.004h-191v185c-117.333 11.333 -224.666 39.666 -321.999 84.999l-23 307c77.333 -47.333 140.333 -81 189 -101c76 -30.667 145.667 -46 209 -46c76.667 0 141 18.667 193 56c44.667 32.667 67 76.667 67 132c0 46.667 -20.333 90 -61 130
c-34 33.333 -84.667 70.333 -152 111l-109 66c-103.333 62 -176.666 119.667 -219.999 173c-56.667 68.667 -85 145 -85 229c0 76.667 22.667 146.334 68 209.001c58 81.333 144.667 132.333 260 153v175h191v-167c90.667 -8 186 -35.667 286 -83l-8 -272
c-57.333 30 -101.666 51.667 -132.999 65c-80 33.333 -154.333 50 -223 50c-69.333 0 -122.333 -18.667 -159 -56c-23.333 -23.333 -35 -50.666 -35 -81.999c0 -24.667 7.33301 -46.334 22 -65.001c28.667 -37.333 86.334 -81.666 173.001 -132.999l105 -61
c108 -64 188 -127.333 240 -190c64 -77.333 96 -164.666 96 -261.999c0 -89.333 -25.667 -169.666 -77 -240.999c-46.667 -64 -116.667 -114.333 -210 -151c-25.333 -9.33301 -55.666 -16.666 -90.999 -21.999z" />
    <glyph glyph-name="percent" unicode="%" horiz-adv-x="1554" vert-adv-y="2458" 
d="M407 1484c96.667 0 179 -33.668 247 -101.001s102 -150 102 -248c0 -97.333 -34.333 -180.666 -103 -249.999c-68.667 -68.667 -151 -103 -247 -103c-76 0 -144.667 22.333 -206 67c-62.667 46 -106 105.333 -130 178c-11.333 35.333 -17 70.333 -17 105
c0 99.333 34.333 182.333 103 249c71.333 68.667 155 103 251 103zM405 1298c-58.667 0 -103.665 -26 -134.998 -78c-16.667 -26.667 -25 -55 -25 -85c0 -46 16.333 -85.333 49 -118c31.333 -31.333 68.666 -47 111.999 -47s80.666 15.667 111.999 47
c32 32.667 48 71.667 48 117c0 46.667 -16.333 85.667 -49 117c-32 31.333 -69.333 47 -112 47zM1150 667.999c96.667 0 179.332 -34.001 247.999 -102.001s103 -151 103 -249c0 -96.667 -34.333 -179 -103 -247c-69.333 -69.333 -152.333 -104 -249 -104
c-75.333 0 -143.666 22.333 -204.999 67c-62.667 44.667 -105.667 103.334 -129 176.001c-11.333 35.333 -17 70.333 -17 105c0 100 34.667 183.667 104 251c70 68.667 152.667 103 248 103zM1148 479.998c-58.667 0 -103.666 -26 -134.999 -78
c-16.667 -26.667 -25 -55 -25 -85c0 -46 16.333 -85.333 49 -118c32 -31.333 69.333 -47 112 -47c43.333 0 80.666 15.667 111.999 47c32 32.667 48 71.667 48 117c0 46.667 -16.333 85.667 -49 117c-32 31.333 -69.333 47 -112 47zM1022 1450h225l-714 -1450h-226z" />
    <glyph glyph-name="ampersand" unicode="&#x26;" horiz-adv-x="1436" vert-adv-y="2458" 
d="M1067 0l-66 86c-61.333 -44 -118 -75 -170 -93c-69.333 -24 -143 -36 -221 -36c-166.667 0 -299 48.333 -397 145c-83.333 83.333 -125 186 -125 308c0 105.333 34.667 198.333 104 279c33.333 38 69.333 70.333 108 97c32.667 22.667 72.667 48 120 76
c-52 72.667 -88 129.667 -108 171c-25.333 53.333 -38 104.333 -38 153c0 82.667 30 153.667 90 213c69.333 69.333 160.666 104 273.999 104c112 0 202.333 -34.333 271 -103c62 -61.333 93 -136.666 93 -225.999c0 -74 -25 -142 -75 -204
c-35.333 -44 -93.666 -93 -174.999 -147l290 -381c48.667 79.333 89 164.666 121 255.999l197 -59c-32 -138.667 -90.667 -265 -176 -379l196 -260h-313zM872 262l-330.999 440c-65.333 -43.333 -112 -82.666 -140 -117.999c-36.667 -46 -55 -97 -55 -153
c0 -72.667 25.333 -134.334 76 -185.001c52.667 -53.333 120 -80 202 -80c39.333 0 77.666 6.33301 114.999 19c38.667 13.333 83 39 133 77zM629.001 985c55.333 33.333 95 63.333 119 90c28.667 33.333 43 70 43 110c0 39.333 -13.333 72.333 -40 99
c-28 27.333 -62.667 41 -104 41c-43.333 0 -79 -13.667 -107 -41c-23.333 -23.333 -35 -51.333 -35 -84c0 -32 18 -72.333 54 -121z" />
    <glyph glyph-name="quotesingle" unicode="'" horiz-adv-x="334" vert-adv-y="2458" 
d="M86 1436h164v-557h-164v557z" />
    <glyph glyph-name="parenleft" unicode="(" horiz-adv-x="684" vert-adv-y="2458" 
d="M656 1522c-62 -107.333 -107.832 -193.168 -137.499 -257.501s-54.834 -133.166 -75.501 -206.499c-29.333 -105.333 -44 -210 -44 -314s14.667 -209 44 -315c29.333 -104.667 70.333 -205.667 123 -303c24.667 -46.667 54.667 -100 90 -160h-251
c-65.333 107.333 -112.333 195 -141 263c-73.333 171.333 -110 343 -110 515c0 116 17 232.333 51 349c26.667 92 63 182 109 270c18.667 36 49 89 91 159h251z" />
    <glyph glyph-name="parenright" unicode=")" horiz-adv-x="684" vert-adv-y="2458" 
d="M27 -34c69.333 119.333 118.332 212.334 146.999 279.001c73.333 169.333 110 335.666 110 498.999c0 104.667 -14.667 209.667 -44 315c-28 98.667 -68.667 199.667 -122 303c-19.333 36 -49.666 89.333 -90.999 160h251c65.333 -107.333 112.333 -195 141 -263
c73.333 -171.333 110 -343 110 -515c0 -116 -17 -232.333 -51 -349c-26.667 -92 -63 -182 -109 -270c-18.667 -36 -49 -89 -91 -159h-251z" />
    <glyph glyph-name="asterisk" unicode="*" horiz-adv-x="1042" vert-adv-y="2458" 
d="M520 956l-164 -291l-170 125l229 256l-327 62l63 194l306 -122l-37 317h203l-37 -317l305 122l63 -194l-327 -62l229 -256l-168 -125z" />
    <glyph glyph-name="plus" unicode="+" horiz-adv-x="1106" vert-adv-y="2458" 
d="M660 762h364v-213h-364v-365h-213v365h-365v213h365v364h213v-364z" />
    <glyph glyph-name="comma" unicode="," horiz-adv-x="588" vert-adv-y="2458" 
d="M31 -340l172 528h231l-208 -528h-195z" />
    <glyph glyph-name="hyphen" unicode="-" horiz-adv-x="522" vert-adv-y="2458" 
d="M0 549v213h522v-213h-522z" />
    <glyph glyph-name="period" unicode="." horiz-adv-x="588" vert-adv-y="2458" 
d="M294 226c36 0 66.667 -12.667 92 -38s38 -56 38 -92s-12.667 -66.333 -38 -91c-25.333 -26 -56 -39 -92 -39c-48 0 -85 21 -111 63c-12.667 20.667 -19 42.667 -19 66c0 36.667 13 67.667 39 93s56.333 38 91 38z" />
    <glyph glyph-name="slash" unicode="/" horiz-adv-x="784" vert-adv-y="2458" 
d="M784 1450l-538 -1450h-246l539 1450h245z" />
    <glyph glyph-name="zero" unicode="0" vert-adv-y="2458" 
d="M588 1484c125.333 0 229.665 -42.334 312.998 -127.001c54.667 -56 95.334 -119 122.001 -189c51.333 -138 77 -285.667 77 -443c0 -158 -25.667 -305.667 -77 -443c-42 -111.333 -109 -195.333 -201 -252c-69.333 -42.667 -147.333 -64 -234 -64
c-170.667 0 -302 78 -394 234c-78.667 133.333 -118 308.333 -118 525c0 158.667 26 306.667 78 444c42 110.667 109 194.334 201 251.001c68.667 42.667 146.334 64 233.001 64zM588.999 1252c-71.333 0 -130.001 -40 -176.001 -120c-54 -94 -81 -228.333 -81 -403
c0 -195.333 32 -340 96 -434c44.667 -64.667 98.334 -97 161.001 -97c71.333 0 130 39.667 176 119c54 93.333 81 229.333 81 408c0 194 -31.667 337.333 -95 430c-44 64.667 -98 97 -162 97z" />
    <glyph glyph-name="one" unicode="1" horiz-adv-x="766" vert-adv-y="2458" 
d="M355 0v1247h-171l34 203h389v-1450h-252z" />
    <glyph glyph-name="two" unicode="2" vert-adv-y="2458" 
d="M-1 0l597 667.001c84 94 138.667 168.333 164 223c22 47.333 33 91.333 33 132c0 64.667 -22 118.667 -66 162c-45.333 45.333 -103 68 -173 68c-82 0 -148.667 -31 -200 -93c-23.333 -28 -45 -70.333 -65 -127l-221 106c38 87.333 78.333 152.666 121 195.999
c98 100 220.333 150 367 150c145.333 0 265 -47 359 -141c86.667 -86 130 -191.333 130 -316c0 -84 -17.333 -158.333 -52 -223c-34 -64 -81.667 -130 -143 -198l-165 -182l-170 -188h599l-38 -236h-1077z" />
    <glyph glyph-name="three" unicode="3" vert-adv-y="2458" 
d="M231 380c39.333 -58 76.333 -98.6699 111 -122.003c60 -40 126.333 -60 199 -60c67.333 0 123.333 17 168 51c51.333 39.333 77 95.333 77 168c0 70.667 -31 125 -93 163c-34.667 21.333 -77.334 35.333 -128.001 42c-24.667 3.33301 -63.667 5 -117 5h-55v229h69
c108.667 0 189 24.667 241 74c35.333 33.333 53 76 53 128c0 56 -21 103.333 -63 142c-38 34.667 -87.667 52 -149 52c-70.667 0 -136 -25.333 -196 -76c-22.667 -19.333 -52.667 -51.666 -90 -96.999l-164 155c53.333 62 103.333 110 150 144
c96 70.667 202.333 106 319 106c134 0 243.667 -42.667 329 -128c77.333 -77.333 116 -169.333 116 -276c0 -89.333 -29.667 -166 -89 -230c-25.333 -27.333 -63.666 -54.666 -114.999 -81.999c58 -26.667 101.667 -54.667 131 -84c72.667 -72 109 -161.333 109 -268
c0 -119.333 -42.333 -221.666 -127 -306.999c-96 -95.333 -224 -143 -384 -143c-152.667 0 -281.667 47 -387 141c-26.667 23.333 -55.667 54 -87 92z" />
    <glyph glyph-name="four" unicode="4" vert-adv-y="2458" 
d="M712 0v293h-739l975 1209v-1004h159l-27 -205h-132v-293h-236zM726 498v431l-337 -431h337z" />
    <glyph glyph-name="five" unicode="5" vert-adv-y="2458" 
d="M229 336c40.667 -41.333 77.333 -71 110 -89c60 -32.667 121.667 -49 185 -49c84.667 0 154.667 27.667 210 83c54 53.333 81 118.333 81 195s-27 142 -81 196c-61.333 61.333 -144 92 -248 92c-98.667 0 -200 -27.333 -304 -82l31 768h738l-27 -236h-500l-15 -254
c55.333 8.66699 103.333 13 144 13c154.667 0 280 -48.667 376 -146c93.333 -93.333 140 -210 140 -350c0 -141.333 -49 -261 -147 -359c-102.667 -101.333 -233 -152 -391 -152c-126 0 -241.333 33.333 -346 100c-37.333 24 -83.333 63 -138 117z" />
    <glyph glyph-name="six" unicode="6" vert-adv-y="2458" 
d="M512 976c38 5.33301 71.667 8 101 8c140.667 0 256 -44.667 346 -134c95.333 -95.333 143 -218 143 -368c0 -146.667 -48.667 -268.667 -146 -366c-100 -100 -224.333 -150 -373 -150c-140 0 -257.667 47.667 -353 143c-47.333 47.333 -84.333 103.666 -111 168.999
c-30 71.333 -45 145.333 -45 222c0 172.667 71 360.334 213 563.001c74 106 185 235 333 387h342c-137.333 -108 -287.333 -266 -450 -474zM586 767c-70.667 0 -131.667 -25.666 -183 -76.999c-55.333 -55.333 -83 -123.333 -83 -204c0 -84.667 28 -155 84 -211
c51.333 -51.333 112.333 -77 183 -77c70 0 130.333 25.667 181 77c56 55.333 84 124.333 84 207c0 83.333 -28 152.666 -84 207.999c-51.333 51.333 -112 77 -182 77z" />
    <glyph glyph-name="seven" unicode="7" vert-adv-y="2458" 
d="M223 0l553 1219h-680l27 231h1011l-645 -1450h-266z" />
    <glyph glyph-name="eight" unicode="8" vert-adv-y="2458" 
d="M358 797c-58 32.667 -100.668 64.666 -128.001 95.999c-52.667 60.667 -79 131.667 -79 213c0 98.667 34.667 183 104 253c82.667 83.333 193.334 125 332.001 125c139.333 0 250.333 -41.667 333 -125c69.333 -70.667 104 -155 104 -253
c0 -81.333 -26.333 -152.333 -79 -213c-27.333 -31.333 -70 -63.333 -128 -96c72 -42 125.333 -82.333 160 -121c69.333 -79.333 104 -169.666 104 -270.999c0 -113.333 -41 -211.666 -123 -294.999c-95.333 -96 -219 -144 -371 -144c-151.333 0 -275 48 -371 144
c-82.667 83.333 -124 181.666 -124 294.999c0 100.667 35.333 191 106 271c34.667 38.667 88 79 160 121zM587.999 892.999c28 11.333 47 19.334 57 24.001c88.667 41.333 133 100 133 176c0 45.333 -16.667 84.666 -50 117.999c-36 36.667 -82.667 55 -140 55
s-104.666 -18.667 -141.999 -56c-34 -34 -51 -73 -51 -117c0 -46 20 -88 60 -126c19.333 -18 40.666 -32.667 63.999 -44c42.667 -21.333 65.667 -31.333 69 -30zM587.999 682c-42.667 -16 -71.332 -27.334 -85.999 -34.001c-101.333 -48.667 -152 -123.667 -152 -225
c0 -68 23 -124.667 69 -170c45.333 -46 101.666 -69 168.999 -69c66.667 0 122.667 22.667 168 68c44.667 44.667 67 101 67 169c0 72.667 -25.667 132.334 -77 179.001c-22 20 -46 36 -72 48c-53.333 24 -82 35.333 -86 34z" />
    <glyph glyph-name="nine" unicode="9" vert-adv-y="2458" 
d="M660 474c-38 -5.33301 -71.667 -8 -101 -8c-140.667 0 -256 44.667 -346 134c-95.333 95.333 -143 218 -143 368c0 146.667 48.667 268.667 146 366c100 100 224.333 150 373 150c140 0 257.667 -47.667 353 -143c47.333 -47.333 84.333 -103.666 111 -168.999
c30 -71.333 45 -145.666 45 -222.999c0 -174.667 -72 -364.334 -216 -569.001c-66.667 -94.667 -176.667 -221.334 -330 -380.001h-342c137.333 108 287.333 266 450 474zM585 1252c-70 0 -130.334 -25.667 -181.001 -77c-56 -55.333 -84 -124.333 -84 -207s28 -152 84 -208
c50.667 -51.333 111.334 -77 182.001 -77s131.667 25.667 183 77c55.333 56 83 124 83 204c0 86 -28 156.333 -84 211c-52.667 51.333 -113.667 77 -183 77z" />
    <glyph glyph-name="colon" unicode=":" horiz-adv-x="635" vert-adv-y="2458" 
d="M318 227c35.333 0 65.667 -12.6689 91 -38.002s38 -56.333 38 -93c0 -35.333 -12.333 -65.666 -37 -90.999c-26 -26 -57 -39 -93 -39c-48.667 0 -86 21.333 -112 64c-12.667 20.667 -19 42.334 -19 65.001c0 36 13 66.667 39 92c26.667 26.667 57.667 40 93 40z
M318.001 1052c35.333 0 65.667 -12.668 91 -38.001s38 -56.333 38 -93c0 -35.333 -12.333 -65.666 -37 -90.999c-26 -26 -57 -39 -93 -39c-48.667 0 -86 21.333 -112 64c-12.667 21.333 -19 43 -19 65c0 36 13 66.667 39 92c26.667 26.667 57.667 40 93 40z" />
    <glyph glyph-name="semicolon" unicode=";" horiz-adv-x="635" vert-adv-y="2458" 
d="M37 -340l172 528h231l-206 -528h-197zM333 1051c36 0 66.667 -12.667 92 -38s38 -56 38 -92s-12.667 -66.333 -38 -91c-25.333 -26 -56 -39 -92 -39c-48 0 -85 21 -111 63c-12.667 20.667 -19 42.667 -19 66c0 36.667 13 67.667 39 93s56.333 38 91 38z" />
    <glyph glyph-name="less" unicode="&#x3c;" horiz-adv-x="832" vert-adv-y="2458" 
d="M82 655l517 518l151 -151l-367 -367l367 -367l-151 -150z" />
    <glyph glyph-name="equal" unicode="=" horiz-adv-x="1106" vert-adv-y="2458" 
d="M82 344v213h942v-213h-942zM82 754v213h942v-213h-942z" />
    <glyph glyph-name="greater" unicode="&#x3e;" horiz-adv-x="832" vert-adv-y="2458" 
d="M750 655l-517 -517l-151 150l367 367l-367 367l151 151z" />
    <glyph glyph-name="question" unicode="?" horiz-adv-x="1006" vert-adv-y="2458" 
d="M335 226c35.333 0 66 -12.667 92 -38c24.667 -25.333 37 -56 37 -92s-12.333 -66.333 -37 -91c-26 -26 -57 -39 -93 -39c-47.333 0 -84 21 -110 63c-12.667 20.667 -19 42.667 -19 66c0 36.667 13 67.667 39 93s56.333 38 91 38zM230 383l0.000976562 392.998
c93.333 14 161.333 30 204 48c128.667 52.667 193 131.334 193 236.001c0 54 -17.667 98.667 -53 134c-46.667 47.333 -115.667 71 -207 71c-47.333 0 -110 -6.33301 -188 -19l14 220c92.667 12 164.667 18 216 18c147.333 0 264.666 -43.333 351.999 -130
c71.333 -71.333 107 -161.666 107 -270.999c0 -136 -52 -248.667 -156 -338c-38.667 -33.333 -78.667 -59.333 -120 -78s-92.333 -37.667 -153 -57v-193z" />
    <glyph glyph-name="at" unicode="@" horiz-adv-x="1495" vert-adv-y="2458" 
d="M1110 224l40.001 -191.002c-73.333 -26 -133 -43.667 -179 -53s-97.333 -14 -154 -14c-199.333 0 -368.666 67.333 -507.999 202c-152.667 148 -229 333.667 -229 557c0 224 76.333 409.667 229 557c142 136.667 314 205 516 205c128 0 242.333 -24.667 343 -74
c64.667 -31.333 143 -78.666 235 -141.999v-662c0 -104 4.33301 -182.333 13 -235l-203 -20l-16 54c-76 -37.333 -153.667 -56 -233 -56c-104 0 -186.333 28.333 -247 85c-72 67.333 -108 160.333 -108 279c0 118 37 213.667 111 287c71.333 70 161.666 105 270.999 105
c63.333 0 128.333 -14.333 195 -43v123c-104.667 70.667 -220 106 -346 106c-134 0 -244 -41 -330 -123c-50 -47.333 -88.667 -101.666 -116 -162.999c-38 -86.667 -57 -179 -57 -277c0 -186 59.333 -332 178 -438c93.333 -82.667 205.666 -124 336.999 -124
c72.667 0 158.667 18.333 258 55zM1186 914.998c-44.667 24.667 -94.333 37 -149 37c-62.667 0 -112 -15.667 -148 -47c-50.667 -44 -76 -109.667 -76 -197c0 -138 62 -207 186 -207c52.667 0 115 15.667 187 47v367z" />
    <glyph glyph-name="A" unicode="A" horiz-adv-x="1346" vert-adv-y="2458" 
d="M219 0h-258l730 1502l691 -1502h-268l-117 258h-659zM432 465h475l-235 541z" />
    <glyph glyph-name="B" unicode="B" horiz-adv-x="1233" vert-adv-y="2458" 
d="M180 0v1450h432c180 0 311 -40.333 393 -121c60.667 -60 91 -141 91 -243c0 -95.333 -30.333 -172 -91 -230c-30 -28.667 -76.333 -56 -139 -82c62 -19.333 109 -42.333 141 -69c80.667 -66.667 121 -163.334 121 -290.001c0 -276.667 -185 -415 -555 -415h-393z
M432 848.001l143 0.000976562c96 0 167.667 24 215 72c37.333 37.333 56 85.666 56 144.999c0 54 -15.333 96.333 -46 127c-44 43.333 -122.333 65 -235 65h-133v-409zM432 203.002l174 0.000976562c92 0 162 23.333 210 70c40 39.333 60 92.666 60 159.999
c0 64 -18.667 114.667 -56 152c-47.333 46.667 -119.333 70 -216 70h-172v-452z" />
    <glyph glyph-name="C" unicode="C" horiz-adv-x="1331" vert-adv-y="2458" 
d="M1247 107c-60 -40 -111.667 -68.667 -155 -86c-90.667 -36.667 -184.334 -55 -281.001 -55c-192 0 -358 66 -498 198c-78 74 -137.333 161 -178 261c-36.667 92 -55 190 -55 294c0 153.333 38.667 293.666 116 420.999c71.333 116.667 167 205.334 287 266.001
c102.667 52 213.334 78 332.001 78c105.333 0 204 -20.667 296 -62c34.667 -15.333 78.667 -40.333 132 -75l-26 -276c-59.333 51.333 -107.666 87.666 -144.999 108.999c-76 43.333 -157.667 65 -245 65c-133.333 0 -245 -45.333 -335 -136c-46 -46 -82.333 -102 -109 -168
c-27.333 -69.333 -41 -143 -41 -221c0 -107.333 25.333 -204.333 76 -291c45.333 -77.333 107 -135.666 185 -174.999c65.333 -32.667 136.666 -49 213.999 -49c106.667 0 206.667 30.333 300 91c38 24.667 86.333 66.667 145 126z" />
    <glyph glyph-name="D" unicode="D" horiz-adv-x="1479" vert-adv-y="2458" 
d="M180 0v1450h350c158.667 0 307 -26.333 445 -79c140 -53.333 248.333 -143 325 -269c66 -108 99 -233.333 99 -376c0 -177.333 -52 -328 -156 -452c-98 -116.667 -224.667 -196.334 -380 -239.001c-87.333 -23.333 -198.333 -35 -333 -35h-350zM432 231.001
l131 -0.000976562c194.667 0 343.667 51 447 153c86 85.333 129 199 129 341c0 142.667 -43 256.334 -129 341.001c-103.333 102 -252.333 153 -447 153h-131v-988z" />
    <glyph glyph-name="E" unicode="E" horiz-adv-x="1147" vert-adv-y="2458" 
d="M180 0v1450h844v-223h-592v-357h508v-221h-508v-424h602v-225h-854z" />
    <glyph glyph-name="F" unicode="F" horiz-adv-x="1110" vert-adv-y="2458" 
d="M180 0v1450h854v-223h-602v-367h534v-221h-534v-639h-252z" />
    <glyph glyph-name="G" unicode="G" horiz-adv-x="1507" vert-adv-y="2458" 
d="M1291 1071c-71.333 50.667 -127.668 86.332 -169.001 106.999c-87.333 44.667 -178.333 67 -273 67c-144 0 -263.333 -46.667 -358 -140c-99.333 -98.667 -149 -226.334 -149 -383.001c0 -154 48.333 -279 145 -375c94 -94.667 217.667 -142 371 -142
c96.667 0 189.667 22.667 279 68v286h-348v223h600v-671c-80.667 -42 -148.667 -72 -204 -90c-111.333 -36.667 -221.333 -55 -330 -55c-228 0 -414 72 -558 216c-64.667 64.667 -116 141.334 -154 230.001c-42 99.333 -63 203 -63 311
c0 146.667 37.333 282.334 112 407.001c70.667 116.667 167.334 206 290.001 268c112 57.333 236 86 372 86c108.667 0 213.667 -18.333 315 -55c36.667 -13.333 84.667 -35.333 144 -66z" />
    <glyph glyph-name="H" unicode="H" horiz-adv-x="1554" vert-adv-y="2458" 
d="M180 0v1450h252v-578h690v578h252v-1450h-252v649h-690v-649h-252z" />
    <glyph glyph-name="I" unicode="I" horiz-adv-x="612" vert-adv-y="2458" 
d="M180 0v1450h252v-1450h-252z" />
    <glyph glyph-name="J" unicode="J" horiz-adv-x="799" vert-adv-y="2458" 
d="M-10 256c69.333 -34.667 131.333 -52 186 -52c138 0 207 98 207 294v952h252v-997c0 -160 -40.667 -281 -122 -363c-72.667 -72.667 -175 -109 -307 -109c-62.667 0 -126.667 7.66699 -192 23z" />
    <glyph glyph-name="K" unicode="K" horiz-adv-x="1366" vert-adv-y="2458" 
d="M180 0v1450h252v-647l616 647h295l-661 -696l731 -754h-328l-653 678v-678h-252z" />
    <glyph glyph-name="L" unicode="L" horiz-adv-x="1067" vert-adv-y="2458" 
d="M180 0v1450h252v-1223h625v-227h-877z" />
    <glyph glyph-name="M" unicode="M" horiz-adv-x="1683" vert-adv-y="2458" 
d="M12 0l313 1502l518 -1066l517 1066l311 -1502h-250l-158 819l-419 -874l-439 874l-157 -819h-236z" />
    <glyph glyph-name="N" unicode="N" horiz-adv-x="1569" vert-adv-y="2458" 
d="M180 0v1502l956 -968v916h252v-1505l-956 968v-913h-252z" />
    <glyph glyph-name="O" unicode="O" horiz-adv-x="1602" vert-adv-y="2458" 
d="M803 1484c134.667 0 259.669 -37.332 375.002 -111.999c114 -73.333 201.667 -172.333 263 -297c54 -110.667 81 -227.334 81 -350.001c0 -144 -36 -277 -108 -399c-72 -122.667 -169.333 -216 -292 -280c-102 -53.333 -209.333 -80 -322 -80
c-196.667 0 -365.667 73.667 -507 221c-66.667 70 -118.334 150 -155.001 240c-38.667 94 -58 190 -58 288c0 180.667 50 338.667 150 474c69.333 94 153.666 166.667 252.999 218c100 51.333 206.667 77 320 77zM801.002 1245c-119.333 0 -222.333 -42.668 -309 -128.001
c-49.333 -48.667 -86.333 -105.667 -111 -171c-26 -70 -39 -141 -39 -213c0 -168 50.333 -301.333 151 -400c86.667 -85.333 189.667 -128 309 -128c118.667 0 221.334 42.333 308.001 127c48 46.667 85.333 103.334 112 170.001c28.667 70 43 144.333 43 223
c0 109.333 -26 208 -78 296c-47.333 79.333 -110.333 138.333 -189 177c-62.667 31.333 -128.334 47 -197.001 47z" />
    <glyph glyph-name="P" unicode="P" horiz-adv-x="1190" vert-adv-y="2458" 
d="M180 0l0.000976562 1450h336c136 0 242 -12.333 318 -37c121.333 -39.333 208.666 -110.666 261.999 -213.999c28.667 -56 43 -117.333 43 -184c0 -116.667 -39 -214.334 -117 -293.001c-44.667 -44.667 -95.667 -78 -153 -100c-100.667 -38 -210 -57 -328 -57h-56h-53
v-565h-252zM432.001 780h114.999c225.333 0 338 77.667 338 233c0 78 -31 135.333 -93 172c-57.333 33.333 -146.666 50 -267.999 50h-92v-455z" />
    <glyph glyph-name="Q" unicode="Q" horiz-adv-x="1602" vert-adv-y="2458" 
d="M428 96c-53.333 24 -98.332 54.333 -134.999 91c-66.667 67.333 -118.334 147.333 -155.001 240c-38.667 97.333 -58 197 -58 299c0 172 50 326.333 150 463c68 93.333 152.333 166 253 218c100 51.333 206 77 318 77c136 0 261.667 -37 377 -111
c114 -73.333 201.667 -172.666 263 -297.999c54 -110.667 81 -227.667 81 -351c0 -206.667 -70.333 -384.667 -211 -534c-131.333 -140 -284.333 -210 -459 -210c-22 0 -43 1.33301 -63 4v-11c220.667 -86.667 411.667 -142.667 573 -168l-65 -219
c-100 15.333 -191.667 37.666 -275 66.999c-66.667 24.667 -156 66 -268 124c-119.333 60.667 -217.333 103 -294 127c-60.667 19.333 -124.667 33 -192 41l72 166c22.667 -2.66699 52 -7.66699 88 -15zM801.001 1245c-119.333 0 -222.333 -42.668 -309 -128.001
c-49.333 -48.667 -86.333 -105.667 -111 -171c-26 -70 -39 -141 -39 -213c0 -168 50.333 -301.333 151 -400c86.667 -85.333 189.667 -128 309 -128c118.667 0 221.334 42.333 308.001 127c48 46.667 85.333 103.334 112 170.001c28.667 70 43 144.333 43 223
c0 109.333 -26 208 -78 296c-47.333 79.333 -110.333 138.333 -189 177c-62.667 31.333 -128.334 47 -197.001 47z" />
    <glyph glyph-name="R" unicode="R" horiz-adv-x="1298" vert-adv-y="2458" 
d="M180 0v1450h336c139.333 0 246 -11.667 320 -35c120.667 -38 207.667 -107.667 261 -209c28 -52.667 42 -109.667 42 -171c0 -115.333 -42.333 -212 -127 -290c-42 -38.667 -105.667 -74.667 -191 -108l469 -637h-297l-440 602h-125v-602h-248zM428 788h118.999
c130 0 223.667 27.667 281 83c38 37.333 57 87.333 57 150c0 78 -31 135.333 -93 172c-57.333 33.333 -146.666 50 -267.999 50h-96v-455z" />
    <glyph glyph-name="S" unicode="S" horiz-adv-x="1110" vert-adv-y="2458" 
d="M98 352c77.333 -47.333 140.33 -81.001 188.997 -101.001c76 -30.667 145.667 -46 209 -46c77.333 0 141.666 18.667 192.999 56c44.667 32 67 78 67 138c0 48 -20.333 91.667 -61 131c-34 33.333 -85 70.333 -153 111l-108 66
c-103.333 62 -176.666 119.667 -219.999 173c-56.667 68.667 -85 144.667 -85 228c0 98 34.333 182 103 252c82 82.667 195.333 124 340 124c114 0 234.667 -29.333 362 -88l-9 -266c-56.667 30 -100.667 51.667 -132 65c-80.667 33.333 -154.667 50 -222 50
c-72 0 -125.333 -18.667 -160 -56c-22.667 -24 -34 -53 -34 -87c0 -26 7 -48.333 21 -67c26.667 -36 84.334 -80 173.001 -132l105 -61c108 -64 188 -127.333 240 -190c64 -77.333 96 -164.666 96 -261.999c0 -113.333 -39.333 -209 -118 -287
c-91.333 -91.333 -219.666 -137 -384.999 -137c-129.333 0 -258.666 28.667 -387.999 86z" />
    <glyph glyph-name="T" unicode="T" horiz-adv-x="1247" vert-adv-y="2458" 
d="M750 1229v-1229h-252v1229h-492v221h1233v-221h-489z" />
    <glyph glyph-name="U" unicode="U" horiz-adv-x="1544" vert-adv-y="2458" 
d="M416 1450v-839.999c0 -282 118 -423 354 -423c239.333 0 359 143 359 429v834h252v-831c0 -216 -58.667 -382.667 -176 -500c-101.333 -102 -246 -153 -434 -153s-333.667 52 -437 156c-113.333 113.333 -170 277.666 -170 492.999v835h252z" />
    <glyph glyph-name="V" unicode="V" horiz-adv-x="1280" vert-adv-y="2458" 
d="M638 -55l-667 1505h270l406 -952l405 952h256z" />
    <glyph glyph-name="W" unicode="W" horiz-adv-x="1767" vert-adv-y="2458" 
d="M532 -55l-561 1505h262l311 -870l342 922l354 -922l294 870h262l-559 -1505l-353 902z" />
    <glyph glyph-name="X" unicode="X" horiz-adv-x="1358" vert-adv-y="2458" 
d="M250 0h-283l541 756l-521 694h308l366 -481l344 481h281l-481 -672l585 -778h-313l-426 565z" />
    <glyph glyph-name="Y" unicode="Y" horiz-adv-x="1282" vert-adv-y="2458" 
d="M503 0v659l-550 791h299l385 -573l393 573h299l-570 -786v-664h-256z" />
    <glyph glyph-name="Z" unicode="Z" horiz-adv-x="1352" vert-adv-y="2458" 
d="M61 0l809 1231h-709l35 219h1088l-803 -1225h786l-39 -225h-1167z" />
    <glyph glyph-name="bracketleft" unicode="[" horiz-adv-x="711" vert-adv-y="2458" 
d="M669 -34h-485v1556h485v-205h-241v-1146h241v-205z" />
    <glyph glyph-name="backslash" unicode="\" horiz-adv-x="784" vert-adv-y="2458" 
d="M0 1450h246l538 -1450h-245z" />
    <glyph glyph-name="bracketright" unicode="]" horiz-adv-x="711" vert-adv-y="2458" 
d="M41 1522h486v-1556h-486v205h242v1146h-242v205z" />
    <glyph glyph-name="asciicircum" unicode="^" horiz-adv-x="1117" vert-adv-y="2458" 
d="M559 1331l517 -518l-150 -150l-367 367l-367 -367l-151 150z" />
    <glyph glyph-name="underscore" unicode="_" horiz-adv-x="1024" vert-adv-y="2458" 
d="M0 -197h1024v-213h-1024v213z" />
    <glyph glyph-name="grave" unicode="`" horiz-adv-x="1365" vert-adv-y="2458" 
d="M428 1661l541 -198l-75 -205l-541 198z" />
    <glyph glyph-name="a" unicode="a" horiz-adv-x="1369" vert-adv-y="2458" 
d="M1232 0l-223 -32.001c-7.33301 28 -13.333 61 -18 99c-136 -66.667 -258.333 -100 -367 -100c-150 0 -276 50.667 -378 152c-49.333 48.667 -89.333 107.667 -120 177c-37.333 84.667 -56 172.334 -56 263.001c0 124.667 33 238.667 99 342
c56 86.667 128.667 153.667 218 201c87.333 46 183.333 69 288 69c95.333 0 199.333 -17.667 312 -53l218 39v-907c2.66699 -108 11.667 -191.333 27 -250zM971 266.999v643.001c-82.667 39.333 -171.334 59 -266.001 59c-113.333 0 -205.666 -34.667 -276.999 -104
c-78 -76 -117 -177.667 -117 -305c0 -120.667 36.667 -218.334 110 -293.001c64 -65.333 146 -98 246 -98c74 0 149.667 19 227 57c15.333 7.33301 41 21 77 41z" />
    <glyph glyph-name="b" unicode="b" horiz-adv-x="1369" vert-adv-y="2458" 
d="M398 1476l-0.000976562 -397c127.333 61.333 242.666 92 345.999 92c150.667 0 277 -50.667 379 -152c49.333 -48.667 89.333 -107.667 120 -177c37.333 -84.667 56 -172.667 56 -264c0 -124 -33 -237.667 -99 -341c-56 -87.333 -128.667 -154.333 -218 -201
c-87.333 -46 -183.666 -69 -288.999 -69c-95.333 0 -198.666 17.667 -309.999 53l-219 -40v1470zM397.999 871l0.000976562 -643c83.333 -39.333 172 -59 266 -59c112.667 0 205 34.667 277 104c78 76 117 177.667 117 305c0 120 -36.667 217.667 -110 293
c-63.333 65.333 -145 98 -245 98c-75.333 0 -151.333 -19 -228 -57c-16.667 -8 -42.334 -21.667 -77.001 -41z" />
    <glyph glyph-name="c" unicode="c" horiz-adv-x="1171" vert-adv-y="2458" 
d="M1089 85c-64.667 -33.333 -117.335 -57.333 -158.002 -72c-86 -30.667 -173 -46 -261 -46c-172 0 -314 55 -426 165c-116 114.667 -174 258 -174 430c0 175.333 59.333 321 178 437c118 114.667 268.333 172 451 172c136 0 272.333 -35 409 -105l-26 -208
c-151.333 74 -274.666 111 -369.999 111c-113.333 0 -208.333 -39 -285 -117c-77.333 -78.667 -116 -173.667 -116 -285c0 -109.333 38.667 -204.333 116 -285c72.667 -75.333 159.667 -113 261 -113c88.667 0 181.334 24 278.001 72c36 18 86.667 48.333 152 91z" />
    <glyph glyph-name="d" unicode="d" horiz-adv-x="1369" vert-adv-y="2458" 
d="M1232 0l-223 -32.001c-7.33301 28.667 -13.333 61.667 -18 99c-135.333 -66.667 -257.666 -100 -366.999 -100c-150 0 -276 50.667 -378 152c-50 48.667 -90.333 107.667 -121 177c-37.333 84.667 -56 172.334 -56 263.001c0 124.667 33 238.667 99 342
c56 87.333 128.667 154.333 218 201c87.333 46 183.666 69 288.999 69c89.333 0 188 -15.667 296 -47v326l234 26v-1226c2.66699 -108 11.667 -191.333 27 -250zM971 266.999v643.001c-83.333 39.333 -172.333 59 -267 59c-112.667 0 -205 -34.667 -277 -104
c-78 -76 -117 -177.667 -117 -305c0 -120.667 36.667 -218.334 110 -293.001c64 -65.333 146 -98 246 -98c74 0 150 19 228 57z" />
    <glyph glyph-name="e" unicode="e" horiz-adv-x="1259" vert-adv-y="2458" 
d="M1129 351l-9 -233.999c-76 -42.667 -133.333 -72.334 -172 -89.001c-92 -40.667 -188 -61 -288 -61c-173.333 0 -315 54.333 -425 163s-165 252.334 -165 431.001c0 172.667 55.667 316 167 430c116.667 120 259.334 180 428.001 180c150.667 0 274 -46 370 -138
c43.333 -42 78 -91.667 104 -149c34 -76.667 51 -156 51 -238c0 -34 -1.66699 -75 -5 -123l-892 -61c10.667 -52.667 28.667 -97.334 54 -134.001c71.333 -106 175.333 -159 312 -159c98 0 200.333 27.333 307 82c39.333 20 93.666 53.333 162.999 100zM973 707.001
c-3.33301 54 -20.332 102 -50.999 144c-58 78.667 -145 118 -261 118c-135.333 0 -237.333 -54.333 -306 -163c-24.667 -39.333 -42.334 -86 -53.001 -140z" />
    <glyph glyph-name="f" unicode="f" horiz-adv-x="729" vert-adv-y="2458" 
d="M432 0h-233.999v943h-198v195h198v103c0 92.667 25.667 166.667 77 222c57.333 62 142.666 93 255.999 93c62.667 0 132.667 -13.333 210 -40l-37 -208c-52 32 -98 48 -138 48c-44.667 0 -80 -15 -106 -45c-18.667 -21.333 -28 -52.333 -28 -93v-80h291v-195h-291v-943z
" />
    <glyph glyph-name="g" unicode="g" horiz-adv-x="1355" vert-adv-y="2458" 
d="M971 59c-127.333 -61.333 -242.666 -92.002 -345.999 -92.002c-150.667 0 -277 50.667 -379 152c-49.333 48.667 -89.333 107.667 -120 177c-37.333 84.667 -56 172.667 -56 264c0 124 33 237.667 99 341c56 87.333 128.667 154.333 218 201c87.333 46 183.333 69 288 69
c96 0 199.667 -17.667 311 -53l219 39v-1029c0 -188.667 -29 -328 -87 -418c-92 -142 -253 -213 -483 -213c-128.667 0 -238 20 -328 60c-32.667 14.667 -74 38.334 -124 71.001l-33 247c80.667 -61.333 149.667 -103.666 207 -126.999c81.333 -32.667 169 -49 263 -49
c107.333 0 192.666 22 255.999 66s95 117.333 95 220v74zM971 266.998l-0.000976562 643.001c-83.333 39.333 -172 59 -266 59c-113.333 0 -205.666 -34.667 -276.999 -104c-78 -76 -117 -177.667 -117 -305c0 -120.667 36.667 -218.334 110 -293.001
c63.333 -65.333 145.333 -98 246 -98c74 0 149.667 19 227 57z" />
    <glyph glyph-name="h" unicode="h" horiz-adv-x="1373" vert-adv-y="2458" 
d="M164 0l-0.000976562 1450l234 26v-497c66.667 64 129.334 109.667 188.001 137c78.667 36.667 162.334 55 251.001 55c91.333 0 171.666 -21.333 240.999 -64c73.333 -44.667 121.333 -107.334 144 -188.001c13.333 -48 20 -111.667 20 -191v-728h-234v657
c0 88.667 -4 147.334 -12 176.001c-24.667 90.667 -95 136 -211 136c-114.667 0 -212 -41.333 -292 -124c-43.333 -44.667 -71 -92.334 -83 -143.001c-8 -32.667 -12 -76 -12 -130v-572h-234z" />
    <glyph glyph-name="i" unicode="i" horiz-adv-x="535" vert-adv-y="2458" 
d="M384 0h-234v1131l234 26v-1157zM266 1540c42 0 78 -14.6689 108 -44.002c29.333 -30 44 -66 44 -108c0 -41.333 -14.333 -76.666 -43 -105.999c-29.333 -29.333 -65.666 -44 -108.999 -44c-56.667 0 -99.334 23.667 -128.001 71c-14.667 24 -22 50 -22 78
c0 44.667 14.667 81.334 44 110.001c30 28.667 65.333 43 106 43z" />
    <glyph glyph-name="j" unicode="j" horiz-adv-x="535" vert-adv-y="2458" 
d="M384 1157v-1521l-234 -26v1521zM266 1540c42 0 78.001 -14.668 108.001 -44.001c29.333 -29.333 44 -65.333 44 -108c0 -42 -14.333 -77.333 -43 -106c-29.333 -29.333 -65.666 -44 -108.999 -44c-56.667 0 -99.334 23.667 -128.001 71c-14.667 24 -22 50 -22 78
c0 44.667 14.667 81.334 44 110.001s64.666 43 105.999 43z" />
    <glyph glyph-name="k" unicode="k" horiz-adv-x="1232" vert-adv-y="2458" 
d="M398 0h-234v1450l234 26v-825l431 487h272l-445 -503l618 -635h-292l-584 601v-601z" />
    <glyph glyph-name="l" unicode="l" horiz-adv-x="562" vert-adv-y="2458" 
d="M398 0h-234v1450l234 26v-1476z" />
    <glyph glyph-name="m" unicode="m" horiz-adv-x="2125" vert-adv-y="2458" 
d="M1994 0l-234 0.000976562v666c0 100.667 -14.667 175.667 -44 225c-32.667 56 -92 84 -178 84c-104 0 -189.667 -38.333 -257 -115c-42 -46.667 -69 -101.334 -81 -164.001c-7.33301 -36.667 -11 -90.667 -11 -162v-534h-234v666c0 100.667 -14.667 176 -44 226
c-32.667 56 -92 84 -178 84c-104 0 -189.667 -38.333 -257 -115c-42 -46.667 -69 -101.667 -81 -165c-7.33301 -36.667 -11 -90.667 -11 -162v-534h-234v1131l234 26v-162c51.333 50 99.666 87 144.999 111c82.667 43.333 172 65 268 65c108 0 197.333 -38.333 268 -115
c22.667 -23.333 42.334 -53.333 59.001 -90c112 136.667 260 205 444 205c94.667 0 177.667 -22 249 -66c118 -72 177 -204.667 177 -398v-707z" />
    <glyph glyph-name="n" unicode="n" horiz-adv-x="1359" vert-adv-y="2458" 
d="M150 0v1131l234 26v-178c66.667 64 129.334 109.667 188.001 137c79.333 36.667 163 55 251 55c91.333 0 171.666 -21.333 240.999 -64c73.333 -44.667 121.333 -107.334 144 -188.001c13.333 -48.667 20 -112.334 20 -191.001v-728h-234v657
c0 88.667 -4 147.334 -12 176.001c-24.667 90.667 -95 136 -211 136c-114.667 0 -212 -41.333 -292 -124c-43.333 -44.667 -71 -92.334 -83 -143.001c-8 -32.667 -12 -76 -12 -130v-572h-234z" />
    <glyph glyph-name="o" unicode="o" horiz-adv-x="1349" vert-adv-y="2458" 
d="M677 1171c171.333 0 314 -57 428 -171c53.333 -53.333 95.333 -117 126 -191c32.667 -78 49 -158 49 -240c0 -114.667 -30 -222.334 -90 -323.001c-56 -92 -131.667 -162.667 -227 -212c-87.333 -44.667 -183 -67 -287 -67c-174.667 0 -319 57.667 -433 173
c-52.667 52.667 -94 115.334 -124 188.001c-32.667 78 -49 156 -49 234c0 120 29.667 229.667 89 329c54.667 91.333 130.667 162.333 228 213c87.333 44.667 184 67 290 67zM677 969c-99.333 0 -184 -36.001 -254 -108.001c-74.667 -77.333 -112 -172.666 -112 -285.999
c0 -122 37 -221.333 111 -298c70 -72 154.333 -108 253 -108c98 0 182.333 36.333 253 109c74 76.667 111 173.667 111 291c0 116.667 -37 213.667 -111 291c-70 72.667 -153.667 109 -251 109z" />
    <glyph glyph-name="p" unicode="p" horiz-adv-x="1355" vert-adv-y="2458" 
d="M123 1138l223.001 33c8 -32.667 14 -66 18 -100c135.333 66.667 257.666 100 366.999 100c149.333 0 275 -50.667 377 -152c50 -48.667 90.333 -107.667 121 -177c37.333 -84.667 56 -172.667 56 -264c0 -124 -33 -237.667 -99 -341
c-56 -87.333 -128.667 -154.333 -218 -201c-87.333 -46 -184 -69 -290 -69c-90 0 -188 15.667 -294 47v-378l-234 -26v1278c-2.66699 106.667 -11.667 190 -27 250zM384.001 871l0.000976562 -643c83.333 -39.333 172 -59 266 -59c113.333 0 205.666 34.667 276.999 104
c78 76 117 177.667 117 305c0 120 -36.667 217.667 -110 293c-63.333 65.333 -145 98 -245 98c-75.333 0 -151.333 -19 -228 -57c-16 -8 -41.667 -21.667 -77 -41z" />
    <glyph glyph-name="q" unicode="q" horiz-adv-x="1355" vert-adv-y="2458" 
d="M971 -390l-0.000976562 448.999c-127.333 -61.333 -242.666 -92 -345.999 -92c-150.667 0 -277 50.667 -379 152c-49.333 48.667 -89.333 107.667 -120 177c-37.333 84.667 -56 172.334 -56 263.001c0 124.667 33 238.667 99 342c56 86.667 128.667 153.667 218 201
c87.333 46 183.333 69 288 69c96.667 0 200.667 -17.667 312 -53l218 39v-1521zM970.999 266.999l-0.000976562 643.001c-83.333 39.333 -172 59 -266 59c-113.333 0 -205.666 -34.667 -276.999 -104c-78 -76 -117 -177.667 -117 -305
c0 -120.667 36.667 -218.334 110 -293.001c63.333 -65.333 145.333 -98 246 -98c74 0 149.667 19 227 57z" />
    <glyph glyph-name="r" unicode="r" horiz-adv-x="792" vert-adv-y="2458" 
d="M384 0h-234v1131l234 26v-156c60.667 56 123 97 187 123c60.667 23.333 141 39 241 47l-39 -209c-127.333 -0.666992 -227 -35 -299 -103c-41.333 -40 -68 -90.667 -80 -152c-6.66699 -30.667 -10 -83.667 -10 -159v-548z" />
    <glyph glyph-name="s" unicode="s" horiz-adv-x="988" vert-adv-y="2458" 
d="M94 303c160 -89.333 294.001 -133.997 402.001 -133.997c55.333 0 99 11.667 131 35c34.667 25.333 52 60 52 104c0 36 -13.667 66 -41 90c-14.667 12 -55.667 32.667 -123 62l-145 62c-180.667 77.333 -271 178.666 -271 303.999c0 58 17.667 115 53 171
c74 116 197.333 174 370 174c94 0 197 -21.667 309 -65l-3 -235c-72.667 37.333 -130.334 62.666 -173.001 75.999c-56 17.333 -108 26 -156 26c-56.667 0 -100.667 -13.667 -132 -41c-26.667 -22.667 -40 -50.334 -40 -83.001c0 -27.333 8.33301 -49.333 25 -66
c24.667 -24 61.334 -46.333 110.001 -67l152 -65c101.333 -42.667 173.333 -84.667 216 -126c55.333 -54 83 -124 83 -210c0 -96 -32 -175 -96 -237c-76.667 -74 -188.667 -111 -336 -111c-118.667 0 -239.334 30.667 -362.001 92z" />
    <glyph glyph-name="t" unicode="t" horiz-adv-x="743" vert-adv-y="2458" 
d="M701 217l-26.001 -215c-55.333 -23.333 -108.666 -35 -159.999 -35c-64 0 -123 14.667 -177 44c-96 52 -144 148.667 -144 290v642h-194v195h194v312l234 26v-338h295v-195h-295v-636c0 -46 12.333 -80 37 -102c26 -24 58 -36 96 -36c39.333 0 86 16 140 48z" />
    <glyph glyph-name="u" unicode="u" horiz-adv-x="1359" vert-adv-y="2458" 
d="M1209 1157l-0.000976562 -1157l-234 -26v185c-66 -63.333 -128.667 -109 -188 -137c-79.333 -36.667 -162.666 -55 -249.999 -55c-92 0 -172.667 21.333 -242 64c-73.333 44.667 -121.333 107.334 -144 188.001c-13.333 48 -20 111.667 -20 191v721l234 26v-677
c0 -88.667 4 -147 12 -175c24.667 -91.333 95 -137 211 -137c114.667 0 212 41.333 292 124c43.333 44.667 71 92.334 83 143.001c8 33.333 12 77 12 131v565z" />
    <glyph glyph-name="v" unicode="v" horiz-adv-x="1109" vert-adv-y="2458" 
d="M550 -54l-564 1192h260l304 -722l319 722h254z" />
    <glyph glyph-name="w" unicode="w" horiz-adv-x="1714" vert-adv-y="2458" 
d="M518 -54l-532 1192h260l278 -696l345 751l343 -751l268 696h247l-520 -1192l-338 763z" />
    <glyph glyph-name="x" unicode="x" horiz-adv-x="1182" vert-adv-y="2458" 
d="M-14 0l481 596l-420 542h280l273 -373l266 373h280l-419 -532l468 -606h-279l-321 438l-329 -438h-280z" />
    <glyph glyph-name="y" unicode="y" horiz-adv-x="1090" vert-adv-y="2458" 
d="M-14 1138h265l294 -863l298 863h260l-572 -1502l-242 -26l151 393z" />
    <glyph glyph-name="z" unicode="z" horiz-adv-x="1047" vert-adv-y="2458" 
d="M-14 0l675 943h-605l39 195h952l-646 -943h644l-33 -195h-1026z" />
    <glyph glyph-name="braceleft" unicode="{" horiz-adv-x="643" vert-adv-y="2458" 
d="M310 745c48.667 -25.333 81.001 -49.665 97.001 -72.998c13.333 -19.333 20 -49 20 -89c0 -3.33301 -0.333008 -7.33301 -1 -12l-8 -195v-17c0 -125.333 52.667 -188 158 -188h27v-205h-16c-126.667 0 -220 22.667 -280 68c-74 56.667 -111 144.334 -111 263.001
c0 1.33301 0.333008 10.333 1 27l8 164c0.666992 9.33301 1 19.666 1 30.999c0 54 -6 92.667 -18 116c-14.667 31.333 -50 68 -106 110c55.333 41.333 90.666 77.666 105.999 108.999c12 23.333 18 62 18 116c0 11.333 -0.333008 21.666 -1 30.999l-8 164v27
c0 120.667 36.667 208 110 262c62 45.333 155.333 68 280 68h16v-204h-27c-44.667 0 -82 -13.667 -112 -41c-28.667 -21.333 -44 -76 -46 -164l8 -195c0.666992 -4.66699 1 -8.66699 1 -12c0 -40 -6.66699 -69.667 -20 -89c-16 -23.333 -48.333 -47.333 -97 -72z" />
    <glyph glyph-name="bar" unicode="|" horiz-adv-x="1024" vert-adv-y="2458" 
d="M391 -410v1860h242v-1860h-242z" />
    <glyph glyph-name="braceright" unicode="}" horiz-adv-x="644" vert-adv-y="2458" 
d="M333 745c-48 24.667 -80.001 48.6641 -96.001 71.9971c-13.333 19.333 -20 49 -20 89v12l8 195l1 17c0 125.333 -52.667 188 -158 188h-27v204h16c126 0 219.333 -22.667 280 -68c74 -55.333 111 -142.666 111 -261.999c0 -2.66699 -0.333008 -11.667 -1 -27l-8 -164
c-0.666992 -11.333 -1 -21.666 -1 -30.999c0 -54 5.66699 -92.667 17 -116c15.333 -31.333 51 -67.666 107 -108.999c-56 -42 -91.667 -78.667 -107 -110c-11.333 -23.333 -17 -62 -17 -116c0 -9.33301 0.333008 -19.666 1 -30.999l8 -164c0.666992 -15.333 1 -24 1 -26
c0 -120.667 -37 -208.667 -111 -264c-61.333 -45.333 -154.666 -68 -279.999 -68h-16v205h27c105.333 0 158 62.667 158 188l-1 17l-8 195v12c0 40 6.66699 69.667 20 89c16 23.333 48 47.666 96 72.999z" />
    <glyph glyph-name="asciitilde" unicode="~" horiz-adv-x="1106" vert-adv-y="2458" 
d="M980 711c-46 -42 -84 -71 -114 -87c-54.667 -29.333 -113 -44 -175 -44c-43.333 0 -82.333 7 -117 21l-80 33c-38.667 15.333 -72 23 -100 23c-44 0 -101 -27 -171 -81l-97 174c46 41.333 84 70.333 114 87c54.667 29.333 113 44 175 44c42.667 0 81.667 -7 117 -21
l80 -33c37.333 -15.333 70.333 -23 99 -23c44.667 0 101.667 26.667 171 80z" />
    <glyph glyph-name="afii10051" horiz-adv-x="1645" vert-adv-y="2458" 
d="M670 559v-559.001h-252v1227h-410v223h1071v-223h-409v-248c66.667 64 129.334 109.667 188.001 137c79.333 36.667 162.666 55 249.999 55c90.667 0 171 -21.333 241 -64c74 -45.333 122 -108 144 -188c12 -43.333 18.667 -107 20 -191v-308
c0 -122 -16.333 -213.667 -49 -275c-62 -119.333 -183.333 -179 -364 -179c-76.667 0 -154.667 11.333 -234 34l-27 253c81.333 -35.333 164 -53 248 -53c62 0 107.333 14.333 136 43c25.333 24.667 38 67.667 38 129v272c0 88.667 -4 147 -12 175
c-25.333 90.667 -91 136 -197 136c-111.333 0 -207 -41.333 -287 -124c-44 -44.667 -71.667 -92 -83 -142c-7.33301 -31.333 -11.333 -74.666 -12 -129.999z" />
    <glyph glyph-name="afii10052" horiz-adv-x="1038" vert-adv-y="2458" 
d="M180 0v1450h844v-223h-592v-1227h-252zM858 1975l75 -205l-541 -198l-75 205z" />
    <glyph glyph-name="afii10061" horiz-adv-x="1366" vert-adv-y="2458" 
d="M180 0v1450h252v-647l616 647h295l-661 -696l731 -754h-328l-653 678v-678h-252zM998 1975l75 -205l-541 -198l-75 205z" />
    <glyph glyph-name="afii10060" horiz-adv-x="1636" vert-adv-y="2458" 
d="M662 559v-559.001h-252v1227h-410v223h1071v-223h-409v-248c66.667 64 129.334 109.667 188.001 137c79.333 36.667 162.666 55 249.999 55c90.667 0 171 -21.333 241 -64c74 -45.333 122 -108 144 -188c12 -43.333 18.667 -107 20 -191v-728h-252v644
c0 88.667 -4 147 -12 175c-25.333 90.667 -91 136 -197 136c-111.333 0 -207 -41.333 -287 -124c-44 -44.667 -71.667 -92 -83 -142c-7.33301 -31.333 -11.333 -74.666 -12 -129.999z" />
    <glyph glyph-name="afii10145" horiz-adv-x="1554" vert-adv-y="2458" 
d="M180 0v1450h252v-1225h690v1225h252v-1450h-471v-358l-252 -32v390h-471z" />
    <glyph glyph-name="afii10099" horiz-adv-x="1437" vert-adv-y="2458" 
d="M464 0l-232.001 -0.000976562v943h-273v195h273v312l232 32v-503c66.667 64 129.334 109.667 188.001 137c79.333 36.667 163 55 251 55c90.667 0 171 -21.333 241 -64c74.667 -46 122.667 -108.667 144 -188c12 -44 18 -107.667 18 -191v-628
c-0.666992 -126.667 -9 -215.334 -25 -266.001c-17.333 -66 -48.333 -116.333 -93 -151c-64 -48 -165 -72.333 -303 -73h-68l-30 199h123c71.333 0.666992 117 16.334 137 47.001c12.667 17.333 20.667 45.333 24 84c2 34.667 3 73.334 3 116.001v602
c0 88.667 -4 147 -12 175c-24.667 90.667 -95 136 -211 136c-114.667 0 -212 -41 -292 -123c-43.333 -45.333 -71 -93.333 -83 -144c-8 -32.667 -12 -76 -12 -130v-572z" />
    <glyph glyph-name="afii10109" horiz-adv-x="1208" vert-adv-y="2458" 
d="M150 0v1138h232v-438l504 438h305l-622 -531l686 -607h-316l-557 505v-505h-232zM828 1661l75 -205l-541 -198l-75 205z" />
    <glyph glyph-name="afii10108" horiz-adv-x="1437" vert-adv-y="2458" 
d="M464 0h-232.001v943h-273v195h273v312l232 32v-503c66.667 64 129.334 109.667 188.001 137c79.333 36.667 163 55 251 55c90.667 0 171 -21.333 241 -64c74.667 -46 122.667 -108.667 144 -188c12 -44 18 -107.667 18 -191v-728h-232v657
c0 88.667 -4 147.334 -12 176.001c-24.667 90.667 -95 136 -211 136c-114.667 0 -212 -41.333 -292 -124c-43.333 -44.667 -71 -92.334 -83 -143.001c-8 -32.667 -12 -76 -12 -130v-572z" />
    <glyph glyph-name="nonbreakingspace" unicode="&#xa0;" horiz-adv-x="588" vert-adv-y="2458" 
 />
    <glyph glyph-name="exclamdown" unicode="&#xa1;" horiz-adv-x="1278" vert-adv-y="2458" 
d="M-47 1450h300l417 -829l361 829h294l-673 -1450l-285 -27l173 380zM1017 1759c-52 -43.333 -92.667 -73.332 -122 -89.999c-79.333 -47.333 -169.666 -71 -270.999 -71c-108.667 0 -205.334 27.333 -290.001 82c-24 15.333 -58.667 41.666 -104 78.999l107 166
c45.333 -34.667 82.333 -58.667 111 -72c58.667 -28 117 -42 175 -42c66 0 130.667 17 194 51c22.667 12 53.667 33 93 63z" />
    <glyph glyph-name="cent" unicode="&#xa2;" horiz-adv-x="1090" vert-adv-y="2458" 
d="M-14 1138h265l294 -863l298 863h260l-572 -1502l-242 -26l151 393zM941 1445c-52.667 -43.333 -93.333 -73.332 -122 -89.999c-80 -47.333 -170.667 -71 -272 -71c-108.667 0 -205 27.333 -289 82c-24 15.333 -58.667 41.666 -104 78.999l107 166
c45.333 -34.667 82.333 -58.667 111 -72c58 -28 116.333 -42 175 -42c66 0 130.667 17 194 51c22.667 12 53.667 33 93 63z" />
    <glyph glyph-name="sterling" unicode="&#xa3;" horiz-adv-x="799" vert-adv-y="2458" 
d="M-10 256c69.333 -34.667 131.333 -52 186 -52c138 0 207 98 207 294v952h252v-997c0 -160 -40.667 -281 -122 -363c-72.667 -72.667 -175 -109 -307 -109c-62.667 0 -126.667 7.66699 -192 23z" />
    <glyph glyph-name="currency" unicode="&#xa4;" horiz-adv-x="1241" vert-adv-y="2458" 
d="M263 1110l-205 207l131 131l205 -205c68 44 143.667 66 227 66c84.667 0 161 -22 229 -66l205 204l133 -130l-207 -207c42.667 -71.333 64 -146.333 64 -225c0 -82 -21.333 -157 -64 -225l207 -208l-133 -130l-205 207c-68 -44 -143.667 -66 -227 -66
c-84.667 0 -161 22 -229 66l-205 -207l-131 131l205 207c-42.667 65.333 -64 140.333 -64 225c0 82.667 21.333 157.667 64 225zM624 1118c-64 0 -119.001 -22.999 -165.001 -68.999c-46 -45.333 -69 -100.333 -69 -165c0 -63.333 22.667 -117.333 68 -162
c45.333 -45.333 100.333 -68 165 -68s119.667 22.667 165 68s68 99.666 68 162.999c0 49.333 -15 94.333 -45 135c-47.333 65.333 -109.666 98 -186.999 98z" />
    <glyph glyph-name="yen" unicode="&#xa5;" horiz-adv-x="1038" vert-adv-y="2458" 
d="M772 1450v137l252 27v-387h-592v-1227h-252v1450h592z" />
    <glyph glyph-name="brokenbar" unicode="&#xa6;" horiz-adv-x="1024" vert-adv-y="2458" 
d="M634 -410h-242v815h242v-815zM392 1450h242v-772h-242v772z" />
    <glyph glyph-name="section" unicode="&#xa7;" horiz-adv-x="1042" vert-adv-y="2458" 
d="M869 300c75.333 -53.333 113.002 -133.666 113.002 -240.999c0 -99.333 -32.667 -181.666 -98 -246.999c-77.333 -78 -188.333 -117 -333 -117c-70 0 -139.667 11 -209 33c-46.667 15.333 -116.667 45.333 -210 90l-26 266c85.333 -52 155.333 -90.333 210 -115
c93.333 -41.333 174 -62 242 -62c49.333 0 91.666 13.333 126.999 40c34 25.333 51 60.666 51 105.999c0 37.333 -14.667 68.666 -44 93.999c-14.667 12.667 -57.667 34.334 -129 65.001l-152 65c-104 44.667 -178.333 94.667 -223 150c-40.667 50.667 -61 113 -61 187
c0 80 21.667 148.667 65 206c16.667 21.333 43.667 46 81 74c-34.667 31.333 -60 58.333 -76 81c-31.333 43.333 -47 98.666 -47 165.999c0 97.333 32 177.666 96 240.999c69.333 68 164.666 102 285.999 102c112.667 0 232 -27.333 358 -82v-251
c-126.667 80.667 -246 121 -358 121c-42.667 0 -77 -10.667 -103 -32c-28.667 -23.333 -43 -53.333 -43 -90c0 -29.333 10 -53.666 30 -72.999c26 -25.333 64 -48.666 114 -69.999l160 -68c107.333 -45.333 183.333 -89.666 228 -132.999c58 -56 87 -129.333 87 -220
c0 -78.667 -22 -148.334 -66 -209.001c-14.667 -20.667 -38 -46.334 -70 -77.001zM644.002 418c76.667 48 115 103 115 165c0 46 -32.667 83.667 -98 113l-188 86c-73.333 -40 -110 -90 -110 -150c0 -26.667 7.66699 -51.667 23 -75c16 -23.333 37.667 -41 65 -53z" />
    <glyph glyph-name="dieresis" unicode="&#xa8;" horiz-adv-x="1147" vert-adv-y="2458" 
d="M180 0v1450h844v-223h-592v-357h508v-221h-508v-424h602v-225h-854zM313 1887c38 0 71.001 -14 99.001 -42c29.333 -29.333 44 -65 44 -107c0 -40.667 -14 -75 -42 -103c-27.333 -27.333 -61.333 -41 -102 -41c-56.667 0 -99.334 23 -128.001 69
c-14 23.333 -21 48 -21 74c0 41.333 14.667 76.333 44 105c30.667 30 66 45 106 45zM885.001 1886c39.333 0 73.668 -14.667 103.001 -44c28.667 -28.667 43 -63.334 43 -104.001s-14 -75 -42 -103s-63 -42 -105 -42c-54.667 0 -96.334 23 -125.001 69
c-14 22.667 -21 48 -21 76c0 40.667 14.667 75.334 44 104.001c30 29.333 64.333 44 103 44z" />
    <glyph glyph-name="copyright" unicode="&#xa9;" horiz-adv-x="1100" vert-adv-y="2458" 
d="M740 810c-57.333 -38 -115.332 -57 -173.999 -57c-77.333 0 -144 26.333 -200 79c-62 59.333 -93 133.333 -93 222c0 90 30 164.667 90 224c55.333 55.333 123.333 83 204 83c58 0 115.333 -18.333 172 -55l-11 -127c-53.333 46.667 -103.333 70 -150 70
c-50 0 -93.333 -18 -130 -54c-37.333 -37.333 -56 -84 -56 -140c0 -55.333 18.667 -101 56 -137c36 -35.333 78 -53 126 -53c57.333 0 114.666 29 171.999 87zM550.001 1569c140.667 0 260.333 -46.665 359 -139.998c100.667 -96.667 151 -219.334 151 -368.001
s-50.333 -271.334 -151 -368.001c-98 -93.333 -217.333 -140 -358 -140c-141.333 0 -261 46.667 -359 140c-100.667 96.667 -151 221.667 -151 375c0 95.333 24.333 183 73 263c49.333 82.667 120 145.667 212 189c69.333 32.667 144 49 224 49zM547 1447
c-107.333 0 -198.333 -35.668 -273 -107.001c-76.667 -73.333 -115 -164.666 -115 -273.999c0 -116 38.333 -210.667 115 -284c74.667 -71.333 165.667 -107 273 -107c106.667 0 197.334 35.667 272.001 107c76.667 73.333 115 166.333 115 279
c0 114.667 -38.333 207.667 -115 279s-167.334 107 -272.001 107z" />
    <glyph glyph-name="ordfeminine" unicode="&#xaa;" horiz-adv-x="1331" vert-adv-y="2458" 
d="M346 649c12 -96.667 43.3301 -181.001 93.9971 -253.001c42.667 -61.333 97.334 -108.666 164.001 -141.999c65.333 -32.667 136.333 -49 213 -49c106.667 0 206.667 30.333 300 91c38 24 86.333 66 145 126l-15 -315c-60 -40 -111.667 -68.667 -155 -86
c-90 -36.667 -183.667 -55 -281 -55c-192 0 -358 66 -498 198c-78 74 -137.333 161 -178 261c-36.667 92 -55 190 -55 294c0 153.333 38.667 293.666 116 420.999c71.333 116.667 167 205.334 287 266.001c102.667 52 213.334 78 332.001 78
c105.333 0 204.333 -20.667 297 -62c34 -15.333 77.667 -40.333 131 -75l-26 -276c-59.333 51.333 -107.666 87.666 -144.999 108.999c-76 43.333 -157.333 65 -244 65c-105.333 0 -199.333 -29.667 -282 -89c-89.333 -65.333 -151 -160.666 -185 -285.999h620v-221h-635z
" />
    <glyph glyph-name="guillemotleft" unicode="&#xab;" horiz-adv-x="872" vert-adv-y="2458" 
d="M70 655l254 314l143 -101l-164 -213l164 -212l-143 -101zM439 655l228 283l136 -92l-154 -191l154 -191l-136 -91z" />
    <glyph glyph-name="logicalnot" unicode="&#xac;" horiz-adv-x="1706" vert-adv-y="2458" 
d="M254 862h1198v-502h-221v281h-977v221z" />
    <glyph glyph-name="sfthyphen" unicode="&#xad;" horiz-adv-x="522" vert-adv-y="2458" 
d="M0 549v213h522v-213h-522z" />
    <glyph glyph-name="registered" unicode="&#xae;" horiz-adv-x="1100" vert-adv-y="2458" 
d="M366 777v580h135c65.333 0 114 -7 146 -21c68.667 -30 103 -78.333 103 -145c0 -73.333 -42.333 -126.333 -127 -159l187 -255h-132l-176 241h-22v-241h-114zM480 1106h27c51.333 0 85.333 6.66699 102 20c17.333 13.333 26 33 26 59c0 22 -6.66699 39 -20 51
c-19.333 16.667 -55.333 25 -108 25h-27v-155zM550 1569c140.667 0 260.333 -46.665 359 -139.998c100.667 -96.667 151 -219.334 151 -368.001s-50.333 -271.334 -151 -368.001c-98 -93.333 -217.333 -140 -358 -140c-141.333 0 -261 46.667 -359 140
c-100.667 96.667 -151 221.667 -151 375c0 95.333 24.333 183 73 263c49.333 82.667 120 145.667 212 189c69.333 32.667 144 49 224 49zM546.999 1447c-107.333 0 -198.333 -35.668 -273 -107.001c-76.667 -73.333 -115 -164.666 -115 -273.999
c0 -116 38.333 -210.667 115 -284c74.667 -71.333 165.667 -107 273 -107c106.667 0 197.334 35.667 272.001 107c76.667 73.333 115 166.333 115 279c0 114.667 -38.333 207.667 -115 279s-167.334 107 -272.001 107z" />
    <glyph glyph-name="macron" unicode="&#xaf;" horiz-adv-x="625" vert-adv-y="2458" 
d="M184 0v1450h252v-1450h-252zM127 1887c38 0 71.001 -14.001 99.001 -42.001c29.333 -29.333 44 -64.666 44 -105.999s-14 -76 -42 -104c-27.333 -27.333 -61.333 -41 -102 -41c-56.667 0 -99.334 23 -128.001 69c-14 23.333 -21 48 -21 74c0 41.333 14.667 76.333 44 105
c30.667 30 66 45 106 45zM501.001 1886c39.333 0 73.667 -14.333 103 -43c28.667 -29.333 43 -64.333 43 -105s-14 -75 -42 -103s-63 -42 -105 -42c-54.667 0 -96 23 -124 69c-14.667 23.333 -22 48.666 -22 75.999c0 40.667 14.667 75.334 44 104.001
c30 29.333 64.333 44 103 44z" />
    <glyph glyph-name="degree" unicode="&#xb0;" horiz-adv-x="674" vert-adv-y="2458" 
d="M342 1462c84 0 155.999 -32.667 215.999 -98c50.667 -56.667 76 -123 76 -199c0 -88 -32.667 -161.333 -98 -220c-57.333 -51.333 -123.666 -77 -198.999 -77c-88 0 -161.667 32.667 -221 98c-50.667 56.667 -76 123.667 -76 201c0 85.333 33 158 99 218
c55.333 51.333 123 77 203 77zM335.999 1297c-39.333 0 -72 -14.332 -98 -42.999c-22.667 -24.667 -34 -53.334 -34 -86.001c0 -39.333 14.333 -72 43 -98c24.667 -22 53.667 -33 87 -33c38.667 0 71 14.333 97 43c22 24.667 33 53.667 33 87c0 38 -14.333 70 -43 96
c-24.667 22.667 -53 34 -85 34z" />
    <glyph glyph-name="plusminus" unicode="&#xb1;" horiz-adv-x="1106" vert-adv-y="2458" 
d="M660 926h364v-213h-364v-297h-213v297h-365v213h365v364h213v-364zM82 137v213h942v-213h-942z" />
    <glyph glyph-name="twosuperior" unicode="&#xb2;" horiz-adv-x="612" vert-adv-y="2458" 
d="M180 0v1450h252v-1450h-252z" />
    <glyph glyph-name="threesuperior" unicode="&#xb3;" horiz-adv-x="535" vert-adv-y="2458" 
d="M384 0h-234v1131l234 26v-1157zM266 1540c42 0 78 -14.6689 108 -44.002c29.333 -30 44 -66 44 -108c0 -41.333 -14.333 -76.666 -43 -105.999c-29.333 -29.333 -65.666 -44 -108.999 -44c-56.667 0 -99.334 23.667 -128.001 71c-14.667 24 -22 50 -22 78
c0 44.667 14.667 81.334 44 110.001c30 28.667 65.333 43 106 43z" />
    <glyph glyph-name="acute" unicode="&#xb4;" horiz-adv-x="1001" vert-adv-y="2458" 
d="M762 1138v137l232 27v-369h-612v-933h-232v1138h612z" />
    <glyph glyph-name="mu" unicode="&#xb5;" horiz-adv-x="1378" vert-adv-y="2458" 
d="M994 159c-66.667 -64 -129.335 -109.667 -188.002 -137c-79.333 -36.667 -159.666 -55 -240.999 -55c-73.333 0 -133.666 15.667 -180.999 47v-378l-234 -26v1521l234 26v-677c0 -88.667 3.66699 -147 11 -175c25.333 -91.333 96 -137 212 -137
c114.667 0 212 41.333 292 124c43.333 45.333 71 93.333 83 144c8 32.667 12 76 12 130v565l234 26v-1157l-234 -26v185z" />
    <glyph glyph-name="paragraph" unicode="&#xb6;" horiz-adv-x="1024" vert-adv-y="2458" 
d="M977 1450l-34 -222.999h-50v-1602l-184 -14v1616h-115v-1623l-184 -13v1165c-55.333 6 -97.333 14 -126 24c-73.333 26 -130 67.333 -170 124c-39.333 56 -59 122 -59 198c0 97.333 31.333 177.666 94 240.999c72 71.333 171 107 297 107h531z" />
    <glyph glyph-name="middot" unicode="&#xb7;" horiz-adv-x="588" vert-adv-y="2458" 
d="M294 856c36 0 66.667 -12.667 92 -38s38 -56 38 -92s-12.667 -66.333 -38 -91c-25.333 -26 -56 -39 -92 -39c-48 0 -85 21 -111 63c-12.667 20.667 -19 42.667 -19 66c0 36.667 13 67.667 39 93s56.333 38 91 38z" />
    <glyph glyph-name="cedilla" unicode="&#xb8;" horiz-adv-x="1259" vert-adv-y="2458" 
d="M1129 351l-9 -233.999c-76 -42.667 -133.333 -72.334 -172 -89.001c-92 -40.667 -188 -61 -288 -61c-173.333 0 -315 54.333 -425 163s-165 252.334 -165 431.001c0 172.667 55.667 316 167 430c116.667 120 259.334 180 428.001 180c150.667 0 274 -46 370 -138
c43.333 -42 78 -91.667 104 -149c34 -76.667 51 -156 51 -238c0 -34 -1.66699 -75 -5 -123l-892 -61c10.667 -52.667 28.667 -97.334 54 -134.001c71.333 -106 175.333 -159 312 -159c98 0 200.333 27.333 307 82c39.333 20 93.666 53.333 162.999 100zM973 707.001
c-3.33301 54 -20.332 102 -50.999 144c-58 78.667 -145 118 -261 118c-135.333 0 -237.333 -54.333 -306 -163c-24.667 -39.333 -42.334 -86 -53.001 -140zM399.001 1570c36 0 67.667 -13.333 95 -40c27.333 -27.333 41 -61 41 -101c0 -39.333 -13.333 -72.333 -40 -99
c-26 -26 -58.333 -39 -97 -39c-54 0 -94.667 22 -122 66c-13.333 22 -20 45.667 -20 71c0 38.667 14 71.667 42 99c29.333 28.667 63 43 101 43zM917.001 1570c37.333 0 70 -13.666 98 -40.999c27.333 -28 41 -61.333 41 -100s-13.333 -71.334 -40 -98.001
s-59.667 -40 -99 -40c-52.667 0 -92.334 22 -119.001 66c-14 22 -21 46 -21 72c0 39.333 14 72.333 42 99c28.667 28 61.334 42 98.001 42z" />
    <glyph glyph-name="onesuperior" unicode="&#xb9;" horiz-adv-x="2672" vert-adv-y="2458" 
d="M180 0v1502l956 -968v916h252v-1505l-956 968v-913h-252zM2060 1484c154.667 0 283.332 -51.3311 385.999 -153.998c47.333 -47.333 85 -104.333 113 -171c29.333 -70.667 44 -142.667 44 -216c0 -103.333 -27 -200.333 -81 -291
c-50 -82.667 -118.333 -146.334 -205 -191.001c-78.667 -40 -164.667 -60 -258 -60c-156.667 0 -286.334 52 -389.001 156c-47.333 47.333 -84.666 103.666 -111.999 168.999c-29.333 70 -44 140.333 -44 211c0 107.333 26.667 206 80 296c49.333 82 118 145.333 206 190
c78.667 40.667 165.334 61 260.001 61zM2060 1285c-84.667 0 -157 -31 -217 -93c-64 -66 -96 -147.333 -96 -244c0 -104.667 31.667 -190 95 -256c59.333 -61.333 131.333 -92 216 -92s157 31 217 93c63.333 66 95 149.333 95 250c0 99.333 -31.667 182.333 -95 249
c-60 62 -131.667 93 -215 93zM1600 0.00195312v213h942v-213h-942z" />
    <glyph glyph-name="ordmasculine" unicode="&#xba;" horiz-adv-x="1171" vert-adv-y="2458" 
d="M317 492c12 -60 35 -114 69 -162c76.667 -107.333 177 -161 301 -161c88.667 0 181.334 24 278.001 72c36 18 86.667 48.333 152 91l-28 -247c-64.667 -33.333 -117.334 -57.333 -158.001 -72c-86.667 -30.667 -174 -46 -262 -46c-171.333 0 -313.333 55 -426 165
c-116 114.667 -174 258 -174 430c0 176 59.333 321.667 178 437c118 114.667 268.333 172 451 172c136.667 0 273 -35 409 -105l-26 -207c-68 32.667 -122.667 56.334 -164 71.001c-74 26 -142.333 39 -205 39c-91.333 0 -172.333 -26.333 -243 -79
c-67.333 -50.667 -114.333 -118.334 -141 -203.001h596v-195h-607z" />
    <glyph glyph-name="guillemotright" unicode="&#xbb;" horiz-adv-x="872" vert-adv-y="2458" 
d="M803 655l-254 -313l-143 101l163 212l-163 213l143 101zM434 655l-228 -282l-136 91l154 191l-154 191l136 92z" />
    <glyph glyph-name="onequarter" unicode="&#xbc;" horiz-adv-x="535" vert-adv-y="2458" 
d="M384 1157v-1521l-234 -26v1521zM266 1540c42 0 78.001 -14.668 108.001 -44.001c29.333 -29.333 44 -65.333 44 -108c0 -42 -14.333 -77.333 -43 -106c-29.333 -29.333 -65.666 -44 -108.999 -44c-56.667 0 -99.334 23.667 -128.001 71c-14.667 24 -22 50 -22 78
c0 44.667 14.667 81.334 44 110.001s64.666 43 105.999 43z" />
    <glyph glyph-name="onehalf" unicode="&#xbd;" horiz-adv-x="1110" vert-adv-y="2458" 
d="M98 352c77.333 -47.333 140.33 -81.001 188.997 -101.001c76 -30.667 145.667 -46 209 -46c77.333 0 141.666 18.667 192.999 56c44.667 32 67 78 67 138c0 48 -20.333 91.667 -61 131c-34 33.333 -85 70.333 -153 111l-108 66
c-103.333 62 -176.666 119.667 -219.999 173c-56.667 68.667 -85 144.667 -85 228c0 98 34.333 182 103 252c82 82.667 195.333 124 340 124c114 0 234.667 -29.333 362 -88l-9 -266c-56.667 30 -100.667 51.667 -132 65c-80.667 33.333 -154.667 50 -222 50
c-72 0 -125.333 -18.667 -160 -56c-22.667 -24 -34 -53 -34 -87c0 -26 7 -48.333 21 -67c26.667 -36 84.334 -80 173.001 -132l105 -61c108 -64 188 -127.333 240 -190c64 -77.333 96 -164.666 96 -261.999c0 -113.333 -39.333 -209 -118 -287
c-91.333 -91.333 -219.666 -137 -384.999 -137c-129.333 0 -258.666 28.667 -387.999 86z" />
    <glyph glyph-name="threequarters" unicode="&#xbe;" horiz-adv-x="988" vert-adv-y="2458" 
d="M94 303c160 -89.333 294.001 -133.997 402.001 -133.997c55.333 0 99 11.667 131 35c34.667 25.333 52 60 52 104c0 36 -13.667 66 -41 90c-14.667 12 -55.667 32.667 -123 62l-145 62c-180.667 77.333 -271 178.666 -271 303.999c0 58 17.667 115 53 171
c74 116 197.333 174 370 174c94 0 197 -21.667 309 -65l-3 -235c-72.667 37.333 -130.334 62.666 -173.001 75.999c-56 17.333 -108 26 -156 26c-56.667 0 -100.667 -13.667 -132 -41c-26.667 -22.667 -40 -50.334 -40 -83.001c0 -27.333 8.33301 -49.333 25 -66
c24.667 -24 61.334 -46.333 110.001 -67l152 -65c101.333 -42.667 173.333 -84.667 216 -126c55.333 -54 83 -124 83 -210c0 -96 -32 -175 -96 -237c-76.667 -74 -188.667 -111 -336 -111c-118.667 0 -239.334 30.667 -362.001 92z" />
    <glyph glyph-name="questiondown" unicode="&#xbf;" horiz-adv-x="553" vert-adv-y="2458" 
d="M389 0h-234v1131l234 26v-1157zM104 1570c36 0 67.668 -13.333 95.001 -40c27.333 -27.333 41 -61 41 -101c0 -39.333 -13.333 -72.333 -40 -99c-26 -26 -58.333 -39 -97 -39c-54.667 0 -95.334 22 -122.001 66c-13.333 22 -20 45.667 -20 71c0 38.667 14 71.667 42 99
c29.333 28.667 63 43 101 43zM453.001 1570c37.333 0 69.999 -13.999 97.999 -41.999c27.333 -27.333 41 -60.333 41 -99s-13.333 -71.334 -40 -98.001s-59.667 -40 -99 -40c-52.667 0 -92.667 22 -120 66c-13.333 22 -20 46 -20 72c0 39.333 14 72.333 42 99
c28.667 28 61.334 42 98.001 42z" />
    <glyph glyph-name="Agrave" unicode="&#xc0;" horiz-adv-x="1346" vert-adv-y="2458" 
d="M219 0h-258l730 1502l691 -1502h-268l-117 258h-659zM432 465h475l-235 541z" />
    <glyph glyph-name="Aacute" unicode="&#xc1;" horiz-adv-x="1197" vert-adv-y="2458" 
d="M180 0l-0.000976562 1450h844v-223h-592v-369h143c156.667 0 278.334 -26.667 365.001 -80c126 -77.333 189 -197 189 -359c0 -279.333 -185.333 -419 -556 -419h-393zM431.999 203l174 0.000976562c92.667 0 162.667 23.333 210 70c40.667 39.333 61 92.666 61 159.999
c0 64 -18.667 114.667 -56 152c-48 46.667 -120.333 70 -217 70h-172v-452z" />
    <glyph glyph-name="Acircumflex" unicode="&#xc2;" horiz-adv-x="1233" vert-adv-y="2458" 
d="M180 0v1450h432c180 0 311 -40.333 393 -121c60.667 -60 91 -141 91 -243c0 -95.333 -30.333 -172 -91 -230c-30 -28.667 -76.333 -56 -139 -82c62 -19.333 109 -42.333 141 -69c80.667 -66.667 121 -163.334 121 -290.001c0 -276.667 -185 -415 -555 -415h-393z
M432 848.001l143 0.000976562c96 0 167.667 24 215 72c37.333 37.333 56 85.666 56 144.999c0 54 -15.333 96.333 -46 127c-44 43.333 -122.333 65 -235 65h-133v-409zM432 203.002l174 0.000976562c92 0 162 23.333 210 70c40 39.333 60 92.666 60 159.999
c0 64 -18.667 114.667 -56 152c-47.333 46.667 -119.333 70 -216 70h-172v-452z" />
    <glyph glyph-name="Atilde" unicode="&#xc3;" horiz-adv-x="1038" vert-adv-y="2458" 
d="M180 0v1450h844v-223h-592v-1227h-252z" />
    <glyph glyph-name="Adieresis" unicode="&#xc4;" horiz-adv-x="1406" vert-adv-y="2458" 
d="M7 -390v615.001c92.667 24 153.667 52.333 183 85c30 33.333 49 76.666 57 129.999c4 22 6 110.333 6 265v745h962v-1225h123v-589l-252 -26v390h-827v-364zM368 225.001l595.001 0.000976562v1002h-458v-736c-0.666992 -94.667 -16.667 -160.334 -48 -197.001
c-16.667 -20.667 -46.334 -43.667 -89.001 -69z" />
    <glyph glyph-name="Aring" unicode="&#xc5;" horiz-adv-x="1147" vert-adv-y="2458" 
d="M180 0v1450h844v-223h-592v-357h508v-221h-508v-424h602v-225h-854z" />
    <glyph glyph-name="AE" unicode="&#xc6;" horiz-adv-x="2120" vert-adv-y="2458" 
d="M1186 0h-252v678l-653 -678h-328l731 754l-661 696h295l616 -647v647h252v-647l616 647h295l-661 -696l731 -754h-328l-653 678v-678z" />
    <glyph glyph-name="Ccedilla" unicode="&#xc7;" horiz-adv-x="1148" vert-adv-y="2458" 
d="M231 380c42.667 -54.667 79.999 -92.668 111.999 -114.001c58.667 -40.667 124.667 -61 198 -61c67.333 0 123.333 17 168 51c51.333 40 77 94.333 77 163c0 69.333 -31 123 -93 161c-34.667 21.333 -77.334 35.333 -128.001 42c-24.667 3.33301 -63.667 5 -117 5h-55
v229h69c108 0 188.667 24.667 242 74c35.333 32.667 53 74 53 124c0 53.333 -21.333 99.666 -64 138.999c-38 34.667 -87.333 52 -148 52c-69.333 0 -134.666 -25.333 -195.999 -76c-20 -17.333 -50.333 -47.333 -91 -90l-164 155c53.333 62 103.333 110 150 144
c96 70.667 202.333 106 319 106c134 0 243.667 -42.667 329 -128c77.333 -77.333 116 -169.333 116 -276c0 -89.333 -29.667 -166 -89 -230c-25.333 -27.333 -63.666 -54.666 -114.999 -81.999c58 -26.667 101.667 -54.667 131 -84c72.667 -72 109 -161.333 109 -268
c0 -119.333 -42.333 -221.666 -127 -306.999c-96 -95.333 -224 -143 -384 -143c-152.667 0 -281.667 47 -387 141c-26.667 23.333 -55.667 54 -87 92z" />
    <glyph glyph-name="Egrave" unicode="&#xc8;" horiz-adv-x="1569" vert-adv-y="2458" 
d="M1388 0h-252v913l-956 -968v1505h252v-916l956 968v-1502z" />
    <glyph glyph-name="Eacute" unicode="&#xc9;" horiz-adv-x="1569" vert-adv-y="2458" 
d="M1388 0h-252v913l-956 -968v1505h252v-916l956 968v-1502zM1189 1759c-52 -43.333 -92.667 -73.332 -122 -89.999c-79.333 -47.333 -169.666 -71 -270.999 -71c-108.667 0 -205.334 27.333 -290.001 82c-24 15.333 -58.667 41.666 -104 78.999l107 166
c45.333 -34.667 82.666 -58.667 111.999 -72c58 -28 116.333 -42 175 -42c66 0 130.667 17 194 51c22.667 12 53.334 33 92.001 63z" />
    <glyph glyph-name="Ecircumflex" unicode="&#xca;" horiz-adv-x="1366" vert-adv-y="2458" 
d="M180 0v1450h252v-647l616 647h295l-661 -696l731 -754h-328l-653 678v-678h-252z" />
    <glyph glyph-name="Edieresis" unicode="&#xcb;" horiz-adv-x="1415" vert-adv-y="2458" 
d="M0 191c97.333 33.333 161.001 69 191.001 107c34.667 42.667 56 98 64 166c2.66699 12 4 108 4 288v698h976v-1450h-252v1221h-472v-683c-0.666992 -129.333 -17.334 -227.333 -50.001 -294c-45.333 -97.333 -133.333 -176.333 -264 -237
c-10.667 -6 -45 -19.667 -103 -41z" />
    <glyph glyph-name="Igrave" unicode="&#xcc;" horiz-adv-x="1683" vert-adv-y="2458" 
d="M12 0l313 1502l518 -1066l517 1066l311 -1502h-250l-158 819l-419 -874l-439 874l-157 -819h-236z" />
    <glyph glyph-name="Iacute" unicode="&#xcd;" horiz-adv-x="1554" vert-adv-y="2458" 
d="M180 0v1450h252v-578h690v578h252v-1450h-252v649h-690v-649h-252z" />
    <glyph glyph-name="Icircumflex" unicode="&#xce;" horiz-adv-x="1602" vert-adv-y="2458" 
d="M803 1484c134.667 0 259.669 -37.332 375.002 -111.999c114 -73.333 201.667 -172.333 263 -297c54 -110.667 81 -227.334 81 -350.001c0 -144 -36 -277 -108 -399c-72 -122.667 -169.333 -216 -292 -280c-102 -53.333 -209.333 -80 -322 -80
c-196.667 0 -365.667 73.667 -507 221c-66.667 70 -118.334 150 -155.001 240c-38.667 94 -58 190 -58 288c0 180.667 50 338.667 150 474c69.333 94 153.666 166.667 252.999 218c100 51.333 206.667 77 320 77zM801.002 1245c-119.333 0 -222.333 -42.668 -309 -128.001
c-49.333 -48.667 -86.333 -105.667 -111 -171c-26 -70 -39 -141 -39 -213c0 -168 50.333 -301.333 151 -400c86.667 -85.333 189.667 -128 309 -128c118.667 0 221.334 42.333 308.001 127c48 46.667 85.333 103.334 112 170.001c28.667 70 43 144.333 43 223
c0 109.333 -26 208 -78 296c-47.333 79.333 -110.333 138.333 -189 177c-62.667 31.333 -128.334 47 -197.001 47z" />
    <glyph glyph-name="Idieresis" unicode="&#xcf;" horiz-adv-x="1554" vert-adv-y="2458" 
d="M180 0v1450h1194v-1450h-252v1227h-690v-1227h-252z" />
    <glyph glyph-name="Eth" unicode="&#xd0;" horiz-adv-x="1190" vert-adv-y="2458" 
d="M180 0l0.000976562 1450h336c136 0 242 -12.333 318 -37c121.333 -39.333 208.666 -110.666 261.999 -213.999c28.667 -56 43 -117.333 43 -184c0 -116.667 -39 -214.334 -117 -293.001c-44.667 -44.667 -95.667 -78 -153 -100c-100.667 -38 -210 -57 -328 -57h-56h-53
v-565h-252zM432.001 780h114.999c225.333 0 338 77.667 338 233c0 78 -31 135.333 -93 172c-57.333 33.333 -146.666 50 -267.999 50h-92v-455z" />
    <glyph glyph-name="Ntilde" unicode="&#xd1;" horiz-adv-x="1331" vert-adv-y="2458" 
d="M1247 107c-60 -40 -111.667 -68.667 -155 -86c-90.667 -36.667 -184.334 -55 -281.001 -55c-192 0 -358 66 -498 198c-78 74 -137.333 161 -178 261c-36.667 92 -55 190 -55 294c0 153.333 38.667 293.666 116 420.999c71.333 116.667 167 205.334 287 266.001
c102.667 52 213.334 78 332.001 78c105.333 0 204 -20.667 296 -62c34.667 -15.333 78.667 -40.333 132 -75l-26 -276c-59.333 51.333 -107.666 87.666 -144.999 108.999c-76 43.333 -157.667 65 -245 65c-133.333 0 -245 -45.333 -335 -136c-46 -46 -82.333 -102 -109 -168
c-27.333 -69.333 -41 -143 -41 -221c0 -107.333 25.333 -204.333 76 -291c45.333 -77.333 107 -135.666 185 -174.999c65.333 -32.667 136.666 -49 213.999 -49c106.667 0 206.667 30.333 300 91c38 24.667 86.333 66.667 145 126z" />
    <glyph glyph-name="Ograve" unicode="&#xd2;" horiz-adv-x="1249" vert-adv-y="2458" 
d="M752 1229v-1229h-252v1229h-492v221h1233v-221h-489z" />
    <glyph glyph-name="Oacute" unicode="&#xd3;" horiz-adv-x="1278" vert-adv-y="2458" 
d="M-47 1450h300l417 -829l361 829h294l-673 -1450l-285 -27l173 380z" />
    <glyph glyph-name="Ocircumflex" unicode="&#xd4;" horiz-adv-x="1713" vert-adv-y="2458" 
d="M984 1316c128.667 -12.667 245.001 -49.665 349.001 -110.998c94 -55.333 166.667 -123.333 218 -204c54.667 -86.667 82 -177.667 82 -273c0 -129.333 -46.667 -246 -140 -350c-94.667 -104.667 -222.334 -176.667 -383.001 -216c-39.333 -10 -81.333 -17.333 -126 -22
v-140h-252v140c-130.667 13.333 -248.334 50.333 -353.001 111c-93.333 55.333 -165.666 123.666 -216.999 204.999c-54.667 86 -82 176.667 -82 272c0 129.333 46.667 246 140 350c94.667 105.333 222.667 177.666 384 216.999c40 10 82.667 17 128 21v134h252v-134z
M732.001 1094c-66.667 -9.33301 -128.666 -28.667 -185.999 -58c-139.333 -71.333 -209 -174 -209 -308c0 -144 79.333 -251 238 -321c49.333 -22 101.666 -37 156.999 -45v732zM984.002 1093v-729.999c69.333 11.333 130 30.333 182 57c140 72 210 174.667 210 308
c0 144.667 -79.667 252 -239 322c-44 19.333 -95 33.666 -153 42.999z" />
    <glyph glyph-name="Otilde" unicode="&#xd5;" horiz-adv-x="1358" vert-adv-y="2458" 
d="M250 0h-283l541 756l-521 694h308l366 -481l344 481h281l-481 -672l585 -778h-313l-426 565z" />
    <glyph glyph-name="Odieresis" unicode="&#xd6;" horiz-adv-x="1565" vert-adv-y="2458" 
d="M180 0v1450h252v-1225h690v1225h252v-1225h123v-583l-252 -32v390h-1065z" />
    <glyph glyph-name="multiply" unicode="&#xd7;" horiz-adv-x="1442" vert-adv-y="2458" 
d="M1010 0v533c-110.667 -16.667 -214.667 -25 -312 -25c-170.667 0 -299 20.333 -385 61c-110.667 52 -183 139.333 -217 262c-18.667 68.667 -28 172.334 -28 311.001v308h252v-287c0 -96.667 3.33301 -167.334 10 -212.001c8 -50 24.667 -87 50 -111
c52 -50.667 159 -76 321 -76c94.667 0 197.667 8 309 24v662h252v-1450h-252z" />
    <glyph glyph-name="Oslash" unicode="&#xd8;" horiz-adv-x="2442" vert-adv-y="2458" 
d="M180 0v1450h252v-1225h663v1225h252v-1225h662v1225h252v-1450h-2081z" />
    <glyph glyph-name="Ugrave" unicode="&#xd9;" horiz-adv-x="2453" vert-adv-y="2458" 
d="M180 0v1450h252v-1225h663v1225h252v-1225h662v1225h252v-1225h123v-583l-252 -32v390h-1952z" />
    <glyph glyph-name="Uacute" unicode="&#xda;" horiz-adv-x="1368" vert-adv-y="2458" 
d="M369 0v1227h-410v223h662v-592h143c156 0 277.667 -26.667 365 -80c125.333 -77.333 188 -197 188 -359c0 -279.333 -185 -419 -555 -419h-393zM621 203l174 0.000976562c92 0 162 23.333 210 70c40 39.333 60 92.666 60 159.999c0 64 -18.667 114.667 -56 152
c-47.333 46.667 -119.333 70 -216 70h-172v-452z" />
    <glyph glyph-name="Ucircumflex" unicode="&#xdb;" horiz-adv-x="1681" vert-adv-y="2458" 
d="M180 0v1450h252v-592h143c156 0 277.667 -26.667 365 -80c125.333 -77.333 188 -197 188 -359c0 -279.333 -185 -419 -555 -419h-393zM432 203l174 0.000976562c92 0 162 23.333 210 70c40 39.333 60 92.666 60 159.999c0 64 -18.667 114.667 -56 152
c-47.333 46.667 -119.333 70 -216 70h-172v-452zM1249 0.000976562v1450h252v-1450h-252z" />
    <glyph glyph-name="Udieresis" unicode="&#xdc;" horiz-adv-x="1180" vert-adv-y="2458" 
d="M180 0v1450h252v-592h143c156 0 277.667 -26.667 365 -80c125.333 -77.333 188 -197 188 -359c0 -279.333 -185 -419 -555 -419h-393zM432 203l174 0.000976562c92 0 162 23.333 210 70c40 39.333 60 92.666 60 159.999c0 64 -18.667 114.667 -56 152
c-47.333 46.667 -119.333 70 -216 70h-172v-452z" />
    <glyph glyph-name="Yacute" unicode="&#xdd;" horiz-adv-x="1333" vert-adv-y="2458" 
d="M987 649l-642 -0.00292969v221h628c-18.667 68.667 -45 127.667 -79 177c-44 62.667 -100 111.334 -168 146.001s-141 52 -219 52c-94 0 -184.333 -26.333 -271 -79c-28 -16.667 -67.667 -44.667 -119 -84l34 301c114.667 67.333 237.667 101 369 101
c138 0 264.333 -35 379 -105c114.667 -69.333 203.667 -166 267 -290c58.667 -114.667 88 -238 88 -370c0 -150 -37.667 -285.667 -113 -407c-78.667 -127.333 -186 -221.666 -322 -282.999c-94 -42 -193 -63 -297 -63c-106 0 -208 22 -306 66
c-36.667 16.667 -85 44.667 -145 84l26 283c54 -55.333 104.667 -96.333 152 -123c85.333 -47.333 174.666 -71 267.999 -71c102.667 0 193.667 28.333 273 85c112.667 80.667 178.334 200.334 197.001 359.001z" />
    <glyph glyph-name="Thorn" unicode="&#xde;" horiz-adv-x="2000" vert-adv-y="2458" 
d="M492 872c18 88 46.001 166.334 84.001 235.001c60.667 111.333 143 200 247 266c114.667 74 240 111 376 111s261.667 -37 377 -111c114 -73.333 201.667 -173 263 -299c54 -110 81 -226.667 81 -350c0 -143.333 -36 -276 -108 -398
c-72 -122.667 -169.333 -216 -292 -280c-102 -53.333 -209.333 -80 -322 -80c-154.667 0 -295.334 47.333 -422.001 142c-168.667 127.333 -265 307.666 -289 540.999h-55v-649h-252v1450h252v-578h60zM1199 1245c-119.333 0 -222.333 -42.6689 -309 -128.002
c-49.333 -48.667 -86.333 -105.667 -111 -171c-26 -70 -39 -141 -39 -213c0 -168 50.333 -301.333 151 -400c86.667 -85.333 189.667 -128 309 -128c118.667 0 221.334 42.333 308.001 127c48 46.667 85.333 103.334 112 170.001c28.667 70 43 144.333 43 223
c0 108.667 -26 207.334 -78 296.001c-47.333 79.333 -110.333 138.333 -189 177c-62.667 31.333 -128.334 47 -197.001 47z" />
    <glyph glyph-name="germandbls" unicode="&#xdf;" horiz-adv-x="1298" vert-adv-y="2458" 
d="M1118 0h-248v602h-125l-440 -602h-297l469 637c-85.333 33.333 -149 69.333 -191 108c-84.667 78 -127 174.667 -127 290c0 130 56.667 235 170 315c54 38 117.333 64.667 190 80c61.333 13.333 149 20 263 20h336v-1450zM870 788v455h-96
c-130.667 0 -224.667 -20 -282 -60c-52.667 -36 -79 -90 -79 -162c0 -62.667 19 -112.667 57 -150c57.333 -55.333 151 -83 281 -83h119z" />
    <glyph glyph-name="agrave" unicode="&#xe0;" horiz-adv-x="1369" vert-adv-y="2458" 
d="M1232 0l-223 -32.001c-7.33301 28 -13.333 61 -18 99c-136 -66.667 -258.333 -100 -367 -100c-150 0 -276 50.667 -378 152c-49.333 48.667 -89.333 107.667 -120 177c-37.333 84.667 -56 172.334 -56 263.001c0 124.667 33 238.667 99 342
c56 86.667 128.667 153.667 218 201c87.333 46 183.333 69 288 69c95.333 0 199.333 -17.667 312 -53l218 39v-907c2.66699 -108 11.667 -191.333 27 -250zM971 266.999v643.001c-82.667 39.333 -171.334 59 -266.001 59c-113.333 0 -205.666 -34.667 -276.999 -104
c-78 -76 -117 -177.667 -117 -305c0 -120.667 36.667 -218.334 110 -293.001c64 -65.333 146 -98 246 -98c74 0 149.667 19 227 57c15.333 7.33301 41 21 77 41z" />
    <glyph glyph-name="aacute" unicode="&#xe1;" horiz-adv-x="1343" vert-adv-y="2458" 
d="M679 868c-104 0 -191.332 -33 -261.999 -99c-72.667 -67.333 -109 -151 -109 -251c0 -98.667 36.333 -182 109 -250c70 -66 156 -99 258 -99s188 33 258 99c72.667 68 109 151.333 109 250c0 101.333 -36.333 185 -109 251s-157.334 99 -254.001 99zM849.001 1450
l234.002 26.002c-20.667 -86 -44.334 -146.333 -71.001 -181c-46.667 -60.667 -108.334 -99.334 -185.001 -116.001c-22.667 -4.66699 -85.334 -12 -188.001 -22c-94.667 -10 -163.667 -32.667 -207 -68c-28 -23.333 -55.333 -61.333 -82 -114
c111.333 66.667 227.333 100 348 100c164 0 302 -55 414 -165c107.333 -104.667 161 -234.334 161 -389.001c0 -152 -56 -281.333 -168 -388c-116.667 -110.667 -259.667 -166 -429 -166c-172.667 0 -317.334 56.333 -434.001 169
c-63.333 60.667 -106.666 124.667 -129.999 192c-28 81.333 -42 181.333 -42 300c0 155.333 19 281.333 57 378c52 130.667 136.667 226.334 254 287.001c66.667 34.667 154.334 55.667 263.001 63c70.667 5.33301 120 13.666 148 24.999c25.333 12 44.333 35 57 69z" />
    <glyph glyph-name="acircumflex" unicode="&#xe2;" horiz-adv-x="1091" vert-adv-y="2458" 
d="M150 0l-0.000976562 1138h397c127.333 0 221 -14.333 281 -43c109.333 -52 164 -131.667 164 -239c0 -73.333 -28 -133 -84 -179c-26.667 -22.667 -69 -44.334 -127 -65.001c56.667 -14.667 100 -32.667 130 -54c74 -53.333 111 -129.333 111 -228
c0 -94 -32 -168.333 -96 -223c-48 -41.333 -101.667 -68.666 -161 -81.999c-75.333 -16.667 -159.666 -25 -252.999 -25h-362zM381.999 686h145.002c81.333 0 135.666 6 162.999 18c48 22 72 58.667 72 110c0 33.333 -10.333 60.333 -31 81
c-20.667 21.333 -45.334 34.333 -74.001 39c-34 6 -77.333 9 -130 9h-145v-257zM382.001 195h159.999c94 0 159.333 13.333 196 40c34.667 26 52 62 52 108c0 46.667 -17.333 82.667 -52 108c-37.333 27.333 -102.666 41 -195.999 41h-160v-297z" />
    <glyph glyph-name="atilde" unicode="&#xe3;" horiz-adv-x="1001" vert-adv-y="2458" 
d="M150 0v1138h844v-205h-612v-933h-232z" />
    <glyph glyph-name="adieresis" unicode="&#xe4;" horiz-adv-x="1290" vert-adv-y="2458" 
d="M7 -390v568.001c84.667 18 140.667 40.667 168 68c28 26.667 45.667 61 53 103c2.66699 13.333 4 82.666 4 207.999v581h888v-943h116v-559l-232 -26v390h-765v-364zM366 195.001h522.001v748h-424v-492c-0.666992 -92 -10.334 -153.333 -29.001 -184
c-13.333 -22.667 -36.333 -46.667 -69 -72z" />
    <glyph glyph-name="aring" unicode="&#xe5;" horiz-adv-x="1259" vert-adv-y="2458" 
d="M1129 351l-9 -233.999c-76 -42.667 -133.333 -72.334 -172 -89.001c-92 -40.667 -188 -61 -288 -61c-173.333 0 -315 54.333 -425 163s-165 252.334 -165 431.001c0 172.667 55.667 316 167 430c116.667 120 259.334 180 428.001 180c150.667 0 274 -46 370 -138
c43.333 -42 78 -91.667 104 -149c34 -76.667 51 -156 51 -238c0 -34 -1.66699 -75 -5 -123l-892 -61c10.667 -52.667 28.667 -97.334 54 -134.001c71.333 -106 175.333 -159 312 -159c98 0 200.333 27.333 307 82c39.333 20 93.666 53.333 162.999 100zM973 707.001
c-3.33301 54 -20.332 102 -50.999 144c-58 78.667 -145 118 -261 118c-135.333 0 -237.333 -54.333 -306 -163c-24.667 -39.333 -42.334 -86 -53.001 -140z" />
    <glyph glyph-name="ae" unicode="&#xe6;" horiz-adv-x="1897" vert-adv-y="2458" 
d="M834 0v505l-560 -505h-315l686 607l-622 531h305l506 -438v438h232v-438l503 438h305l-622 -531l686 -607h-315l-557 505v-505h-232z" />
    <glyph glyph-name="ccedilla" unicode="&#xe7;" horiz-adv-x="984" vert-adv-y="2458" 
d="M159 301c46 -42 84.002 -71.0029 114.002 -87.0029c56.667 -30.667 115.667 -46 177 -46c80 0 142.333 19.667 187 59c28 24.667 42 57.334 42 98.001c0 64.667 -37 111 -111 139c-46 17.333 -113 26 -201 26h-50v182h64c98.667 0 172 19.333 220 58
c32.667 26 49 59.667 49 101c0 42.667 -19.667 77.334 -59 104.001c-34.667 22.667 -78.334 34 -131.001 34c-62.667 0 -123.667 -18.667 -183 -56c-22 -14 -53.333 -38 -94 -72l-130 139c114.667 127.333 255 191 421 191c122.667 0 223 -34.333 301 -103
c71.333 -62 107 -134.667 107 -218c0 -108 -62.333 -190.667 -187 -248c53.333 -21.333 93.666 -43.666 120.999 -66.999c66.667 -57.333 100 -128 100 -212c0 -95.333 -39 -176 -117 -242c-89.333 -76 -207.333 -114 -354 -114c-172 0 -315.667 60.333 -431 181z" />
    <glyph glyph-name="egrave" unicode="&#xe8;" horiz-adv-x="1406" vert-adv-y="2458" 
d="M1256 0h-232v709l-874 -750v1179h232v-702l874 743v-1179z" />
    <glyph glyph-name="eacute" unicode="&#xe9;" horiz-adv-x="1406" vert-adv-y="2458" 
d="M1256 0h-232v709l-874 -750v1179h232v-702l874 743v-1179zM1101 1445c-52 -43.333 -92.667 -73.332 -122 -89.999c-80 -47.333 -170.667 -71 -272 -71c-108.667 0 -205 27.333 -289 82c-24 15.333 -58.667 41.666 -104 78.999l107 166
c45.333 -34.667 82.333 -58.667 111 -72c58 -28 116.333 -42 175 -42c66 0 130.667 17 194 51c22.667 12 53.667 33 93 63z" />
    <glyph glyph-name="ecircumflex" unicode="&#xea;" horiz-adv-x="1208" vert-adv-y="2458" 
d="M150 0v1138h232v-438l504 438h305l-622 -531l686 -607h-316l-557 505v-505h-232z" />
    <glyph glyph-name="edieresis" unicode="&#xeb;" horiz-adv-x="1270" vert-adv-y="2458" 
d="M0 156c81.333 24 135.333 50.667 162 80c32 33.333 51.667 77.333 59 132c2.66699 10.667 4 86.334 4 227.001v543h895v-1138h-232v943h-431v-517c-0.666992 -100 -16.667 -178.333 -48 -235c-57.333 -104.667 -174 -177.334 -350 -218.001z" />
    <glyph glyph-name="igrave" unicode="&#xec;" horiz-adv-x="1553" vert-adv-y="2458" 
d="M14 0l288 1188l474 -840l478 840l286 -1188h-230l-145 648l-393 -689l-396 689l-145 -648h-217z" />
    <glyph glyph-name="iacute" unicode="&#xed;" horiz-adv-x="1393" vert-adv-y="2458" 
d="M150 0v1138h232v-451h628v451h232v-1138h-232v492h-628v-492h-232z" />
    <glyph glyph-name="icircumflex" unicode="&#xee;" horiz-adv-x="1349" vert-adv-y="2458" 
d="M677 1171c171.333 0 314 -57 428 -171c53.333 -53.333 95.333 -117 126 -191c32.667 -78 49 -158 49 -240c0 -114.667 -30 -222.334 -90 -323.001c-56 -92 -131.667 -162.667 -227 -212c-87.333 -44.667 -183 -67 -287 -67c-174.667 0 -319 57.667 -433 173
c-52.667 52.667 -94 115.334 -124 188.001c-32.667 78 -49 156 -49 234c0 120 29.667 229.667 89 329c54.667 91.333 130.667 162.333 228 213c87.333 44.667 184 67 290 67zM677 969c-99.333 0 -184 -36.001 -254 -108.001c-74.667 -77.333 -112 -172.666 -112 -285.999
c0 -122 37 -221.333 111 -298c70 -72 154.333 -108 253 -108c98 0 182.333 36.333 253 109c74 76.667 111 173.667 111 291c0 116.667 -37 213.667 -111 291c-70 72.667 -153.667 109 -251 109z" />
    <glyph glyph-name="idieresis" unicode="&#xef;" horiz-adv-x="1393" vert-adv-y="2458" 
d="M1242 1138v-1138h-232v943h-628v-943h-232v1138h1092z" />
    <glyph glyph-name="eth" unicode="&#xf0;" horiz-adv-x="1355" vert-adv-y="2458" 
d="M123 1138l223.001 33c8 -32.667 14 -66 18 -100c135.333 66.667 257.666 100 366.999 100c149.333 0 275 -50.667 377 -152c50 -48.667 90.333 -107.667 121 -177c37.333 -84.667 56 -172.667 56 -264c0 -124 -33 -237.667 -99 -341
c-56 -87.333 -128.667 -154.333 -218 -201c-87.333 -46 -184 -69 -290 -69c-90 0 -188 15.667 -294 47v-378l-234 -26v1278c-2.66699 106.667 -11.667 190 -27 250zM384.001 871l0.000976562 -643c83.333 -39.333 172 -59 266 -59c113.333 0 205.666 34.667 276.999 104
c78 76 117 177.667 117 305c0 120 -36.667 217.667 -110 293c-63.333 65.333 -145 98 -245 98c-75.333 0 -151.333 -19 -228 -57c-16 -8 -41.667 -21.667 -77 -41z" />
    <glyph glyph-name="ntilde" unicode="&#xf1;" horiz-adv-x="1171" vert-adv-y="2458" 
d="M1089 85c-64.667 -33.333 -117.335 -57.333 -158.002 -72c-86 -30.667 -173 -46 -261 -46c-172 0 -314 55 -426 165c-116 114.667 -174 258 -174 430c0 175.333 59.333 321 178 437c118 114.667 268.333 172 451 172c136 0 272.333 -35 409 -105l-26 -208
c-151.333 74 -274.666 111 -369.999 111c-113.333 0 -208.333 -39 -285 -117c-77.333 -78.667 -116 -173.667 -116 -285c0 -109.333 38.667 -204.333 116 -285c72.667 -75.333 159.667 -113 261 -113c88.667 0 181.334 24 278.001 72c36 18 86.667 48.333 152 91z" />
    <glyph glyph-name="ograve" unicode="&#xf2;" horiz-adv-x="1150" vert-adv-y="2458" 
d="M691 943v-943h-232v943h-451v195h1133v-195h-450z" />
    <glyph glyph-name="oacute" unicode="&#xf3;" horiz-adv-x="1090" vert-adv-y="2458" 
d="M-14 1138h265l294 -863l298 863h260l-572 -1502l-242 -26l151 393z" />
    <glyph glyph-name="ocircumflex" unicode="&#xf4;" horiz-adv-x="1486" vert-adv-y="2458" 
d="M628 -38c-123.333 17.333 -228.333 57 -315 119c-74 52.667 -132.333 121.334 -175 206.001c-45.333 89.333 -68 183.333 -68 282c0 132.667 38.333 252.667 115 360c97.333 136.667 245 219 443 247v274l234 26v-300c122.667 -18 227 -57.667 313 -119
c73.333 -52.667 131.333 -121.334 174 -206.001c45.333 -90 68 -184 68 -282c0 -132.667 -38.333 -253 -115 -361c-97.333 -136 -244 -218 -440 -246v-326l-234 -26v352zM628 970c-60.667 -12 -114.666 -35.667 -161.999 -71c-104 -78 -156 -188 -156 -330
c0 -92 23.667 -173 71 -243c55.333 -81.333 137.666 -134 246.999 -158v802zM862.001 970v-800.999c62 15.333 114.667 38.666 158 69.999c50.667 36.667 89.667 84.667 117 144c26.667 57.333 40 119.333 40 186c0 90.667 -24 171 -72 241
c-58.667 86 -139.667 139.333 -243 160z" />
    <glyph glyph-name="otilde" unicode="&#xf5;" horiz-adv-x="1182" vert-adv-y="2458" 
d="M-14 0l481 596l-420 542h280l273 -373l266 373h280l-419 -532l468 -606h-279l-321 438l-329 -438h-280z" />
    <glyph glyph-name="odieresis" unicode="&#xf6;" horiz-adv-x="1420" vert-adv-y="2458" 
d="M1242 195h123v-559l-232 -26v390h-983v1138h232v-943h628v943h232v-943z" />
    <glyph glyph-name="divide" unicode="&#xf7;" horiz-adv-x="1285" vert-adv-y="2458" 
d="M902 0v409c-94 -16 -178.333 -24 -253 -24c-206 0 -359 47.667 -459 143c-62 60 -99.667 131.667 -113 215c-10 63.333 -15 141.333 -15 234v161h232v-127c0 -95.333 3.33301 -165.333 10 -210c8 -49.333 24.333 -86.333 49 -111c52.667 -50.667 155.667 -76 309 -76
c88 0 168 8.33301 240 25v499h232v-1138h-232z" />
    <glyph glyph-name="oslash" unicode="&#xf8;" horiz-adv-x="2253" vert-adv-y="2458" 
d="M2102 0h-1952v1138h232v-943h628v943h232v-943h628v943h232v-1138z" />
    <glyph glyph-name="ugrave" unicode="&#xf9;" horiz-adv-x="2280" vert-adv-y="2458" 
d="M1993 0h-1843v1138h232v-943h628v943h232v-943h628v943h232v-943h123v-559l-232 -26v390z" />
    <glyph glyph-name="uacute" unicode="&#xfa;" horiz-adv-x="1364" vert-adv-y="2458" 
d="M669 686h157c96.667 0 170 -6.66699 220 -20c80 -22 144.667 -63.333 194 -124c46 -56.667 69 -126 69 -208c0 -97.333 -32 -173 -96 -227c-48 -40.667 -101.667 -68 -161 -82c-74.667 -16.667 -159 -25 -253 -25h-362v943h-478v195h710v-452zM669 195h159.999
c94 0 159.333 13.333 196 40c34.667 26 52 62 52 108c0 46.667 -17.333 82.667 -52 108c-37.333 27.333 -102.666 41 -195.999 41h-160v-297z" />
    <glyph glyph-name="ucircumflex" unicode="&#xfb;" horiz-adv-x="1535" vert-adv-y="2458" 
d="M382 686h157c96.667 0 170 -6.66699 220 -20c80 -22 144.667 -63.333 194 -124c46 -56.667 69 -126 69 -208c0 -97.333 -32 -173 -96 -227c-48 -40.667 -101.667 -68 -161 -82c-74.667 -16.667 -159 -25 -253 -25h-362v1138h232v-452zM382 195h159.999
c94 0 159.333 13.333 196 40c34.667 26 52 62 52 108c0 46.667 -17.333 82.667 -52 108c-37.333 27.333 -102.666 41 -195.999 41h-160v-297zM1385 0h-234v1138h234v-1138z" />
    <glyph glyph-name="udieresis" unicode="&#xfc;" horiz-adv-x="1077" vert-adv-y="2458" 
d="M382 686h157c96.667 0 170 -6.66699 220 -20c80 -22 144.667 -63.333 194 -124c46 -56.667 69 -126 69 -208c0 -97.333 -32 -173 -96 -227c-48 -40.667 -101.667 -68 -161 -82c-74.667 -16.667 -159 -25 -253 -25h-362v1138h232v-452zM382 195h159.999
c94 0 159.333 13.333 196 40c34.667 26 52 62 52 108c0 46.667 -17.333 82.667 -52 108c-37.333 27.333 -102.666 41 -195.999 41h-160v-297z" />
    <glyph glyph-name="yacute" unicode="&#xfd;" horiz-adv-x="1172" vert-adv-y="2458" 
d="M855 492l-591.003 -0.00195312v195h580c-13.333 42.667 -32.666 82 -57.999 118c-34.667 48.667 -78.667 87.334 -132 116.001c-60 32 -123 48 -189 48c-104.667 0 -231 -38.333 -379 -115l29 239c132.667 52 251.334 78 356.001 78c184.667 0 335.667 -57.333 453 -172
c119.333 -116 179 -261.667 179 -437c0 -172 -58.333 -315.333 -175 -430c-112 -110 -253.667 -165 -425 -165c-96.667 0 -192.667 18.667 -288 56c-38.667 15.333 -92.334 41 -161.001 77l28 214c62.667 -39.333 115.334 -68.666 158.001 -87.999
c84.667 -38 166 -57 244 -57c82 0 155 24.667 219 74c80.667 62.667 131.334 145.667 152.001 249z" />
    <glyph glyph-name="thorn" unicode="&#xfe;" horiz-adv-x="1703" vert-adv-y="2458" 
d="M428 492l-45.999 -0.000976562v-492h-232v1138h232v-451h52c18.667 90.667 53 171.334 103 242.001c53.333 74 121 132.333 203 175c88 44.667 184 67 288 67c173.333 0 316.666 -57 429.999 -171c53.333 -53.333 95.333 -117 126 -191
c32.667 -77.333 49 -157.333 49 -240c0 -114.667 -30 -222 -90 -322c-56 -92.667 -131.667 -163.667 -227 -213c-87.333 -44.667 -183 -67 -287 -67c-138 0 -259.333 38 -364 114c-133.333 96.667 -212.333 233.667 -237 411zM1030 968.999
c-99.333 0 -184.333 -36.001 -255 -108.001c-74.667 -77.333 -112 -172.666 -112 -285.999c0 -122 37 -221.333 111 -298c70 -72 154.333 -108 253 -108s183 36.333 253 109c74.667 76.667 112 173.667 112 291c0 116.667 -37.333 213.667 -112 291
c-70 72.667 -153.333 109 -250 109z" />
    <glyph glyph-name="ydieresis" unicode="&#xff;" horiz-adv-x="1161" vert-adv-y="2458" 
d="M1010 0l-232.001 -0.000976562v492h-114l-391 -492h-287l431 504c-74.667 24 -131 52.333 -169 85c-63.333 54.667 -95 129.667 -95 225c0 116.667 47 201.334 141 254.001c61.333 34 127.333 54.333 198 61c60.667 6 129.334 9 206.001 9h312v-1138zM777.999 685.999
v257.001h-144c-80.667 0 -134.667 -6.33301 -162 -19c-48 -22 -72 -58.667 -72 -110c0 -33.333 10.333 -60.333 31 -81s45 -33.334 73 -38.001c34 -6 77.333 -9 130 -9h144z" />
    <glyph glyph-name="OE" unicode="&#x152;" horiz-adv-x="2122" vert-adv-y="2458" 
d="M1122 655l-690 0.000976562v-655h-252v1450h252v-578h690v578h252v-578h143c105.333 0 190 -10 254 -30c199.333 -62.667 299 -201.334 299 -416.001c0 -284 -185 -426 -555 -426h-393v655zM1374 203.001l174 0.000976562c92 0 162 23.333 210 70
c40 39.333 60 92.666 60 159.999c0 64 -18.667 114.667 -56 152c-47.333 46.667 -119.333 70 -216 70h-172v-452z" />
    <glyph glyph-name="oe" unicode="&#x153;" horiz-adv-x="1726" vert-adv-y="2458" 
d="M1031 195h160c94 0 159.333 13.333 196 40c35.333 26 53 62.333 53 109c0 46 -17.333 81.667 -52 107c-37.333 27.333 -103 41 -197 41h-160v-297zM799 492h-417v-492h-232v1138h232v-451h417v451h232v-452h157c96.667 0 170 -6.66699 220 -20
c80 -21.333 144.667 -62.333 194 -123c46 -56.667 69 -126 69 -208c0 -97.333 -32 -173.333 -96 -228c-48 -40.667 -101.667 -68 -161 -82c-74.667 -16.667 -159 -25 -253 -25h-362v492z" />
    <glyph glyph-name="Scaron" unicode="&#x160;" horiz-adv-x="1982" vert-adv-y="2458" 
d="M983 1221h-472v-683c-0.666992 -129.333 -17.334 -227.333 -50.001 -294c-45.333 -97.333 -133.333 -176.333 -264 -237c-11.333 -6 -45.666 -19.667 -102.999 -41l-94 225c97.333 33.333 161 69 191 107c34.667 42.667 56 98 64 166c2.66699 12 4 108 4 288v698h976
v-592h144c156 0 277.667 -26.667 365 -80c125.333 -77.333 188 -197 188 -359c0 -279.333 -185 -419 -555 -419h-394v1221zM1235 203l174 0.000976562c92.667 0 162.667 23.333 210 70c40.667 39.333 61 92.666 61 159.999c0 64 -18.667 114.667 -56 152
c-48 46.667 -120.333 70 -217 70h-172v-452z" />
    <glyph glyph-name="scaron" unicode="&#x161;" horiz-adv-x="1814" vert-adv-y="2458" 
d="M1120 1138v-451.999h157c96.667 0 170 -6.66699 220 -20c80 -22 144.667 -63.333 194 -124c46 -56.667 69 -126 69 -208c0 -97.333 -32 -173 -96 -227c-48 -40.667 -101.667 -68 -161 -82c-74.667 -16.667 -159 -25 -253 -25h-362v943h-431v-517
c-0.666992 -100 -16.667 -178.333 -48 -235c-57.333 -104.667 -174 -177.334 -350 -218.001l-59 183c81.333 24 135.333 50.667 162 80c32 33.333 51.667 77 59 131c2.66699 10.667 4 86.667 4 228v543h895zM1120 195.001h159.999c94 0 159.333 13.333 196 40
c34.667 26 52 62 52 108c0 46.667 -17.333 82.667 -52 108c-37.333 27.333 -102.666 41 -195.999 41h-160v-297z" />
    <glyph glyph-name="Ydieresis" unicode="&#x178;" horiz-adv-x="1393" vert-adv-y="2458" 
d="M1242 0h-430v-364l-232 -26v390h-430v1138h232v-943h628v943h232v-1138z" />
    <glyph glyph-name="florin" unicode="&#x192;" horiz-adv-x="1001" vert-adv-y="2458" 
d="M150 0v1138h844v-205h-612v-933h-232zM773 1661l75 -205l-541 -198l-75 205z" />
    <glyph glyph-name="semicolon" unicode="&#x37e;" horiz-adv-x="635" vert-adv-y="2458" 
d="M37 -340l172 528h231l-206 -528h-197zM333 1051c36 0 66.667 -12.667 92 -38s38 -56 38 -92s-12.667 -66.333 -38 -91c-25.333 -26 -56 -39 -92 -39c-48 0 -85 21 -111 63c-12.667 20.667 -19 42.667 -19 66c0 36.667 13 67.667 39 93s56.333 38 91 38z" />
    <glyph glyph-name="afii10023" unicode="&#x401;" horiz-adv-x="1147" vert-adv-y="2458" 
d="M180 0v1450h844v-223h-592v-357h508v-221h-508v-424h602v-225h-854zM313 1887c38 0 71.001 -14 99.001 -42c29.333 -29.333 44 -65 44 -107c0 -40.667 -14 -75 -42 -103c-27.333 -27.333 -61.333 -41 -102 -41c-56.667 0 -99.334 23 -128.001 69
c-14 23.333 -21 48 -21 74c0 41.333 14.667 76.333 44 105c30.667 30 66 45 106 45zM885.001 1886c39.333 0 73.668 -14.667 103.001 -44c28.667 -28.667 43 -63.334 43 -104.001s-14 -75 -42 -103s-63 -42 -105 -42c-54.667 0 -96.334 23 -125.001 69
c-14 22.667 -21 48 -21 76c0 40.667 14.667 75.334 44 104.001c30 29.333 64.333 44 103 44z" />
    <glyph glyph-name="afii10051" unicode="&#x402;" horiz-adv-x="1645" vert-adv-y="2458" 
d="M670 559v-559.001h-252v1227h-410v223h1071v-223h-409v-248c66.667 64 129.334 109.667 188.001 137c79.333 36.667 162.666 55 249.999 55c90.667 0 171 -21.333 241 -64c74 -45.333 122 -108 144 -188c12 -43.333 18.667 -107 20 -191v-308
c0 -122 -16.333 -213.667 -49 -275c-62 -119.333 -183.333 -179 -364 -179c-76.667 0 -154.667 11.333 -234 34l-27 253c81.333 -35.333 164 -53 248 -53c62 0 107.333 14.333 136 43c25.333 24.667 38 67.667 38 129v272c0 88.667 -4 147 -12 175
c-25.333 90.667 -91 136 -197 136c-111.333 0 -207 -41.333 -287 -124c-44 -44.667 -71.667 -92 -83 -142c-7.33301 -31.333 -11.333 -74.666 -12 -129.999z" />
    <glyph glyph-name="afii10052" unicode="&#x403;" horiz-adv-x="1038" vert-adv-y="2458" 
d="M180 0v1450h844v-223h-592v-1227h-252zM858 1975l75 -205l-541 -198l-75 205z" />
    <glyph glyph-name="afii10053" unicode="&#x404;" horiz-adv-x="1331" vert-adv-y="2458" 
d="M346 649c12 -96.667 43.3301 -181.001 93.9971 -253.001c42.667 -61.333 97.334 -108.666 164.001 -141.999c65.333 -32.667 136.333 -49 213 -49c106.667 0 206.667 30.333 300 91c38 24 86.333 66 145 126l-15 -315c-60 -40 -111.667 -68.667 -155 -86
c-90 -36.667 -183.667 -55 -281 -55c-192 0 -358 66 -498 198c-78 74 -137.333 161 -178 261c-36.667 92 -55 190 -55 294c0 153.333 38.667 293.666 116 420.999c71.333 116.667 167 205.334 287 266.001c102.667 52 213.334 78 332.001 78
c105.333 0 204.333 -20.667 297 -62c34 -15.333 77.667 -40.333 131 -75l-26 -276c-59.333 51.333 -107.666 87.666 -144.999 108.999c-76 43.333 -157.333 65 -244 65c-105.333 0 -199.333 -29.667 -282 -89c-89.333 -65.333 -151 -160.666 -185 -285.999h620v-221h-635z
" />
    <glyph glyph-name="afii10054" unicode="&#x405;" horiz-adv-x="1110" vert-adv-y="2458" 
d="M98 352c77.333 -47.333 140.33 -81.001 188.997 -101.001c76 -30.667 145.667 -46 209 -46c77.333 0 141.666 18.667 192.999 56c44.667 32 67 78 67 138c0 48 -20.333 91.667 -61 131c-34 33.333 -85 70.333 -153 111l-108 66
c-103.333 62 -176.666 119.667 -219.999 173c-56.667 68.667 -85 144.667 -85 228c0 98 34.333 182 103 252c82 82.667 195.333 124 340 124c114 0 234.667 -29.333 362 -88l-9 -266c-56.667 30 -100.667 51.667 -132 65c-80.667 33.333 -154.667 50 -222 50
c-72 0 -125.333 -18.667 -160 -56c-22.667 -24 -34 -53 -34 -87c0 -26 7 -48.333 21 -67c26.667 -36 84.334 -80 173.001 -132l105 -61c108 -64 188 -127.333 240 -190c64 -77.333 96 -164.666 96 -261.999c0 -113.333 -39.333 -209 -118 -287
c-91.333 -91.333 -219.666 -137 -384.999 -137c-129.333 0 -258.666 28.667 -387.999 86z" />
    <glyph glyph-name="afii10055" unicode="&#x406;" horiz-adv-x="612" vert-adv-y="2458" 
d="M180 0v1450h252v-1450h-252z" />
    <glyph glyph-name="afii10056" unicode="&#x407;" horiz-adv-x="625" vert-adv-y="2458" 
d="M184 0v1450h252v-1450h-252zM127 1887c38 0 71.001 -14.001 99.001 -42.001c29.333 -29.333 44 -64.666 44 -105.999s-14 -76 -42 -104c-27.333 -27.333 -61.333 -41 -102 -41c-56.667 0 -99.334 23 -128.001 69c-14 23.333 -21 48 -21 74c0 41.333 14.667 76.333 44 105
c30.667 30 66 45 106 45zM501.001 1886c39.333 0 73.667 -14.333 103 -43c28.667 -29.333 43 -64.333 43 -105s-14 -75 -42 -103s-63 -42 -105 -42c-54.667 0 -96 23 -124 69c-14.667 23.333 -22 48.666 -22 75.999c0 40.667 14.667 75.334 44 104.001
c30 29.333 64.333 44 103 44z" />
    <glyph glyph-name="afii10057" unicode="&#x408;" horiz-adv-x="799" vert-adv-y="2458" 
d="M-10 256c69.333 -34.667 131.333 -52 186 -52c138 0 207 98 207 294v952h252v-997c0 -160 -40.667 -281 -122 -363c-72.667 -72.667 -175 -109 -307 -109c-62.667 0 -126.667 7.66699 -192 23z" />
    <glyph glyph-name="afii10058" unicode="&#x409;" horiz-adv-x="1982" vert-adv-y="2458" 
d="M983 1221h-472v-683c-0.666992 -129.333 -17.334 -227.333 -50.001 -294c-45.333 -97.333 -133.333 -176.333 -264 -237c-11.333 -6 -45.666 -19.667 -102.999 -41l-94 225c97.333 33.333 161 69 191 107c34.667 42.667 56 98 64 166c2.66699 12 4 108 4 288v698h976
v-592h144c156 0 277.667 -26.667 365 -80c125.333 -77.333 188 -197 188 -359c0 -279.333 -185 -419 -555 -419h-394v1221zM1235 203l174 0.000976562c92.667 0 162.667 23.333 210 70c40.667 39.333 61 92.666 61 159.999c0 64 -18.667 114.667 -56 152
c-48 46.667 -120.333 70 -217 70h-172v-452z" />
    <glyph glyph-name="afii10059" unicode="&#x40a;" horiz-adv-x="2122" vert-adv-y="2458" 
d="M1122 655l-690 0.000976562v-655h-252v1450h252v-578h690v578h252v-578h143c105.333 0 190 -10 254 -30c199.333 -62.667 299 -201.334 299 -416.001c0 -284 -185 -426 -555 -426h-393v655zM1374 203.001l174 0.000976562c92 0 162 23.333 210 70
c40 39.333 60 92.666 60 159.999c0 64 -18.667 114.667 -56 152c-47.333 46.667 -119.333 70 -216 70h-172v-452z" />
    <glyph glyph-name="afii10060" unicode="&#x40b;" horiz-adv-x="1636" vert-adv-y="2458" 
d="M662 559v-559.001h-252v1227h-410v223h1071v-223h-409v-248c66.667 64 129.334 109.667 188.001 137c79.333 36.667 162.666 55 249.999 55c90.667 0 171 -21.333 241 -64c74 -45.333 122 -108 144 -188c12 -43.333 18.667 -107 20 -191v-728h-252v644
c0 88.667 -4 147 -12 175c-25.333 90.667 -91 136 -197 136c-111.333 0 -207 -41.333 -287 -124c-44 -44.667 -71.667 -92 -83 -142c-7.33301 -31.333 -11.333 -74.666 -12 -129.999z" />
    <glyph glyph-name="afii10061" unicode="&#x40c;" horiz-adv-x="1366" vert-adv-y="2458" 
d="M180 0v1450h252v-647l616 647h295l-661 -696l731 -754h-328l-653 678v-678h-252zM998 1975l75 -205l-541 -198l-75 205z" />
    <glyph glyph-name="afii10062" unicode="&#x40e;" horiz-adv-x="1278" vert-adv-y="2458" 
d="M-47 1450h300l417 -829l361 829h294l-673 -1450l-285 -27l173 380zM1017 1759c-52 -43.333 -92.667 -73.332 -122 -89.999c-79.333 -47.333 -169.666 -71 -270.999 -71c-108.667 0 -205.334 27.333 -290.001 82c-24 15.333 -58.667 41.666 -104 78.999l107 166
c45.333 -34.667 82.333 -58.667 111 -72c58.667 -28 117 -42 175 -42c66 0 130.667 17 194 51c22.667 12 53.667 33 93 63z" />
    <glyph glyph-name="afii10145" unicode="&#x40f;" horiz-adv-x="1554" vert-adv-y="2458" 
d="M180 0v1450h252v-1225h690v1225h252v-1450h-471v-358l-252 -32v390h-471z" />
    <glyph glyph-name="afii10017" unicode="&#x410;" horiz-adv-x="1346" vert-adv-y="2458" 
d="M219 0h-258l730 1502l691 -1502h-268l-117 258h-659zM432 465h475l-235 541z" />
    <glyph glyph-name="afii10018" unicode="&#x411;" horiz-adv-x="1197" vert-adv-y="2458" 
d="M180 0l-0.000976562 1450h844v-223h-592v-369h143c156.667 0 278.334 -26.667 365.001 -80c126 -77.333 189 -197 189 -359c0 -279.333 -185.333 -419 -556 -419h-393zM431.999 203l174 0.000976562c92.667 0 162.667 23.333 210 70c40.667 39.333 61 92.666 61 159.999
c0 64 -18.667 114.667 -56 152c-48 46.667 -120.333 70 -217 70h-172v-452z" />
    <glyph glyph-name="afii10019" unicode="&#x412;" horiz-adv-x="1233" vert-adv-y="2458" 
d="M180 0v1450h432c180 0 311 -40.333 393 -121c60.667 -60 91 -141 91 -243c0 -95.333 -30.333 -172 -91 -230c-30 -28.667 -76.333 -56 -139 -82c62 -19.333 109 -42.333 141 -69c80.667 -66.667 121 -163.334 121 -290.001c0 -276.667 -185 -415 -555 -415h-393z
M432 848.001l143 0.000976562c96 0 167.667 24 215 72c37.333 37.333 56 85.666 56 144.999c0 54 -15.333 96.333 -46 127c-44 43.333 -122.333 65 -235 65h-133v-409zM432 203.002l174 0.000976562c92 0 162 23.333 210 70c40 39.333 60 92.666 60 159.999
c0 64 -18.667 114.667 -56 152c-47.333 46.667 -119.333 70 -216 70h-172v-452z" />
    <glyph glyph-name="afii10020" unicode="&#x413;" horiz-adv-x="1038" vert-adv-y="2458" 
d="M180 0v1450h844v-223h-592v-1227h-252z" />
    <glyph glyph-name="afii10021" unicode="&#x414;" horiz-adv-x="1406" vert-adv-y="2458" 
d="M7 -390v615.001c92.667 24 153.667 52.333 183 85c30 33.333 49 76.666 57 129.999c4 22 6 110.333 6 265v745h962v-1225h123v-589l-252 -26v390h-827v-364zM368 225.001l595.001 0.000976562v1002h-458v-736c-0.666992 -94.667 -16.667 -160.334 -48 -197.001
c-16.667 -20.667 -46.334 -43.667 -89.001 -69z" />
    <glyph glyph-name="afii10022" unicode="&#x415;" horiz-adv-x="1147" vert-adv-y="2458" 
d="M180 0v1450h844v-223h-592v-357h508v-221h-508v-424h602v-225h-854z" />
    <glyph glyph-name="afii10024" unicode="&#x416;" horiz-adv-x="2120" vert-adv-y="2458" 
d="M1186 0h-252v678l-653 -678h-328l731 754l-661 696h295l616 -647v647h252v-647l616 647h295l-661 -696l731 -754h-328l-653 678v-678z" />
    <glyph glyph-name="afii10025" unicode="&#x417;" horiz-adv-x="1148" vert-adv-y="2458" 
d="M231 380c42.667 -54.667 79.999 -92.668 111.999 -114.001c58.667 -40.667 124.667 -61 198 -61c67.333 0 123.333 17 168 51c51.333 40 77 94.333 77 163c0 69.333 -31 123 -93 161c-34.667 21.333 -77.334 35.333 -128.001 42c-24.667 3.33301 -63.667 5 -117 5h-55
v229h69c108 0 188.667 24.667 242 74c35.333 32.667 53 74 53 124c0 53.333 -21.333 99.666 -64 138.999c-38 34.667 -87.333 52 -148 52c-69.333 0 -134.666 -25.333 -195.999 -76c-20 -17.333 -50.333 -47.333 -91 -90l-164 155c53.333 62 103.333 110 150 144
c96 70.667 202.333 106 319 106c134 0 243.667 -42.667 329 -128c77.333 -77.333 116 -169.333 116 -276c0 -89.333 -29.667 -166 -89 -230c-25.333 -27.333 -63.666 -54.666 -114.999 -81.999c58 -26.667 101.667 -54.667 131 -84c72.667 -72 109 -161.333 109 -268
c0 -119.333 -42.333 -221.666 -127 -306.999c-96 -95.333 -224 -143 -384 -143c-152.667 0 -281.667 47 -387 141c-26.667 23.333 -55.667 54 -87 92z" />
    <glyph glyph-name="afii10026" unicode="&#x418;" horiz-adv-x="1569" vert-adv-y="2458" 
d="M1388 0h-252v913l-956 -968v1505h252v-916l956 968v-1502z" />
    <glyph glyph-name="afii10027" unicode="&#x419;" horiz-adv-x="1569" vert-adv-y="2458" 
d="M1388 0h-252v913l-956 -968v1505h252v-916l956 968v-1502zM1189 1759c-52 -43.333 -92.667 -73.332 -122 -89.999c-79.333 -47.333 -169.666 -71 -270.999 -71c-108.667 0 -205.334 27.333 -290.001 82c-24 15.333 -58.667 41.666 -104 78.999l107 166
c45.333 -34.667 82.666 -58.667 111.999 -72c58 -28 116.333 -42 175 -42c66 0 130.667 17 194 51c22.667 12 53.334 33 92.001 63z" />
    <glyph glyph-name="afii10028" unicode="&#x41a;" horiz-adv-x="1366" vert-adv-y="2458" 
d="M180 0v1450h252v-647l616 647h295l-661 -696l731 -754h-328l-653 678v-678h-252z" />
    <glyph glyph-name="afii10029" unicode="&#x41b;" horiz-adv-x="1415" vert-adv-y="2458" 
d="M0 191c97.333 33.333 161.001 69 191.001 107c34.667 42.667 56 98 64 166c2.66699 12 4 108 4 288v698h976v-1450h-252v1221h-472v-683c-0.666992 -129.333 -17.334 -227.333 -50.001 -294c-45.333 -97.333 -133.333 -176.333 -264 -237
c-10.667 -6 -45 -19.667 -103 -41z" />
    <glyph glyph-name="afii10030" unicode="&#x41c;" horiz-adv-x="1683" vert-adv-y="2458" 
d="M12 0l313 1502l518 -1066l517 1066l311 -1502h-250l-158 819l-419 -874l-439 874l-157 -819h-236z" />
    <glyph glyph-name="afii10031" unicode="&#x41d;" horiz-adv-x="1554" vert-adv-y="2458" 
d="M180 0v1450h252v-578h690v578h252v-1450h-252v649h-690v-649h-252z" />
    <glyph glyph-name="afii10032" unicode="&#x41e;" horiz-adv-x="1602" vert-adv-y="2458" 
d="M803 1484c134.667 0 259.669 -37.332 375.002 -111.999c114 -73.333 201.667 -172.333 263 -297c54 -110.667 81 -227.334 81 -350.001c0 -144 -36 -277 -108 -399c-72 -122.667 -169.333 -216 -292 -280c-102 -53.333 -209.333 -80 -322 -80
c-196.667 0 -365.667 73.667 -507 221c-66.667 70 -118.334 150 -155.001 240c-38.667 94 -58 190 -58 288c0 180.667 50 338.667 150 474c69.333 94 153.666 166.667 252.999 218c100 51.333 206.667 77 320 77zM801.002 1245c-119.333 0 -222.333 -42.668 -309 -128.001
c-49.333 -48.667 -86.333 -105.667 -111 -171c-26 -70 -39 -141 -39 -213c0 -168 50.333 -301.333 151 -400c86.667 -85.333 189.667 -128 309 -128c118.667 0 221.334 42.333 308.001 127c48 46.667 85.333 103.334 112 170.001c28.667 70 43 144.333 43 223
c0 109.333 -26 208 -78 296c-47.333 79.333 -110.333 138.333 -189 177c-62.667 31.333 -128.334 47 -197.001 47z" />
    <glyph glyph-name="afii10033" unicode="&#x41f;" horiz-adv-x="1554" vert-adv-y="2458" 
d="M180 0v1450h1194v-1450h-252v1227h-690v-1227h-252z" />
    <glyph glyph-name="afii10034" unicode="&#x420;" horiz-adv-x="1190" vert-adv-y="2458" 
d="M180 0l0.000976562 1450h336c136 0 242 -12.333 318 -37c121.333 -39.333 208.666 -110.666 261.999 -213.999c28.667 -56 43 -117.333 43 -184c0 -116.667 -39 -214.334 -117 -293.001c-44.667 -44.667 -95.667 -78 -153 -100c-100.667 -38 -210 -57 -328 -57h-56h-53
v-565h-252zM432.001 780h114.999c225.333 0 338 77.667 338 233c0 78 -31 135.333 -93 172c-57.333 33.333 -146.666 50 -267.999 50h-92v-455z" />
    <glyph glyph-name="afii10035" unicode="&#x421;" horiz-adv-x="1331" vert-adv-y="2458" 
d="M1247 107c-60 -40 -111.667 -68.667 -155 -86c-90.667 -36.667 -184.334 -55 -281.001 -55c-192 0 -358 66 -498 198c-78 74 -137.333 161 -178 261c-36.667 92 -55 190 -55 294c0 153.333 38.667 293.666 116 420.999c71.333 116.667 167 205.334 287 266.001
c102.667 52 213.334 78 332.001 78c105.333 0 204 -20.667 296 -62c34.667 -15.333 78.667 -40.333 132 -75l-26 -276c-59.333 51.333 -107.666 87.666 -144.999 108.999c-76 43.333 -157.667 65 -245 65c-133.333 0 -245 -45.333 -335 -136c-46 -46 -82.333 -102 -109 -168
c-27.333 -69.333 -41 -143 -41 -221c0 -107.333 25.333 -204.333 76 -291c45.333 -77.333 107 -135.666 185 -174.999c65.333 -32.667 136.666 -49 213.999 -49c106.667 0 206.667 30.333 300 91c38 24.667 86.333 66.667 145 126z" />
    <glyph glyph-name="afii10036" unicode="&#x422;" horiz-adv-x="1249" vert-adv-y="2458" 
d="M752 1229v-1229h-252v1229h-492v221h1233v-221h-489z" />
    <glyph glyph-name="afii10037" unicode="&#x423;" horiz-adv-x="1278" vert-adv-y="2458" 
d="M-47 1450h300l417 -829l361 829h294l-673 -1450l-285 -27l173 380z" />
    <glyph glyph-name="afii10038" unicode="&#x424;" horiz-adv-x="1713" vert-adv-y="2458" 
d="M984 1316c128.667 -12.667 245.001 -49.665 349.001 -110.998c94 -55.333 166.667 -123.333 218 -204c54.667 -86.667 82 -177.667 82 -273c0 -129.333 -46.667 -246 -140 -350c-94.667 -104.667 -222.334 -176.667 -383.001 -216c-39.333 -10 -81.333 -17.333 -126 -22
v-140h-252v140c-130.667 13.333 -248.334 50.333 -353.001 111c-93.333 55.333 -165.666 123.666 -216.999 204.999c-54.667 86 -82 176.667 -82 272c0 129.333 46.667 246 140 350c94.667 105.333 222.667 177.666 384 216.999c40 10 82.667 17 128 21v134h252v-134z
M732.001 1094c-66.667 -9.33301 -128.666 -28.667 -185.999 -58c-139.333 -71.333 -209 -174 -209 -308c0 -144 79.333 -251 238 -321c49.333 -22 101.666 -37 156.999 -45v732zM984.002 1093v-729.999c69.333 11.333 130 30.333 182 57c140 72 210 174.667 210 308
c0 144.667 -79.667 252 -239 322c-44 19.333 -95 33.666 -153 42.999z" />
    <glyph glyph-name="afii10039" unicode="&#x425;" horiz-adv-x="1358" vert-adv-y="2458" 
d="M250 0h-283l541 756l-521 694h308l366 -481l344 481h281l-481 -672l585 -778h-313l-426 565z" />
    <glyph glyph-name="afii10040" unicode="&#x426;" horiz-adv-x="1565" vert-adv-y="2458" 
d="M180 0v1450h252v-1225h690v1225h252v-1225h123v-583l-252 -32v390h-1065z" />
    <glyph glyph-name="afii10041" unicode="&#x427;" horiz-adv-x="1442" vert-adv-y="2458" 
d="M1010 0v533c-110.667 -16.667 -214.667 -25 -312 -25c-170.667 0 -299 20.333 -385 61c-110.667 52 -183 139.333 -217 262c-18.667 68.667 -28 172.334 -28 311.001v308h252v-287c0 -96.667 3.33301 -167.334 10 -212.001c8 -50 24.667 -87 50 -111
c52 -50.667 159 -76 321 -76c94.667 0 197.667 8 309 24v662h252v-1450h-252z" />
    <glyph glyph-name="afii10042" unicode="&#x428;" horiz-adv-x="2442" vert-adv-y="2458" 
d="M180 0v1450h252v-1225h663v1225h252v-1225h662v1225h252v-1450h-2081z" />
    <glyph glyph-name="afii10043" unicode="&#x429;" horiz-adv-x="2453" vert-adv-y="2458" 
d="M180 0v1450h252v-1225h663v1225h252v-1225h662v1225h252v-1225h123v-583l-252 -32v390h-1952z" />
    <glyph glyph-name="afii10044" unicode="&#x42a;" horiz-adv-x="1368" vert-adv-y="2458" 
d="M369 0v1227h-410v223h662v-592h143c156 0 277.667 -26.667 365 -80c125.333 -77.333 188 -197 188 -359c0 -279.333 -185 -419 -555 -419h-393zM621 203l174 0.000976562c92 0 162 23.333 210 70c40 39.333 60 92.666 60 159.999c0 64 -18.667 114.667 -56 152
c-47.333 46.667 -119.333 70 -216 70h-172v-452z" />
    <glyph glyph-name="afii10045" unicode="&#x42b;" horiz-adv-x="1681" vert-adv-y="2458" 
d="M180 0v1450h252v-592h143c156 0 277.667 -26.667 365 -80c125.333 -77.333 188 -197 188 -359c0 -279.333 -185 -419 -555 -419h-393zM432 203l174 0.000976562c92 0 162 23.333 210 70c40 39.333 60 92.666 60 159.999c0 64 -18.667 114.667 -56 152
c-47.333 46.667 -119.333 70 -216 70h-172v-452zM1249 0.000976562v1450h252v-1450h-252z" />
    <glyph glyph-name="afii10046" unicode="&#x42c;" horiz-adv-x="1180" vert-adv-y="2458" 
d="M180 0v1450h252v-592h143c156 0 277.667 -26.667 365 -80c125.333 -77.333 188 -197 188 -359c0 -279.333 -185 -419 -555 -419h-393zM432 203l174 0.000976562c92 0 162 23.333 210 70c40 39.333 60 92.666 60 159.999c0 64 -18.667 114.667 -56 152
c-47.333 46.667 -119.333 70 -216 70h-172v-452z" />
    <glyph glyph-name="afii10047" unicode="&#x42d;" horiz-adv-x="1333" vert-adv-y="2458" 
d="M987 649l-642 -0.00292969v221h628c-18.667 68.667 -45 127.667 -79 177c-44 62.667 -100 111.334 -168 146.001s-141 52 -219 52c-94 0 -184.333 -26.333 -271 -79c-28 -16.667 -67.667 -44.667 -119 -84l34 301c114.667 67.333 237.667 101 369 101
c138 0 264.333 -35 379 -105c114.667 -69.333 203.667 -166 267 -290c58.667 -114.667 88 -238 88 -370c0 -150 -37.667 -285.667 -113 -407c-78.667 -127.333 -186 -221.666 -322 -282.999c-94 -42 -193 -63 -297 -63c-106 0 -208 22 -306 66
c-36.667 16.667 -85 44.667 -145 84l26 283c54 -55.333 104.667 -96.333 152 -123c85.333 -47.333 174.666 -71 267.999 -71c102.667 0 193.667 28.333 273 85c112.667 80.667 178.334 200.334 197.001 359.001z" />
    <glyph glyph-name="afii10048" unicode="&#x42e;" horiz-adv-x="2000" vert-adv-y="2458" 
d="M492 872c18 88 46.001 166.334 84.001 235.001c60.667 111.333 143 200 247 266c114.667 74 240 111 376 111s261.667 -37 377 -111c114 -73.333 201.667 -173 263 -299c54 -110 81 -226.667 81 -350c0 -143.333 -36 -276 -108 -398
c-72 -122.667 -169.333 -216 -292 -280c-102 -53.333 -209.333 -80 -322 -80c-154.667 0 -295.334 47.333 -422.001 142c-168.667 127.333 -265 307.666 -289 540.999h-55v-649h-252v1450h252v-578h60zM1199 1245c-119.333 0 -222.333 -42.6689 -309 -128.002
c-49.333 -48.667 -86.333 -105.667 -111 -171c-26 -70 -39 -141 -39 -213c0 -168 50.333 -301.333 151 -400c86.667 -85.333 189.667 -128 309 -128c118.667 0 221.334 42.333 308.001 127c48 46.667 85.333 103.334 112 170.001c28.667 70 43 144.333 43 223
c0 108.667 -26 207.334 -78 296.001c-47.333 79.333 -110.333 138.333 -189 177c-62.667 31.333 -128.334 47 -197.001 47z" />
    <glyph glyph-name="afii10049" unicode="&#x42f;" horiz-adv-x="1298" vert-adv-y="2458" 
d="M1118 0h-248v602h-125l-440 -602h-297l469 637c-85.333 33.333 -149 69.333 -191 108c-84.667 78 -127 174.667 -127 290c0 130 56.667 235 170 315c54 38 117.333 64.667 190 80c61.333 13.333 149 20 263 20h336v-1450zM870 788v455h-96
c-130.667 0 -224.667 -20 -282 -60c-52.667 -36 -79 -90 -79 -162c0 -62.667 19 -112.667 57 -150c57.333 -55.333 151 -83 281 -83h119z" />
    <glyph glyph-name="afii10065" unicode="&#x430;" horiz-adv-x="1369" vert-adv-y="2458" 
d="M1232 0l-223 -32.001c-7.33301 28 -13.333 61 -18 99c-136 -66.667 -258.333 -100 -367 -100c-150 0 -276 50.667 -378 152c-49.333 48.667 -89.333 107.667 -120 177c-37.333 84.667 -56 172.334 -56 263.001c0 124.667 33 238.667 99 342
c56 86.667 128.667 153.667 218 201c87.333 46 183.333 69 288 69c95.333 0 199.333 -17.667 312 -53l218 39v-907c2.66699 -108 11.667 -191.333 27 -250zM971 266.999v643.001c-82.667 39.333 -171.334 59 -266.001 59c-113.333 0 -205.666 -34.667 -276.999 -104
c-78 -76 -117 -177.667 -117 -305c0 -120.667 36.667 -218.334 110 -293.001c64 -65.333 146 -98 246 -98c74 0 149.667 19 227 57c15.333 7.33301 41 21 77 41z" />
    <glyph glyph-name="afii10066" unicode="&#x431;" horiz-adv-x="1343" vert-adv-y="2458" 
d="M679 868c-104 0 -191.332 -33 -261.999 -99c-72.667 -67.333 -109 -151 -109 -251c0 -98.667 36.333 -182 109 -250c70 -66 156 -99 258 -99s188 33 258 99c72.667 68 109 151.333 109 250c0 101.333 -36.333 185 -109 251s-157.334 99 -254.001 99zM849.001 1450
l234.002 26.002c-20.667 -86 -44.334 -146.333 -71.001 -181c-46.667 -60.667 -108.334 -99.334 -185.001 -116.001c-22.667 -4.66699 -85.334 -12 -188.001 -22c-94.667 -10 -163.667 -32.667 -207 -68c-28 -23.333 -55.333 -61.333 -82 -114
c111.333 66.667 227.333 100 348 100c164 0 302 -55 414 -165c107.333 -104.667 161 -234.334 161 -389.001c0 -152 -56 -281.333 -168 -388c-116.667 -110.667 -259.667 -166 -429 -166c-172.667 0 -317.334 56.333 -434.001 169
c-63.333 60.667 -106.666 124.667 -129.999 192c-28 81.333 -42 181.333 -42 300c0 155.333 19 281.333 57 378c52 130.667 136.667 226.334 254 287.001c66.667 34.667 154.334 55.667 263.001 63c70.667 5.33301 120 13.666 148 24.999c25.333 12 44.333 35 57 69z" />
    <glyph glyph-name="afii10067" unicode="&#x432;" horiz-adv-x="1091" vert-adv-y="2458" 
d="M150 0l-0.000976562 1138h397c127.333 0 221 -14.333 281 -43c109.333 -52 164 -131.667 164 -239c0 -73.333 -28 -133 -84 -179c-26.667 -22.667 -69 -44.334 -127 -65.001c56.667 -14.667 100 -32.667 130 -54c74 -53.333 111 -129.333 111 -228
c0 -94 -32 -168.333 -96 -223c-48 -41.333 -101.667 -68.666 -161 -81.999c-75.333 -16.667 -159.666 -25 -252.999 -25h-362zM381.999 686h145.002c81.333 0 135.666 6 162.999 18c48 22 72 58.667 72 110c0 33.333 -10.333 60.333 -31 81
c-20.667 21.333 -45.334 34.333 -74.001 39c-34 6 -77.333 9 -130 9h-145v-257zM382.001 195h159.999c94 0 159.333 13.333 196 40c34.667 26 52 62 52 108c0 46.667 -17.333 82.667 -52 108c-37.333 27.333 -102.666 41 -195.999 41h-160v-297z" />
    <glyph glyph-name="afii10068" unicode="&#x433;" horiz-adv-x="1001" vert-adv-y="2458" 
d="M150 0v1138h844v-205h-612v-933h-232z" />
    <glyph glyph-name="afii10069" unicode="&#x434;" horiz-adv-x="1290" vert-adv-y="2458" 
d="M7 -390v568.001c84.667 18 140.667 40.667 168 68c28 26.667 45.667 61 53 103c2.66699 13.333 4 82.666 4 207.999v581h888v-943h116v-559l-232 -26v390h-765v-364zM366 195.001h522.001v748h-424v-492c-0.666992 -92 -10.334 -153.333 -29.001 -184
c-13.333 -22.667 -36.333 -46.667 -69 -72z" />
    <glyph glyph-name="afii10070" unicode="&#x435;" horiz-adv-x="1259" vert-adv-y="2458" 
d="M1129 351l-9 -233.999c-76 -42.667 -133.333 -72.334 -172 -89.001c-92 -40.667 -188 -61 -288 -61c-173.333 0 -315 54.333 -425 163s-165 252.334 -165 431.001c0 172.667 55.667 316 167 430c116.667 120 259.334 180 428.001 180c150.667 0 274 -46 370 -138
c43.333 -42 78 -91.667 104 -149c34 -76.667 51 -156 51 -238c0 -34 -1.66699 -75 -5 -123l-892 -61c10.667 -52.667 28.667 -97.334 54 -134.001c71.333 -106 175.333 -159 312 -159c98 0 200.333 27.333 307 82c39.333 20 93.666 53.333 162.999 100zM973 707.001
c-3.33301 54 -20.332 102 -50.999 144c-58 78.667 -145 118 -261 118c-135.333 0 -237.333 -54.333 -306 -163c-24.667 -39.333 -42.334 -86 -53.001 -140z" />
    <glyph glyph-name="afii10072" unicode="&#x436;" horiz-adv-x="1897" vert-adv-y="2458" 
d="M834 0v505l-560 -505h-315l686 607l-622 531h305l506 -438v438h232v-438l503 438h305l-622 -531l686 -607h-315l-557 505v-505h-232z" />
    <glyph glyph-name="afii10073" unicode="&#x437;" horiz-adv-x="984" vert-adv-y="2458" 
d="M159 301c46 -42 84.002 -71.0029 114.002 -87.0029c56.667 -30.667 115.667 -46 177 -46c80 0 142.333 19.667 187 59c28 24.667 42 57.334 42 98.001c0 64.667 -37 111 -111 139c-46 17.333 -113 26 -201 26h-50v182h64c98.667 0 172 19.333 220 58
c32.667 26 49 59.667 49 101c0 42.667 -19.667 77.334 -59 104.001c-34.667 22.667 -78.334 34 -131.001 34c-62.667 0 -123.667 -18.667 -183 -56c-22 -14 -53.333 -38 -94 -72l-130 139c114.667 127.333 255 191 421 191c122.667 0 223 -34.333 301 -103
c71.333 -62 107 -134.667 107 -218c0 -108 -62.333 -190.667 -187 -248c53.333 -21.333 93.666 -43.666 120.999 -66.999c66.667 -57.333 100 -128 100 -212c0 -95.333 -39 -176 -117 -242c-89.333 -76 -207.333 -114 -354 -114c-172 0 -315.667 60.333 -431 181z" />
    <glyph glyph-name="afii10074" unicode="&#x438;" horiz-adv-x="1406" vert-adv-y="2458" 
d="M1256 0h-232v709l-874 -750v1179h232v-702l874 743v-1179z" />
    <glyph glyph-name="afii10075" unicode="&#x439;" horiz-adv-x="1406" vert-adv-y="2458" 
d="M1256 0h-232v709l-874 -750v1179h232v-702l874 743v-1179zM1101 1445c-52 -43.333 -92.667 -73.332 -122 -89.999c-80 -47.333 -170.667 -71 -272 -71c-108.667 0 -205 27.333 -289 82c-24 15.333 -58.667 41.666 -104 78.999l107 166
c45.333 -34.667 82.333 -58.667 111 -72c58 -28 116.333 -42 175 -42c66 0 130.667 17 194 51c22.667 12 53.667 33 93 63z" />
    <glyph glyph-name="afii10076" unicode="&#x43a;" horiz-adv-x="1208" vert-adv-y="2458" 
d="M150 0v1138h232v-438l504 438h305l-622 -531l686 -607h-316l-557 505v-505h-232z" />
    <glyph glyph-name="afii10077" unicode="&#x43b;" horiz-adv-x="1270" vert-adv-y="2458" 
d="M0 156c81.333 24 135.333 50.667 162 80c32 33.333 51.667 77.333 59 132c2.66699 10.667 4 86.334 4 227.001v543h895v-1138h-232v943h-431v-517c-0.666992 -100 -16.667 -178.333 -48 -235c-57.333 -104.667 -174 -177.334 -350 -218.001z" />
    <glyph glyph-name="afii10078" unicode="&#x43c;" horiz-adv-x="1553" vert-adv-y="2458" 
d="M14 0l288 1188l474 -840l478 840l286 -1188h-230l-145 648l-393 -689l-396 689l-145 -648h-217z" />
    <glyph glyph-name="afii10079" unicode="&#x43d;" horiz-adv-x="1393" vert-adv-y="2458" 
d="M150 0v1138h232v-451h628v451h232v-1138h-232v492h-628v-492h-232z" />
    <glyph glyph-name="afii10080" unicode="&#x43e;" horiz-adv-x="1349" vert-adv-y="2458" 
d="M677 1171c171.333 0 314 -57 428 -171c53.333 -53.333 95.333 -117 126 -191c32.667 -78 49 -158 49 -240c0 -114.667 -30 -222.334 -90 -323.001c-56 -92 -131.667 -162.667 -227 -212c-87.333 -44.667 -183 -67 -287 -67c-174.667 0 -319 57.667 -433 173
c-52.667 52.667 -94 115.334 -124 188.001c-32.667 78 -49 156 -49 234c0 120 29.667 229.667 89 329c54.667 91.333 130.667 162.333 228 213c87.333 44.667 184 67 290 67zM677 969c-99.333 0 -184 -36.001 -254 -108.001c-74.667 -77.333 -112 -172.666 -112 -285.999
c0 -122 37 -221.333 111 -298c70 -72 154.333 -108 253 -108c98 0 182.333 36.333 253 109c74 76.667 111 173.667 111 291c0 116.667 -37 213.667 -111 291c-70 72.667 -153.667 109 -251 109z" />
    <glyph glyph-name="afii10081" unicode="&#x43f;" horiz-adv-x="1393" vert-adv-y="2458" 
d="M1242 1138v-1138h-232v943h-628v-943h-232v1138h1092z" />
    <glyph glyph-name="afii10082" unicode="&#x440;" horiz-adv-x="1355" vert-adv-y="2458" 
d="M123 1138l223.001 33c8 -32.667 14 -66 18 -100c135.333 66.667 257.666 100 366.999 100c149.333 0 275 -50.667 377 -152c50 -48.667 90.333 -107.667 121 -177c37.333 -84.667 56 -172.667 56 -264c0 -124 -33 -237.667 -99 -341
c-56 -87.333 -128.667 -154.333 -218 -201c-87.333 -46 -184 -69 -290 -69c-90 0 -188 15.667 -294 47v-378l-234 -26v1278c-2.66699 106.667 -11.667 190 -27 250zM384.001 871l0.000976562 -643c83.333 -39.333 172 -59 266 -59c113.333 0 205.666 34.667 276.999 104
c78 76 117 177.667 117 305c0 120 -36.667 217.667 -110 293c-63.333 65.333 -145 98 -245 98c-75.333 0 -151.333 -19 -228 -57c-16 -8 -41.667 -21.667 -77 -41z" />
    <glyph glyph-name="afii10083" unicode="&#x441;" horiz-adv-x="1171" vert-adv-y="2458" 
d="M1089 85c-64.667 -33.333 -117.335 -57.333 -158.002 -72c-86 -30.667 -173 -46 -261 -46c-172 0 -314 55 -426 165c-116 114.667 -174 258 -174 430c0 175.333 59.333 321 178 437c118 114.667 268.333 172 451 172c136 0 272.333 -35 409 -105l-26 -208
c-151.333 74 -274.666 111 -369.999 111c-113.333 0 -208.333 -39 -285 -117c-77.333 -78.667 -116 -173.667 -116 -285c0 -109.333 38.667 -204.333 116 -285c72.667 -75.333 159.667 -113 261 -113c88.667 0 181.334 24 278.001 72c36 18 86.667 48.333 152 91z" />
    <glyph glyph-name="afii10084" unicode="&#x442;" horiz-adv-x="1150" vert-adv-y="2458" 
d="M691 943v-943h-232v943h-451v195h1133v-195h-450z" />
    <glyph glyph-name="afii10085" unicode="&#x443;" horiz-adv-x="1090" vert-adv-y="2458" 
d="M-14 1138h265l294 -863l298 863h260l-572 -1502l-242 -26l151 393z" />
    <glyph glyph-name="afii10086" unicode="&#x444;" horiz-adv-x="1486" vert-adv-y="2458" 
d="M628 -38c-123.333 17.333 -228.333 57 -315 119c-74 52.667 -132.333 121.334 -175 206.001c-45.333 89.333 -68 183.333 -68 282c0 132.667 38.333 252.667 115 360c97.333 136.667 245 219 443 247v274l234 26v-300c122.667 -18 227 -57.667 313 -119
c73.333 -52.667 131.333 -121.334 174 -206.001c45.333 -90 68 -184 68 -282c0 -132.667 -38.333 -253 -115 -361c-97.333 -136 -244 -218 -440 -246v-326l-234 -26v352zM628 970c-60.667 -12 -114.666 -35.667 -161.999 -71c-104 -78 -156 -188 -156 -330
c0 -92 23.667 -173 71 -243c55.333 -81.333 137.666 -134 246.999 -158v802zM862.001 970v-800.999c62 15.333 114.667 38.666 158 69.999c50.667 36.667 89.667 84.667 117 144c26.667 57.333 40 119.333 40 186c0 90.667 -24 171 -72 241
c-58.667 86 -139.667 139.333 -243 160z" />
    <glyph glyph-name="afii10087" unicode="&#x445;" horiz-adv-x="1182" vert-adv-y="2458" 
d="M-14 0l481 596l-420 542h280l273 -373l266 373h280l-419 -532l468 -606h-279l-321 438l-329 -438h-280z" />
    <glyph glyph-name="afii10088" unicode="&#x446;" horiz-adv-x="1420" vert-adv-y="2458" 
d="M1242 195h123v-559l-232 -26v390h-983v1138h232v-943h628v943h232v-943z" />
    <glyph glyph-name="afii10089" unicode="&#x447;" horiz-adv-x="1285" vert-adv-y="2458" 
d="M902 0v409c-94 -16 -178.333 -24 -253 -24c-206 0 -359 47.667 -459 143c-62 60 -99.667 131.667 -113 215c-10 63.333 -15 141.333 -15 234v161h232v-127c0 -95.333 3.33301 -165.333 10 -210c8 -49.333 24.333 -86.333 49 -111c52.667 -50.667 155.667 -76 309 -76
c88 0 168 8.33301 240 25v499h232v-1138h-232z" />
    <glyph glyph-name="afii10090" unicode="&#x448;" horiz-adv-x="2253" vert-adv-y="2458" 
d="M2102 0h-1952v1138h232v-943h628v943h232v-943h628v943h232v-1138z" />
    <glyph glyph-name="afii10091" unicode="&#x449;" horiz-adv-x="2280" vert-adv-y="2458" 
d="M1993 0h-1843v1138h232v-943h628v943h232v-943h628v943h232v-943h123v-559l-232 -26v390z" />
    <glyph glyph-name="afii10092" unicode="&#x44a;" horiz-adv-x="1364" vert-adv-y="2458" 
d="M669 686h157c96.667 0 170 -6.66699 220 -20c80 -22 144.667 -63.333 194 -124c46 -56.667 69 -126 69 -208c0 -97.333 -32 -173 -96 -227c-48 -40.667 -101.667 -68 -161 -82c-74.667 -16.667 -159 -25 -253 -25h-362v943h-478v195h710v-452zM669 195h159.999
c94 0 159.333 13.333 196 40c34.667 26 52 62 52 108c0 46.667 -17.333 82.667 -52 108c-37.333 27.333 -102.666 41 -195.999 41h-160v-297z" />
    <glyph glyph-name="afii10093" unicode="&#x44b;" horiz-adv-x="1535" vert-adv-y="2458" 
d="M382 686h157c96.667 0 170 -6.66699 220 -20c80 -22 144.667 -63.333 194 -124c46 -56.667 69 -126 69 -208c0 -97.333 -32 -173 -96 -227c-48 -40.667 -101.667 -68 -161 -82c-74.667 -16.667 -159 -25 -253 -25h-362v1138h232v-452zM382 195h159.999
c94 0 159.333 13.333 196 40c34.667 26 52 62 52 108c0 46.667 -17.333 82.667 -52 108c-37.333 27.333 -102.666 41 -195.999 41h-160v-297zM1385 0h-234v1138h234v-1138z" />
    <glyph glyph-name="afii10094" unicode="&#x44c;" horiz-adv-x="1077" vert-adv-y="2458" 
d="M382 686h157c96.667 0 170 -6.66699 220 -20c80 -22 144.667 -63.333 194 -124c46 -56.667 69 -126 69 -208c0 -97.333 -32 -173 -96 -227c-48 -40.667 -101.667 -68 -161 -82c-74.667 -16.667 -159 -25 -253 -25h-362v1138h232v-452zM382 195h159.999
c94 0 159.333 13.333 196 40c34.667 26 52 62 52 108c0 46.667 -17.333 82.667 -52 108c-37.333 27.333 -102.666 41 -195.999 41h-160v-297z" />
    <glyph glyph-name="afii10095" unicode="&#x44d;" horiz-adv-x="1172" vert-adv-y="2458" 
d="M855 492l-591.003 -0.00195312v195h580c-13.333 42.667 -32.666 82 -57.999 118c-34.667 48.667 -78.667 87.334 -132 116.001c-60 32 -123 48 -189 48c-104.667 0 -231 -38.333 -379 -115l29 239c132.667 52 251.334 78 356.001 78c184.667 0 335.667 -57.333 453 -172
c119.333 -116 179 -261.667 179 -437c0 -172 -58.333 -315.333 -175 -430c-112 -110 -253.667 -165 -425 -165c-96.667 0 -192.667 18.667 -288 56c-38.667 15.333 -92.334 41 -161.001 77l28 214c62.667 -39.333 115.334 -68.666 158.001 -87.999
c84.667 -38 166 -57 244 -57c82 0 155 24.667 219 74c80.667 62.667 131.334 145.667 152.001 249z" />
    <glyph glyph-name="afii10096" unicode="&#x44e;" horiz-adv-x="1703" vert-adv-y="2458" 
d="M428 492l-45.999 -0.000976562v-492h-232v1138h232v-451h52c18.667 90.667 53 171.334 103 242.001c53.333 74 121 132.333 203 175c88 44.667 184 67 288 67c173.333 0 316.666 -57 429.999 -171c53.333 -53.333 95.333 -117 126 -191
c32.667 -77.333 49 -157.333 49 -240c0 -114.667 -30 -222 -90 -322c-56 -92.667 -131.667 -163.667 -227 -213c-87.333 -44.667 -183 -67 -287 -67c-138 0 -259.333 38 -364 114c-133.333 96.667 -212.333 233.667 -237 411zM1030 968.999
c-99.333 0 -184.333 -36.001 -255 -108.001c-74.667 -77.333 -112 -172.666 -112 -285.999c0 -122 37 -221.333 111 -298c70 -72 154.333 -108 253 -108s183 36.333 253 109c74.667 76.667 112 173.667 112 291c0 116.667 -37.333 213.667 -112 291
c-70 72.667 -153.333 109 -250 109z" />
    <glyph glyph-name="afii10097" unicode="&#x44f;" horiz-adv-x="1161" vert-adv-y="2458" 
d="M1010 0l-232.001 -0.000976562v492h-114l-391 -492h-287l431 504c-74.667 24 -131 52.333 -169 85c-63.333 54.667 -95 129.667 -95 225c0 116.667 47 201.334 141 254.001c61.333 34 127.333 54.333 198 61c60.667 6 129.334 9 206.001 9h312v-1138zM777.999 685.999
v257.001h-144c-80.667 0 -134.667 -6.33301 -162 -19c-48 -22 -72 -58.667 -72 -110c0 -33.333 10.333 -60.333 31 -81s45 -33.334 73 -38.001c34 -6 77.333 -9 130 -9h144z" />
    <glyph glyph-name="afii10071" unicode="&#x451;" horiz-adv-x="1259" vert-adv-y="2458" 
d="M1129 351l-9 -233.999c-76 -42.667 -133.333 -72.334 -172 -89.001c-92 -40.667 -188 -61 -288 -61c-173.333 0 -315 54.333 -425 163s-165 252.334 -165 431.001c0 172.667 55.667 316 167 430c116.667 120 259.334 180 428.001 180c150.667 0 274 -46 370 -138
c43.333 -42 78 -91.667 104 -149c34 -76.667 51 -156 51 -238c0 -34 -1.66699 -75 -5 -123l-892 -61c10.667 -52.667 28.667 -97.334 54 -134.001c71.333 -106 175.333 -159 312 -159c98 0 200.333 27.333 307 82c39.333 20 93.666 53.333 162.999 100zM973 707.001
c-3.33301 54 -20.332 102 -50.999 144c-58 78.667 -145 118 -261 118c-135.333 0 -237.333 -54.333 -306 -163c-24.667 -39.333 -42.334 -86 -53.001 -140zM399.001 1570c36 0 67.667 -13.333 95 -40c27.333 -27.333 41 -61 41 -101c0 -39.333 -13.333 -72.333 -40 -99
c-26 -26 -58.333 -39 -97 -39c-54 0 -94.667 22 -122 66c-13.333 22 -20 45.667 -20 71c0 38.667 14 71.667 42 99c29.333 28.667 63 43 101 43zM917.001 1570c37.333 0 70 -13.666 98 -40.999c27.333 -28 41 -61.333 41 -100s-13.333 -71.334 -40 -98.001
s-59.667 -40 -99 -40c-52.667 0 -92.334 22 -119.001 66c-14 22 -21 46 -21 72c0 39.333 14 72.333 42 99c28.667 28 61.334 42 98.001 42z" />
    <glyph glyph-name="afii10099" unicode="&#x452;" horiz-adv-x="1437" vert-adv-y="2458" 
d="M464 0l-232.001 -0.000976562v943h-273v195h273v312l232 32v-503c66.667 64 129.334 109.667 188.001 137c79.333 36.667 163 55 251 55c90.667 0 171 -21.333 241 -64c74.667 -46 122.667 -108.667 144 -188c12 -44 18 -107.667 18 -191v-628
c-0.666992 -126.667 -9 -215.334 -25 -266.001c-17.333 -66 -48.333 -116.333 -93 -151c-64 -48 -165 -72.333 -303 -73h-68l-30 199h123c71.333 0.666992 117 16.334 137 47.001c12.667 17.333 20.667 45.333 24 84c2 34.667 3 73.334 3 116.001v602
c0 88.667 -4 147 -12 175c-24.667 90.667 -95 136 -211 136c-114.667 0 -212 -41 -292 -123c-43.333 -45.333 -71 -93.333 -83 -144c-8 -32.667 -12 -76 -12 -130v-572z" />
    <glyph glyph-name="afii10100" unicode="&#x453;" horiz-adv-x="1001" vert-adv-y="2458" 
d="M150 0v1138h844v-205h-612v-933h-232zM773 1661l75 -205l-541 -198l-75 205z" />
    <glyph glyph-name="afii10101" unicode="&#x454;" horiz-adv-x="1171" vert-adv-y="2458" 
d="M317 492c12 -60 35 -114 69 -162c76.667 -107.333 177 -161 301 -161c88.667 0 181.334 24 278.001 72c36 18 86.667 48.333 152 91l-28 -247c-64.667 -33.333 -117.334 -57.333 -158.001 -72c-86.667 -30.667 -174 -46 -262 -46c-171.333 0 -313.333 55 -426 165
c-116 114.667 -174 258 -174 430c0 176 59.333 321.667 178 437c118 114.667 268.333 172 451 172c136.667 0 273 -35 409 -105l-26 -207c-68 32.667 -122.667 56.334 -164 71.001c-74 26 -142.333 39 -205 39c-91.333 0 -172.333 -26.333 -243 -79
c-67.333 -50.667 -114.333 -118.334 -141 -203.001h596v-195h-607z" />
    <glyph glyph-name="afii10102" unicode="&#x455;" horiz-adv-x="988" vert-adv-y="2458" 
d="M94 303c160 -89.333 294.001 -133.997 402.001 -133.997c55.333 0 99 11.667 131 35c34.667 25.333 52 60 52 104c0 36 -13.667 66 -41 90c-14.667 12 -55.667 32.667 -123 62l-145 62c-180.667 77.333 -271 178.666 -271 303.999c0 58 17.667 115 53 171
c74 116 197.333 174 370 174c94 0 197 -21.667 309 -65l-3 -235c-72.667 37.333 -130.334 62.666 -173.001 75.999c-56 17.333 -108 26 -156 26c-56.667 0 -100.667 -13.667 -132 -41c-26.667 -22.667 -40 -50.334 -40 -83.001c0 -27.333 8.33301 -49.333 25 -66
c24.667 -24 61.334 -46.333 110.001 -67l152 -65c101.333 -42.667 173.333 -84.667 216 -126c55.333 -54 83 -124 83 -210c0 -96 -32 -175 -96 -237c-76.667 -74 -188.667 -111 -336 -111c-118.667 0 -239.334 30.667 -362.001 92z" />
    <glyph glyph-name="afii10103" unicode="&#x456;" horiz-adv-x="535" vert-adv-y="2458" 
d="M384 0h-234v1131l234 26v-1157zM266 1540c42 0 78 -14.6689 108 -44.002c29.333 -30 44 -66 44 -108c0 -41.333 -14.333 -76.666 -43 -105.999c-29.333 -29.333 -65.666 -44 -108.999 -44c-56.667 0 -99.334 23.667 -128.001 71c-14.667 24 -22 50 -22 78
c0 44.667 14.667 81.334 44 110.001c30 28.667 65.333 43 106 43z" />
    <glyph glyph-name="afii10104" unicode="&#x457;" horiz-adv-x="553" vert-adv-y="2458" 
d="M389 0h-234v1131l234 26v-1157zM104 1570c36 0 67.668 -13.333 95.001 -40c27.333 -27.333 41 -61 41 -101c0 -39.333 -13.333 -72.333 -40 -99c-26 -26 -58.333 -39 -97 -39c-54.667 0 -95.334 22 -122.001 66c-13.333 22 -20 45.667 -20 71c0 38.667 14 71.667 42 99
c29.333 28.667 63 43 101 43zM453.001 1570c37.333 0 69.999 -13.999 97.999 -41.999c27.333 -27.333 41 -60.333 41 -99s-13.333 -71.334 -40 -98.001s-59.667 -40 -99 -40c-52.667 0 -92.667 22 -120 66c-13.333 22 -20 46 -20 72c0 39.333 14 72.333 42 99
c28.667 28 61.334 42 98.001 42z" />
    <glyph glyph-name="afii10105" unicode="&#x458;" horiz-adv-x="535" vert-adv-y="2458" 
d="M384 1157v-1521l-234 -26v1521zM266 1540c42 0 78.001 -14.668 108.001 -44.001c29.333 -29.333 44 -65.333 44 -108c0 -42 -14.333 -77.333 -43 -106c-29.333 -29.333 -65.666 -44 -108.999 -44c-56.667 0 -99.334 23.667 -128.001 71c-14.667 24 -22 50 -22 78
c0 44.667 14.667 81.334 44 110.001s64.666 43 105.999 43z" />
    <glyph glyph-name="afii10106" unicode="&#x459;" horiz-adv-x="1814" vert-adv-y="2458" 
d="M1120 1138v-451.999h157c96.667 0 170 -6.66699 220 -20c80 -22 144.667 -63.333 194 -124c46 -56.667 69 -126 69 -208c0 -97.333 -32 -173 -96 -227c-48 -40.667 -101.667 -68 -161 -82c-74.667 -16.667 -159 -25 -253 -25h-362v943h-431v-517
c-0.666992 -100 -16.667 -178.333 -48 -235c-57.333 -104.667 -174 -177.334 -350 -218.001l-59 183c81.333 24 135.333 50.667 162 80c32 33.333 51.667 77 59 131c2.66699 10.667 4 86.667 4 228v543h895zM1120 195.001h159.999c94 0 159.333 13.333 196 40
c34.667 26 52 62 52 108c0 46.667 -17.333 82.667 -52 108c-37.333 27.333 -102.666 41 -195.999 41h-160v-297z" />
    <glyph glyph-name="afii10107" unicode="&#x45a;" horiz-adv-x="1726" vert-adv-y="2458" 
d="M1031 195h160c94 0 159.333 13.333 196 40c35.333 26 53 62.333 53 109c0 46 -17.333 81.667 -52 107c-37.333 27.333 -103 41 -197 41h-160v-297zM799 492h-417v-492h-232v1138h232v-451h417v451h232v-452h157c96.667 0 170 -6.66699 220 -20
c80 -21.333 144.667 -62.333 194 -123c46 -56.667 69 -126 69 -208c0 -97.333 -32 -173.333 -96 -228c-48 -40.667 -101.667 -68 -161 -82c-74.667 -16.667 -159 -25 -253 -25h-362v492z" />
    <glyph glyph-name="afii10108" unicode="&#x45b;" horiz-adv-x="1437" vert-adv-y="2458" 
d="M464 0h-232.001v943h-273v195h273v312l232 32v-503c66.667 64 129.334 109.667 188.001 137c79.333 36.667 163 55 251 55c90.667 0 171 -21.333 241 -64c74.667 -46 122.667 -108.667 144 -188c12 -44 18 -107.667 18 -191v-728h-232v657
c0 88.667 -4 147.334 -12 176.001c-24.667 90.667 -95 136 -211 136c-114.667 0 -212 -41.333 -292 -124c-43.333 -44.667 -71 -92.334 -83 -143.001c-8 -32.667 -12 -76 -12 -130v-572z" />
    <glyph glyph-name="afii10109" unicode="&#x45c;" horiz-adv-x="1208" vert-adv-y="2458" 
d="M150 0v1138h232v-438l504 438h305l-622 -531l686 -607h-316l-557 505v-505h-232zM828 1661l75 -205l-541 -198l-75 205z" />
    <glyph glyph-name="afii10110" unicode="&#x45e;" horiz-adv-x="1090" vert-adv-y="2458" 
d="M-14 1138h265l294 -863l298 863h260l-572 -1502l-242 -26l151 393zM941 1445c-52.667 -43.333 -93.333 -73.332 -122 -89.999c-80 -47.333 -170.667 -71 -272 -71c-108.667 0 -205 27.333 -289 82c-24 15.333 -58.667 41.666 -104 78.999l107 166
c45.333 -34.667 82.333 -58.667 111 -72c58 -28 116.333 -42 175 -42c66 0 130.667 17 194 51c22.667 12 53.667 33 93 63z" />
    <glyph glyph-name="afii10193" unicode="&#x45f;" horiz-adv-x="1393" vert-adv-y="2458" 
d="M1242 0h-430v-364l-232 -26v390h-430v1138h232v-943h628v943h232v-1138z" />
    <glyph glyph-name="afii10050" unicode="&#x490;" horiz-adv-x="1038" vert-adv-y="2458" 
d="M772 1450v137l252 27v-387h-592v-1227h-252v1450h592z" />
    <glyph glyph-name="afii10098" unicode="&#x491;" horiz-adv-x="1001" vert-adv-y="2458" 
d="M762 1138v137l232 27v-369h-612v-933h-232v1138h612z" />
    <glyph glyph-name="hyphen" unicode="&#x2010;" horiz-adv-x="522" vert-adv-y="2458" 
d="M0 549v213h522v-213h-522z" />
    <glyph glyph-name="nbhyphen" unicode="&#x2011;" horiz-adv-x="522" vert-adv-y="2458" 
d="M0 549v213h522v-213h-522z" />
    <glyph glyph-name="figuredash" unicode="&#x2012;" horiz-adv-x="1106" vert-adv-y="2458" 
d="M82 549v213h942v-213h-942z" />
    <glyph glyph-name="endash" unicode="&#x2013;" horiz-adv-x="1106" vert-adv-y="2458" 
d="M82 549v213h942v-213h-942z" />
    <glyph glyph-name="emdash" unicode="&#x2014;" horiz-adv-x="1993" vert-adv-y="2458" 
d="M41 549v213h1911v-213h-1911z" />
    <glyph glyph-name="horizontalbar" unicode="&#x2015;" horiz-adv-x="1993" vert-adv-y="2458" 
d="M41 549v213h1911v-213h-1911z" />
    <glyph glyph-name="quoteleft" unicode="&#x2018;" horiz-adv-x="588" vert-adv-y="2458" 
d="M495 1450l-172 -528h-231l207 528h196z" />
    <glyph glyph-name="quoteright" unicode="&#x2019;" horiz-adv-x="588" vert-adv-y="2458" 
d="M92 922l172 528h231l-206 -528h-197z" />
    <glyph glyph-name="quotesinglbase" unicode="&#x201a;" horiz-adv-x="588" vert-adv-y="2458" 
d="M41 -340l172 528h231l-206 -528h-197z" />
    <glyph glyph-name="quotereversed" unicode="&#x201b;" horiz-adv-x="588" vert-adv-y="2458" 
 />
    <glyph glyph-name="quotedblleft" unicode="&#x201c;" horiz-adv-x="967" vert-adv-y="2458" 
d="M502 1450l-178 -528h-232l205 528h205zM872 1450l-178 -528h-232l205 528h205z" />
    <glyph glyph-name="quotedblright" unicode="&#x201d;" horiz-adv-x="967" vert-adv-y="2458" 
d="M529 1450l-232 -528h-205l205 528h232zM899 1450l-232 -528h-205l205 528h232z" />
    <glyph glyph-name="quotedblbase" unicode="&#x201e;" horiz-adv-x="967" vert-adv-y="2458" 
d="M410 -340l172 528h231l-207 -528h-196zM31 -340l172 528h231l-206 -528h-197z" />
    <glyph glyph-name="dagger" unicode="&#x2020;" horiz-adv-x="942" vert-adv-y="2458" 
d="M365 930h-283v213h283v307h213v-307h282v-213h-282v-930h-213v930z" />
    <glyph glyph-name="daggerdbl" unicode="&#x2021;" horiz-adv-x="942" vert-adv-y="2458" 
d="M365 930h-283v213h283v307h213v-307h282v-213h-282v-197h282v-213h-282v-520h-213v520h-283v213h283v197z" />
    <glyph glyph-name="bullet" unicode="&#x2022;" horiz-adv-x="1208" vert-adv-y="2458" 
d="M604 1057c80.667 0 150 -28.666 208 -85.999s87 -127 87 -209c0 -80.667 -29 -150.334 -87 -209.001c-58.667 -58.667 -128.667 -88 -210 -88c-64 0 -121.667 18.667 -173 56c-52 38 -87.667 87 -107 147c-10 31.333 -15 62 -15 92c0 84.667 29 155 87 211
c59.333 57.333 129.333 86 210 86z" />
    <glyph glyph-name="ellipsis" unicode="&#x2026;" horiz-adv-x="1436" vert-adv-y="2458" 
d="M239 226c36 0 66.667 -12.667 92 -38s38 -56 38 -92s-12.667 -66.333 -38 -91c-25.333 -26 -56 -39 -92 -39c-48 0 -85 21 -111 63c-12.667 20.667 -19 42.667 -19 66c0 36.667 13 67.667 39 93s56.333 38 91 38zM717 226c36 0 66.667 -12.667 92 -38s38 -56 38 -92
s-12.667 -66.333 -38 -91c-25.333 -26 -56 -39 -92 -39c-48 0 -85 21 -111 63c-12.667 20.667 -19 42.667 -19 66c0 36.667 13 67.667 39 93s56.333 38 91 38zM1196 226c36 0 66.667 -12.667 92 -38s38 -56 38 -92s-12.667 -66.333 -38 -91c-25.333 -26 -56 -39 -92 -39
c-48 0 -85 21 -111 63c-12.667 20.667 -19 42.667 -19 66c0 36.667 13 67.667 39 93s56.333 38 91 38z" />
    <glyph glyph-name="perthousand" unicode="&#x2030;" horiz-adv-x="2328" vert-adv-y="2458" 
d="M407 1484c96.667 0 179 -33.668 247 -101.001s102 -150 102 -248c0 -97.333 -34.333 -180.666 -103 -249.999c-68.667 -68.667 -151 -103 -247 -103c-76 0 -144.667 22.333 -206 67c-62.667 46 -106 105.333 -130 178c-11.333 35.333 -17 70.333 -17 105
c0 99.333 34.333 182.333 103 249c71.333 68.667 155 103 251 103zM405 1298c-58.667 0 -103.665 -26 -134.998 -78c-16.667 -26.667 -25 -55 -25 -85c0 -46 16.333 -85.333 49 -118c31.333 -31.333 68.666 -47 111.999 -47s80.666 15.667 111.999 47
c32 32.667 48 71.667 48 117c0 46.667 -16.333 85.667 -49 117c-32 31.333 -69.333 47 -112 47zM1150 667.999c96.667 0 179.332 -34.001 247.999 -102.001s103 -151 103 -249c0 -96.667 -34.333 -179 -103 -247c-69.333 -69.333 -152.333 -104 -249 -104
c-75.333 0 -143.666 22.333 -204.999 67c-62.667 44.667 -105.667 103.334 -129 176.001c-11.333 35.333 -17 70.333 -17 105c0 100 34.667 183.667 104 251c70 68.667 152.667 103 248 103zM1148 479.998c-58.667 0 -103.666 -26 -134.999 -78
c-16.667 -26.667 -25 -55 -25 -85c0 -46 16.333 -85.333 49 -118c32 -31.333 69.333 -47 112 -47c43.333 0 80.666 15.667 111.999 47c32 32.667 48 71.667 48 117c0 46.667 -16.333 85.667 -49 117c-32 31.333 -69.333 47 -112 47zM1923 667.998
c96.667 0 179.333 -34.001 248 -102.001s103 -151 103 -249c0 -96.667 -34.333 -179 -103 -247c-69.333 -69.333 -152.333 -104 -249 -104c-75.333 0 -144 22.333 -206 67s-104.667 103.334 -128 176.001c-11.333 35.333 -17 70.333 -17 105c0 100 34.667 183.667 104 251
c70 68.667 152.667 103 248 103zM1921 479.997c-58.667 0 -103.666 -26 -134.999 -78c-16.667 -26.667 -25 -55 -25 -85c0 -46 16.333 -85.333 49 -118c32 -31.333 69.333 -47 112 -47c43.333 0 80.666 15.667 111.999 47c32 32.667 48 71.667 48 117
c0 46.667 -16.333 85.667 -49 117c-32 31.333 -69.333 47 -112 47zM1023 1450h225l-715 -1450h-225z" />
    <glyph glyph-name="guilsinglleft" unicode="&#x2039;" horiz-adv-x="536" vert-adv-y="2458" 
d="M70 655l254 314l143 -101l-164 -213l164 -212l-143 -101z" />
    <glyph glyph-name="guilsinglright" unicode="&#x203a;" horiz-adv-x="536" vert-adv-y="2458" 
d="M467 655l-254 -313l-143 101l163 212l-163 213l143 101z" />
    <glyph glyph-name="numero" unicode="&#x2116;" horiz-adv-x="2672" vert-adv-y="2458" 
d="M180 0v1502l956 -968v916h252v-1505l-956 968v-913h-252zM2060 1484c154.667 0 283.332 -51.3311 385.999 -153.998c47.333 -47.333 85 -104.333 113 -171c29.333 -70.667 44 -142.667 44 -216c0 -103.333 -27 -200.333 -81 -291
c-50 -82.667 -118.333 -146.334 -205 -191.001c-78.667 -40 -164.667 -60 -258 -60c-156.667 0 -286.334 52 -389.001 156c-47.333 47.333 -84.666 103.666 -111.999 168.999c-29.333 70 -44 140.333 -44 211c0 107.333 26.667 206 80 296c49.333 82 118 145.333 206 190
c78.667 40.667 165.334 61 260.001 61zM2060 1285c-84.667 0 -157 -31 -217 -93c-64 -66 -96 -147.333 -96 -244c0 -104.667 31.667 -190 95 -256c59.333 -61.333 131.333 -92 216 -92s157 31 217 93c63.333 66 95 149.333 95 250c0 99.333 -31.667 182.333 -95 249
c-60 62 -131.667 93 -215 93zM1600 0.00195312v213h942v-213h-942z" />
    <glyph glyph-name="trademark" unicode="&#x2122;" horiz-adv-x="1671" vert-adv-y="2458" 
d="M278 580v690h-264v180h727v-180h-250v-690h-213zM609 580l239 901l286 -512l286 512l238 -901h-207l-103 414l-222 -454l-222 454l-97 -414h-198z" />
    <glyph glyph-name="partialdiff" unicode="&#x2202;" vert-adv-y="2458" 
d="M664 976c-162.667 208 -312.667 366 -450 474h342c158 -162.667 275.333 -301 352 -415c129.333 -190.667 194 -369 194 -535c0 -106.667 -27 -205 -81 -295c-49.333 -81.333 -115.333 -143 -198 -185c-70 -36 -146.667 -54 -230 -54c-148.667 0 -273 50 -373 150
c-97.333 97.333 -146 219.333 -146 366c0 150 47.667 272.667 143 368c90 89.333 205.333 134 346 134c29.333 0 63 -2.66699 101 -8zM590 767c-70 0 -130.667 -25.668 -182 -77.001c-56 -55.333 -84 -124.666 -84 -207.999c0 -82.667 28 -151.667 84 -207
c50.667 -51.333 111 -77 181 -77c70.667 0 131.667 25.667 183 77c56 56 84 126.333 84 211c0 82 -27.667 150 -83 204c-52.667 51.333 -113.667 77 -183 77z" />
    <glyph glyph-name="Delta" unicode="&#x2206;" horiz-adv-x="1346" vert-adv-y="2458" 
d="M1382 0h-1421l730 1502zM311 207h707l-346 799z" />
    <glyph glyph-name="periodcentered" unicode="&#x2219;" horiz-adv-x="588" vert-adv-y="2458" 
d="M294 856c36 0 66.667 -12.667 92 -38s38 -56 38 -92s-12.667 -66.333 -38 -91c-25.333 -26 -56 -39 -92 -39c-48 0 -85 21 -111 63c-12.667 20.667 -19 42.667 -19 66c0 36.667 13 67.667 39 93s56.333 38 91 38z" />
    <glyph glyph-name="radical" unicode="&#x221a;" horiz-adv-x="1450" vert-adv-y="2458" 
d="M1450 1798v-172h-405l-466 -1626h-230l-170 617h-179v172h299l159 -584l436 1593h556z" />
    <glyph glyph-name="infinity" unicode="&#x221e;" horiz-adv-x="1565" vert-adv-y="2458" 
d="M782 520c-35.333 -63.333 -64.333 -106.668 -87 -130.001c-64.667 -66.667 -143 -100 -235 -100c-98 0 -182.333 34.667 -253 104c-83.333 82.667 -125 193.667 -125 333c0 138.667 41.667 249.334 125 332.001c70.667 69.333 155 104 253 104
c138.667 0 246.667 -79 324 -237c22 54 50.667 99.333 86 136c64 67.333 142.333 101 235 101c98 0 182.333 -34.667 253 -104c83.333 -82.667 125 -193.667 125 -333c0 -138.667 -41.667 -249.334 -125 -332.001c-70 -69.333 -154.667 -104 -254 -104
c-97.333 0 -179 37 -245 111c-18 20.667 -43.667 60.334 -77 119.001zM690 725.998c-14 38.667 -24.999 66.667 -32.999 84c-21.333 48 -49.333 85 -84 111c-32.667 24.667 -67 37 -103 37c-50 0 -93.333 -20.333 -130 -61c-40 -44 -60 -100.333 -60 -169
c0 -69.333 20.667 -127 62 -173c37.333 -40.667 79.666 -61 126.999 -61c52 0 98.333 24 139 72c20 24 36.333 49.667 49 77c23.333 52 34.333 79.667 33 83zM875.001 725.998c26.667 -74 54 -127.666 82 -160.999c40.667 -48 86.667 -72 138 -72c48 0 90.667 20.333 128 61
c41.333 45.333 62 103 62 173c0 69.333 -20 125.666 -60 168.999c-37.333 40.667 -80.666 61 -129.999 61c-52.667 0 -99.334 -24 -140.001 -72c-23.333 -27.333 -44 -64 -62 -110c-12 -32 -18 -48.333 -18 -49z" />
    <glyph glyph-name="approxequal" unicode="&#x2248;" horiz-adv-x="1106" vert-adv-y="2458" 
d="M980 430c-46.667 -41.333 -84.667 -70 -114 -86c-54.667 -30 -113 -45 -175 -45c-42.667 0 -81.667 7 -117 21l-80 33c-38 15.333 -71.333 23 -100 23c-43.333 0 -100.333 -27 -171 -81l-97 174c46 42 84 71 114 87c54.667 29.333 113 44 175 44
c42.667 0 81.667 -7 117 -21l80 -33c38 -15.333 71 -23 99 -23c44.667 0 101.667 27 171 81zM980 840c-46.667 -42 -84.667 -71 -114 -87c-54 -29.333 -112.333 -44 -175 -44c-43.333 0 -82.333 7 -117 21l-80 32c-38.667 16 -72 24 -100 24c-44 0 -101 -27 -171 -81
l-97 174c46 41.333 84 70.333 114 87c54.667 29.333 113 44 175 44c42.667 0 81.667 -7 117 -21l80 -33c37.333 -15.333 70.333 -23 99 -23c44.667 0 101.667 26.667 171 80z" />
    <glyph glyph-name="notequal" unicode="&#x2260;" horiz-adv-x="1106" vert-adv-y="2458" 
d="M376 557l117 196h-411v213h533l119 207l185 -107l-56 -100h161v-213h-288l-114 -196h402v-213h-524l-120 -212l-185 107l62 105h-175v213h294z" />
    <glyph glyph-name="lessequal" unicode="&#x2264;" horiz-adv-x="832" vert-adv-y="2458" 
d="M82 792l517 517l151 -150l-367 -367l367 -367l-151 -151zM84 3v213h694v-213h-694z" />
    <glyph glyph-name="greaterequal" unicode="&#x2265;" horiz-adv-x="832" vert-adv-y="2458" 
d="M786 792l-518 -518l-150 151l366 367l-366 367l150 150zM83 3v213h695v-213h-695z" />
    <glyph glyph-name="glyph1" horiz-adv-x="0" vert-adv-y="0" 
 />
    <glyph glyph-name="glyph2" horiz-adv-x="588" vert-adv-y="2458" 
 />
    <glyph glyph-name="cent" horiz-adv-x="1182" vert-adv-y="2458" 
d="M770 -30l-0.000976562 -188.001h-191v188c-107.333 14.667 -203 52 -287 112c-76 54.667 -135.667 123.667 -179 207c-48 91.333 -72 191.666 -72 300.999c0 148 42 277.667 126 389c94 126.667 231.333 208.334 412 245.001v214h191v-215c101.333 -4 210 -32 326 -84
l-27 -219c-142.667 64.667 -261 97 -355 97c-118.667 0 -218 -41 -298 -123c-81.333 -82 -122 -181.333 -122 -298c0 -115.333 40.667 -215 122 -299c76 -79.333 166 -119 270 -119c143.333 0 282.333 50.333 417 151l-30 -259
c-47.333 -23.333 -108.666 -47.666 -183.999 -72.999c-43.333 -14 -83 -23 -119 -27z" />
    <glyph glyph-name="sterling" vert-adv-y="2458" 
d="M98 190c58 20 106.001 48.666 144.001 85.999c65.333 64.667 98 144.667 98 240c0 28.667 -3.66699 66 -11 112h-231v191h186c-30 122 -45 217 -45 285c0 109.333 36 200 108 272c76 75.333 177 113 303 113c128 0 231.333 -40 310 -120c34 -34 66.667 -85.667 98 -155
l-217 -94c-14.667 46 -31.334 79.667 -50.001 101c-34 39.333 -77.333 59 -130 59c-50.667 0 -92.334 -16.333 -125.001 -49c-38 -38 -57 -88.667 -57 -152c0 -61.333 18.333 -148 55 -260h295v-191h-260c7.33301 -50.667 11 -91.667 11 -123
c0 -84.667 -19.333 -165 -58 -241c84.667 -48 163.667 -72 237 -72c48.667 0 88.334 17.667 119.001 53c15.333 18.667 31 48.334 47 89.001l195 -98c-36.667 -84.667 -72.667 -145 -108 -181c-60.667 -61.333 -136 -92 -226 -92c-73.333 0 -152.666 18 -237.999 54
c-37.333 16 -89 43 -155 81c-40.667 -38 -80.334 -66.667 -119.001 -86c-47.333 -22 -106 -38.333 -176 -49v227z" />
    <glyph glyph-name="florin" vert-adv-y="2458" 
d="M465 -369l-252.999 -41l183 1038h-157v191h191l83 471c17.333 98 57.666 175.667 120.999 233c47.333 42 109.333 71.333 186 88c32 6.66699 62 10 90 10c38 0 92.667 -7.33301 164 -22l-63 -210c-44.667 14.667 -80.667 22 -108 22c-38 0 -71.667 -15 -101 -45
c-24.667 -24.667 -40.667 -58 -48 -100l-79 -447h274v-191h-307z" />
    <glyph glyph-name="glyph172" vert-adv-y="1176" 
 />
    <glyph glyph-name="divide" horiz-adv-x="1106" vert-adv-y="2458" 
d="M554 363c35.333 0 65.667 -12.6689 91 -38.002s38 -56.333 38 -93c0 -35.333 -12.667 -65.666 -38 -90.999c-25.333 -26 -56 -39 -92 -39c-48 0 -85.333 21.333 -112 64c-12.667 20.667 -19 42.334 -19 65.001c0 36 13 66.667 39 92c26.667 26.667 57.667 40 93 40z
M554.001 1216c35.333 0 65.667 -12.6689 91 -38.002s38 -56.333 38 -93c0 -35.333 -12.667 -65.666 -38 -90.999c-25.333 -26 -56 -39 -92 -39c-48.667 0 -86 21.333 -112 64c-12.667 20.667 -19 42.334 -19 65.001c0 36 13 66.667 39 92c26.667 26.667 57.667 40 93 40z
M82.002 548.996v213h942v-213h-942z" />
    <glyph glyph-name="glyph339" horiz-adv-x="1300" vert-adv-y="2458" 
d="M393 1570c36 0 67.667 -13.333 95 -40c27.333 -27.333 41 -61 41 -101c0 -39.333 -13.333 -72.333 -40 -99c-26 -26 -58.333 -39 -97 -39c-54 0 -94.667 22 -122 66c-13.333 22 -20 45.667 -20 71c0 38.667 14 71.667 42 99c29.333 28.667 63 43 101 43zM911 1570
c37.333 0 70 -13.666 98 -40.999c27.333 -28 41 -61.333 41 -100s-13.333 -71.334 -40 -98.001s-59.667 -40 -99 -40c-52.667 0 -92.334 22 -119.001 66c-14 22 -21 46 -21 72c0 39.333 14 72.333 42 99c28.667 28 61.334 42 98.001 42z" />
    <glyph glyph-name="glyph340" horiz-adv-x="1365" vert-adv-y="2458" 
d="M937 1661l75 -205l-541 -198l-75 205z" />
    <glyph glyph-name="glyph341" horiz-adv-x="1365" vert-adv-y="2458" 
d="M937 1975l75 -205l-541 -198l-75 205z" />
    <glyph glyph-name="glyph342" horiz-adv-x="1365" vert-adv-y="2458" 
d="M399 1887c38 0 71.001 -14 99.001 -42c29.333 -29.333 44 -65 44 -107c0 -40.667 -14 -75 -42 -103c-27.333 -27.333 -61.333 -41 -102 -41c-56.667 0 -99.334 23 -128.001 69c-14 23.333 -21 48 -21 74c0 41.333 14.667 76.333 44 105c30.667 30 66 45 106 45z
M971.001 1886c39.333 0 73.668 -14.667 103.001 -44c28.667 -28.667 43 -63.334 43 -104.001s-14 -75 -42 -103s-63 -42 -105 -42c-54.667 0 -96.334 23 -125.001 69c-14 22.667 -21 48 -21 76c0 40.667 14.667 75.334 44 104.001c30 29.333 64.333 44 103 44z" />
    <glyph glyph-name="glyph343" horiz-adv-x="588" vert-adv-y="2458" 
 />
    </font>
</defs>
</svg>
