<?xml version="1.0" standalone="no"?>
<!DOCTYPE svg PUBLIC "-//W3C//DTD SVG 1.1//EN" "http://www.w3.org/Graphics/SVG/1.1/DTD/svg11.dtd" >
<svg>
<metadata>
Created by FontForge 20090914 at Thu Oct  2 15:58:32 2014
 By www-data
Reuss 2001
</metadata>
<defs>
<font id="NiveaLightCY" horiz-adv-x="1203" vert-adv-y="2048" >
  <font-face 
    font-family="NiveaLightCY"
    font-weight="400"
    font-stretch="normal"
    units-per-em="2048"
    panose-1="0 0 0 0 0 0 0 0 0 0"
    ascent="1536"
    descent="-512"
    x-height="1138"
    cap-height="1450"
    bbox="-33 -503 2768 1920"
    underline-thickness="158"
    underline-position="-238"
    unicode-range="U+0020-U+2265"
  />
<missing-glyph horiz-adv-x="588" vert-adv-y="2458" 
d="M59 0v1450h470v-1450h-470zM470 59v1332h-352v-1332h352z" />
    <glyph glyph-name=".notdef" horiz-adv-x="588" vert-adv-y="2458" 
d="M59 0v1450h470v-1450h-470zM470 59v1332h-352v-1332h352z" />
    <glyph glyph-name="space" unicode=" " horiz-adv-x="588" vert-adv-y="2458" 
 />
    <glyph glyph-name="exclam" unicode="!" horiz-adv-x="672" vert-adv-y="2458" 
d="M266 383l-25 1067l195 34l-30 -1067zM335 181c28.667 0 53.0029 -10 73.0029 -30c20.667 -20.667 31 -45.334 31 -74.001s-10 -53 -30 -73c-20.667 -20.667 -45.334 -31 -74.001 -31c-38.667 0 -68.334 16.667 -89.001 50c-10 16.667 -15 34.334 -15 53.001
c0 29.333 10.333 54 31 74c21.333 20.667 45.666 31 72.999 31z" />
    <glyph glyph-name="quotedbl" unicode="&#x22;" horiz-adv-x="643" vert-adv-y="2458" 
d="M86 1436h150v-557h-150v557zM409 1436h150v-557h-150v557z" />
    <glyph glyph-name="numbersign" unicode="#" horiz-adv-x="1327" vert-adv-y="2458" 
d="M512 877l-54 -303h357l53 303h-356zM430 416l-61 -348h-159l62 348h-256v158h284l53 303h-256v158h284l61 344h158l-61 -344h357l60 344h159l-61 -344h256v-158h-284l-53 -303h256v-158h-284l-61 -344h-158l61 344h-357z" />
    <glyph glyph-name="dollar" unicode="$" vert-adv-y="2458" 
d="M525 1470l-0.000976562 148.999h157v-143c99.333 -8.66699 200.333 -37.334 303 -86.001l-8 -177c-58 30 -102.333 51.667 -133 65c-78.667 33.333 -157 50 -235 50c-69.333 0 -127.333 -14.667 -174 -44c-64.667 -40 -97 -96.667 -97 -170c0 -58 28.333 -110 85 -156
c30 -24 78.667 -52 146 -84l207 -100c104 -49.333 178.667 -105 224 -167c42.667 -58 64 -126.333 64 -205c0 -92.667 -26.333 -174.667 -79 -246c-69.333 -95.333 -174.666 -153.666 -315.999 -174.999v-199h-157v192c-120.667 8 -233.667 36.333 -339 85l-23 201
c80.667 -44.667 143.667 -75.667 189 -93c78 -29.333 156.667 -44 236 -44c102.667 0 182 23.667 238 71c62.667 53.333 94 119 94 197c0 68.667 -26.333 126.334 -79 173.001c-25.333 22.667 -77 53.334 -155 92.001l-187 92c-103.333 51.333 -178.333 101.333 -225 150
c-53.333 56 -80 124.667 -80 206c0 75.333 22.333 144.666 67 207.999c58.667 82 151 134.667 277 158z" />
    <glyph glyph-name="percent" unicode="%" horiz-adv-x="1541" vert-adv-y="2458" 
d="M406 1477c98 0 181.667 -34.334 251 -103.001c68.667 -68 103 -148.333 103 -241c0 -98 -34.333 -181.333 -103 -250s-152.334 -103 -251.001 -103c-97.333 0 -180.666 34.333 -249.999 103c-68.667 68.667 -103 150.334 -103 245.001c0 97.333 34.333 179.333 103 246
c70.667 68.667 154 103 250 103zM407 1330c-54.667 0 -101 -18.999 -139 -56.999c-40.667 -40.667 -61 -88 -61 -142c0 -57.333 20.333 -106.333 61 -147c38 -38 84.333 -57 139 -57c54 0 100 19 138 57c40.667 40.667 61 88.667 61 144
c0 57.333 -20.333 105.666 -61 144.999c-39.333 38 -85.333 57 -138 57zM1049 1450h157l-714 -1450h-157zM1135 670c98 0 181.666 -34.334 250.999 -103.001c68.667 -68.667 103 -149 103 -241c0 -98 -34.333 -181.333 -103 -250c-69.333 -68.667 -153.333 -103 -252 -103
c-97.333 0 -180.666 34.333 -249.999 103c-68.667 68.667 -103 150.334 -103 245.001c0 97.333 34.333 179.333 103 246c71.333 68.667 155 103 251 103zM1135 522.999c-54 0 -100.334 -18.999 -139.001 -56.999c-40.667 -40 -61 -87.333 -61 -142
c0 -57.333 20.333 -106.333 61 -147c38.667 -38 85 -57 139 -57c54.667 0 101 19 139 57c40.667 40.667 61 88.667 61 144c0 57.333 -20.333 105.666 -61 144.999c-39.333 38 -85.666 57 -138.999 57z" />
    <glyph glyph-name="ampersand" unicode="&#x26;" horiz-adv-x="1436" vert-adv-y="2458" 
d="M1183 0l-153.999 190.003c-38 -40.667 -73 -73.334 -105 -98.001c-105.333 -80 -225 -120 -359 -120c-144.667 0 -261.334 40.667 -350.001 122c-85.333 78 -128 179.667 -128 305c0 98 27.667 185.667 83 263c38 54 105.667 114.667 203 182l74 52l-46 56
c-29.333 35.333 -53.666 68.666 -72.999 99.999c-24 40.667 -36 84.667 -36 132c0 98 43.667 176.333 131 235c58.667 38.667 122.667 58 192 58c76.667 0 142 -24.333 196 -73c63.333 -56.667 95 -126.334 95 -209.001c0 -104 -65 -202 -195 -294l-42 -30l358 -426
c57.333 92 105 191.333 143 298l140 -48c-44.667 -134.667 -106.334 -258.667 -185.001 -372l269 -323h-211zM931.001 309.003l-388.001 472l-66 -45c-81.333 -56 -139 -105.667 -173 -149c-40 -50.667 -60 -108.667 -60 -174c0 -104 40.667 -183 122 -237
c54 -36 121.667 -54 203 -54c117.333 0 214.333 36 291 108c20.667 18.667 44.334 45 71.001 79zM579 983.003l38 28.001c42.667 32 71 56 85 72c31.333 36.667 47 75 47 115s-16 72.333 -48 97c-27.333 21.333 -60 32 -98 32c-48 0 -87 -16.333 -117 -49
c-24.667 -26.667 -37 -56.334 -37 -89.001c0 -33.333 18.333 -72 55 -116z" />
    <glyph glyph-name="quotesingle" unicode="'" horiz-adv-x="320" vert-adv-y="2458" 
d="M86 1436h150v-557h-150v557z" />
    <glyph glyph-name="parenleft" unicode="(" horiz-adv-x="495" vert-adv-y="2458" 
d="M454 1522c-68.667 -119.333 -117.333 -212.333 -146 -279c-73.333 -170 -110 -336.333 -110 -499c0 -104.667 14.667 -209.667 44 -315c28 -98.667 68.667 -199.667 122 -303l90 -160h-162c-65.333 107.333 -112.333 195 -141 263c-73.333 171.333 -110 343 -110 515
c0 116 17 232.333 51 349c26.667 92 63 182 109 270c18.667 36 49 89 91 159h162z" />
    <glyph glyph-name="parenright" unicode=")" horiz-adv-x="495" vert-adv-y="2458" 
d="M41 -34c69.333 119.333 118.333 212.334 147 279.001c72.667 169.333 109 335.666 109 498.999c0 104.667 -14.667 209.667 -44 315c-27.333 98.667 -68 199.667 -122 303c-18.667 36 -48.667 89.333 -90 160h162c65.333 -107.333 112.333 -195 141 -263
c73.333 -171.333 110 -343 110 -515c0 -116 -17 -232.333 -51 -349c-26.667 -91.333 -63 -181.333 -109 -270c-18.667 -36 -49 -89 -91 -159h-162z" />
    <glyph glyph-name="asterisk" unicode="*" horiz-adv-x="1042" vert-adv-y="2458" 
d="M520 969l-184 -280l-136 96l215 261l-327 62l50 167l319 -109l-24 331h176l-23 -331l318 109l50 -167l-327 -62l215 -261l-136 -98z" />
    <glyph glyph-name="plus" unicode="+" horiz-adv-x="1106" vert-adv-y="2458" 
d="M632 735h392v-158h-392v-393h-158v393h-392v158h392v391h158v-391z" />
    <glyph glyph-name="comma" unicode="," horiz-adv-x="550" vert-adv-y="2458" 
d="M37 -340l172 528h177l-209 -528h-140z" />
    <glyph glyph-name="hyphen" unicode="-" horiz-adv-x="522" vert-adv-y="2458" 
d="M0 577v158h522v-158h-522z" />
    <glyph glyph-name="period" unicode="." horiz-adv-x="536" vert-adv-y="2458" 
d="M269 182c28 0 52.333 -10.334 73 -31.001c20.667 -20 31 -44.667 31 -74c0 -28.667 -10 -53 -30 -73c-21.333 -20.667 -46.333 -31 -75 -31c-38 0 -67.333 16.667 -88 50c-10.667 16.667 -16 34.667 -16 54c0 28.667 10.667 53.334 32 74.001c20.667 20.667 45 31 73 31z
" />
    <glyph glyph-name="slash" unicode="/" horiz-adv-x="730" vert-adv-y="2458" 
d="M716 1450l-538 -1450h-164l539 1450h163z" />
    <glyph glyph-name="zero" unicode="0" vert-adv-y="2458" 
d="M601 1477c92.667 0 177 -28 253 -84c96 -72 167 -183 213 -333c30.667 -101.333 46 -210 46 -326c0 -232 -51.333 -421.667 -154 -569c-50.667 -72.667 -115 -126 -193 -160c-51.333 -22 -106.666 -33 -165.999 -33c-92.667 0 -176.334 28 -251.001 84
c-97.333 73.333 -169 184.333 -215 333c-30 98 -45 210 -45 336c0 232 51.333 418.333 154 559c94 128.667 213.333 193 358 193zM601 1327c-98.667 0 -179.333 -48.002 -242 -144.002c-75.333 -115.333 -113 -265.666 -113 -450.999c0 -214 44.333 -378.667 133 -494
c59.333 -77.333 133.333 -116 222 -116c98.667 0 179 48 241 144c76 115.333 114 268 114 458c0 124.667 -17.333 235.334 -52 332.001c-65.333 180.667 -166.333 271 -303 271z" />
    <glyph glyph-name="one" unicode="1" horiz-adv-x="602" vert-adv-y="2458" 
d="M286 0v1300h-171l35 150h293v-1450h-157z" />
    <glyph glyph-name="two" unicode="2" vert-adv-y="2458" 
d="M12 0l649.001 651c62.667 63.333 114.667 122.666 156 177.999c55.333 73.333 83 145 83 215c0 86.667 -35.667 158 -107 214c-60 46.667 -134.333 70 -223 70c-101.333 0 -181 -31.333 -239 -94c-30.667 -32 -64.334 -82 -101.001 -150l-140 65
c36.667 76.667 75.667 136.334 117 179.001c96 100 218.667 150 368 150c142 0 260.333 -45.667 355 -137c85.333 -82.667 128 -182.667 128 -300c0 -88.667 -21.667 -168 -65 -238c-34.667 -54.667 -77.667 -108 -129 -160l-183 -186l-303 -307h749l-38 -150h-1077z" />
    <glyph glyph-name="three" unicode="3" vert-adv-y="2458" 
d="M184 319c44 -50.667 83.001 -88.667 117.001 -114c72 -54.667 160 -82 264 -82c87.333 0 159.666 21 216.999 63c79.333 58.667 119 135.667 119 231c0 68.667 -23.333 126 -70 172c-42 41.333 -101.667 68.333 -179 81c-42 7.33301 -98.333 11 -169 11h-76v150h76
c92 0 161.333 8 208 24c66 22.667 113.333 58 142 106c21.333 35.333 32 74 32 116c0 79.333 -32.667 143.666 -98 192.999c-50.667 38.667 -113.667 58 -189 58c-98 0 -187 -34.667 -267 -104c-23.333 -20.667 -54.333 -52.667 -93 -96l-110 99
c53.333 62 103.333 110 150 144c96 71.333 202.667 107 320 107c136 0 246 -42.667 330 -128c35.333 -36 63.333 -78.333 84 -127c20 -48 30 -96 30 -144c0 -90.667 -29 -167 -87 -229c-24.667 -26.667 -63.667 -54 -117 -82c60 -28 104.333 -56.333 133 -85
c71.333 -70 107 -160 107 -270c0 -115.333 -40.667 -214.666 -122 -297.999c-92 -94.667 -216.333 -142 -373 -142c-154.667 0 -287 47.333 -397 142c-26.667 22.667 -57.667 53 -93 91z" />
    <glyph glyph-name="four" unicode="4" vert-adv-y="2458" 
d="M805 0v293h-817l974 1209v-1059h173l-27 -150h-146v-293h-157zM805 443v629l-503 -629h503z" />
    <glyph glyph-name="five" unicode="5" vert-adv-y="2458" 
d="M189 293c44 -42.667 81.667 -74.333 113 -95c73.333 -50 160.333 -75 261 -75c84.667 0 157 20.667 217 62c99.333 68 149 167.667 149 299c0 114 -38.333 202.667 -115 266c-66.667 56 -153 84 -259 84c-106.667 0 -224 -26.667 -352 -80l37 696h725l-28 -150h-546
l-15 -336c81.333 13.333 145 20 191 20c154 0 279.333 -45.667 376 -137c95.333 -90.667 143 -210.667 143 -360s-46.667 -271.333 -140 -366c-96 -98.667 -225 -148 -387 -148c-146.667 0 -273 40 -379 120c-28.667 21.333 -61.667 51.333 -99 90z" />
    <glyph glyph-name="six" unicode="6" vert-adv-y="2458" 
d="M441 960c62 16 119.668 23.999 173.001 23.999c141.333 0 258.333 -44.667 351 -134c100 -96 150 -217.667 150 -365c0 -152.667 -50 -277 -150 -373c-96.667 -92.667 -218.334 -139 -365.001 -139c-140.667 0 -259 44.667 -355 134c-106 98.667 -159 224 -159 376
c0 120 33.667 239.333 101 358s165.333 252.334 294 401.001c118 136.667 177.667 206 179 208h212c-160 -168.667 -303.667 -332 -431 -490zM601.001 833.999c-103.333 0 -187.332 -30.667 -251.999 -92c-70 -66.667 -105 -152.667 -105 -258c0 -115.333 35 -206 105 -272
c63.333 -59.333 147.666 -89 252.999 -89c104 0 187.667 29.667 251 89c70 66 105 155 105 267c0 110 -35 197.667 -105 263c-65.333 61.333 -149.333 92 -252 92z" />
    <glyph glyph-name="seven" unicode="7" vert-adv-y="2458" 
d="M244 0l662 1300h-796l27 150h1011l-727 -1450h-177z" />
    <glyph glyph-name="eight" unicode="8" vert-adv-y="2458" 
d="M400 799c-71.333 36 -121.33 68.3311 -149.997 96.998c-56.667 56 -85 125.333 -85 208c0 98 34.667 181.667 104 251c36 35.333 79.667 63.333 131 84c64 25.333 131 38 201 38c96.667 0 182.667 -22 258 -66c62 -36 108.667 -85 140 -147c26 -50.667 39 -104 39 -160
c0 -82.667 -28.333 -152 -85 -208c-28 -28 -77.667 -60.333 -149 -97c87.333 -43.333 148.666 -83.666 183.999 -120.999c71.333 -73.333 107 -163.666 107 -270.999c0 -113.333 -41 -210.666 -123 -291.999c-96.667 -94.667 -220.334 -142 -371.001 -142
s-274.334 47.333 -371.001 142c-82.667 81.333 -124 178.333 -124 291c0 107.333 36 198 108 272c36 37.333 98 77.666 186 120.999zM602.003 880.998c95.333 32.667 160 59.666 194 80.999c55.333 34 83 84.667 83 152c0 62.667 -23 112.334 -69 149.001
c-53.333 42.667 -122.333 64 -207 64c-86 0 -156.333 -22 -211 -66c-46.667 -37.333 -70 -86.333 -70 -147c0 -64.667 27.667 -114.667 83 -150c27.333 -16.667 58 -31.667 92 -45c67.333 -26 102.333 -38.667 105 -38zM602.003 714.997c-108 -32 -185.333 -65 -232 -99
c-71.333 -52 -107 -121.333 -107 -208c0 -84 31 -152.667 93 -206c62 -52.667 144 -79 246 -79s183.667 26 245 78c60.667 52 91 120.333 91 205c0 89.333 -34 159.333 -102 210c-32 23.333 -66.333 42 -103 56c-81.333 30 -125 44.333 -131 43z" />
    <glyph glyph-name="nine" unicode="9" vert-adv-y="2458" 
d="M757 490c-62 -16 -119.667 -24 -173 -24c-141.333 0 -258.333 44.667 -351 134c-100 96 -150 217.667 -150 365c0 152.667 50 277 150 373c96.667 92.667 218.334 139 365.001 139c140 0 258 -44.667 354 -134c106 -98 159 -227.333 159 -388
c0 -102.667 -25 -201.667 -75 -297c-66.667 -126.667 -164.334 -266.667 -293.001 -420l-133 -154l-72 -84h-212c160 168.667 303.667 332 431 490zM596 1327c-104 0 -187.667 -29.666 -251 -88.999c-70 -66 -105 -155 -105 -267c0 -108.667 35 -196.334 105 -263.001
c64 -61.333 148 -92 252 -92s188 30.667 252 92c70 66.667 105 152.667 105 258c0 116 -35 206.667 -105 272c-64 59.333 -148.333 89 -253 89z" />
    <glyph glyph-name="colon" unicode=":" horiz-adv-x="537" vert-adv-y="2458" 
d="M270 182c28 0 52.334 -10.333 73.001 -31c20 -20 30 -44.667 30 -74c0 -28.667 -10 -53 -30 -73c-20.667 -20.667 -45.334 -31 -74.001 -31c-38.667 0 -68.667 17 -90 51c-10 16.667 -15 34 -15 52c0 29.333 10.333 54 31 74c21.333 21.333 46.333 32 75 32zM270.001 888
c28 0 52.334 -10.333 73.001 -31c20 -20 30 -44.667 30 -74c0 -28 -10 -52.333 -30 -73c-20.667 -20.667 -45.334 -31 -74.001 -31c-38.667 0 -68.667 17 -90 51c-10 16.667 -15 34 -15 52c0 29.333 10.333 54 31 74c21.333 21.333 46.333 32 75 32z" />
    <glyph glyph-name="semicolon" unicode=";" horiz-adv-x="573" vert-adv-y="2458" 
d="M37 -340l172 528h177l-207 -528h-142zM305 887c28.667 0 53.002 -10 73.002 -30c20.667 -20.667 31 -45.334 31 -74.001s-10 -53 -30 -73c-20.667 -20.667 -45.334 -31 -74.001 -31c-38 0 -67.667 16.667 -89 50c-10 16.667 -15 34.334 -15 53.001
c0 29.333 10.333 54 31 74c21.333 20.667 45.666 31 72.999 31z" />
    <glyph glyph-name="less" unicode="&#x3c;" horiz-adv-x="832" vert-adv-y="2458" 
d="M82 655l517 518l110 -110l-401 -408l401 -407l-110 -110z" />
    <glyph glyph-name="equal" unicode="=" horiz-adv-x="1106" vert-adv-y="2458" 
d="M82 371v158h942v-158h-942zM82 781v158h942v-158h-942z" />
    <glyph glyph-name="greater" unicode="&#x3e;" horiz-adv-x="832" vert-adv-y="2458" 
d="M750 655l-517 -517l-110 110l401 407l-401 408l110 110z" />
    <glyph glyph-name="question" unicode="?" horiz-adv-x="1006" vert-adv-y="2458" 
d="M348 181c28.667 0 53.001 -10 73.001 -30c20.667 -20.667 31 -45.334 31 -74.001s-10 -53 -30 -73c-20.667 -20.667 -45.334 -31 -74.001 -31c-38 0 -67.667 16.667 -89 50c-10 16.667 -15 34.334 -15 53.001c0 29.333 10.333 54 31 74c20.667 20.667 45 31 73 31z
M262.001 383v310.999l50 19c148.667 57.333 255.667 117 321 179c46.667 44.667 70 104.334 70 179.001c0 88 -33.667 156.333 -101 205c-53.333 38.667 -128 58 -224 58c-56 0 -120.667 -7.66699 -194 -23l14 155c74 12 137 18 189 18c156 0 277.667 -43.333 365 -130
c72 -72 108 -162 108 -270c0 -120 -44 -219.333 -132 -298c-48 -42 -121.333 -85.667 -220 -131l-89 -40v-198z" />
    <glyph glyph-name="at" unicode="@" horiz-adv-x="1495" vert-adv-y="2458" 
d="M1227 922c-63.333 29.333 -125.332 44 -185.999 44c-80.667 0 -144.334 -21.667 -191.001 -65c-47.333 -44 -71 -104.667 -71 -182c0 -152 78.333 -228 235 -228c66.667 0 137.667 19 213 57v374zM1124 184l40 -143.999c-74 -26 -134.167 -43.667 -180.5 -53
s-98.5 -14 -156.5 -14c-212.667 0 -387.667 67.333 -525 202c-138.667 136 -208 317.333 -208 544c0 230 72 414.667 216 554c74.667 72.667 161.667 126.667 261 162c80.667 28.667 161.667 43 243 43c144.667 0 298.334 -40.667 461.001 -122
c29.333 -14.667 65.666 -34.334 108.999 -59.001v-688c0 -104 4.33301 -182.333 13 -235l-149 -20l-10 54c-80.667 -40 -163 -60 -247 -60c-104.667 0 -190 29.333 -256 88c-75.333 67.333 -113 160 -113 278c0 120.667 37.667 217 113 289
c73.333 70 167.666 105 282.999 105c64.667 0 134.334 -14.333 209.001 -43v150c-133.333 75.333 -266.333 113 -399 113c-140.667 0 -263.667 -42.333 -369 -127c-138.667 -111.333 -208 -269.666 -208 -474.999c0 -184.667 57 -332.334 171 -443.001
c110 -106.667 245 -160 405 -160c84.667 0 183.667 20.333 297 61z" />
    <glyph glyph-name="A" unicode="A" horiz-adv-x="1380" vert-adv-y="2458" 
d="M157 0h-177l724 1501l697 -1501h-174l-137 300h-792zM366 450h658l-320 730z" />
    <glyph glyph-name="B" unicode="B" horiz-adv-x="1260" vert-adv-y="2458" 
d="M194 0l0.000976562 1450h410c162.667 0 283.334 -26.667 362.001 -80c50 -33.333 87.667 -78.666 113 -135.999c20.667 -46 31 -96.667 31 -152c0 -98 -31.667 -178.333 -95 -241c-28.667 -28 -72.334 -54.667 -131.001 -80c56 -21.333 99.667 -44.333 131 -69
c85.333 -67.333 128 -161.666 128 -282.999c0 -98 -27.333 -181.333 -82 -250c-58.667 -74 -139.334 -121.333 -242.001 -142c-54.667 -11.333 -132 -17 -232 -17h-393zM358.001 1300v-467h235c110.667 0 191.667 13.333 243 40c78 40.667 117 109.667 117 207
c0 88 -35 148.667 -105 182c-52.667 25.333 -137.667 38 -255 38h-235zM358.001 682.998v-533h274c65.333 0 118 4.33301 158 13s74.333 23.667 103 45c62 44 93 112 93 204c0 91.333 -30 160.333 -90 207c-34 26 -69.667 42.667 -107 50c-44.667 9.33301 -97 14 -157 14
h-274z" />
    <glyph glyph-name="C" unicode="C" horiz-adv-x="1359" vert-adv-y="2458" 
d="M1261 114c-60 -40 -111.667 -68.668 -155 -86.001c-90.667 -36.667 -185 -55 -283 -55c-192.667 0 -358.334 65 -497.001 195c-78.667 74 -138 162 -178 264c-36 90.667 -54 186.667 -54 288c0 151.333 38.333 289 115 413c72 116.667 168 205.334 288 266.001
c102.667 52 213.334 78 332.001 78c104.667 0 203.334 -20.667 296.001 -62c34.667 -15.333 78.667 -40.333 132 -75l-26 -173c-54 45.333 -102.333 78.333 -145 99c-84.667 40.667 -172.667 61 -264 61c-139.333 0 -261.666 -45.667 -366.999 -137
c-136 -118.667 -204 -275.334 -204 -470.001c0 -192 67.333 -346 202 -462c105.333 -90 227.666 -135 366.999 -135c110 0 213.667 29 311 87c37.333 22.667 85.666 61.334 144.999 116.001z" />
    <glyph glyph-name="D" unicode="D" horiz-adv-x="1506" vert-adv-y="2458" 
d="M194 1450h350c166 0 314.333 -21.667 445 -65c87.333 -29.333 166 -80.333 236 -153c125.333 -130.667 188 -299.667 188 -507s-62.667 -376.333 -188 -507c-70 -72.667 -148.667 -123.667 -236 -153c-130.667 -43.333 -279 -65 -445 -65h-350v1450zM358 1300v-1150h200
c188.667 0 334.667 28.667 438 86c173.333 95.333 260 258.333 260 489c0 160 -42 287.333 -126 382c-66 74 -145.667 124.333 -239 151c-101.333 28 -212.333 42 -333 42h-200z" />
    <glyph glyph-name="E" unicode="E" horiz-adv-x="1174" vert-adv-y="2458" 
d="M194 0v1450h844v-150h-680v-474h596v-150h-596v-526h690v-150h-854z" />
    <glyph glyph-name="F" unicode="F" horiz-adv-x="1137" vert-adv-y="2458" 
d="M194 0v1450h854v-150h-690v-467h622v-150h-622v-683h-164z" />
    <glyph glyph-name="G" unicode="G" horiz-adv-x="1535" vert-adv-y="2458" 
d="M1312 1326l-25.9971 -173.002c-54 46 -102.333 79.667 -145 101c-97.333 49.333 -197 74 -299 74c-153.333 0 -286 -50.333 -398 -151c-128.667 -116 -193 -268.333 -193 -457c0 -180.667 63.667 -330 191 -448c107.333 -99.333 236 -149 386 -149
c161.333 0 300.666 49 417.999 147v362h-443v150h600v-557c-80.667 -78 -156.334 -135 -227.001 -171c-106 -54 -222 -81 -348 -81c-194.667 0 -362.334 65.667 -503.001 197c-154 144.667 -231 327.334 -231 548.001c0 224 74 408.333 222 553c142 138 316 207 522 207
c120.667 0 234.667 -25.333 342 -76c34 -15.333 78 -40.666 132 -75.999z" />
    <glyph glyph-name="H" unicode="H" horiz-adv-x="1582" vert-adv-y="2458" 
d="M194 0v1450h164v-617h866v617h164v-1450h-164v683h-866v-683h-164z" />
    <glyph glyph-name="I" unicode="I" horiz-adv-x="552" vert-adv-y="2458" 
d="M194 0v1450h164v-1450h-164z" />
    <glyph glyph-name="J" unicode="J" horiz-adv-x="812" vert-adv-y="2458" 
d="M-10 168c65.333 -25.333 132 -38 200 -38c98 0 169 21 213 63c45.333 43.333 68 122.333 68 237v1020h164v-997c0 -164.667 -40 -285.667 -120 -363c-75.333 -72.667 -179 -109 -311 -109c-62 0 -125.333 7.66699 -190 23z" />
    <glyph glyph-name="K" unicode="K" horiz-adv-x="1393" vert-adv-y="2458" 
d="M194 0v1450h164v-679l781 679h218l-818 -703l888 -747h-220l-849 709v-709h-164z" />
    <glyph glyph-name="L" unicode="L" horiz-adv-x="1094" vert-adv-y="2458" 
d="M194 0v1450h164v-1300h713v-150h-877z" />
    <glyph glyph-name="M" unicode="M" horiz-adv-x="1711" vert-adv-y="2458" 
d="M26 0l320 1502l511 -1189l510 1189l318 -1502h-164l-207 997l-456 -1052l-462 1052l-206 -997h-164z" />
    <glyph glyph-name="N" unicode="N" horiz-adv-x="1596" vert-adv-y="2458" 
d="M194 0v1502l1044 -1142v1090h164v-1505l-1044 1147v-1092h-164z" />
    <glyph glyph-name="O" unicode="O" horiz-adv-x="1629" vert-adv-y="2458" 
d="M821 1478c200.667 0 369.667 -71.665 507 -214.998c138.667 -144.667 208 -322.334 208 -533.001c0 -214 -69.333 -393.333 -208 -538c-140.667 -146 -312 -219 -514 -219c-200 0 -370 72.333 -510 217c-140 145.333 -210 322.333 -210 531
c0 183.333 49 339.666 147 468.999c146 192 339.333 288 580 288zM813 1328c-172 0 -311.667 -62.333 -419 -187c-95.333 -110.667 -143 -246.334 -143 -407.001c0 -171.333 48 -312.666 144 -423.999c107.333 -124.667 247 -187 419 -187c170.667 0 309.667 62 417 186
c98.667 114 148 252.667 148 416c0 165.333 -49 304.333 -147 417c-108 124 -247.667 186 -419 186z" />
    <glyph glyph-name="P" unicode="P" horiz-adv-x="1217" vert-adv-y="2458" 
d="M194 0l-0.000976562 1450h336c132.667 0 232.334 -9.66699 299.001 -29c113.333 -32.667 198.666 -92.667 255.999 -180c45.333 -68 68 -144.667 68 -230c0 -65.333 -13.5 -127.166 -40.5 -185.499s-64.5 -107.5 -112.5 -147.5
c-59.333 -49.333 -126.666 -81.333 -201.999 -96c-73.333 -14.667 -154.333 -22 -243 -22h-197v-560h-164zM357.999 1300v-590.001h137c112 0 190 3.33301 234 10c100.667 16 172.667 55 216 117c34 48 51 104 51 168c0 77.333 -24 142.333 -72 195s-126 84.334 -234 95.001
c-36.667 3.33301 -101.667 5 -195 5h-137z" />
    <glyph glyph-name="Q" unicode="Q" horiz-adv-x="1629" vert-adv-y="2458" 
d="M442 96c-26.667 12 -57.667 31.999 -93 59.999c-170 138 -255 326 -255 564c0 178.667 48.667 334 146 466c68 92.667 153.667 164.667 257 216c100.667 50.667 206.667 76 318 76c136 0 262.333 -36.333 379 -109s205.334 -172.667 266.001 -300
c50.667 -107.333 76 -223.666 76 -348.999c0 -210.667 -69.333 -387.667 -208 -531c-134.667 -138 -294.667 -207 -480 -207c-11.333 0 -26.333 0.666992 -45 2v-11c128.667 -57.333 215 -94 259 -110c85.333 -30 190 -53.667 314 -71l-50 -154
c-100 14.667 -191.667 36.667 -275 66c-66 25.333 -155.333 66.666 -268 123.999c-118.667 60.667 -216.334 103.334 -293.001 128.001c-60.667 18.667 -124.667 32 -192 40l56 115c22.667 -2.66699 52 -7.66699 88 -15zM813 1328c-171.333 0 -311 -62.334 -419 -187.001
c-95.333 -110 -143 -245.667 -143 -407c0 -171.333 48 -312.666 144 -423.999c107.333 -124.667 247 -187 419 -187c170.667 0 309.667 62 417 186c98.667 114 148 252.667 148 416c0 166 -49 305 -147 417c-108 124 -247.667 186 -419 186z" />
    <glyph glyph-name="R" unicode="R" horiz-adv-x="1324" vert-adv-y="2458" 
d="M194 0l0.000976562 1450h309c129.333 0 224 -5.66699 284 -17c105.333 -19.333 190.666 -63.333 255.999 -132c73.333 -76.667 110 -170.667 110 -282c0 -94 -26.667 -176.333 -80 -247c-56.667 -74.667 -142 -127 -256 -157l487 -615h-202l-446 593h-298v-593h-164z
M358.001 1300l0.000976562 -557h194c145.333 0 245.666 13.333 300.999 40c42.667 20.667 76.334 50 101.001 88c28 44 42 94 42 150c0 74.667 -23.333 136.667 -70 186c-40.667 43.333 -101.334 71 -182.001 83c-44.667 6.66699 -108.667 10 -192 10h-194z" />
    <glyph glyph-name="S" unicode="S" horiz-adv-x="1110" vert-adv-y="2458" 
d="M98 259c80 -44 142.997 -74.666 188.997 -91.999c78 -30 156.667 -45 236 -45c102.667 0 182.334 24 239.001 72c62.667 53.333 94 119 94 197c0 68 -26.333 125.333 -79 172c-26 22.667 -78 53.334 -156 92.001l-187 93c-103.333 50.667 -178.333 100.334 -225 149.001
c-54 56 -81 124.667 -81 206c0 97.333 34.333 180.666 103 249.999c82 83.333 195.667 125 341 125c114 0 234.667 -29.667 362 -89l-9 -177c-57.333 30.667 -101.666 52.667 -132.999 66c-78.667 33.333 -157 50 -235 50c-69.333 0 -127.666 -14.667 -174.999 -44
c-64.667 -40.667 -97 -97.334 -97 -170.001c0 -58.667 28.333 -110.667 85 -156c30 -24 79 -52.333 147 -85l208 -99c103.333 -49.333 177.666 -105 222.999 -167c42.667 -58.667 64 -127.334 64 -206.001c0 -116.667 -39.333 -214 -118 -292
c-91.333 -91.333 -219.666 -137 -384.999 -137c-128.667 0 -258 29 -388 87z" />
    <glyph glyph-name="T" unicode="T" horiz-adv-x="1255" vert-adv-y="2458" 
d="M710 1300v-1300h-164v1300h-532v150h1227v-150h-531z" />
    <glyph glyph-name="U" unicode="U" horiz-adv-x="1571" vert-adv-y="2458" 
d="M1394 1450l-0.00195312 -783.002c0 -191.333 -31.667 -337.666 -95 -438.999c-107.333 -170 -278.333 -255 -513 -255c-181.333 0 -325.666 52.333 -432.999 157c-56 54 -95.333 112 -118 174c-38.667 104 -58 225 -58 363v783h164v-788
c0 -139.333 17 -245.666 51 -318.999c38 -82.667 102 -143 192 -181c62 -26 129 -39 201 -39c87.333 0 166 18.667 236 56c84.667 44 142.334 110.667 173.001 200c24 70.667 36 165 36 283v788h164z" />
    <glyph glyph-name="V" unicode="V" horiz-adv-x="1310" vert-adv-y="2458" 
d="M653 -55l-667 1505h177l499 -1157l484 1157h177z" />
    <glyph glyph-name="W" unicode="W" horiz-adv-x="1797" vert-adv-y="2458" 
d="M534 -55l-548 1505h177l369 -1054l369 1106l370 -1106l362 1054h178l-545 -1505l-367 1079z" />
    <glyph glyph-name="X" unicode="X" horiz-adv-x="1385" vert-adv-y="2458" 
d="M172 0h-191l592 762l-572 688h192l476 -573l440 573h191l-535 -683l639 -767h-191l-541 646z" />
    <glyph glyph-name="Y" unicode="Y" horiz-adv-x="1313" vert-adv-y="2458" 
d="M575 0v664l-602 786h191l493 -649l493 649h191l-602 -782v-668h-164z" />
    <glyph glyph-name="Z" unicode="Z" horiz-adv-x="1379" vert-adv-y="2458" 
d="M75 0l928 1300h-828l35 150h1088l-923 -1300h906l-39 -150h-1167z" />
    <glyph glyph-name="bracketleft" unicode="[" horiz-adv-x="642" vert-adv-y="2458" 
d="M601 -34h-417v1556h417v-150h-260v-1256h260v-150z" />
    <glyph glyph-name="backslash" unicode="\" horiz-adv-x="730" vert-adv-y="2458" 
d="M14 1450h164l538 -1450h-163z" />
    <glyph glyph-name="bracketright" unicode="]" horiz-adv-x="642" vert-adv-y="2458" 
d="M41 1522h417v-1556h-417v150h260v1256h-260v150z" />
    <glyph glyph-name="asciicircum" unicode="^" horiz-adv-x="1117" vert-adv-y="2458" 
d="M559 1310l517 -517l-109 -110l-408 401l-408 -401l-110 110z" />
    <glyph glyph-name="underscore" unicode="_" horiz-adv-x="1024" vert-adv-y="2458" 
d="M0 -238h1024v-158h-1024v158z" />
    <glyph glyph-name="grave" unicode="`" horiz-adv-x="1365" vert-adv-y="2458" 
d="M429 1661l541 -198l-55 -151l-541 198z" />
    <glyph glyph-name="a" unicode="a" horiz-adv-x="1396" vert-adv-y="2458" 
d="M1245 0l-162 -25.998c-8.66699 34.667 -14.667 65.667 -18 93c-74.667 -30.667 -131.667 -52 -171 -64c-68.667 -20 -143 -30 -223 -30c-124 0 -226.333 23.667 -307 71c-86.667 51.333 -155.334 122.666 -206.001 213.999c-50.667 90.667 -76 189.667 -76 297
c0 179.333 65.333 328.666 196 447.999c120 110 271 165 453 165c84.667 0 195.334 -13.667 332.001 -41l155 32v-909c2.66699 -108 11.667 -191.333 27 -250zM1060 217.002l0.000976562 758.999c-122 28 -223.667 42 -305 42c-106.667 0 -191.334 -15 -254.001 -45
c-85.333 -40 -151.333 -99.333 -198 -178c-42.667 -71.333 -64 -150.666 -64 -237.999c0 -134 45.333 -243.667 136 -329c74.667 -70 177 -105 307 -105c88 0 170.333 13.667 247 41c27.333 9.33301 71 27 131 53z" />
    <glyph glyph-name="b" unicode="b" horiz-adv-x="1396" vert-adv-y="2458" 
d="M335 1476l0.000976562 -403.001c65.333 30.667 120.666 52.334 165.999 65.001c72 20 146 30 222 30c167.333 0 303 -48.667 407 -146c52.667 -50 95 -109.333 127 -178c37.333 -81.333 56 -167.333 56 -258c0 -180 -65.333 -329.667 -196 -449
c-120 -110 -271 -165 -453 -165c-86 0 -196.667 14 -332 42l-155 -33v1469zM335.001 922.999l-0.000976562 -759c121.333 -28 223 -42 305 -42c106.667 0 191.334 15 254.001 45c85.333 40 151.333 99.333 198 178c42.667 71.333 64 150.666 64 237.999
c0 86.667 -21.333 166 -64 238c-76.667 131.333 -204 197 -382 197c-84.667 0 -166 -13.333 -244 -40c-31.333 -11.333 -75 -29.666 -131 -54.999z" />
    <glyph glyph-name="c" unicode="c" horiz-adv-x="1198" vert-adv-y="2458" 
d="M1102 98c-58.667 -38 -111.33 -64.667 -157.997 -80c-88.667 -30.667 -178 -46 -268 -46c-166.667 0 -306.334 55 -419.001 165c-116 114.667 -174 256.667 -174 426c0 172.667 59.333 317 178 433c118 114.667 268.333 172 451 172
c135.333 0 271.666 -34.667 408.999 -104l-26 -157c-67.333 34 -122.333 58.333 -165 73c-74.667 25.333 -149 38 -223 38c-134 0 -244.333 -41.333 -331 -124c-90.667 -86 -136 -194.667 -136 -326c0 -129.333 43.667 -237 131 -323c83.333 -82 187.666 -123 312.999 -123
c100 0 198.333 24.333 295 73c35.333 17.333 86 47.333 152 90z" />
    <glyph glyph-name="d" unicode="d" horiz-adv-x="1396" vert-adv-y="2458" 
d="M1245 0l-161.999 -25.998c-8.66699 34.667 -14.667 65.667 -18 93c-74.667 -30.667 -131.667 -52 -171 -64c-68.667 -20 -143 -30 -223 -30c-124 0 -226.333 23.667 -307 71c-86.667 51.333 -155.334 122.666 -206.001 213.999c-50.667 90.667 -76 189.667 -76 297
c0 179.333 65.333 328.666 196 447.999c120 110 270.667 165 452 165c90 0 200 -13.667 330 -41v323l158 26v-1226c2.66699 -108 11.667 -191.333 27 -250zM1060 217.002l0.000976562 758.999c-122 28 -223.667 42 -305 42c-106.667 0 -191.334 -15 -254.001 -45
c-85.333 -40 -151.333 -99.333 -198 -178c-42.667 -71.333 -64 -150.666 -64 -237.999c0 -134 45.333 -243.667 136 -329c74.667 -70 177 -105 307 -105c88 0 170.333 13.667 247 41c27.333 9.33301 71 27 131 53z" />
    <glyph glyph-name="e" unicode="e" horiz-adv-x="1286" vert-adv-y="2458" 
d="M1142 305l-9.00098 -185.001c-74 -42.667 -131.667 -72.667 -173 -90c-92 -38 -187 -57 -285 -57c-174.667 0 -317 54.333 -427 163s-165 250.334 -165 425.001c0 172 54.667 314.333 164 427c54.667 56.667 119.334 100.667 194.001 132c75.333 32 154.333 48 237 48
c146.667 0 269.334 -46 368.001 -138c104.667 -98 157 -222 157 -372c0 -27.333 -1.66699 -63.333 -5 -108l-944 -61c10 -60 27.667 -112.667 53 -158c32.667 -59.333 78 -107 136 -143c69.333 -43.333 146.666 -65 231.999 -65c96 0 197.333 27.333 304 82
c38.667 20 93 53.333 163 100zM1039 679.999c-3.33301 54.667 -15.667 104.333 -37 149c-30 63.333 -76.667 112.333 -140 147c-54 29.333 -114.667 44 -182 44c-106.667 0 -200.667 -33.333 -282 -100c-82 -66.667 -130.667 -164 -146 -292z" />
    <glyph glyph-name="f" unicode="f" horiz-adv-x="755" vert-adv-y="2458" 
d="M369 0h-157v988h-198v150h198v76c0 95.333 25.667 169.333 77 222c60 62.667 145.333 94 256 94c62 0 132 -13.667 210 -41l-37 -155c-64.667 30.667 -124 46 -178 46c-65.333 0 -111.333 -16.333 -138 -49c-22 -26 -33 -65 -33 -117v-76h368v-150h-368v-988z" />
    <glyph glyph-name="g" unicode="g" horiz-adv-x="1383" vert-adv-y="2458" 
d="M190 -176c80.667 -62 149.666 -104.667 206.999 -128c80.667 -32.667 168 -49 262 -49c121.333 0 217 29.667 287 89c76 64.667 114 157.334 114 278.001v53c-67.333 -30 -122.666 -51.333 -165.999 -64c-70 -20 -143.667 -30 -221 -30
c-125.333 0 -228.333 23.667 -309 71c-86.667 50.667 -155.334 122 -206.001 214c-50.667 90.667 -76 189.667 -76 297c0 179.333 65.333 328.666 196 447.999c120 110 271 165 453 165c86.667 0 197.334 -13.667 332.001 -41l155 32v-1031
c0 -188.667 -29.333 -328 -88 -418c-91.333 -142 -250 -213 -476 -213c-128 0 -239 20.667 -333 62c-32 14 -73 37 -123 69zM1060 217l0.00195312 759c-122.667 28 -224.334 42 -305.001 42c-106.667 0 -191.334 -15 -254.001 -45c-85.333 -40 -151.333 -99.333 -198 -178
c-42.667 -71.333 -64 -150.333 -64 -237c0 -134.667 45.333 -244.667 136 -330c74.667 -70 177 -105 307 -105c88 0 170.333 13.667 247 41c27.333 10 71 27.667 131 53z" />
    <glyph glyph-name="h" unicode="h" horiz-adv-x="1400" vert-adv-y="2458" 
d="M177 0v1450l157 26v-549c44 58 88.333 103.333 133 136c96 70 212 105 348 105c156.667 0 274 -45.333 352 -136c39.333 -46 64.333 -100 75 -162c8.66699 -48 13 -100.667 13 -158v-712h-157v644c0 87.333 -3.66699 146 -11 176c-16 64.667 -45 113.334 -87 146.001
c-46 35.333 -112 53 -198 53c-128 0 -235.667 -41.667 -323 -125c-68.667 -66 -112.667 -145.333 -132 -238c-8.66699 -40 -13 -95.333 -13 -166v-490h-157z" />
    <glyph glyph-name="i" unicode="i" horiz-adv-x="512" vert-adv-y="2458" 
d="M335 1159v-1159h-157v1133zM256 1476c30 0 55.6689 -10.668 77.002 -32.001s32 -47 32 -77s-10.333 -55.333 -31 -76c-21.333 -21.333 -47.333 -32 -78 -32c-40.667 0 -71.334 17 -92.001 51c-10.667 16.667 -16 35.334 -16 56.001c0 32 10.667 58.333 32 79
s46.666 31 75.999 31z" />
    <glyph glyph-name="j" unicode="j" horiz-adv-x="512" vert-adv-y="2458" 
d="M335 1159v-1522l-157 -26v1522zM256 1476c30 0 55.6689 -10.667 77.002 -32s32 -47 32 -77s-10.333 -55.333 -31 -76c-21.333 -21.333 -47.333 -32 -78 -32c-40.667 0 -71.334 17 -92.001 51c-10.667 17.333 -16 36 -16 56c0 32 10.667 58.333 32 79s46.666 31 75.999 31
z" />
    <glyph glyph-name="k" unicode="k" horiz-adv-x="1260" vert-adv-y="2458" 
d="M334 587v-587h-157v1450l157 26v-834l567 498h213l-592 -513l765 -627h-232z" />
    <glyph glyph-name="l" unicode="l" horiz-adv-x="512" vert-adv-y="2458" 
d="M334 0h-157v1450l157 26v-1476z" />
    <glyph glyph-name="m" unicode="m" horiz-adv-x="2125" vert-adv-y="2458" 
d="M991 0l0.00585938 644c0 86.667 -3.66699 145 -11 175c-30.667 133.333 -112.334 200 -245.001 200c-109.333 0 -207 -41.667 -293 -125c-66.667 -64.667 -109.334 -144 -128.001 -238c-8 -42.667 -12 -98 -12 -166v-490h-157v1133l157 26v-232
c43.333 57.333 87.666 102.333 132.999 135c96.667 70.667 200 106 310 106c84 0 161 -21.667 231 -65c71.333 -44 122.666 -111.333 153.999 -202c18 27.333 34.667 49.666 50 66.999c51.333 60 111.333 107.333 180 142c75.333 38.667 152 58 230 58
c84 0 161.333 -21.667 232 -65c76.667 -46.667 127 -112.667 151 -198c14 -49.333 21 -113.666 21 -192.999v-712h-157v644c0 86.667 -3.66699 145 -11 175c-30.667 133.333 -112.334 200 -245.001 200c-109.333 0 -207 -41.667 -293 -125
c-66.667 -64.667 -109.334 -144 -128.001 -238c-8 -42.667 -12 -98 -12 -166v-490h-157z" />
    <glyph glyph-name="n" unicode="n" horiz-adv-x="1386" vert-adv-y="2458" 
d="M164 0v1133l157 26v-232c44 58 88.333 103.333 133 136c96 70 212 105 348 105c156.667 0 274 -45.333 352 -136c39.333 -46 64.333 -100 75 -162c8.66699 -48 13 -100.667 13 -158v-712h-157v644c0 87.333 -3.66699 146 -11 176c-16 64.667 -45 113.334 -87 146.001
c-46 35.333 -112 53 -198 53c-128 0 -235.667 -41.667 -323 -125c-68.667 -66 -112.667 -145.333 -132 -238c-8.66699 -40 -13 -95.333 -13 -166v-490h-157z" />
    <glyph glyph-name="o" unicode="o" horiz-adv-x="1377" vert-adv-y="2458" 
d="M690 1168c170.667 0 313.332 -57 427.999 -171c54.667 -54 97.334 -117.667 128.001 -191c31.333 -75.333 47 -154 47 -236c0 -114.667 -29.667 -220.667 -89 -318c-56.667 -92 -132.667 -162.667 -228 -212c-87.333 -44.667 -183 -67 -287 -67
c-173.333 0 -317.666 57.667 -432.999 173c-53.333 53.333 -95.333 116 -126 188c-31.333 75.333 -47 151.666 -47 228.999c0 120 29.333 228.667 88 326c55.333 90.667 131.666 161.334 228.999 212.001c87.333 44.667 184 67 290 67zM687.998 1018
c-112.667 0 -209.664 -34.001 -290.997 -102.001c-60.667 -50.667 -104.334 -113.667 -131.001 -189c-17.333 -49.333 -26 -99.333 -26 -150c0 -146.667 52.333 -264 157 -352c81.333 -68 178.666 -102 291.999 -102c112 0 208.667 34 290 102
c104.667 88 157 203.333 157 346c0 88 -22 168 -66 240c-48 78.667 -115.667 136.334 -203 173.001c-54.667 22.667 -114.334 34 -179.001 34z" />
    <glyph glyph-name="p" unicode="p" horiz-adv-x="1382" vert-adv-y="2458" 
d="M137 1140l162.001 26.0029c8.66699 -34.667 14.667 -65.667 18 -93c74.667 31.333 131.667 52.666 171 63.999c69.333 20.667 143.666 31 222.999 31c124 0 226.333 -23.667 307 -71c86.667 -50.667 155.334 -122 206.001 -214c50.667 -90.667 76 -189.334 76 -296.001
c0 -180 -65.333 -330.333 -196 -451c-117.333 -108.667 -264.333 -163 -441 -163c-110.667 0 -224.334 18 -341.001 54v-390l-158 -26v1279c-2.66699 107.333 -11.667 190.666 -27 249.999zM322.001 923.003l0.000976562 -746c114 -36 221 -54 321 -54
c136.667 0 248.334 35.333 335.001 106c110 90 165 208 165 354c0 134.667 -45.333 244.667 -136 330c-74.667 70 -175.334 105 -302.001 105c-85.333 0 -169.333 -13.667 -252 -41c-32.667 -10.667 -76.334 -28.667 -131.001 -54z" />
    <glyph glyph-name="q" unicode="q" horiz-adv-x="1383" vert-adv-y="2458" 
d="M1060 -389l-0.000976562 456.001c-67.333 -30 -122.666 -51.333 -165.999 -64c-70 -20 -143.667 -30 -221 -30c-125.333 0 -228.333 23.667 -309 71c-86.667 50.667 -155.334 122 -206.001 214c-50.667 90.667 -76 189.667 -76 297c0 179.333 65.333 328.666 196 447.999
c120 110 271 165 453 165c86.667 0 197.334 -13.667 332.001 -41l155 32v-1522zM1060 217.001l0.000976562 758.999c-122 28 -223.667 42 -305 42c-106.667 0 -191.334 -15 -254.001 -45c-85.333 -40 -151.333 -99.333 -198 -178c-42.667 -71.333 -64 -150.666 -64 -237.999
c0 -134 45.333 -243.667 136 -329c74.667 -70 177 -105 307 -105c88 0 170.333 13.667 247 41c27.333 10 71 27.667 131 53z" />
    <glyph glyph-name="r" unicode="r" horiz-adv-x="820" vert-adv-y="2458" 
d="M827 1167l-27.998 -149.999c-10.667 0.666992 -18.667 1 -24 1c-52.667 0 -104.667 -9.66699 -156 -29c-125.333 -46.667 -213.333 -134.334 -264 -263.001c-22.667 -57.333 -34 -136 -34 -236v-490h-157v1133l157 26v-232c43.333 60.667 98.666 113.334 165.999 158.001
c87.333 55.333 200.666 82.666 339.999 81.999z" />
    <glyph glyph-name="s" unicode="s" horiz-adv-x="1016" vert-adv-y="2458" 
d="M108 243c145.333 -80.667 278.33 -121.002 398.997 -121.002c100 0 174.333 22.667 223 68c26.667 24.667 40 58 40 100c0 44 -15 79.333 -45 106c-33.333 30.667 -89.666 62.334 -168.999 95.001l-161 67c-111.333 46 -185.666 90 -222.999 132
c-39.333 44.667 -59 97.334 -59 158.001c0 86 34.667 158 104 216c82 69.333 189.333 104 322 104c92 0 194 -21.667 306 -65l-3 -173c-67.333 33.333 -121 55.333 -161 66c-50.667 14 -102 21 -154 21c-102 0 -177 -25 -225 -75c-21.333 -22.667 -32 -50 -32 -82
c0 -44 23 -80.667 69 -110c29.333 -18.667 75 -40 137 -64l161 -64c87.333 -34 154 -72.333 200 -115c60 -54 90 -126 90 -216c0 -92 -32.667 -165 -98 -219c-80 -66.667 -190.667 -100 -332 -100c-119.333 0 -240.666 30.667 -363.999 92z" />
    <glyph glyph-name="t" unicode="t" horiz-adv-x="771" vert-adv-y="2458" 
d="M728 178l-25 -161c-50 -20.667 -102 -31 -156 -31c-108 0 -191 31.667 -249 95c-51.333 56 -77 135.667 -77 239v668h-207v150h207v312l157 26v-338h359v-150h-359v-662c0 -71.333 13.667 -120 41 -146c36 -34 87 -51 153 -51c51.333 0 103.333 16.333 156 49z" />
    <glyph glyph-name="u" unicode="u" horiz-adv-x="1386" vert-adv-y="2458" 
d="M1223 1159v-1159l-157 -26v239c-44 -58 -88.333 -103.333 -133 -136c-96 -70 -212 -105 -348 -105c-156.667 0 -274 45.333 -352 136c-38.667 46 -63.667 100 -75 162c-8.66699 48 -13 101 -13 159v704l157 26v-663c0 -87.333 3.66699 -146 11 -176
c16 -64.667 45 -113.334 87 -146.001c46 -35.333 112 -53 198 -53c128 0 235.667 41.667 323 125c68.667 66 112.667 145.333 132 238c8.66699 40.667 13 96 13 166v483z" />
    <glyph glyph-name="v" unicode="v" horiz-adv-x="1137" vert-adv-y="2458" 
d="M567 -54l-567 1192h177l390 -872l392 872h178z" />
    <glyph glyph-name="w" unicode="w" horiz-adv-x="1741" vert-adv-y="2458" 
d="M532 -54l-532 1192h177l349 -817l343 872l356 -872l339 817h177l-520 -1192l-352 846z" />
    <glyph glyph-name="x" unicode="x" horiz-adv-x="1209" vert-adv-y="2458" 
d="M0 0l512 601l-451 537h205l342 -424l347 424h205l-457 -540l506 -598h-205l-393 491l-406 -491h-205z" />
    <glyph glyph-name="y" unicode="y" horiz-adv-x="1117" vert-adv-y="2458" 
d="M0 1138h177l390 -946l372 946h178l-613 -1502l-183 -26l164 390z" />
    <glyph glyph-name="z" unicode="z" horiz-adv-x="1074" vert-adv-y="2458" 
d="M0 0l765 988h-695l39 150h952l-751 -988h749l-33 -150h-1026z" />
    <glyph glyph-name="braceleft" unicode="{" horiz-adv-x="671" vert-adv-y="2458" 
d="M284 744c42 -32.667 66.001 -56.9971 72.001 -72.9971c10 -14 16.667 -44.333 20 -91v-9l-8 -250c0 -2 -0.333008 -6.66699 -1 -14c-9.33301 -123.333 49.334 -187 176.001 -191h74v-150h-43c-110.667 0 -195 22.667 -253 68c-74 58 -111 145.333 -111 262
c0 1.33301 0.333008 10.333 1 27l8 165c0.666992 9.33301 1 19.333 1 30c0 54 -6 93 -18 117c-14.667 31.333 -50 67.666 -106 108.999c55.333 41.333 90.666 77.666 105.999 108.999c12 24 18 62.667 18 116c0 11.333 -0.333008 21.666 -1 30.999l-8 165v26
c0 220.667 121 331 363 331h43v-150h-74c-60 0 -106.333 -17.333 -139 -52c-24 -26 -36 -72 -36 -138v-15l8 -250c0.666992 -17.333 -2 -39 -8 -65c-4 -25.333 -16.333 -48 -37 -68c-12.667 -16 -28.334 -29.333 -47.001 -40z" />
    <glyph glyph-name="bar" unicode="|" horiz-adv-x="1024" vert-adv-y="2458" 
d="M433 -410v1860h157v-1860h-157z" />
    <glyph glyph-name="braceright" unicode="}" horiz-adv-x="671" vert-adv-y="2458" 
d="M387 744c-34.667 26.667 -58.665 50.6631 -71.998 71.9961c-14.667 24 -21.334 54.667 -20.001 92v9l8 250l1 9v5c0 72.667 -16 122.667 -48 150c-33.333 27.333 -76 41 -128 41h-73v150h43c110.667 0 195 -22.667 253 -68c74 -58 111 -145.333 111 -262
c0 -1.33301 -0.333008 -10.333 -1 -27l-8 -165c-0.666992 -9.33301 -1 -19.333 -1 -30c0 -54 5.66699 -93 17 -117c15.333 -31.333 51 -67.666 107 -108.999c-56 -41.333 -91.667 -77.666 -107 -108.999c-11.333 -24 -17 -62.667 -17 -116
c0 -11.333 0.333008 -21.666 1 -30.999l8 -165v-26c0 -220.667 -121 -331 -363 -331h-43v150h73c51.333 0 93.666 13.667 126.999 41c18 14.667 30 34.334 36 59.001c10.667 54.667 14.667 89.667 12 105l-8 250v9c0 40 6.66699 70.333 20 91c13.333 22 37.333 46.333 72 73
z" />
    <glyph glyph-name="asciitilde" unicode="~" horiz-adv-x="1106" vert-adv-y="2458" 
d="M946 717c-36.667 -32.667 -67.335 -55.667 -92.002 -69c-50.667 -27.333 -105 -41 -163 -41c-38.667 0 -74 6.33301 -106 19l-80 33c-42 16.667 -79 25 -111 25c-46 0 -99.667 -22.333 -161 -67l-72 127c36.667 32 67.334 54.667 92.001 68
c50.667 27.333 104.667 41 162 41c40.667 0 76.334 -6.33301 107.001 -19l80 -32c42 -17.333 78.667 -26 110 -26c46.667 0 100.667 22.667 162 68z" />
    <glyph glyph-name="afii10051" horiz-adv-x="1624" vert-adv-y="2458" 
d="M594 927c44 58 88.332 103.332 132.999 135.999c96 70 212 105 348 105c156.667 0 274 -45.333 352 -136c38.667 -46 63.667 -100 75 -162c8.66699 -48 13 -101 13 -159v-287c0 -121.333 -16.333 -213 -49 -275c-60.667 -117.333 -186 -176 -376 -176
c-77.333 0 -160.666 9 -249.999 27l-28 164c84 -27.333 172 -41 264 -41c108 0 181.667 19 221 57c36 33.333 54 87.333 54 162v302c0 96.667 -2.33301 155 -7 175c-32 133.333 -126 200 -282 200c-128 0 -235.667 -41.667 -323 -125
c-68.667 -66 -112.667 -145.333 -132 -238c-8 -37.333 -12.333 -92.666 -13 -165.999v-490h-164v1300h-430v150h1024v-150h-430v-373z" />
    <glyph glyph-name="afii10052" horiz-adv-x="1038" vert-adv-y="2458" 
d="M358 0h-164v1450h844v-150h-680v-1300zM872 1920l55 -150l-541 -198l-55 150z" />
    <glyph glyph-name="afii10061" horiz-adv-x="1393" vert-adv-y="2458" 
d="M194 0v1450h164v-679l781 679h218l-818 -703l888 -747h-220l-849 709v-709h-164zM1053 1920l55 -150l-541 -198l-55 150z" />
    <glyph glyph-name="afii10060" horiz-adv-x="1624" vert-adv-y="2458" 
d="M594 927c44 58 88.333 103.332 133 135.999c96 70 212 105 348 105c156.667 0 274 -45.333 352 -136c38.667 -45.333 63.667 -99.333 75 -162c8.66699 -48 13 -100.667 13 -158v-712h-164v644c0 96.667 -2.33301 155 -7 175c-32 133.333 -126 200 -282 200
c-128 0 -235.667 -41.667 -323 -125c-69.333 -66 -113.333 -145.333 -132 -238c-8 -37.333 -12.333 -92.666 -13 -165.999v-490h-164v1300h-430v150h1024v-150h-430v-373z" />
    <glyph glyph-name="afii10145" horiz-adv-x="1582" vert-adv-y="2458" 
d="M194 0v1450h164v-1300h866v1300h164v-1450h-515v-363l-164 -26v389h-515z" />
    <glyph glyph-name="afii10099" horiz-adv-x="1557" vert-adv-y="2458" 
d="M492 0h-157.001v988h-362v150h362v312l157 27v-550c44 58 88.333 103.333 133 136c96 70 212.333 105 349 105c156 0 273 -45.333 351 -136c38.667 -45.333 63.667 -99.333 75 -162c8.66699 -48 13 -100.667 13 -158v-565c0 -132.667 -13.667 -224.667 -41 -276
c-60 -114.667 -175.667 -172 -347 -172c-70 0 -149.667 9.33301 -239 28l-28 164c84 -28 168.333 -42 253 -42c90.667 0 154.334 17.667 191.001 53c36 34 54 88.333 54 163v579c0 87.333 -3.66699 146.333 -11 177c-16 64.667 -45 113 -87 145c-46 35.333 -112 53 -198 53
c-128 0 -235.667 -41.667 -323 -125c-68.667 -66 -112.667 -145.333 -132 -238c-8.66699 -40 -13 -95.333 -13 -166v-490z" />
    <glyph glyph-name="afii10109" horiz-adv-x="1246" vert-adv-y="2458" 
d="M321 587v-587h-157v1138h157v-496l567 496h213l-592 -511l765 -627h-232zM842 1661l55 -151l-541 -198l-55 151z" />
    <glyph glyph-name="afii10108" horiz-adv-x="1557" vert-adv-y="2458" 
d="M492 0l-157 0.000976562v988h-362v150h362v312l157 27v-550c44 58 88.333 103.333 133 136c96 70 212.333 105 349 105c156 0 273 -45.333 351 -136c39.333 -45.333 64.333 -99.333 75 -162c8.66699 -48 13 -100.667 13 -158v-712h-157v644
c0 87.333 -3.66699 146.333 -11 177c-16 64.667 -45 113 -87 145c-46 35.333 -112 53 -198 53c-128 0 -235.667 -41.667 -323 -125c-68.667 -66 -112.667 -145 -132 -237c-8.66699 -40.667 -13 -96.334 -13 -167.001v-490z" />
    <glyph glyph-name="nonbreakingspace" unicode="&#xa0;" horiz-adv-x="588" vert-adv-y="2458" 
 />
    <glyph glyph-name="exclamdown" unicode="&#xa1;" horiz-adv-x="1318" vert-adv-y="2458" 
d="M-27 1450h191l537 -1032l459 1032h185l-673 -1450l-176 -27l126 274zM1042 1753c-44 -40 -79.998 -68.333 -107.998 -85c-78.667 -46.667 -169.334 -70 -272.001 -70c-110 0 -206 27 -288 81c-22.667 15.333 -53 40 -91 74l93 111c45.333 -34 82.666 -58 111.999 -72
c58 -27.333 116 -41 174 -41c66 0 130.667 17 194 51c23.333 12 54.333 32.667 93 62z" />
    <glyph glyph-name="cent" unicode="&#xa2;" horiz-adv-x="1117" vert-adv-y="2458" 
d="M0 1138h177l390 -946l372 946h178l-613 -1502l-183 -26l164 390zM951 1465c-44.667 -39.333 -80.999 -67.333 -108.999 -84c-78.667 -46.667 -169 -70 -271 -70c-110.667 0 -207 27 -289 81c-22.667 14.667 -53 39 -91 73l93 112c45.333 -34 82.666 -58 111.999 -72
c58 -27.333 116.333 -41 175 -41c66 0 130.667 17 194 51c22.667 12 53.667 32.667 93 62z" />
    <glyph glyph-name="sterling" unicode="&#xa3;" horiz-adv-x="812" vert-adv-y="2458" 
d="M-10 168c65.333 -25.333 132 -38 200 -38c98 0 169 21 213 63c45.333 43.333 68 122.333 68 237v1020h164v-997c0 -164.667 -40 -285.667 -120 -363c-75.333 -72.667 -179 -109 -311 -109c-62 0 -125.333 7.66699 -190 23z" />
    <glyph glyph-name="currency" unicode="&#xa4;" horiz-adv-x="1241" vert-adv-y="2458" 
d="M969 1124c2 -4 6.66699 -11 14 -21c42.667 -58.667 64 -131.334 64 -218.001c0 -87.333 -21.333 -160.333 -64 -219c-7.33301 -9.33301 -12 -16 -14 -20l205 -207l-104 -104l-205 205c-3.33301 -2 -10.333 -7 -21 -15c-58.667 -42.667 -132.667 -64 -222 -64
c-88.667 0 -162.667 21.333 -222 64c-10 8 -17 13 -21 15l-205 -205l-103 104l205 207l-14 20c-42.667 58.667 -64 131.667 -64 219c0 86.667 21.333 159.334 64 218.001l14 21l-205 207l103 103l205 -205c4 2.66699 11 7.66699 21 15c59.333 43.333 133.333 65 222 65
s162.667 -21.667 222 -65c10 -7.33301 17 -12.333 21 -15l205 205l104 -103zM623 1165c-76 0 -142 -27.666 -198 -82.999c-54.667 -54.667 -82 -120.667 -82 -198c0 -76 27 -141 81 -195c54.667 -54 121 -81 199 -81c77.333 0 143 27 197 81c54.667 54 82 119.333 82 196
c0 59.333 -18 113.666 -54 162.999c-56.667 78 -131.667 117 -225 117z" />
    <glyph glyph-name="yen" unicode="&#xa5;" horiz-adv-x="1051" vert-adv-y="2458" 
d="M358 0h-164v1450h680v137l164 27v-314h-680v-1300z" />
    <glyph glyph-name="brokenbar" unicode="&#xa6;" horiz-adv-x="1024" vert-adv-y="2458" 
d="M590 -410h-157v815h157v-815zM433 1450h157v-772h-157v772z" />
    <glyph glyph-name="section" unicode="&#xa7;" horiz-adv-x="1042" vert-adv-y="2458" 
d="M826 302c44.667 -31.333 76.999 -60.667 96.999 -88c39.333 -52 59 -108.667 59 -170c0 -83.333 -32.667 -157 -98 -221c-79.333 -78 -190.333 -117 -333 -117c-70 0 -139.667 11 -209 33c-46.667 15.333 -116.667 45.333 -210 90l-26 205c88 -54 158 -92.667 210 -116
c92.667 -41.333 178.334 -62 257.001 -62c94 0 166 27 216 81c24.667 26 37 57 37 93c0 44.667 -17.667 82.334 -53 113.001c-36 30.667 -103.667 67.334 -203 110.001l-152 64c-114 48.667 -187.667 89 -221 121c-47.333 45.333 -71 99.333 -71 162c0 82 36 155 108 219
c20 17.333 51 38.666 93 63.999c-49.333 26 -86.666 53 -111.999 81c-45.333 49.333 -68 110.333 -68 183c0 91.333 33 167.333 99 228c74 68 169.667 102 287 102c112 0 231 -27.333 357 -82v-190c-126.667 81.333 -247.667 122 -363 122
c-83.333 0 -146.333 -23.333 -189 -70c-23.333 -26 -35 -57 -35 -93c0 -41.333 12.333 -74 37 -98c31.333 -30.667 94.666 -67 189.999 -109l169 -74c110 -48 183.667 -90 221 -126c56.667 -54 85 -117.333 85 -190c0 -66 -26.667 -127.667 -80 -185
c-20 -20.667 -53 -47.334 -99 -80.001zM676.999 374.999c104.667 61.333 157.001 126.667 157.001 196c0 50 -46.667 96 -140 138l-225 102c-64.667 -38 -109.334 -70 -134.001 -96c-26 -28 -39 -58.667 -39 -92c0 -22 7 -43 21 -63c18.667 -26 60.667 -53.333 126 -82z" />
    <glyph glyph-name="dieresis" unicode="&#xa8;" horiz-adv-x="1174" vert-adv-y="2458" 
d="M194 0v1450h844v-150h-680v-474h596v-150h-596v-526h690v-150h-854zM317 1807c30.667 0 57.334 -11.333 80.001 -34c23.333 -23.333 35 -51.666 35 -84.999c0 -32.667 -11.333 -60.334 -34 -83.001c-22 -22 -49 -33 -81 -33c-46 0 -80.333 18.667 -103 56
c-11.333 18 -17 38 -17 60c0 32 11.667 59.667 35 83c25.333 24 53.666 36 84.999 36zM917 1807c31.333 0 58.667 -11.667 82 -35s35 -51 35 -83c0 -33.333 -11.333 -61 -34 -83c-22 -22.667 -49.667 -34 -83 -34c-44.667 0 -78.334 18.333 -101.001 55
c-11.333 18.667 -17 39 -17 61c0 33.333 11.667 61.333 35 84c24.667 23.333 52.334 35 83.001 35z" />
    <glyph glyph-name="copyright" unicode="&#xa9;" horiz-adv-x="1100" vert-adv-y="2458" 
d="M550 1569c140.667 0 260.333 -46.665 359 -139.998c100.667 -96.667 151 -219.334 151 -368.001s-50.333 -271.334 -151 -368.001c-98 -93.333 -217.333 -140 -358 -140c-141.333 0 -261 46.667 -359 140c-100.667 96.667 -151 221.667 -151 375
c0 95.333 24.333 183 73 263c49.333 82.667 120 145.667 212 189c69.333 32.667 144 49 224 49zM546.999 1447c-107.333 0 -198.333 -35.668 -273 -107.001c-76.667 -73.333 -115 -164.666 -115 -273.999c0 -116 38.333 -210.667 115 -284
c74.667 -71.333 165.667 -107 273 -107c106.667 0 197.334 35.667 272.001 107c76.667 73.333 115 166.333 115 279c0 114.667 -38.333 207.667 -115 279s-167.334 107 -272.001 107zM739.999 810.001c-57.333 -38 -115.332 -57 -173.999 -57c-77.333 0 -144 26.333 -200 79
c-62 59.333 -93 133.333 -93 222c0 90 30 164.667 90 224c55.333 55.333 123.333 83 204 83c58 0 115.333 -18.333 172 -55l-11 -127c-53.333 46.667 -103.333 70 -150 70c-50 0 -93.333 -18 -130 -54c-37.333 -37.333 -56 -84 -56 -140c0 -55.333 18.667 -101 56 -137
c36 -35.333 78 -53 126 -53c57.333 0 114.666 29 171.999 87z" />
    <glyph glyph-name="ordfeminine" unicode="&#xaa;" horiz-adv-x="1364" vert-adv-y="2458" 
d="M253 676c7.33301 -132.667 49.3359 -246.334 126.003 -341.001c55.333 -68.667 122 -121.334 200 -158.001c75.333 -36 155.666 -54 240.999 -54c110.667 0 214.334 29 311.001 87c37.333 22.667 85.666 61.334 144.999 116.001l-14 -212
c-60.667 -40 -112.334 -68.667 -155.001 -86c-90.667 -36.667 -185.334 -55 -284.001 -55c-192.667 0 -358.334 65 -497.001 195c-78.667 74 -138 162 -178 264c-36 90.667 -54 186.667 -54 288c0 151.333 38.333 289 115 413c72 116.667 168 205.334 288 266.001
c102.667 52 213.334 78 332.001 78c105.333 0 204.333 -20.667 297 -62c34 -15.333 78 -40.333 132 -75l-27 -173c-54 45.333 -102.333 78.333 -145 99c-84.667 40.667 -172.667 61 -264 61c-112 0 -214 -30.333 -306 -91c-142 -94 -227.667 -230.667 -257 -410h800v-150
h-806z" />
    <glyph glyph-name="guillemotleft" unicode="&#xab;" horiz-adv-x="896" vert-adv-y="2458" 
d="M82 655l252 311l114 -91l-183 -220l183 -220l-114 -91zM469 655l225 278l120 -80l-159 -198l159 -197l-120 -81z" />
    <glyph glyph-name="logicalnot" unicode="&#xac;" horiz-adv-x="1706" vert-adv-y="2458" 
d="M254 862h1198v-502h-166v336h-1032v166z" />
    <glyph glyph-name="sfthyphen" unicode="&#xad;" horiz-adv-x="522" vert-adv-y="2458" 
d="M0 577v158h522v-158h-522z" />
    <glyph glyph-name="registered" unicode="&#xae;" horiz-adv-x="1100" vert-adv-y="2458" 
d="M550 1569c140.667 0 260.333 -46.665 359 -139.998c100.667 -96.667 151 -219.334 151 -368.001s-50.333 -271.334 -151 -368.001c-98 -93.333 -217.333 -140 -358 -140c-141.333 0 -261 46.667 -359 140c-100.667 96.667 -151 221.667 -151 375
c0 95.333 24.333 183 73 263c49.333 82.667 120 145.667 212 189c69.333 32.667 144 49 224 49zM546.999 1447c-107.333 0 -198.333 -35.668 -273 -107.001c-76.667 -73.333 -115 -164.666 -115 -273.999c0 -116 38.333 -210.667 115 -284
c74.667 -71.333 165.667 -107 273 -107c106.667 0 197.334 35.667 272.001 107c76.667 73.333 115 166.333 115 279c0 114.667 -38.333 207.667 -115 279s-167.334 107 -272.001 107zM365.999 777.001v580h135c65.333 0 114 -7 146 -21c68.667 -30 103 -78.333 103 -145
c0 -73.333 -42.333 -126.333 -127 -159l187 -255h-132l-176 241h-22v-241h-114zM479.999 1106h27c51.333 0 85.333 6.66699 102 20c17.333 13.333 26 33 26 59c0 22 -6.66699 39 -20 51c-19.333 16.667 -55.333 25 -108 25h-27v-155z" />
    <glyph glyph-name="macron" unicode="&#xaf;" horiz-adv-x="552" vert-adv-y="2458" 
d="M193 0v1450h164v-1450h-164zM123 1807c30.667 0 57.334 -11.333 80.001 -34c23.333 -23.333 35 -51.666 35 -84.999c0 -32.667 -11.333 -60.334 -34 -83.001c-22 -22 -49 -33 -81 -33c-46 0 -80.333 18.667 -103 56c-11.333 18 -17 38 -17 60c0 32 11.667 59.667 35 83
c25.333 24 53.666 36 84.999 36zM431 1807c31.333 0 58.667 -11.667 82 -35s35 -51.333 35 -84s-11.333 -60 -34 -82c-22 -22.667 -49.667 -34 -83 -34c-44.667 0 -78.334 18.333 -101.001 55c-11.333 18.667 -17 39 -17 61c0 33.333 11.667 61.333 35 84
c24.667 23.333 52.334 35 83.001 35z" />
    <glyph glyph-name="degree" unicode="&#xb0;" horiz-adv-x="674" vert-adv-y="2458" 
d="M335 1323c-47.333 0 -86.667 -17.334 -118 -52.001c-26.667 -29.333 -40 -63.666 -40 -102.999c0 -47.333 17.333 -86.333 52 -117c29.333 -26.667 64 -40 104 -40c46 0 84.667 17 116 51c26.667 30 40 65 40 105c0 45.333 -17.333 84 -52 116
c-29.333 26.667 -63.333 40 -102 40zM341.999 1462c84 0 155.999 -32.667 215.999 -98c50.667 -56.667 76 -123 76 -199c0 -88 -32.667 -161.333 -98 -220c-57.333 -51.333 -123.666 -77 -198.999 -77c-88 0 -161.667 32.667 -221 98c-50.667 56.667 -76 123.667 -76 201
c0 85.333 33 158 99 218c55.333 51.333 123 77 203 77z" />
    <glyph glyph-name="plusminus" unicode="&#xb1;" horiz-adv-x="1106" vert-adv-y="2458" 
d="M632 926h392v-158h-392v-352h-158v352h-392v158h392v364h158v-364zM82 164v158h942v-158h-942z" />
    <glyph glyph-name="twosuperior" unicode="&#xb2;" horiz-adv-x="552" vert-adv-y="2458" 
d="M194 0v1450h164v-1450h-164z" />
    <glyph glyph-name="threesuperior" unicode="&#xb3;" horiz-adv-x="512" vert-adv-y="2458" 
d="M335 1159v-1159h-157v1133zM256 1476c30 0 55.6689 -10.668 77.002 -32.001s32 -47 32 -77s-10.333 -55.333 -31 -76c-21.333 -21.333 -47.333 -32 -78 -32c-40.667 0 -71.334 17 -92.001 51c-10.667 16.667 -16 35.334 -16 56.001c0 32 10.667 58.333 32 79
s46.666 31 75.999 31z" />
    <glyph glyph-name="acute" unicode="&#xb4;" horiz-adv-x="1008" vert-adv-y="2458" 
d="M164 0v1138h687v137l157 27v-314h-687v-988h-157z" />
    <glyph glyph-name="mu" unicode="&#xb5;" horiz-adv-x="1406" vert-adv-y="2458" 
d="M1086 213c-44.667 -58.667 -88.668 -104 -132.001 -136c-95.333 -70 -213.666 -105 -354.999 -105c-103.333 0 -182.666 19.333 -237.999 58c-12 8.66699 -25.333 19.334 -40 32.001v-425l-157 -26v1522l157 26v-663c0 -87.333 3.66699 -146 11 -176
c16 -64.667 45 -113.334 87 -146.001c46.667 -35.333 113 -53 199 -53c128 0 235.333 41.667 322 125c69.333 66 113.666 145.333 132.999 238c8.66699 40 13 95.333 13 166v483l157 26v-1159l-157 -26v239z" />
    <glyph glyph-name="paragraph" unicode="&#xb6;" horiz-adv-x="1024" vert-adv-y="2458" 
d="M976 1450l-34 -164h-77v-1662l-156 -13v1675h-143v-1682l-156 -14v1166c-55.333 6 -97.333 14 -126 24c-73.333 26 -130 67 -170 123c-39.333 56.667 -59 123 -59 199c0 97.333 31.333 177.333 94 240c72 72 171 108 297 108h530z" />
    <glyph glyph-name="middot" unicode="&#xb7;" horiz-adv-x="588" vert-adv-y="2458" 
d="M295 823c28 0 52.333 -10.334 73 -31.001c20.667 -20 31 -44.667 31 -74c0 -28.667 -10 -53 -30 -73c-21.333 -20.667 -46.333 -31 -75 -31c-38 0 -67.333 16.667 -88 50c-10.667 16.667 -16 34.667 -16 54c0 28.667 10.667 53.334 32 74.001c20.667 20.667 45 31 73 31z
" />
    <glyph glyph-name="cedilla" unicode="&#xb8;" horiz-adv-x="1286" vert-adv-y="2458" 
d="M1142 305l-9.00098 -185.001c-74 -42.667 -131.667 -72.667 -173 -90c-92 -38 -187 -57 -285 -57c-174.667 0 -317 54.333 -427 163s-165 250.334 -165 425.001c0 172 54.667 314.333 164 427c54.667 56.667 119.334 100.667 194.001 132c75.333 32 154.333 48 237 48
c146.667 0 269.334 -46 368.001 -138c104.667 -98 157 -222 157 -372c0 -27.333 -1.66699 -63.333 -5 -108l-944 -61c10 -60 27.667 -112.667 53 -158c32.667 -59.333 78 -107 136 -143c69.333 -43.333 146.666 -65 231.999 -65c96 0 197.333 27.333 304 82
c38.667 20 93 53.333 163 100zM1039 679.999c-3.33301 54.667 -15.667 104.333 -37 149c-30 63.333 -76.667 112.333 -140 147c-54 29.333 -114.667 44 -182 44c-106.667 0 -200.667 -33.333 -282 -100c-82 -66.667 -130.667 -164 -146 -292zM405.998 1543
c29.333 0 55 -10.667 77 -32c22 -22.667 33 -49.667 33 -81c0 -32 -10.667 -58.667 -32 -80c-21.333 -20.667 -47.333 -31 -78 -31c-44 0 -76.667 17.667 -98 53c-10.667 18 -16 37 -16 57c0 31.333 11.333 58 34 80c23.333 22.667 50 34 80 34zM925.998 1543
c29.333 0 55.333 -11 78 -33c22 -22.667 33 -49.334 33 -80.001c0 -31.333 -10.667 -57.666 -32 -78.999s-48 -32 -80 -32c-42 0 -73.667 17.667 -95 53c-11.333 18 -17 37.333 -17 58c0 31.333 11.333 58 34 80s49 33 79 33z" />
    <glyph glyph-name="onesuperior" unicode="&#xb9;" horiz-adv-x="2864" vert-adv-y="2458" 
d="M194 0v1502l1044 -1142v1090h164v-1505l-1044 1147v-1092h-164zM2165 1477c170.667 0 313.334 -57 428 -171c54.667 -53.333 97.334 -116.666 128 -189.999c31.333 -76 47 -154.667 47 -236c0 -114.667 -29.667 -220.667 -89 -318
c-56.667 -92 -132.667 -162.667 -228 -212c-87.333 -44.667 -183 -67 -287 -67c-173.333 0 -317.666 57.667 -432.999 173c-53.333 53.333 -95.333 116 -126 188c-31.333 75.333 -47 151.666 -47 228.999c0 119.333 29.333 227.666 88 324.999
c55.333 90.667 131.666 161.334 228.999 212.001c87.333 44.667 184 67 290 67zM2163 1327c-112.667 0 -209.665 -34.001 -290.998 -102.001c-60.667 -50.667 -104.334 -113.667 -131.001 -189c-17.333 -48.667 -26 -98.667 -26 -150c0 -146 52.333 -263 157 -351
c81.333 -68 178.666 -102 291.999 -102c112 0 208.667 34 290 102c104.667 88 157 203 157 345c0 88 -22 168 -66 240c-48 78.667 -115.667 136.334 -203 173.001c-54.667 22.667 -114.334 34 -179 34zM1643 -0.000976562v158h1051v-158h-1051z" />
    <glyph glyph-name="ordmasculine" unicode="&#xba;" horiz-adv-x="1198" vert-adv-y="2458" 
d="M242 533c6.66699 -86 32.6699 -162 78.0029 -228c85.333 -122 206.666 -183 363.999 -183c100.667 0 199 24.333 295 73c36 18 86.667 48.333 152 91l-28 -188c-59.333 -38 -112 -64.667 -158 -80c-89.333 -30.667 -178.666 -46 -267.999 -46
c-167.333 0 -307.333 55.333 -420 166c-116 114 -174 255.667 -174 425c0 172.667 59.333 317 178 433c117.333 114.667 267.666 172 450.999 172c135.333 0 271.666 -34.667 408.999 -104l-26 -157c-66.667 34 -121.334 58.333 -164.001 73
c-74.667 25.333 -149.334 38 -224.001 38c-101.333 0 -189.666 -24 -264.999 -72c-94 -60 -156.667 -147.667 -188 -263h718v-150h-730z" />
    <glyph glyph-name="guillemotright" unicode="&#xbb;" horiz-adv-x="896" vert-adv-y="2458" 
d="M814 655l-252 -311l-114 91l183 220l-183 220l114 91zM427 655l-225 -278l-120 81l159 197l-159 198l120 80z" />
    <glyph glyph-name="onequarter" unicode="&#xbc;" horiz-adv-x="512" vert-adv-y="2458" 
d="M335 1159v-1522l-157 -26v1522zM256 1476c30 0 55.6689 -10.667 77.002 -32s32 -47 32 -77s-10.333 -55.333 -31 -76c-21.333 -21.333 -47.333 -32 -78 -32c-40.667 0 -71.334 17 -92.001 51c-10.667 17.333 -16 36 -16 56c0 32 10.667 58.333 32 79s46.666 31 75.999 31
z" />
    <glyph glyph-name="onehalf" unicode="&#xbd;" horiz-adv-x="1110" vert-adv-y="2458" 
d="M98 259c80 -44 142.997 -74.666 188.997 -91.999c78 -30 156.667 -45 236 -45c102.667 0 182.334 24 239.001 72c62.667 53.333 94 119 94 197c0 68 -26.333 125.333 -79 172c-26 22.667 -78 53.334 -156 92.001l-187 93c-103.333 50.667 -178.333 100.334 -225 149.001
c-54 56 -81 124.667 -81 206c0 97.333 34.333 180.666 103 249.999c82 83.333 195.667 125 341 125c114 0 234.667 -29.667 362 -89l-9 -177c-57.333 30.667 -101.666 52.667 -132.999 66c-78.667 33.333 -157 50 -235 50c-69.333 0 -127.666 -14.667 -174.999 -44
c-64.667 -40.667 -97 -97.334 -97 -170.001c0 -58.667 28.333 -110.667 85 -156c30 -24 79 -52.333 147 -85l208 -99c103.333 -49.333 177.666 -105 222.999 -167c42.667 -58.667 64 -127.334 64 -206.001c0 -116.667 -39.333 -214 -118 -292
c-91.333 -91.333 -219.666 -137 -384.999 -137c-128.667 0 -258 29 -388 87z" />
    <glyph glyph-name="threequarters" unicode="&#xbe;" horiz-adv-x="1016" vert-adv-y="2458" 
d="M108 243c145.333 -80.667 278.33 -121.002 398.997 -121.002c100 0 174.333 22.667 223 68c26.667 24.667 40 58 40 100c0 44 -15 79.333 -45 106c-33.333 30.667 -89.666 62.334 -168.999 95.001l-161 67c-111.333 46 -185.666 90 -222.999 132
c-39.333 44.667 -59 97.334 -59 158.001c0 86 34.667 158 104 216c82 69.333 189.333 104 322 104c92 0 194 -21.667 306 -65l-3 -173c-67.333 33.333 -121 55.333 -161 66c-50.667 14 -102 21 -154 21c-102 0 -177 -25 -225 -75c-21.333 -22.667 -32 -50 -32 -82
c0 -44 23 -80.667 69 -110c29.333 -18.667 75 -40 137 -64l161 -64c87.333 -34 154 -72.333 200 -115c60 -54 90 -126 90 -216c0 -92 -32.667 -165 -98 -219c-80 -66.667 -190.667 -100 -332 -100c-119.333 0 -240.666 30.667 -363.999 92z" />
    <glyph glyph-name="questiondown" unicode="&#xbf;" horiz-adv-x="512" vert-adv-y="2458" 
d="M334 1159v-1159h-157v1133zM114 1543c29.333 0 55 -10.667 77 -32c22 -22.667 33 -49.667 33 -81c0 -32 -10.667 -58.667 -32 -80c-21.333 -20.667 -47.333 -31 -78 -31c-44 0 -76.667 17.667 -98 53c-10.667 17.333 -16 36.333 -16 57c-0 31.333 11.333 58 34 80
c23.333 22.667 50 34 80 34zM401 1543c29.333 0 55.333 -10.999 78 -32.999c22 -22.667 33 -49.334 33 -80.001c0 -31.333 -10.667 -57.666 -32 -78.999s-48 -32 -80 -32c-42 0 -74 17.667 -96 53c-10.667 17.333 -16 36.666 -16 57.999c0 31.333 11.333 58 34 80
s49 33 79 33z" />
    <glyph glyph-name="Agrave" unicode="&#xc0;" horiz-adv-x="1380" vert-adv-y="2458" 
d="M157 0h-177l724 1501l697 -1501h-174l-137 300h-792zM366 450h658l-320 730z" />
    <glyph glyph-name="Aacute" unicode="&#xc1;" horiz-adv-x="1210" vert-adv-y="2458" 
d="M358 826l235 -0.00195312c130.667 0 228.334 -12.667 293.001 -38c83.333 -32 148 -84 194 -156c42 -65.333 63 -140.666 63 -225.999c0 -95.333 -27.333 -177.666 -82 -246.999c-58.667 -74 -139.334 -121.333 -242.001 -142c-54.667 -11.333 -132 -17 -232 -17h-393
v1450h844v-150h-680v-474zM358 675.998v-526.001h274c65.333 0 118 4.33301 158 13s74.333 23.667 103 45c62 44 93 112 93 204c0 86.667 -30 153.334 -90 200.001c-34 26 -69.667 42.667 -107 50c-44.667 9.33301 -97 14 -157 14h-274z" />
    <glyph glyph-name="Acircumflex" unicode="&#xc2;" horiz-adv-x="1260" vert-adv-y="2458" 
d="M194 0l0.000976562 1450h410c162.667 0 283.334 -26.667 362.001 -80c50 -33.333 87.667 -78.666 113 -135.999c20.667 -46 31 -96.667 31 -152c0 -98 -31.667 -178.333 -95 -241c-28.667 -28 -72.334 -54.667 -131.001 -80c56 -21.333 99.667 -44.333 131 -69
c85.333 -67.333 128 -161.666 128 -282.999c0 -98 -27.333 -181.333 -82 -250c-58.667 -74 -139.334 -121.333 -242.001 -142c-54.667 -11.333 -132 -17 -232 -17h-393zM358.001 1300v-467h235c110.667 0 191.667 13.333 243 40c78 40.667 117 109.667 117 207
c0 88 -35 148.667 -105 182c-52.667 25.333 -137.667 38 -255 38h-235zM358.001 682.998v-533h274c65.333 0 118 4.33301 158 13s74.333 23.667 103 45c62 44 93 112 93 204c0 91.333 -30 160.333 -90 207c-34 26 -69.667 42.667 -107 50c-44.667 9.33301 -97 14 -157 14
h-274z" />
    <glyph glyph-name="Atilde" unicode="&#xc3;" horiz-adv-x="1038" vert-adv-y="2458" 
d="M358 0h-164v1450h844v-150h-680v-1300z" />
    <glyph glyph-name="Adieresis" unicode="&#xc4;" horiz-adv-x="1420" vert-adv-y="2458" 
d="M41 -389v539c92.667 24 153.667 52.667 183 86c30 32.667 49 75.667 57 129c4 22 6 110 6 264v821h928v-1300h82v-513l-164 -26v389h-928v-363zM328 150l723 0.000976562v1150h-600v-850c0 -84 -9.66699 -149.333 -29 -196c-16 -36.667 -47.333 -71.334 -94 -104.001z
" />
    <glyph glyph-name="Aring" unicode="&#xc5;" horiz-adv-x="1174" vert-adv-y="2458" 
d="M194 0v1450h844v-150h-680v-474h596v-150h-596v-526h690v-150h-854z" />
    <glyph glyph-name="AE" unicode="&#xc6;" horiz-adv-x="2235" vert-adv-y="2458" 
d="M1200 0h-164v709l-849 -709h-220l888 747l-818 703h218l781 -679v679h164v-679l781 679h218l-818 -703l888 -747h-220l-849 709v-709z" />
    <glyph glyph-name="Ccedilla" unicode="&#xc7;" horiz-adv-x="1163" vert-adv-y="2458" 
d="M179 319c44 -50.667 83.001 -88.667 117.001 -114c72 -54.667 160 -82 264 -82c87.333 0 159.666 21 216.999 63c79.333 58.667 119 135.667 119 231c0 68.667 -23.333 126 -70 172c-42 41.333 -101.667 68.333 -179 81c-42 7.33301 -98.333 11 -169 11h-76v150h76
c92 0 161.333 8 208 24c66 22.667 113.333 58 142 106c21.333 35.333 32 74 32 116c0 79.333 -32.667 143.666 -98 192.999c-50.667 38.667 -113.667 58 -189 58c-98 0 -187 -34.667 -267 -104c-23.333 -20.667 -54.333 -52.667 -93 -96l-110 99
c53.333 62 103.333 110 150 144c96 71.333 202.667 107 320 107c136 0 246 -42.667 330 -128c35.333 -36 63.333 -78.333 84 -127c20 -48 30 -96 30 -144c0 -90.667 -29 -167 -87 -229c-24.667 -26.667 -63.667 -54 -117 -82c60 -28 104.333 -56.333 133 -85
c71.333 -70 107 -160 107 -270c0 -115.333 -40.667 -214.666 -122 -297.999c-92 -94.667 -216.333 -142 -373 -142c-154.667 0 -287 47.333 -397 142c-26.667 22.667 -57.667 53 -93 91z" />
    <glyph glyph-name="Egrave" unicode="&#xc8;" horiz-adv-x="1596" vert-adv-y="2458" 
d="M1402 0h-164v1092l-1044 -1147v1505h164v-1090l1044 1142v-1502z" />
    <glyph glyph-name="Eacute" unicode="&#xc9;" horiz-adv-x="1596" vert-adv-y="2458" 
d="M1402 0h-164v1092l-1044 -1147v1505h164v-1090l1044 1142v-1502zM1203 1753c-44 -40 -80 -68.333 -108 -85c-79.333 -46.667 -170 -70 -272 -70c-110 0 -206 27 -288 81c-22.667 15.333 -53 40 -91 74l93 111c45.333 -34 82.333 -58 111 -72
c58.667 -27.333 117 -41 175 -41c66 0 130.667 17 194 51c22.667 12 53.667 32.667 93 62z" />
    <glyph glyph-name="Ecircumflex" unicode="&#xca;" horiz-adv-x="1393" vert-adv-y="2458" 
d="M194 0v1450h164v-679l781 679h218l-818 -703l888 -747h-220l-849 709v-709h-164z" />
    <glyph glyph-name="Edieresis" unicode="&#xcb;" horiz-adv-x="1423" vert-adv-y="2458" 
d="M0 116c97.333 42.667 161 82.999 191 120.999c34.667 41.333 56 93 64 155c2.66699 12.667 4 89.667 4 231v827h970v-1450h-164v1300h-642v-796c-0.666992 -136 -17.334 -235.667 -50.001 -299c-40 -81.333 -106.667 -145.666 -200 -192.999
c-9.33301 -5.33301 -37.666 -18.333 -84.999 -39z" />
    <glyph glyph-name="Igrave" unicode="&#xcc;" horiz-adv-x="1711" vert-adv-y="2458" 
d="M26 0l320 1502l511 -1189l510 1189l318 -1502h-164l-207 997l-456 -1052l-462 1052l-206 -997h-164z" />
    <glyph glyph-name="Iacute" unicode="&#xcd;" horiz-adv-x="1582" vert-adv-y="2458" 
d="M194 0v1450h164v-617h866v617h164v-1450h-164v683h-866v-683h-164z" />
    <glyph glyph-name="Icircumflex" unicode="&#xce;" horiz-adv-x="1629" vert-adv-y="2458" 
d="M821 1478c200.667 0 369.667 -71.665 507 -214.998c138.667 -144.667 208 -322.334 208 -533.001c0 -214 -69.333 -393.333 -208 -538c-140.667 -146 -312 -219 -514 -219c-200 0 -370 72.333 -510 217c-140 145.333 -210 322.333 -210 531
c0 183.333 49 339.666 147 468.999c146 192 339.333 288 580 288zM813 1328c-172 0 -311.667 -62.333 -419 -187c-95.333 -110.667 -143 -246.334 -143 -407.001c0 -171.333 48 -312.666 144 -423.999c107.333 -124.667 247 -187 419 -187c170.667 0 309.667 62 417 186
c98.667 114 148 252.667 148 416c0 165.333 -49 304.333 -147 417c-108 124 -247.667 186 -419 186z" />
    <glyph glyph-name="Idieresis" unicode="&#xcf;" horiz-adv-x="1582" vert-adv-y="2458" 
d="M194 0v1450h1194v-1450h-164v1300h-866v-1300h-164z" />
    <glyph glyph-name="Eth" unicode="&#xd0;" horiz-adv-x="1217" vert-adv-y="2458" 
d="M194 0l-0.000976562 1450h336c132.667 0 232.334 -9.66699 299.001 -29c113.333 -32.667 198.666 -92.667 255.999 -180c45.333 -68 68 -144.667 68 -230c0 -65.333 -13.5 -127.166 -40.5 -185.499s-64.5 -107.5 -112.5 -147.5
c-59.333 -49.333 -126.666 -81.333 -201.999 -96c-73.333 -14.667 -154.333 -22 -243 -22h-197v-560h-164zM357.999 1300v-590.001h137c112 0 190 3.33301 234 10c100.667 16 172.667 55 216 117c34 48 51 104 51 168c0 77.333 -24 142.333 -72 195s-126 84.334 -234 95.001
c-36.667 3.33301 -101.667 5 -195 5h-137z" />
    <glyph glyph-name="Ntilde" unicode="&#xd1;" horiz-adv-x="1359" vert-adv-y="2458" 
d="M1261 114c-60 -40 -111.667 -68.668 -155 -86.001c-90.667 -36.667 -185 -55 -283 -55c-192.667 0 -358.334 65 -497.001 195c-78.667 74 -138 162 -178 264c-36 90.667 -54 186.667 -54 288c0 151.333 38.333 289 115 413c72 116.667 168 205.334 288 266.001
c102.667 52 213.334 78 332.001 78c104.667 0 203.334 -20.667 296.001 -62c34.667 -15.333 78.667 -40.333 132 -75l-26 -173c-54 45.333 -102.333 78.333 -145 99c-84.667 40.667 -172.667 61 -264 61c-139.333 0 -261.666 -45.667 -366.999 -137
c-136 -118.667 -204 -275.334 -204 -470.001c0 -192 67.333 -346 202 -462c105.333 -90 227.666 -135 366.999 -135c110 0 213.667 29 311 87c37.333 22.667 85.666 61.334 144.999 116.001z" />
    <glyph glyph-name="Ograve" unicode="&#xd2;" horiz-adv-x="1255" vert-adv-y="2458" 
d="M710 1300v-1300h-164v1300h-532v150h1227v-150h-531z" />
    <glyph glyph-name="Oacute" unicode="&#xd3;" horiz-adv-x="1313" vert-adv-y="2458" 
d="M425 -27l186 362l-638 1115h191l529 -952l457 952h191l-739 -1450z" />
    <glyph glyph-name="Ocircumflex" unicode="&#xd4;" horiz-adv-x="1606" vert-adv-y="2458" 
d="M721 140c-128 12.667 -240.667 47.668 -338 105.001c-96.667 57.333 -171 127.666 -223 210.999s-78 174.666 -78 273.999c0 108 31.667 206 95 294c120 164.667 301.333 259 544 283v143h164v-142c129.333 -10.667 243.333 -45 342 -103
c94.667 -56 167.667 -125 219 -207c52 -82 78 -172 78 -270c0 -131.333 -45.667 -248 -137 -350c-122.667 -137.333 -290 -216.666 -502 -237.999v-140h-164v140zM721 1171c-114.667 -14 -208.001 -45.332 -280.001 -93.999c-134.667 -90 -202 -207.667 -202 -353
c0 -94.667 30 -178.334 90 -251.001c92.667 -114 223.334 -179.333 392.001 -196v894zM884.999 1170v-893.001c109.333 13.333 201 44.333 275 93c68 44.667 120.333 99.667 157 165c33.333 60.667 50 123.667 50 189c0 90.667 -31 174.334 -93 251.001
c-88 109.333 -217.667 174.333 -389 195z" />
    <glyph glyph-name="Otilde" unicode="&#xd5;" horiz-adv-x="1385" vert-adv-y="2458" 
d="M172 0h-191l592 762l-572 688h192l476 -573l440 573h191l-535 -683l639 -767h-191l-541 646z" />
    <glyph glyph-name="Odieresis" unicode="&#xd6;" horiz-adv-x="1593" vert-adv-y="2458" 
d="M194 0v1450h164v-1300h866v1300h164v-1300h82v-513l-164 -26v389h-1112z" />
    <glyph glyph-name="multiply" unicode="&#xd7;" horiz-adv-x="1483" vert-adv-y="2458" 
d="M1126 0l-0.000976562 669c-144.667 -18 -273 -27 -385 -27c-175.333 0 -307.666 21.333 -396.999 64c-114.667 54 -188.667 137 -222 249c-17.333 58.667 -26 150 -26 274v221h162v-219c0 -101.333 5.66699 -172 17 -212c20 -72.667 61.667 -127 125 -163
c68.667 -38 185 -57 349 -57c134 0 259.667 10.333 377 31v620h164v-1450h-164z" />
    <glyph glyph-name="Oslash" unicode="&#xd8;" horiz-adv-x="2530" vert-adv-y="2458" 
d="M194 0v1450h164v-1300h825v1300h164v-1300h825v1300h164v-1450h-2142z" />
    <glyph glyph-name="Ugrave" unicode="&#xd9;" horiz-adv-x="2541" vert-adv-y="2458" 
d="M194 0v1450h164v-1300h825v1300h164v-1300h825v1300h164v-1300h82v-513l-164 -26v389h-2060z" />
    <glyph glyph-name="Uacute" unicode="&#xda;" horiz-adv-x="1464" vert-adv-y="2458" 
d="M615 826l235 -0.00195312c130.667 0 228.334 -12.667 293.001 -38c83.333 -32 148 -84 194 -156c42 -65.333 63 -140.666 63 -225.999c0 -95.333 -27.333 -177.666 -82 -246.999c-58.667 -74 -139.334 -121.333 -242.001 -142c-54.667 -11.333 -132 -17 -232 -17h-393
v1300h-478v150h642v-624zM615 675.998v-526.001h274c90 0 157 8.33301 201 25c102 38.667 153 117.667 153 237c0 86.667 -30 153.334 -90 200.001c-34 26 -69.667 42.667 -107 50c-44.667 9.33301 -97 14 -157 14h-274z" />
    <glyph glyph-name="Ucircumflex" unicode="&#xdb;" horiz-adv-x="1621" vert-adv-y="2458" 
d="M358 826l235 -0.00195312c130.667 0 228.334 -12.667 293.001 -38c83.333 -32 148 -84 194 -156c42 -65.333 63 -140.666 63 -225.999c0 -95.333 -27.333 -177.666 -82 -246.999c-58.667 -74 -139.334 -121.333 -242.001 -142c-54.667 -11.333 -132 -17 -232 -17h-393
v1450h164v-624zM358 675.998v-526.001h274c65.333 0 118 4.33301 158 13s74.333 23.667 103 45c62 44 93 112 93 204c0 86.667 -30 153.334 -90 200.001c-34 26 -69.667 42.667 -107 50c-44.667 9.33301 -97 14 -157 14h-274zM1263 -0.00292969v1450h164v-1450h-164z" />
    <glyph glyph-name="Udieresis" unicode="&#xdc;" horiz-adv-x="1207" vert-adv-y="2458" 
d="M358 826l235 -0.00195312c130.667 0 228.334 -12.667 293.001 -38c83.333 -32 148 -84 194 -156c42 -65.333 63 -140.666 63 -225.999c0 -95.333 -27.333 -177.666 -82 -246.999c-58.667 -74 -139.334 -121.333 -242.001 -142c-54.667 -11.333 -132 -17 -232 -17h-393
v1450h164v-624zM358 675.998v-526.001h274c65.333 0 118 4.33301 158 13s74.333 23.667 103 45c62 44 93 112 93 204c0 86.667 -30 153.334 -90 200.001c-34 26 -69.667 42.667 -107 50c-44.667 9.33301 -97 14 -157 14h-274z" />
    <glyph glyph-name="Yacute" unicode="&#xdd;" horiz-adv-x="1364" vert-adv-y="2458" 
d="M1111 676l-810.003 -0.00195312v150h804c-18 111.333 -58 206.333 -120 285c-56.667 70.667 -124.667 125 -204 163c-74.667 35.333 -154.667 53 -240 53c-101.333 0 -197.666 -24.667 -288.999 -74c-35.333 -19.333 -81.666 -53 -138.999 -101l15 200
c126.667 83.333 262.334 125 407.001 125c200.667 0 371 -69 511 -207c69.333 -68.667 123.333 -149 162 -241c41.333 -97.333 62 -200.333 62 -309c0 -147.333 -37 -281.666 -111 -402.999c-78.667 -128 -186.667 -222.333 -324 -283
c-93.333 -40.667 -191.333 -61 -294 -61c-108.667 0 -211.667 22 -309 66c-37.333 16.667 -85 45.334 -143 86.001l14 189c60 -56 114 -96.667 162 -122c88.667 -46 182 -69 280 -69c111.333 0 213.333 30 306 90c162 106 248.667 260.333 260 463z" />
    <glyph glyph-name="Thorn" unicode="&#xde;" horiz-adv-x="2006" vert-adv-y="2458" 
d="M473 683h-115.001v-683h-164v1450h164v-617h119c12 100 41.333 191.667 88 275c64 113.333 147.333 202.333 250 267c110 68.667 237 103 381 103c202.667 0 372.334 -71.667 509.001 -215c138.667 -144.667 208 -322.334 208 -533.001
c0 -213.333 -69.333 -392.666 -208 -537.999c-140 -146 -311.333 -219 -514 -219c-156.667 0 -297 46.667 -421 140c-183.333 137.333 -282.333 327.333 -297 570zM1190 1328c-172 0 -311.667 -62.333 -419 -187c-95.333 -110.667 -143 -246.334 -143 -407.001
c0 -171.333 48 -312.666 144 -423.999c107.333 -124.667 247 -187 419 -187c170.667 0 309.667 62 417 186c98.667 114 148 253 148 417c0 165.333 -49 304 -147 416c-108 124 -247.667 186 -419 186z" />
    <glyph glyph-name="germandbls" unicode="&#xdf;" horiz-adv-x="1324" vert-adv-y="2458" 
d="M1130 0h-163.999v593h-298l-446 -593h-202l487 615c-70 18 -127.333 43 -172 75c-50 36 -89.333 81.333 -118 136c-30.667 58.667 -46 123 -46 193c0 111.333 36.667 205.333 110 282c65.333 68.667 150.666 112.667 255.999 132c60 11.333 154.667 17 284 17h309v-1450z
M966.001 1300h-194.001c-145.333 0 -245.666 -13.333 -300.999 -40c-42.667 -20.667 -76.334 -50 -101.001 -88c-28 -44 -42 -94.333 -42 -151c0 -74 23.333 -135.667 70 -185c40.667 -44 101.334 -71.667 182.001 -83c44.667 -6.66699 108.667 -10 192 -10h194v557z" />
    <glyph glyph-name="agrave" unicode="&#xe0;" horiz-adv-x="1396" vert-adv-y="2458" 
d="M1245 0l-162 -25.998c-8.66699 34.667 -14.667 65.667 -18 93c-74.667 -30.667 -131.667 -52 -171 -64c-68.667 -20 -143 -30 -223 -30c-124 0 -226.333 23.667 -307 71c-86.667 51.333 -155.334 122.666 -206.001 213.999c-50.667 90.667 -76 189.667 -76 297
c0 179.333 65.333 328.666 196 447.999c120 110 271 165 453 165c84.667 0 195.334 -13.667 332.001 -41l155 32v-909c2.66699 -108 11.667 -191.333 27 -250zM1060 217.002l0.000976562 758.999c-122 28 -223.667 42 -305 42c-106.667 0 -191.334 -15 -254.001 -45
c-85.333 -40 -151.333 -99.333 -198 -178c-42.667 -71.333 -64 -150.666 -64 -237.999c0 -134 45.333 -243.667 136 -329c74.667 -70 177 -105 307 -105c88 0 170.333 13.667 247 41c27.333 9.33301 71 27 131 53z" />
    <glyph glyph-name="aacute" unicode="&#xe1;" horiz-adv-x="1377" vert-adv-y="2458" 
d="M688 1017c-112.667 0 -209.664 -34.001 -290.997 -102.001c-60.667 -50.667 -104.334 -113.667 -131.001 -189c-17.333 -48.667 -26 -98.667 -26 -150c0 -146 52.333 -263 157 -351c81.333 -68 178.666 -102 291.999 -102c112 0 208.667 34 290 102
c104.667 88 157 203 157 345c0 88 -22 168 -66 240c-48 78.667 -115.667 136.334 -203 173.001c-54.667 22.667 -114.334 34 -179.001 34zM918.003 1450l173 26c-20 -76 -42.667 -127 -68 -153c-38.667 -38.667 -91.667 -65.334 -159 -80.001
c-40.667 -8.66699 -100 -15.667 -178 -21c-96.667 -6.66699 -161.667 -16 -195 -28c-60.667 -21.333 -112.667 -60 -156 -116c-10.667 -13.333 -27.667 -39.666 -51 -78.999c42 36 80 63.667 114 83c84 48 183 72 297 72c174 0 315 -52.333 423 -157
c54 -52 96.667 -115.667 128 -191c31.333 -76 47 -154.667 47 -236c0 -114.667 -29.667 -220.667 -89 -318c-56.667 -92 -132.667 -162.667 -228 -212c-87.333 -44.667 -183 -67 -287 -67c-137.333 0 -258.666 38 -363.999 114c-117.333 85.333 -191.333 199 -222 341
c-15.333 70 -23 145.667 -23 227c0 132 21.333 250.333 64 355c60.667 150.667 154.667 251 282 301c61.333 24.667 151.333 41 270 49c85.333 6 141.666 15.333 168.999 28c13.333 6 23.5 13 30.5 21s14.5 21.667 22.5 41z" />
    <glyph glyph-name="acircumflex" unicode="&#xe2;" horiz-adv-x="1182" vert-adv-y="2458" 
d="M164 0v1138h421c124.667 0 215 -9 271 -27c144 -45.333 216 -136.666 216 -273.999c0 -72 -24.333 -130.333 -73 -175c-26.667 -24.667 -66 -45.667 -118 -63c146 -38.667 219 -127.667 219 -267c0 -83.333 -26.333 -153.666 -79 -210.999
c-54 -60 -130.667 -97 -230 -111c-44 -6.66699 -118 -10 -222 -10h-405zM321 987.998l0.000976562 -326.002h253c101.333 0 169.666 3.66699 204.999 11c90.667 18.667 136 69.334 136 152.001c0 58.667 -24.333 102 -73 130c-24 14.667 -60 24.334 -108 29.001
c-30 2.66699 -83.333 4 -160 4h-253zM321.001 149.996h290c122 0 206.667 12.667 254 38c52 28 78 76.667 78 146c0 70 -26 119 -78 147c-47.333 25.333 -132 38 -254 38h-290v-369z" />
    <glyph glyph-name="atilde" unicode="&#xe3;" horiz-adv-x="1008" vert-adv-y="2458" 
d="M164 0v1138h844v-150h-687v-988h-157z" />
    <glyph glyph-name="adieresis" unicode="&#xe4;" horiz-adv-x="1311" vert-adv-y="2458" 
d="M14 -389v539c88 18 146.667 40.667 176 68c29.333 26.667 48.333 60.667 57 102c3.33301 17.333 5.33301 86.333 6 207v611h881v-988h81v-513l-157 -26v389h-887v-363zM292 150l685 -0.000976562v838h-567v-601c0 -67.333 -9.33301 -119 -28 -155
c-15.333 -29.333 -45.333 -56.666 -90 -81.999z" />
    <glyph glyph-name="aring" unicode="&#xe5;" horiz-adv-x="1286" vert-adv-y="2458" 
d="M1142 305l-9.00098 -185.001c-74 -42.667 -131.667 -72.667 -173 -90c-92 -38 -187 -57 -285 -57c-174.667 0 -317 54.333 -427 163s-165 250.334 -165 425.001c0 172 54.667 314.333 164 427c54.667 56.667 119.334 100.667 194.001 132c75.333 32 154.333 48 237 48
c146.667 0 269.334 -46 368.001 -138c104.667 -98 157 -222 157 -372c0 -27.333 -1.66699 -63.333 -5 -108l-944 -61c10 -60 27.667 -112.667 53 -158c32.667 -59.333 78 -107 136 -143c69.333 -43.333 146.666 -65 231.999 -65c96 0 197.333 27.333 304 82
c38.667 20 93 53.333 163 100zM1039 679.999c-3.33301 54.667 -15.667 104.333 -37 149c-30 63.333 -76.667 112.333 -140 147c-54 29.333 -114.667 44 -182 44c-106.667 0 -200.667 -33.333 -282 -100c-82 -66.667 -130.667 -164 -146 -292z" />
    <glyph glyph-name="ae" unicode="&#xe6;" horiz-adv-x="2008" vert-adv-y="2458" 
d="M1083 0h-157v587l-722 -587h-231l764 627l-592 511h214l567 -496v496h157v-496l566 496h214l-592 -511l764 -627h-231l-721 587v-587z" />
    <glyph glyph-name="ccedilla" unicode="&#xe7;" horiz-adv-x="1081" vert-adv-y="2458" 
d="M147 277c43.333 -40 81.333 -69.999 114 -89.999c69.333 -42.667 152.666 -64 249.999 -64c114.667 0 203.334 28.667 266.001 86c34 31.333 51 71.333 51 120c0 60.667 -31 109.334 -93 146.001c-56.667 34 -161.667 51 -315 51h-59v144h73
c109.333 0 192.333 8.66699 249 26c74 23.333 111 69 111 137c0 60 -28 106.667 -84 140c-48.667 30 -109.334 45 -182.001 45c-96 0 -182 -27 -258 -81c-22.667 -16.667 -52.667 -42 -90 -76l-106 110c52 49.333 100.333 87.333 145 114c91.333 55.333 193.333 83 306 83
c127.333 0 233 -33.667 317 -101c72.667 -58.667 109 -131.334 109 -218.001c0 -72 -24 -131.667 -72 -179c-25.333 -24.667 -66.333 -48.334 -123 -71.001c57.333 -22 100 -44 128 -66c67.333 -54.667 101 -125.667 101 -213c0 -94 -38.333 -172.667 -115 -236
c-89.333 -74 -209.333 -111 -360 -111c-147.333 0 -273.666 37 -378.999 111c-26.667 18 -56.667 42.333 -90 73z" />
    <glyph glyph-name="egrave" unicode="&#xe8;" horiz-adv-x="1420" vert-adv-y="2458" 
d="M1256 0h-157v840l-935 -881v1179h157v-838l935 879v-1179z" />
    <glyph glyph-name="eacute" unicode="&#xe9;" horiz-adv-x="1420" vert-adv-y="2458" 
d="M1256 0h-157v840l-935 -881v1179h157v-838l935 879v-1179zM1105 1465c-44.667 -39.333 -81 -67.333 -109 -84c-78 -46.667 -168.333 -70 -271 -70c-110 0 -206.333 27 -289 81c-22 14.667 -52.333 39 -91 73l94 112c45.333 -34 82.333 -58 111 -72
c58 -27.333 116.333 -41 175 -41c66 0 130.667 17 194 51c22.667 12 53.667 32.667 93 62z" />
    <glyph glyph-name="ecircumflex" unicode="&#xea;" horiz-adv-x="1246" vert-adv-y="2458" 
d="M321 587v-587h-157v1138h157v-496l567 496h213l-592 -511l765 -627h-232z" />
    <glyph glyph-name="edieresis" unicode="&#xeb;" horiz-adv-x="1399" vert-adv-y="2458" 
d="M0 109c97.333 43.333 161.001 83.666 191.001 120.999c34.667 41.333 56 93 64 155c2.66699 12.667 4 89.667 4 231v522h963v-1138h-157v988h-649v-484c-0.666992 -135.333 -17.334 -235 -50.001 -299c-40 -81.333 -106.667 -145.666 -200 -192.999
c-8.66699 -4.66699 -37 -17.667 -85 -39z" />
    <glyph glyph-name="igrave" unicode="&#xec;" horiz-adv-x="1584" vert-adv-y="2458" 
d="M27 0l295 1182l471 -916l470 916l293 -1182h-164l-178 771l-420 -814l-426 814l-177 -771h-164z" />
    <glyph glyph-name="iacute" unicode="&#xed;" horiz-adv-x="1420" vert-adv-y="2458" 
d="M164 0v1138h157v-455h778v455h157v-1138h-157v533h-778v-533h-157z" />
    <glyph glyph-name="icircumflex" unicode="&#xee;" horiz-adv-x="1377" vert-adv-y="2458" 
d="M690 1168c170.667 0 313.332 -57 427.999 -171c54.667 -54 97.334 -117.667 128.001 -191c31.333 -75.333 47 -154 47 -236c0 -114.667 -29.667 -220.667 -89 -318c-56.667 -92 -132.667 -162.667 -228 -212c-87.333 -44.667 -183 -67 -287 -67
c-173.333 0 -317.666 57.667 -432.999 173c-53.333 53.333 -95.333 116 -126 188c-31.333 75.333 -47 151.666 -47 228.999c0 120 29.333 228.667 88 326c55.333 90.667 131.666 161.334 228.999 212.001c87.333 44.667 184 67 290 67zM687.998 1018
c-112.667 0 -209.664 -34.001 -290.997 -102.001c-60.667 -50.667 -104.334 -113.667 -131.001 -189c-17.333 -49.333 -26 -99.333 -26 -150c0 -146.667 52.333 -264 157 -352c81.333 -68 178.666 -102 291.999 -102c112 0 208.667 34 290 102
c104.667 88 157 203.333 157 346c0 88 -22 168 -66 240c-48 78.667 -115.667 136.334 -203 173.001c-54.667 22.667 -114.334 34 -179.001 34z" />
    <glyph glyph-name="idieresis" unicode="&#xef;" horiz-adv-x="1420" vert-adv-y="2458" 
d="M164 0v1138h1092v-1138h-157v988h-778v-988h-157z" />
    <glyph glyph-name="eth" unicode="&#xf0;" horiz-adv-x="1382" vert-adv-y="2458" 
d="M137 1140l162.001 26.0029c8.66699 -34.667 14.667 -65.667 18 -93c74.667 31.333 131.667 52.666 171 63.999c69.333 20.667 143.666 31 222.999 31c124 0 226.333 -23.667 307 -71c86.667 -50.667 155.334 -122 206.001 -214c50.667 -90.667 76 -189.334 76 -296.001
c0 -180 -65.333 -330.333 -196 -451c-117.333 -108.667 -264.333 -163 -441 -163c-110.667 0 -224.334 18 -341.001 54v-390l-158 -26v1279c-2.66699 107.333 -11.667 190.666 -27 249.999zM322.001 923.003l0.000976562 -746c114 -36 221 -54 321 -54
c136.667 0 248.334 35.333 335.001 106c110 90 165 208 165 354c0 134.667 -45.333 244.667 -136 330c-74.667 70 -175.334 105 -302.001 105c-85.333 0 -169.333 -13.667 -252 -41c-32.667 -10.667 -76.334 -28.667 -131.001 -54z" />
    <glyph glyph-name="ntilde" unicode="&#xf1;" horiz-adv-x="1198" vert-adv-y="2458" 
d="M1102 98c-58.667 -38 -111.33 -64.667 -157.997 -80c-88.667 -30.667 -178 -46 -268 -46c-166.667 0 -306.334 55 -419.001 165c-116 114.667 -174 256.667 -174 426c0 172.667 59.333 317 178 433c118 114.667 268.333 172 451 172
c135.333 0 271.666 -34.667 408.999 -104l-26 -157c-67.333 34 -122.333 58.333 -165 73c-74.667 25.333 -149 38 -223 38c-134 0 -244.333 -41.333 -331 -124c-90.667 -86 -136 -194.667 -136 -326c0 -129.333 43.667 -237 131 -323c83.333 -82 187.666 -123 312.999 -123
c100 0 198.333 24.333 295 73c35.333 17.333 86 47.333 152 90z" />
    <glyph glyph-name="ograve" unicode="&#xf2;" horiz-adv-x="997" vert-adv-y="2458" 
d="M573 988v-988h-150v988h-423v150h997v-150h-424z" />
    <glyph glyph-name="oacute" unicode="&#xf3;" horiz-adv-x="1117" vert-adv-y="2458" 
d="M0 1138h177l390 -946l372 946h178l-613 -1502l-183 -26l164 390z" />
    <glyph glyph-name="ocircumflex" unicode="&#xf4;" horiz-adv-x="1377" vert-adv-y="2458" 
d="M610 -23c-106.667 12.667 -201.333 49.002 -284 109.002c-74.667 54 -133.334 122.667 -176.001 206c-44.667 87.333 -67 180.333 -67 279c0 131.333 38 249.666 114 354.999c96.667 132.667 234.334 211.667 413.001 237v287l157 26v-313
c107.333 -12.667 202.333 -49 285 -109c74 -54 132.333 -122.667 175 -206c44.667 -87.333 67 -180 67 -278c0 -132 -38.333 -251 -115 -357c-98.667 -136.667 -236 -215.334 -412 -236.001v-340l-157 -26v366zM610.001 1011c-58 -9.33301 -111 -28.332 -159 -56.999
c-74 -44.667 -129.667 -106.334 -167 -185.001c-29.333 -60.667 -44 -127 -44 -199c0 -106 31 -198.667 93 -278c70 -90 162.333 -144.333 277 -163v882zM767.001 1011v-881.999c58 9.33301 111 28.666 159 57.999c74 44 129.667 105.333 167 184
c29.333 60.667 44 127 44 199c0 106 -31 198.667 -93 278c-70 90 -162.333 144.333 -277 163z" />
    <glyph glyph-name="otilde" unicode="&#xf5;" horiz-adv-x="1209" vert-adv-y="2458" 
d="M0 0l512 601l-451 537h205l342 -424l347 424h205l-457 -540l506 -598h-205l-393 491l-406 -491h-205z" />
    <glyph glyph-name="odieresis" unicode="&#xf6;" horiz-adv-x="1434" vert-adv-y="2458" 
d="M164 0v1138h157v-988h778v988h157v-988h82v-513l-157 -26v389h-1017z" />
    <glyph glyph-name="divide" unicode="&#xf7;" horiz-adv-x="1339" vert-adv-y="2458" 
d="M1018 0l0.000976562 493.999c-120 -15.333 -228.333 -23 -325 -23c-166.667 0 -290.667 19 -372 57c-106.667 50 -177 130.333 -211 241c-18 58.667 -27 139 -27 241v128h157v-105c0 -97.333 5 -165 15 -203c17.333 -67.333 57 -117.666 119 -150.999
c63.333 -34 171.666 -51 324.999 -51c122 0 228.333 9 319 27v483h157v-1138h-157z" />
    <glyph glyph-name="oslash" unicode="&#xf8;" horiz-adv-x="2355" vert-adv-y="2458" 
d="M164 0v1138h157v-988h778v988h157v-988h779v988h157v-1138h-2028z" />
    <glyph glyph-name="ugrave" unicode="&#xf9;" horiz-adv-x="2369" vert-adv-y="2458" 
d="M164 0v1138h157v-988h778v988h157v-988h779v988h157v-988h81v-513l-157 -26v389h-1952z" />
    <glyph glyph-name="uacute" unicode="&#xfa;" horiz-adv-x="1509" vert-adv-y="2458" 
d="M532 0v988h-546v150h703v-469h253c176 0 298 -19.667 366 -59c106 -61.333 159 -154.333 159 -279c0 -82.667 -26 -152.667 -78 -210c-54 -60 -130.667 -97 -230 -111c-44 -6.66699 -118 -10 -222 -10h-405zM689 150l289.999 0.000976562c90 0 154.333 5 193 15
c92 23.333 138 79.666 138 168.999c0 70 -26 119 -78 147c-47.333 25.333 -131.666 38 -252.999 38h-290v-369z" />
    <glyph glyph-name="ucircumflex" unicode="&#xfb;" horiz-adv-x="1581" vert-adv-y="2458" 
d="M164 0v1138h157v-469h253c176 0 298 -19.667 366 -59c106 -61.333 159 -154.333 159 -279c0 -82.667 -26 -152.667 -78 -210c-54 -60 -130.667 -97 -230 -111c-44 -6.66699 -118 -10 -222 -10h-405zM321 150l289.999 0.000976562c90 0 154.333 5 193 15
c92 23.333 138 79.666 138 168.999c0 70 -26 119 -78 147c-47.333 25.333 -131.666 38 -252.999 38h-290v-369zM1417 1138v-1138h-157v1138h157z" />
    <glyph glyph-name="udieresis" unicode="&#xfc;" horiz-adv-x="1140" vert-adv-y="2458" 
d="M164 0v1138h157v-469h253c176 0 298 -19.667 366 -59c106 -61.333 159 -154.333 159 -279c0 -82.667 -26 -152.667 -78 -210c-54 -60 -130.667 -97 -230 -111c-44 -6.66699 -118 -10 -222 -10h-405zM321 150l289.999 0.000976562c90 0 154.333 5 193 15
c92 23.333 138 79.666 138 168.999c0 70 -26 119 -78 147c-47.333 25.333 -131.666 38 -252.999 38h-290v-369z" />
    <glyph glyph-name="yacute" unicode="&#xfd;" horiz-adv-x="1193" vert-adv-y="2458" 
d="M952 533l-733 -0.000976562v150h720c-15.333 57.333 -38 107.333 -68 150c-88.667 123.333 -217 185 -385 185c-111.333 0 -236 -34.667 -374 -104l14 177c120 51.333 238 77 354 77c184 0 334.667 -57.333 452 -172c118.667 -116 178 -260.333 178 -433
c0 -169.333 -58 -311 -174 -425c-112 -110.667 -251.667 -166 -419 -166c-101.333 0 -199.666 18.333 -294.999 55c-40.667 16 -92.334 45.333 -155.001 88l11 161c70 -45.333 126.333 -77.666 169 -96.999c84.667 -38 172 -57 262 -57c93.333 0 175.333 23 246 69
c119.333 77.333 185 191.333 197 342z" />
    <glyph glyph-name="thorn" unicode="&#xfe;" horiz-adv-x="1707" vert-adv-y="2458" 
d="M415 533l-94 0.000976562v-533h-157v1138h157v-455h103c17.333 90.667 52 171.667 104 243c53.333 74.667 121 133 203 175c87.333 44.667 183.333 67 288 67c172.667 0 316 -57 430 -171c54.667 -54 97.334 -117.333 128.001 -190c31.333 -76 47 -154.667 47 -236
c0 -114.667 -29.667 -221 -89 -319c-56.667 -92 -132.667 -162.667 -228 -212c-87.333 -44.667 -183 -67 -287 -67c-138 0 -259.333 38 -364 114c-110 79.333 -183.667 186.666 -221 321.999c-10.667 40 -17.334 81.333 -20.001 124zM1019 1018
c-112.667 0 -209.664 -34.001 -290.997 -102.001c-60.667 -50.667 -104.334 -113.667 -131.001 -189c-17.333 -49.333 -26 -99.333 -26 -150c0 -146.667 52.333 -264 157 -352c81.333 -68 178.666 -102 291.999 -102c112 0 208.667 34 290 102
c104.667 88 157 203.333 157 346c0 88 -22 168 -66 240c-48 78.667 -115.667 136.334 -203 173.001c-54.667 22.667 -114.334 34 -179.001 34z" />
    <glyph glyph-name="ydieresis" unicode="&#xff;" horiz-adv-x="1257" vert-adv-y="2458" 
d="M1093 0h-157.001v469h-267l-432 -469h-210l467 484c-66 8.66699 -120.667 23 -164 43c-57.333 27.333 -100.666 66.333 -129.999 117c-28.667 48.667 -43 102.667 -43 162c0 98 35 177 105 237c60 51.333 144.333 81.333 253 90c34 3.33301 127.667 5 281 5h297v-1138z
M934.999 619v369h-290c-121.333 0 -205.666 -12.667 -252.999 -38c-52 -28 -78 -77 -78 -147c0 -69.333 26 -118 78 -146c47.333 -25.333 131.666 -38 252.999 -38h290z" />
    <glyph glyph-name="OE" unicode="&#x152;" horiz-adv-x="2237" vert-adv-y="2458" 
d="M1388 676v-526.001h274c90 0 157 8.33301 201 25c102 38.667 153 117.667 153 237c0 86.667 -30 153.334 -90 200.001c-34 26 -69.667 42.667 -107 50c-44.667 9.33301 -97 14 -157 14h-274zM1224 825.999v623.998h164v-624h235c130.667 0 228.334 -12.667 293.001 -38
c83.333 -32 148 -84 194 -156c42 -65.333 63 -140.666 63 -225.999c0 -95.333 -27.333 -177.666 -82 -246.999c-58.667 -74 -139.334 -121.333 -242.001 -142c-54.667 -11.333 -132 -17 -232 -17h-393v676h-866v-676h-164v1450h164v-624h866z" />
    <glyph glyph-name="oe" unicode="&#x153;" horiz-adv-x="1939" vert-adv-y="2458" 
d="M1120 150l289.999 0.000976562c90 0 154.333 5 193 15c92 23.333 138 79.666 138 168.999c0 70 -26 119 -78 147c-47.333 25.333 -131.666 38 -252.999 38h-290v-369zM962.999 519.001l-642 -0.000976562v-519h-157v1138h157v-469h642v469h157v-469h253
c176 0 298 -19.667 366 -59c106 -61.333 159 -154 159 -278c0 -83.333 -26 -153.666 -78 -210.999c-54 -60 -130.667 -97 -230 -111c-44 -6.66699 -118 -10 -222 -10h-405v519z" />
    <glyph glyph-name="Scaron" unicode="&#x160;" horiz-adv-x="2078" vert-adv-y="2458" 
d="M1065 1300l-642 -0.00195312v-796c-0.666992 -136 -17.334 -235.667 -50.001 -299c-40 -81.333 -107 -145.666 -201 -192.999c-8 -4.66699 -36 -17.667 -84 -39l-88 143c97.333 42.667 161 83 191 121c34.667 41.333 56.334 93 65.001 155c2 12 3 89 3 231v827h970v-624
h235c130.667 0 228.334 -12.667 293.001 -38c83.333 -32 148 -84 194 -156c42 -65.333 63 -140.666 63 -225.999c0 -96 -27.333 -178.333 -82 -247c-58.667 -74 -139.334 -121.333 -242.001 -142c-54.667 -11.333 -132 -17 -232 -17h-393v1300zM1229 675.998v-526.001h274
c90 0 157 8.33301 201 25c102 38.667 153 117.667 153 237c0 86.667 -30 153.334 -90 200.001c-34 26 -69.667 42.667 -107 50c-44.667 9.33301 -97 14 -157 14h-274z" />
    <glyph glyph-name="scaron" unicode="&#x161;" horiz-adv-x="1905" vert-adv-y="2458" 
d="M1085 1138l0.000976562 -469h253c176 0 298 -19.667 366 -59c106 -61.333 159 -154.333 159 -279c0 -82.667 -26 -152.667 -78 -210c-54 -60 -130.667 -97 -230 -111c-44 -6.66699 -118 -10 -222 -10h-405v988h-512v-484c-0.666992 -136 -17.334 -235.667 -50.001 -299
c-40 -81.333 -106.667 -145.666 -200 -192.999c-8.66699 -4.66699 -37 -17.667 -85 -39l-81 136c97.333 43.333 161 83.666 191 120.999c34.667 41.333 56 93 64 155c2.66699 12.667 4 89.667 4 231v522h826zM1085 150h290c121.333 0 205.666 12.667 252.999 38
c52 28 78 76.667 78 146c0 70 -26 119 -78 147c-47.333 25.333 -131.666 38 -252.999 38h-290v-369z" />
    <glyph glyph-name="Ydieresis" unicode="&#x178;" horiz-adv-x="1420" vert-adv-y="2458" 
d="M164 0v1138h157v-988h778v988h157v-1138h-461v-363l-157 -26v389h-474z" />
    <glyph glyph-name="florin" unicode="&#x192;" horiz-adv-x="1008" vert-adv-y="2458" 
d="M164 0v1138h844v-150h-687v-988h-157zM818 1661l55 -151l-541 -198l-55 151z" />
    <glyph glyph-name="semicolon" unicode="&#x37e;" horiz-adv-x="573" vert-adv-y="2458" 
d="M37 -340l172 528h177l-207 -528h-142zM305 887c28.667 0 53.002 -10 73.002 -30c20.667 -20.667 31 -45.334 31 -74.001s-10 -53 -30 -73c-20.667 -20.667 -45.334 -31 -74.001 -31c-38 0 -67.667 16.667 -89 50c-10 16.667 -15 34.334 -15 53.001
c0 29.333 10.333 54 31 74c21.333 20.667 45.666 31 72.999 31z" />
    <glyph glyph-name="afii10023" unicode="&#x401;" horiz-adv-x="1174" vert-adv-y="2458" 
d="M194 0v1450h844v-150h-680v-474h596v-150h-596v-526h690v-150h-854zM317 1807c30.667 0 57.334 -11.333 80.001 -34c23.333 -23.333 35 -51.666 35 -84.999c0 -32.667 -11.333 -60.334 -34 -83.001c-22 -22 -49 -33 -81 -33c-46 0 -80.333 18.667 -103 56
c-11.333 18 -17 38 -17 60c0 32 11.667 59.667 35 83c25.333 24 53.666 36 84.999 36zM917 1807c31.333 0 58.667 -11.667 82 -35s35 -51 35 -83c0 -33.333 -11.333 -61 -34 -83c-22 -22.667 -49.667 -34 -83 -34c-44.667 0 -78.334 18.333 -101.001 55
c-11.333 18.667 -17 39 -17 61c0 33.333 11.667 61.333 35 84c24.667 23.333 52.334 35 83.001 35z" />
    <glyph glyph-name="afii10051" unicode="&#x402;" horiz-adv-x="1624" vert-adv-y="2458" 
d="M594 927c44 58 88.332 103.332 132.999 135.999c96 70 212 105 348 105c156.667 0 274 -45.333 352 -136c38.667 -46 63.667 -100 75 -162c8.66699 -48 13 -101 13 -159v-287c0 -121.333 -16.333 -213 -49 -275c-60.667 -117.333 -186 -176 -376 -176
c-77.333 0 -160.666 9 -249.999 27l-28 164c84 -27.333 172 -41 264 -41c108 0 181.667 19 221 57c36 33.333 54 87.333 54 162v302c0 96.667 -2.33301 155 -7 175c-32 133.333 -126 200 -282 200c-128 0 -235.667 -41.667 -323 -125
c-68.667 -66 -112.667 -145.333 -132 -238c-8 -37.333 -12.333 -92.666 -13 -165.999v-490h-164v1300h-430v150h1024v-150h-430v-373z" />
    <glyph glyph-name="afii10052" unicode="&#x403;" horiz-adv-x="1038" vert-adv-y="2458" 
d="M358 0h-164v1450h844v-150h-680v-1300zM872 1920l55 -150l-541 -198l-55 150z" />
    <glyph glyph-name="afii10053" unicode="&#x404;" horiz-adv-x="1364" vert-adv-y="2458" 
d="M253 676c7.33301 -132.667 49.3359 -246.334 126.003 -341.001c55.333 -68.667 122 -121.334 200 -158.001c75.333 -36 155.666 -54 240.999 -54c110.667 0 214.334 29 311.001 87c37.333 22.667 85.666 61.334 144.999 116.001l-14 -212
c-60.667 -40 -112.334 -68.667 -155.001 -86c-90.667 -36.667 -185.334 -55 -284.001 -55c-192.667 0 -358.334 65 -497.001 195c-78.667 74 -138 162 -178 264c-36 90.667 -54 186.667 -54 288c0 151.333 38.333 289 115 413c72 116.667 168 205.334 288 266.001
c102.667 52 213.334 78 332.001 78c105.333 0 204.333 -20.667 297 -62c34 -15.333 78 -40.333 132 -75l-27 -173c-54 45.333 -102.333 78.333 -145 99c-84.667 40.667 -172.667 61 -264 61c-112 0 -214 -30.333 -306 -91c-142 -94 -227.667 -230.667 -257 -410h800v-150
h-806z" />
    <glyph glyph-name="afii10054" unicode="&#x405;" horiz-adv-x="1110" vert-adv-y="2458" 
d="M98 259c80 -44 142.997 -74.666 188.997 -91.999c78 -30 156.667 -45 236 -45c102.667 0 182.334 24 239.001 72c62.667 53.333 94 119 94 197c0 68 -26.333 125.333 -79 172c-26 22.667 -78 53.334 -156 92.001l-187 93c-103.333 50.667 -178.333 100.334 -225 149.001
c-54 56 -81 124.667 -81 206c0 97.333 34.333 180.666 103 249.999c82 83.333 195.667 125 341 125c114 0 234.667 -29.667 362 -89l-9 -177c-57.333 30.667 -101.666 52.667 -132.999 66c-78.667 33.333 -157 50 -235 50c-69.333 0 -127.666 -14.667 -174.999 -44
c-64.667 -40.667 -97 -97.334 -97 -170.001c0 -58.667 28.333 -110.667 85 -156c30 -24 79 -52.333 147 -85l208 -99c103.333 -49.333 177.666 -105 222.999 -167c42.667 -58.667 64 -127.334 64 -206.001c0 -116.667 -39.333 -214 -118 -292
c-91.333 -91.333 -219.666 -137 -384.999 -137c-128.667 0 -258 29 -388 87z" />
    <glyph glyph-name="afii10055" unicode="&#x406;" horiz-adv-x="552" vert-adv-y="2458" 
d="M194 0v1450h164v-1450h-164z" />
    <glyph glyph-name="afii10056" unicode="&#x407;" horiz-adv-x="552" vert-adv-y="2458" 
d="M193 0v1450h164v-1450h-164zM123 1807c30.667 0 57.334 -11.333 80.001 -34c23.333 -23.333 35 -51.666 35 -84.999c0 -32.667 -11.333 -60.334 -34 -83.001c-22 -22 -49 -33 -81 -33c-46 0 -80.333 18.667 -103 56c-11.333 18 -17 38 -17 60c0 32 11.667 59.667 35 83
c25.333 24 53.666 36 84.999 36zM431 1807c31.333 0 58.667 -11.667 82 -35s35 -51.333 35 -84s-11.333 -60 -34 -82c-22 -22.667 -49.667 -34 -83 -34c-44.667 0 -78.334 18.333 -101.001 55c-11.333 18.667 -17 39 -17 61c0 33.333 11.667 61.333 35 84
c24.667 23.333 52.334 35 83.001 35z" />
    <glyph glyph-name="afii10057" unicode="&#x408;" horiz-adv-x="812" vert-adv-y="2458" 
d="M-10 168c65.333 -25.333 132 -38 200 -38c98 0 169 21 213 63c45.333 43.333 68 122.333 68 237v1020h164v-997c0 -164.667 -40 -285.667 -120 -363c-75.333 -72.667 -179 -109 -311 -109c-62 0 -125.333 7.66699 -190 23z" />
    <glyph glyph-name="afii10058" unicode="&#x409;" horiz-adv-x="2078" vert-adv-y="2458" 
d="M1065 1300l-642 -0.00195312v-796c-0.666992 -136 -17.334 -235.667 -50.001 -299c-40 -81.333 -107 -145.666 -201 -192.999c-8 -4.66699 -36 -17.667 -84 -39l-88 143c97.333 42.667 161 83 191 121c34.667 41.333 56.334 93 65.001 155c2 12 3 89 3 231v827h970v-624
h235c130.667 0 228.334 -12.667 293.001 -38c83.333 -32 148 -84 194 -156c42 -65.333 63 -140.666 63 -225.999c0 -96 -27.333 -178.333 -82 -247c-58.667 -74 -139.334 -121.333 -242.001 -142c-54.667 -11.333 -132 -17 -232 -17h-393v1300zM1229 675.998v-526.001h274
c90 0 157 8.33301 201 25c102 38.667 153 117.667 153 237c0 86.667 -30 153.334 -90 200.001c-34 26 -69.667 42.667 -107 50c-44.667 9.33301 -97 14 -157 14h-274z" />
    <glyph glyph-name="afii10059" unicode="&#x40a;" horiz-adv-x="2237" vert-adv-y="2458" 
d="M1388 676v-526.001h274c90 0 157 8.33301 201 25c102 38.667 153 117.667 153 237c0 86.667 -30 153.334 -90 200.001c-34 26 -69.667 42.667 -107 50c-44.667 9.33301 -97 14 -157 14h-274zM1224 825.999v623.998h164v-624h235c130.667 0 228.334 -12.667 293.001 -38
c83.333 -32 148 -84 194 -156c42 -65.333 63 -140.666 63 -225.999c0 -95.333 -27.333 -177.666 -82 -246.999c-58.667 -74 -139.334 -121.333 -242.001 -142c-54.667 -11.333 -132 -17 -232 -17h-393v676h-866v-676h-164v1450h164v-624h866z" />
    <glyph glyph-name="afii10060" unicode="&#x40b;" horiz-adv-x="1624" vert-adv-y="2458" 
d="M594 927c44 58 88.333 103.332 133 135.999c96 70 212 105 348 105c156.667 0 274 -45.333 352 -136c38.667 -45.333 63.667 -99.333 75 -162c8.66699 -48 13 -100.667 13 -158v-712h-164v644c0 96.667 -2.33301 155 -7 175c-32 133.333 -126 200 -282 200
c-128 0 -235.667 -41.667 -323 -125c-69.333 -66 -113.333 -145.333 -132 -238c-8 -37.333 -12.333 -92.666 -13 -165.999v-490h-164v1300h-430v150h1024v-150h-430v-373z" />
    <glyph glyph-name="afii10061" unicode="&#x40c;" horiz-adv-x="1393" vert-adv-y="2458" 
d="M194 0v1450h164v-679l781 679h218l-818 -703l888 -747h-220l-849 709v-709h-164zM1053 1920l55 -150l-541 -198l-55 150z" />
    <glyph glyph-name="afii10062" unicode="&#x40e;" horiz-adv-x="1318" vert-adv-y="2458" 
d="M-27 1450h191l537 -1032l459 1032h185l-673 -1450l-176 -27l126 274zM1042 1753c-44 -40 -79.998 -68.333 -107.998 -85c-78.667 -46.667 -169.334 -70 -272.001 -70c-110 0 -206 27 -288 81c-22.667 15.333 -53 40 -91 74l93 111c45.333 -34 82.666 -58 111.999 -72
c58 -27.333 116 -41 174 -41c66 0 130.667 17 194 51c23.333 12 54.333 32.667 93 62z" />
    <glyph glyph-name="afii10145" unicode="&#x40f;" horiz-adv-x="1582" vert-adv-y="2458" 
d="M194 0v1450h164v-1300h866v1300h164v-1450h-515v-363l-164 -26v389h-515z" />
    <glyph glyph-name="afii10017" unicode="&#x410;" horiz-adv-x="1380" vert-adv-y="2458" 
d="M157 0h-177l724 1501l697 -1501h-174l-137 300h-792zM366 450h658l-320 730z" />
    <glyph glyph-name="afii10018" unicode="&#x411;" horiz-adv-x="1210" vert-adv-y="2458" 
d="M358 826l235 -0.00195312c130.667 0 228.334 -12.667 293.001 -38c83.333 -32 148 -84 194 -156c42 -65.333 63 -140.666 63 -225.999c0 -95.333 -27.333 -177.666 -82 -246.999c-58.667 -74 -139.334 -121.333 -242.001 -142c-54.667 -11.333 -132 -17 -232 -17h-393
v1450h844v-150h-680v-474zM358 675.998v-526.001h274c65.333 0 118 4.33301 158 13s74.333 23.667 103 45c62 44 93 112 93 204c0 86.667 -30 153.334 -90 200.001c-34 26 -69.667 42.667 -107 50c-44.667 9.33301 -97 14 -157 14h-274z" />
    <glyph glyph-name="afii10019" unicode="&#x412;" horiz-adv-x="1260" vert-adv-y="2458" 
d="M194 0l0.000976562 1450h410c162.667 0 283.334 -26.667 362.001 -80c50 -33.333 87.667 -78.666 113 -135.999c20.667 -46 31 -96.667 31 -152c0 -98 -31.667 -178.333 -95 -241c-28.667 -28 -72.334 -54.667 -131.001 -80c56 -21.333 99.667 -44.333 131 -69
c85.333 -67.333 128 -161.666 128 -282.999c0 -98 -27.333 -181.333 -82 -250c-58.667 -74 -139.334 -121.333 -242.001 -142c-54.667 -11.333 -132 -17 -232 -17h-393zM358.001 1300v-467h235c110.667 0 191.667 13.333 243 40c78 40.667 117 109.667 117 207
c0 88 -35 148.667 -105 182c-52.667 25.333 -137.667 38 -255 38h-235zM358.001 682.998v-533h274c65.333 0 118 4.33301 158 13s74.333 23.667 103 45c62 44 93 112 93 204c0 91.333 -30 160.333 -90 207c-34 26 -69.667 42.667 -107 50c-44.667 9.33301 -97 14 -157 14
h-274z" />
    <glyph glyph-name="afii10020" unicode="&#x413;" horiz-adv-x="1038" vert-adv-y="2458" 
d="M358 0h-164v1450h844v-150h-680v-1300z" />
    <glyph glyph-name="afii10021" unicode="&#x414;" horiz-adv-x="1420" vert-adv-y="2458" 
d="M41 -389v539c92.667 24 153.667 52.667 183 86c30 32.667 49 75.667 57 129c4 22 6 110 6 264v821h928v-1300h82v-513l-164 -26v389h-928v-363zM328 150l723 0.000976562v1150h-600v-850c0 -84 -9.66699 -149.333 -29 -196c-16 -36.667 -47.333 -71.334 -94 -104.001z
" />
    <glyph glyph-name="afii10022" unicode="&#x415;" horiz-adv-x="1174" vert-adv-y="2458" 
d="M194 0v1450h844v-150h-680v-474h596v-150h-596v-526h690v-150h-854z" />
    <glyph glyph-name="afii10024" unicode="&#x416;" horiz-adv-x="2235" vert-adv-y="2458" 
d="M1200 0h-164v709l-849 -709h-220l888 747l-818 703h218l781 -679v679h164v-679l781 679h218l-818 -703l888 -747h-220l-849 709v-709z" />
    <glyph glyph-name="afii10025" unicode="&#x417;" horiz-adv-x="1163" vert-adv-y="2458" 
d="M179 319c44 -50.667 83.001 -88.667 117.001 -114c72 -54.667 160 -82 264 -82c87.333 0 159.666 21 216.999 63c79.333 58.667 119 135.667 119 231c0 68.667 -23.333 126 -70 172c-42 41.333 -101.667 68.333 -179 81c-42 7.33301 -98.333 11 -169 11h-76v150h76
c92 0 161.333 8 208 24c66 22.667 113.333 58 142 106c21.333 35.333 32 74 32 116c0 79.333 -32.667 143.666 -98 192.999c-50.667 38.667 -113.667 58 -189 58c-98 0 -187 -34.667 -267 -104c-23.333 -20.667 -54.333 -52.667 -93 -96l-110 99
c53.333 62 103.333 110 150 144c96 71.333 202.667 107 320 107c136 0 246 -42.667 330 -128c35.333 -36 63.333 -78.333 84 -127c20 -48 30 -96 30 -144c0 -90.667 -29 -167 -87 -229c-24.667 -26.667 -63.667 -54 -117 -82c60 -28 104.333 -56.333 133 -85
c71.333 -70 107 -160 107 -270c0 -115.333 -40.667 -214.666 -122 -297.999c-92 -94.667 -216.333 -142 -373 -142c-154.667 0 -287 47.333 -397 142c-26.667 22.667 -57.667 53 -93 91z" />
    <glyph glyph-name="afii10026" unicode="&#x418;" horiz-adv-x="1596" vert-adv-y="2458" 
d="M1402 0h-164v1092l-1044 -1147v1505h164v-1090l1044 1142v-1502z" />
    <glyph glyph-name="afii10027" unicode="&#x419;" horiz-adv-x="1596" vert-adv-y="2458" 
d="M1402 0h-164v1092l-1044 -1147v1505h164v-1090l1044 1142v-1502zM1203 1753c-44 -40 -80 -68.333 -108 -85c-79.333 -46.667 -170 -70 -272 -70c-110 0 -206 27 -288 81c-22.667 15.333 -53 40 -91 74l93 111c45.333 -34 82.333 -58 111 -72
c58.667 -27.333 117 -41 175 -41c66 0 130.667 17 194 51c22.667 12 53.667 32.667 93 62z" />
    <glyph glyph-name="afii10028" unicode="&#x41a;" horiz-adv-x="1393" vert-adv-y="2458" 
d="M194 0v1450h164v-679l781 679h218l-818 -703l888 -747h-220l-849 709v-709h-164z" />
    <glyph glyph-name="afii10029" unicode="&#x41b;" horiz-adv-x="1423" vert-adv-y="2458" 
d="M0 116c97.333 42.667 161 82.999 191 120.999c34.667 41.333 56 93 64 155c2.66699 12.667 4 89.667 4 231v827h970v-1450h-164v1300h-642v-796c-0.666992 -136 -17.334 -235.667 -50.001 -299c-40 -81.333 -106.667 -145.666 -200 -192.999
c-9.33301 -5.33301 -37.666 -18.333 -84.999 -39z" />
    <glyph glyph-name="afii10030" unicode="&#x41c;" horiz-adv-x="1711" vert-adv-y="2458" 
d="M26 0l320 1502l511 -1189l510 1189l318 -1502h-164l-207 997l-456 -1052l-462 1052l-206 -997h-164z" />
    <glyph glyph-name="afii10031" unicode="&#x41d;" horiz-adv-x="1582" vert-adv-y="2458" 
d="M194 0v1450h164v-617h866v617h164v-1450h-164v683h-866v-683h-164z" />
    <glyph glyph-name="afii10032" unicode="&#x41e;" horiz-adv-x="1629" vert-adv-y="2458" 
d="M821 1478c200.667 0 369.667 -71.665 507 -214.998c138.667 -144.667 208 -322.334 208 -533.001c0 -214 -69.333 -393.333 -208 -538c-140.667 -146 -312 -219 -514 -219c-200 0 -370 72.333 -510 217c-140 145.333 -210 322.333 -210 531
c0 183.333 49 339.666 147 468.999c146 192 339.333 288 580 288zM813 1328c-172 0 -311.667 -62.333 -419 -187c-95.333 -110.667 -143 -246.334 -143 -407.001c0 -171.333 48 -312.666 144 -423.999c107.333 -124.667 247 -187 419 -187c170.667 0 309.667 62 417 186
c98.667 114 148 252.667 148 416c0 165.333 -49 304.333 -147 417c-108 124 -247.667 186 -419 186z" />
    <glyph glyph-name="afii10033" unicode="&#x41f;" horiz-adv-x="1582" vert-adv-y="2458" 
d="M194 0v1450h1194v-1450h-164v1300h-866v-1300h-164z" />
    <glyph glyph-name="afii10034" unicode="&#x420;" horiz-adv-x="1217" vert-adv-y="2458" 
d="M194 0l-0.000976562 1450h336c132.667 0 232.334 -9.66699 299.001 -29c113.333 -32.667 198.666 -92.667 255.999 -180c45.333 -68 68 -144.667 68 -230c0 -65.333 -13.5 -127.166 -40.5 -185.499s-64.5 -107.5 -112.5 -147.5
c-59.333 -49.333 -126.666 -81.333 -201.999 -96c-73.333 -14.667 -154.333 -22 -243 -22h-197v-560h-164zM357.999 1300v-590.001h137c112 0 190 3.33301 234 10c100.667 16 172.667 55 216 117c34 48 51 104 51 168c0 77.333 -24 142.333 -72 195s-126 84.334 -234 95.001
c-36.667 3.33301 -101.667 5 -195 5h-137z" />
    <glyph glyph-name="afii10035" unicode="&#x421;" horiz-adv-x="1359" vert-adv-y="2458" 
d="M1261 114c-60 -40 -111.667 -68.668 -155 -86.001c-90.667 -36.667 -185 -55 -283 -55c-192.667 0 -358.334 65 -497.001 195c-78.667 74 -138 162 -178 264c-36 90.667 -54 186.667 -54 288c0 151.333 38.333 289 115 413c72 116.667 168 205.334 288 266.001
c102.667 52 213.334 78 332.001 78c104.667 0 203.334 -20.667 296.001 -62c34.667 -15.333 78.667 -40.333 132 -75l-26 -173c-54 45.333 -102.333 78.333 -145 99c-84.667 40.667 -172.667 61 -264 61c-139.333 0 -261.666 -45.667 -366.999 -137
c-136 -118.667 -204 -275.334 -204 -470.001c0 -192 67.333 -346 202 -462c105.333 -90 227.666 -135 366.999 -135c110 0 213.667 29 311 87c37.333 22.667 85.666 61.334 144.999 116.001z" />
    <glyph glyph-name="afii10036" unicode="&#x422;" horiz-adv-x="1255" vert-adv-y="2458" 
d="M710 1300v-1300h-164v1300h-532v150h1227v-150h-531z" />
    <glyph glyph-name="afii10037" unicode="&#x423;" horiz-adv-x="1313" vert-adv-y="2458" 
d="M425 -27l186 362l-638 1115h191l529 -952l457 952h191l-739 -1450z" />
    <glyph glyph-name="afii10038" unicode="&#x424;" horiz-adv-x="1606" vert-adv-y="2458" 
d="M721 140c-128 12.667 -240.667 47.668 -338 105.001c-96.667 57.333 -171 127.666 -223 210.999s-78 174.666 -78 273.999c0 108 31.667 206 95 294c120 164.667 301.333 259 544 283v143h164v-142c129.333 -10.667 243.333 -45 342 -103
c94.667 -56 167.667 -125 219 -207c52 -82 78 -172 78 -270c0 -131.333 -45.667 -248 -137 -350c-122.667 -137.333 -290 -216.666 -502 -237.999v-140h-164v140zM721 1171c-114.667 -14 -208.001 -45.332 -280.001 -93.999c-134.667 -90 -202 -207.667 -202 -353
c0 -94.667 30 -178.334 90 -251.001c92.667 -114 223.334 -179.333 392.001 -196v894zM884.999 1170v-893.001c109.333 13.333 201 44.333 275 93c68 44.667 120.333 99.667 157 165c33.333 60.667 50 123.667 50 189c0 90.667 -31 174.334 -93 251.001
c-88 109.333 -217.667 174.333 -389 195z" />
    <glyph glyph-name="afii10039" unicode="&#x425;" horiz-adv-x="1385" vert-adv-y="2458" 
d="M172 0h-191l592 762l-572 688h192l476 -573l440 573h191l-535 -683l639 -767h-191l-541 646z" />
    <glyph glyph-name="afii10040" unicode="&#x426;" horiz-adv-x="1593" vert-adv-y="2458" 
d="M194 0v1450h164v-1300h866v1300h164v-1300h82v-513l-164 -26v389h-1112z" />
    <glyph glyph-name="afii10041" unicode="&#x427;" horiz-adv-x="1483" vert-adv-y="2458" 
d="M1126 0l-0.000976562 669c-144.667 -18 -273 -27 -385 -27c-175.333 0 -307.666 21.333 -396.999 64c-114.667 54 -188.667 137 -222 249c-17.333 58.667 -26 150 -26 274v221h162v-219c0 -101.333 5.66699 -172 17 -212c20 -72.667 61.667 -127 125 -163
c68.667 -38 185 -57 349 -57c134 0 259.667 10.333 377 31v620h164v-1450h-164z" />
    <glyph glyph-name="afii10042" unicode="&#x428;" horiz-adv-x="2530" vert-adv-y="2458" 
d="M194 0v1450h164v-1300h825v1300h164v-1300h825v1300h164v-1450h-2142z" />
    <glyph glyph-name="afii10043" unicode="&#x429;" horiz-adv-x="2541" vert-adv-y="2458" 
d="M194 0v1450h164v-1300h825v1300h164v-1300h825v1300h164v-1300h82v-513l-164 -26v389h-2060z" />
    <glyph glyph-name="afii10044" unicode="&#x42a;" horiz-adv-x="1464" vert-adv-y="2458" 
d="M615 826l235 -0.00195312c130.667 0 228.334 -12.667 293.001 -38c83.333 -32 148 -84 194 -156c42 -65.333 63 -140.666 63 -225.999c0 -95.333 -27.333 -177.666 -82 -246.999c-58.667 -74 -139.334 -121.333 -242.001 -142c-54.667 -11.333 -132 -17 -232 -17h-393
v1300h-478v150h642v-624zM615 675.998v-526.001h274c90 0 157 8.33301 201 25c102 38.667 153 117.667 153 237c0 86.667 -30 153.334 -90 200.001c-34 26 -69.667 42.667 -107 50c-44.667 9.33301 -97 14 -157 14h-274z" />
    <glyph glyph-name="afii10045" unicode="&#x42b;" horiz-adv-x="1621" vert-adv-y="2458" 
d="M358 826l235 -0.00195312c130.667 0 228.334 -12.667 293.001 -38c83.333 -32 148 -84 194 -156c42 -65.333 63 -140.666 63 -225.999c0 -95.333 -27.333 -177.666 -82 -246.999c-58.667 -74 -139.334 -121.333 -242.001 -142c-54.667 -11.333 -132 -17 -232 -17h-393
v1450h164v-624zM358 675.998v-526.001h274c65.333 0 118 4.33301 158 13s74.333 23.667 103 45c62 44 93 112 93 204c0 86.667 -30 153.334 -90 200.001c-34 26 -69.667 42.667 -107 50c-44.667 9.33301 -97 14 -157 14h-274zM1263 -0.00292969v1450h164v-1450h-164z" />
    <glyph glyph-name="afii10046" unicode="&#x42c;" horiz-adv-x="1207" vert-adv-y="2458" 
d="M358 826l235 -0.00195312c130.667 0 228.334 -12.667 293.001 -38c83.333 -32 148 -84 194 -156c42 -65.333 63 -140.666 63 -225.999c0 -95.333 -27.333 -177.666 -82 -246.999c-58.667 -74 -139.334 -121.333 -242.001 -142c-54.667 -11.333 -132 -17 -232 -17h-393
v1450h164v-624zM358 675.998v-526.001h274c65.333 0 118 4.33301 158 13s74.333 23.667 103 45c62 44 93 112 93 204c0 86.667 -30 153.334 -90 200.001c-34 26 -69.667 42.667 -107 50c-44.667 9.33301 -97 14 -157 14h-274z" />
    <glyph glyph-name="afii10047" unicode="&#x42d;" horiz-adv-x="1364" vert-adv-y="2458" 
d="M1111 676l-810.003 -0.00195312v150h804c-18 111.333 -58 206.333 -120 285c-56.667 70.667 -124.667 125 -204 163c-74.667 35.333 -154.667 53 -240 53c-101.333 0 -197.666 -24.667 -288.999 -74c-35.333 -19.333 -81.666 -53 -138.999 -101l15 200
c126.667 83.333 262.334 125 407.001 125c200.667 0 371 -69 511 -207c69.333 -68.667 123.333 -149 162 -241c41.333 -97.333 62 -200.333 62 -309c0 -147.333 -37 -281.666 -111 -402.999c-78.667 -128 -186.667 -222.333 -324 -283
c-93.333 -40.667 -191.333 -61 -294 -61c-108.667 0 -211.667 22 -309 66c-37.333 16.667 -85 45.334 -143 86.001l14 189c60 -56 114 -96.667 162 -122c88.667 -46 182 -69 280 -69c111.333 0 213.333 30 306 90c162 106 248.667 260.333 260 463z" />
    <glyph glyph-name="afii10048" unicode="&#x42e;" horiz-adv-x="2006" vert-adv-y="2458" 
d="M473 683h-115.001v-683h-164v1450h164v-617h119c12 100 41.333 191.667 88 275c64 113.333 147.333 202.333 250 267c110 68.667 237 103 381 103c202.667 0 372.334 -71.667 509.001 -215c138.667 -144.667 208 -322.334 208 -533.001
c0 -213.333 -69.333 -392.666 -208 -537.999c-140 -146 -311.333 -219 -514 -219c-156.667 0 -297 46.667 -421 140c-183.333 137.333 -282.333 327.333 -297 570zM1190 1328c-172 0 -311.667 -62.333 -419 -187c-95.333 -110.667 -143 -246.334 -143 -407.001
c0 -171.333 48 -312.666 144 -423.999c107.333 -124.667 247 -187 419 -187c170.667 0 309.667 62 417 186c98.667 114 148 253 148 417c0 165.333 -49 304 -147 416c-108 124 -247.667 186 -419 186z" />
    <glyph glyph-name="afii10049" unicode="&#x42f;" horiz-adv-x="1324" vert-adv-y="2458" 
d="M1130 0h-163.999v593h-298l-446 -593h-202l487 615c-70 18 -127.333 43 -172 75c-50 36 -89.333 81.333 -118 136c-30.667 58.667 -46 123 -46 193c0 111.333 36.667 205.333 110 282c65.333 68.667 150.666 112.667 255.999 132c60 11.333 154.667 17 284 17h309v-1450z
M966.001 1300h-194.001c-145.333 0 -245.666 -13.333 -300.999 -40c-42.667 -20.667 -76.334 -50 -101.001 -88c-28 -44 -42 -94.333 -42 -151c0 -74 23.333 -135.667 70 -185c40.667 -44 101.334 -71.667 182.001 -83c44.667 -6.66699 108.667 -10 192 -10h194v557z" />
    <glyph glyph-name="afii10065" unicode="&#x430;" horiz-adv-x="1396" vert-adv-y="2458" 
d="M1245 0l-162 -25.998c-8.66699 34.667 -14.667 65.667 -18 93c-74.667 -30.667 -131.667 -52 -171 -64c-68.667 -20 -143 -30 -223 -30c-124 0 -226.333 23.667 -307 71c-86.667 51.333 -155.334 122.666 -206.001 213.999c-50.667 90.667 -76 189.667 -76 297
c0 179.333 65.333 328.666 196 447.999c120 110 271 165 453 165c84.667 0 195.334 -13.667 332.001 -41l155 32v-909c2.66699 -108 11.667 -191.333 27 -250zM1060 217.002l0.000976562 758.999c-122 28 -223.667 42 -305 42c-106.667 0 -191.334 -15 -254.001 -45
c-85.333 -40 -151.333 -99.333 -198 -178c-42.667 -71.333 -64 -150.666 -64 -237.999c0 -134 45.333 -243.667 136 -329c74.667 -70 177 -105 307 -105c88 0 170.333 13.667 247 41c27.333 9.33301 71 27 131 53z" />
    <glyph glyph-name="afii10066" unicode="&#x431;" horiz-adv-x="1377" vert-adv-y="2458" 
d="M688 1017c-112.667 0 -209.664 -34.001 -290.997 -102.001c-60.667 -50.667 -104.334 -113.667 -131.001 -189c-17.333 -48.667 -26 -98.667 -26 -150c0 -146 52.333 -263 157 -351c81.333 -68 178.666 -102 291.999 -102c112 0 208.667 34 290 102
c104.667 88 157 203 157 345c0 88 -22 168 -66 240c-48 78.667 -115.667 136.334 -203 173.001c-54.667 22.667 -114.334 34 -179.001 34zM918.003 1450l173 26c-20 -76 -42.667 -127 -68 -153c-38.667 -38.667 -91.667 -65.334 -159 -80.001
c-40.667 -8.66699 -100 -15.667 -178 -21c-96.667 -6.66699 -161.667 -16 -195 -28c-60.667 -21.333 -112.667 -60 -156 -116c-10.667 -13.333 -27.667 -39.666 -51 -78.999c42 36 80 63.667 114 83c84 48 183 72 297 72c174 0 315 -52.333 423 -157
c54 -52 96.667 -115.667 128 -191c31.333 -76 47 -154.667 47 -236c0 -114.667 -29.667 -220.667 -89 -318c-56.667 -92 -132.667 -162.667 -228 -212c-87.333 -44.667 -183 -67 -287 -67c-137.333 0 -258.666 38 -363.999 114c-117.333 85.333 -191.333 199 -222 341
c-15.333 70 -23 145.667 -23 227c0 132 21.333 250.333 64 355c60.667 150.667 154.667 251 282 301c61.333 24.667 151.333 41 270 49c85.333 6 141.666 15.333 168.999 28c13.333 6 23.5 13 30.5 21s14.5 21.667 22.5 41z" />
    <glyph glyph-name="afii10067" unicode="&#x432;" horiz-adv-x="1182" vert-adv-y="2458" 
d="M164 0v1138h421c124.667 0 215 -9 271 -27c144 -45.333 216 -136.666 216 -273.999c0 -72 -24.333 -130.333 -73 -175c-26.667 -24.667 -66 -45.667 -118 -63c146 -38.667 219 -127.667 219 -267c0 -83.333 -26.333 -153.666 -79 -210.999
c-54 -60 -130.667 -97 -230 -111c-44 -6.66699 -118 -10 -222 -10h-405zM321 987.998l0.000976562 -326.002h253c101.333 0 169.666 3.66699 204.999 11c90.667 18.667 136 69.334 136 152.001c0 58.667 -24.333 102 -73 130c-24 14.667 -60 24.334 -108 29.001
c-30 2.66699 -83.333 4 -160 4h-253zM321.001 149.996h290c122 0 206.667 12.667 254 38c52 28 78 76.667 78 146c0 70 -26 119 -78 147c-47.333 25.333 -132 38 -254 38h-290v-369z" />
    <glyph glyph-name="afii10068" unicode="&#x433;" horiz-adv-x="1008" vert-adv-y="2458" 
d="M164 0v1138h844v-150h-687v-988h-157z" />
    <glyph glyph-name="afii10069" unicode="&#x434;" horiz-adv-x="1311" vert-adv-y="2458" 
d="M14 -389v539c88 18 146.667 40.667 176 68c29.333 26.667 48.333 60.667 57 102c3.33301 17.333 5.33301 86.333 6 207v611h881v-988h81v-513l-157 -26v389h-887v-363zM292 150l685 -0.000976562v838h-567v-601c0 -67.333 -9.33301 -119 -28 -155
c-15.333 -29.333 -45.333 -56.666 -90 -81.999z" />
    <glyph glyph-name="afii10070" unicode="&#x435;" horiz-adv-x="1286" vert-adv-y="2458" 
d="M1142 305l-9.00098 -185.001c-74 -42.667 -131.667 -72.667 -173 -90c-92 -38 -187 -57 -285 -57c-174.667 0 -317 54.333 -427 163s-165 250.334 -165 425.001c0 172 54.667 314.333 164 427c54.667 56.667 119.334 100.667 194.001 132c75.333 32 154.333 48 237 48
c146.667 0 269.334 -46 368.001 -138c104.667 -98 157 -222 157 -372c0 -27.333 -1.66699 -63.333 -5 -108l-944 -61c10 -60 27.667 -112.667 53 -158c32.667 -59.333 78 -107 136 -143c69.333 -43.333 146.666 -65 231.999 -65c96 0 197.333 27.333 304 82
c38.667 20 93 53.333 163 100zM1039 679.999c-3.33301 54.667 -15.667 104.333 -37 149c-30 63.333 -76.667 112.333 -140 147c-54 29.333 -114.667 44 -182 44c-106.667 0 -200.667 -33.333 -282 -100c-82 -66.667 -130.667 -164 -146 -292z" />
    <glyph glyph-name="afii10072" unicode="&#x436;" horiz-adv-x="2008" vert-adv-y="2458" 
d="M1083 0h-157v587l-722 -587h-231l764 627l-592 511h214l567 -496v496h157v-496l566 496h214l-592 -511l764 -627h-231l-721 587v-587z" />
    <glyph glyph-name="afii10073" unicode="&#x437;" horiz-adv-x="1081" vert-adv-y="2458" 
d="M147 277c43.333 -40 81.333 -69.999 114 -89.999c69.333 -42.667 152.666 -64 249.999 -64c114.667 0 203.334 28.667 266.001 86c34 31.333 51 71.333 51 120c0 60.667 -31 109.334 -93 146.001c-56.667 34 -161.667 51 -315 51h-59v144h73
c109.333 0 192.333 8.66699 249 26c74 23.333 111 69 111 137c0 60 -28 106.667 -84 140c-48.667 30 -109.334 45 -182.001 45c-96 0 -182 -27 -258 -81c-22.667 -16.667 -52.667 -42 -90 -76l-106 110c52 49.333 100.333 87.333 145 114c91.333 55.333 193.333 83 306 83
c127.333 0 233 -33.667 317 -101c72.667 -58.667 109 -131.334 109 -218.001c0 -72 -24 -131.667 -72 -179c-25.333 -24.667 -66.333 -48.334 -123 -71.001c57.333 -22 100 -44 128 -66c67.333 -54.667 101 -125.667 101 -213c0 -94 -38.333 -172.667 -115 -236
c-89.333 -74 -209.333 -111 -360 -111c-147.333 0 -273.666 37 -378.999 111c-26.667 18 -56.667 42.333 -90 73z" />
    <glyph glyph-name="afii10074" unicode="&#x438;" horiz-adv-x="1420" vert-adv-y="2458" 
d="M1256 0h-157v840l-935 -881v1179h157v-838l935 879v-1179z" />
    <glyph glyph-name="afii10075" unicode="&#x439;" horiz-adv-x="1420" vert-adv-y="2458" 
d="M1256 0h-157v840l-935 -881v1179h157v-838l935 879v-1179zM1105 1465c-44.667 -39.333 -81 -67.333 -109 -84c-78 -46.667 -168.333 -70 -271 -70c-110 0 -206.333 27 -289 81c-22 14.667 -52.333 39 -91 73l94 112c45.333 -34 82.333 -58 111 -72
c58 -27.333 116.333 -41 175 -41c66 0 130.667 17 194 51c22.667 12 53.667 32.667 93 62z" />
    <glyph glyph-name="afii10076" unicode="&#x43a;" horiz-adv-x="1246" vert-adv-y="2458" 
d="M321 587v-587h-157v1138h157v-496l567 496h213l-592 -511l765 -627h-232z" />
    <glyph glyph-name="afii10077" unicode="&#x43b;" horiz-adv-x="1399" vert-adv-y="2458" 
d="M0 109c97.333 43.333 161.001 83.666 191.001 120.999c34.667 41.333 56 93 64 155c2.66699 12.667 4 89.667 4 231v522h963v-1138h-157v988h-649v-484c-0.666992 -135.333 -17.334 -235 -50.001 -299c-40 -81.333 -106.667 -145.666 -200 -192.999
c-8.66699 -4.66699 -37 -17.667 -85 -39z" />
    <glyph glyph-name="afii10078" unicode="&#x43c;" horiz-adv-x="1584" vert-adv-y="2458" 
d="M27 0l295 1182l471 -916l470 916l293 -1182h-164l-178 771l-420 -814l-426 814l-177 -771h-164z" />
    <glyph glyph-name="afii10079" unicode="&#x43d;" horiz-adv-x="1420" vert-adv-y="2458" 
d="M164 0v1138h157v-455h778v455h157v-1138h-157v533h-778v-533h-157z" />
    <glyph glyph-name="afii10080" unicode="&#x43e;" horiz-adv-x="1377" vert-adv-y="2458" 
d="M690 1168c170.667 0 313.332 -57 427.999 -171c54.667 -54 97.334 -117.667 128.001 -191c31.333 -75.333 47 -154 47 -236c0 -114.667 -29.667 -220.667 -89 -318c-56.667 -92 -132.667 -162.667 -228 -212c-87.333 -44.667 -183 -67 -287 -67
c-173.333 0 -317.666 57.667 -432.999 173c-53.333 53.333 -95.333 116 -126 188c-31.333 75.333 -47 151.666 -47 228.999c0 120 29.333 228.667 88 326c55.333 90.667 131.666 161.334 228.999 212.001c87.333 44.667 184 67 290 67zM687.998 1018
c-112.667 0 -209.664 -34.001 -290.997 -102.001c-60.667 -50.667 -104.334 -113.667 -131.001 -189c-17.333 -49.333 -26 -99.333 -26 -150c0 -146.667 52.333 -264 157 -352c81.333 -68 178.666 -102 291.999 -102c112 0 208.667 34 290 102
c104.667 88 157 203.333 157 346c0 88 -22 168 -66 240c-48 78.667 -115.667 136.334 -203 173.001c-54.667 22.667 -114.334 34 -179.001 34z" />
    <glyph glyph-name="afii10081" unicode="&#x43f;" horiz-adv-x="1420" vert-adv-y="2458" 
d="M164 0v1138h1092v-1138h-157v988h-778v-988h-157z" />
    <glyph glyph-name="afii10082" unicode="&#x440;" horiz-adv-x="1382" vert-adv-y="2458" 
d="M137 1140l162.001 26.0029c8.66699 -34.667 14.667 -65.667 18 -93c74.667 31.333 131.667 52.666 171 63.999c69.333 20.667 143.666 31 222.999 31c124 0 226.333 -23.667 307 -71c86.667 -50.667 155.334 -122 206.001 -214c50.667 -90.667 76 -189.334 76 -296.001
c0 -180 -65.333 -330.333 -196 -451c-117.333 -108.667 -264.333 -163 -441 -163c-110.667 0 -224.334 18 -341.001 54v-390l-158 -26v1279c-2.66699 107.333 -11.667 190.666 -27 249.999zM322.001 923.003l0.000976562 -746c114 -36 221 -54 321 -54
c136.667 0 248.334 35.333 335.001 106c110 90 165 208 165 354c0 134.667 -45.333 244.667 -136 330c-74.667 70 -175.334 105 -302.001 105c-85.333 0 -169.333 -13.667 -252 -41c-32.667 -10.667 -76.334 -28.667 -131.001 -54z" />
    <glyph glyph-name="afii10083" unicode="&#x441;" horiz-adv-x="1198" vert-adv-y="2458" 
d="M1102 98c-58.667 -38 -111.33 -64.667 -157.997 -80c-88.667 -30.667 -178 -46 -268 -46c-166.667 0 -306.334 55 -419.001 165c-116 114.667 -174 256.667 -174 426c0 172.667 59.333 317 178 433c118 114.667 268.333 172 451 172
c135.333 0 271.666 -34.667 408.999 -104l-26 -157c-67.333 34 -122.333 58.333 -165 73c-74.667 25.333 -149 38 -223 38c-134 0 -244.333 -41.333 -331 -124c-90.667 -86 -136 -194.667 -136 -326c0 -129.333 43.667 -237 131 -323c83.333 -82 187.666 -123 312.999 -123
c100 0 198.333 24.333 295 73c35.333 17.333 86 47.333 152 90z" />
    <glyph glyph-name="afii10084" unicode="&#x442;" horiz-adv-x="997" vert-adv-y="2458" 
d="M573 988v-988h-150v988h-423v150h997v-150h-424z" />
    <glyph glyph-name="afii10085" unicode="&#x443;" horiz-adv-x="1117" vert-adv-y="2458" 
d="M0 1138h177l390 -946l372 946h178l-613 -1502l-183 -26l164 390z" />
    <glyph glyph-name="afii10086" unicode="&#x444;" horiz-adv-x="1377" vert-adv-y="2458" 
d="M610 -23c-106.667 12.667 -201.333 49.002 -284 109.002c-74.667 54 -133.334 122.667 -176.001 206c-44.667 87.333 -67 180.333 -67 279c0 131.333 38 249.666 114 354.999c96.667 132.667 234.334 211.667 413.001 237v287l157 26v-313
c107.333 -12.667 202.333 -49 285 -109c74 -54 132.333 -122.667 175 -206c44.667 -87.333 67 -180 67 -278c0 -132 -38.333 -251 -115 -357c-98.667 -136.667 -236 -215.334 -412 -236.001v-340l-157 -26v366zM610.001 1011c-58 -9.33301 -111 -28.332 -159 -56.999
c-74 -44.667 -129.667 -106.334 -167 -185.001c-29.333 -60.667 -44 -127 -44 -199c0 -106 31 -198.667 93 -278c70 -90 162.333 -144.333 277 -163v882zM767.001 1011v-881.999c58 9.33301 111 28.666 159 57.999c74 44 129.667 105.333 167 184
c29.333 60.667 44 127 44 199c0 106 -31 198.667 -93 278c-70 90 -162.333 144.333 -277 163z" />
    <glyph glyph-name="afii10087" unicode="&#x445;" horiz-adv-x="1209" vert-adv-y="2458" 
d="M0 0l512 601l-451 537h205l342 -424l347 424h205l-457 -540l506 -598h-205l-393 491l-406 -491h-205z" />
    <glyph glyph-name="afii10088" unicode="&#x446;" horiz-adv-x="1434" vert-adv-y="2458" 
d="M164 0v1138h157v-988h778v988h157v-988h82v-513l-157 -26v389h-1017z" />
    <glyph glyph-name="afii10089" unicode="&#x447;" horiz-adv-x="1339" vert-adv-y="2458" 
d="M1018 0l0.000976562 493.999c-120 -15.333 -228.333 -23 -325 -23c-166.667 0 -290.667 19 -372 57c-106.667 50 -177 130.333 -211 241c-18 58.667 -27 139 -27 241v128h157v-105c0 -97.333 5 -165 15 -203c17.333 -67.333 57 -117.666 119 -150.999
c63.333 -34 171.666 -51 324.999 -51c122 0 228.333 9 319 27v483h157v-1138h-157z" />
    <glyph glyph-name="afii10090" unicode="&#x448;" horiz-adv-x="2355" vert-adv-y="2458" 
d="M164 0v1138h157v-988h778v988h157v-988h779v988h157v-1138h-2028z" />
    <glyph glyph-name="afii10091" unicode="&#x449;" horiz-adv-x="2369" vert-adv-y="2458" 
d="M164 0v1138h157v-988h778v988h157v-988h779v988h157v-988h81v-513l-157 -26v389h-1952z" />
    <glyph glyph-name="afii10092" unicode="&#x44a;" horiz-adv-x="1509" vert-adv-y="2458" 
d="M532 0v988h-546v150h703v-469h253c176 0 298 -19.667 366 -59c106 -61.333 159 -154.333 159 -279c0 -82.667 -26 -152.667 -78 -210c-54 -60 -130.667 -97 -230 -111c-44 -6.66699 -118 -10 -222 -10h-405zM689 150l289.999 0.000976562c90 0 154.333 5 193 15
c92 23.333 138 79.666 138 168.999c0 70 -26 119 -78 147c-47.333 25.333 -131.666 38 -252.999 38h-290v-369z" />
    <glyph glyph-name="afii10093" unicode="&#x44b;" horiz-adv-x="1581" vert-adv-y="2458" 
d="M164 0v1138h157v-469h253c176 0 298 -19.667 366 -59c106 -61.333 159 -154.333 159 -279c0 -82.667 -26 -152.667 -78 -210c-54 -60 -130.667 -97 -230 -111c-44 -6.66699 -118 -10 -222 -10h-405zM321 150l289.999 0.000976562c90 0 154.333 5 193 15
c92 23.333 138 79.666 138 168.999c0 70 -26 119 -78 147c-47.333 25.333 -131.666 38 -252.999 38h-290v-369zM1417 1138v-1138h-157v1138h157z" />
    <glyph glyph-name="afii10094" unicode="&#x44c;" horiz-adv-x="1140" vert-adv-y="2458" 
d="M164 0v1138h157v-469h253c176 0 298 -19.667 366 -59c106 -61.333 159 -154.333 159 -279c0 -82.667 -26 -152.667 -78 -210c-54 -60 -130.667 -97 -230 -111c-44 -6.66699 -118 -10 -222 -10h-405zM321 150l289.999 0.000976562c90 0 154.333 5 193 15
c92 23.333 138 79.666 138 168.999c0 70 -26 119 -78 147c-47.333 25.333 -131.666 38 -252.999 38h-290v-369z" />
    <glyph glyph-name="afii10095" unicode="&#x44d;" horiz-adv-x="1193" vert-adv-y="2458" 
d="M952 533l-733 -0.000976562v150h720c-15.333 57.333 -38 107.333 -68 150c-88.667 123.333 -217 185 -385 185c-111.333 0 -236 -34.667 -374 -104l14 177c120 51.333 238 77 354 77c184 0 334.667 -57.333 452 -172c118.667 -116 178 -260.333 178 -433
c0 -169.333 -58 -311 -174 -425c-112 -110.667 -251.667 -166 -419 -166c-101.333 0 -199.666 18.333 -294.999 55c-40.667 16 -92.334 45.333 -155.001 88l11 161c70 -45.333 126.333 -77.666 169 -96.999c84.667 -38 172 -57 262 -57c93.333 0 175.333 23 246 69
c119.333 77.333 185 191.333 197 342z" />
    <glyph glyph-name="afii10096" unicode="&#x44e;" horiz-adv-x="1707" vert-adv-y="2458" 
d="M415 533l-94 0.000976562v-533h-157v1138h157v-455h103c17.333 90.667 52 171.667 104 243c53.333 74.667 121 133 203 175c87.333 44.667 183.333 67 288 67c172.667 0 316 -57 430 -171c54.667 -54 97.334 -117.333 128.001 -190c31.333 -76 47 -154.667 47 -236
c0 -114.667 -29.667 -221 -89 -319c-56.667 -92 -132.667 -162.667 -228 -212c-87.333 -44.667 -183 -67 -287 -67c-138 0 -259.333 38 -364 114c-110 79.333 -183.667 186.666 -221 321.999c-10.667 40 -17.334 81.333 -20.001 124zM1019 1018
c-112.667 0 -209.664 -34.001 -290.997 -102.001c-60.667 -50.667 -104.334 -113.667 -131.001 -189c-17.333 -49.333 -26 -99.333 -26 -150c0 -146.667 52.333 -264 157 -352c81.333 -68 178.666 -102 291.999 -102c112 0 208.667 34 290 102
c104.667 88 157 203.333 157 346c0 88 -22 168 -66 240c-48 78.667 -115.667 136.334 -203 173.001c-54.667 22.667 -114.334 34 -179.001 34z" />
    <glyph glyph-name="afii10097" unicode="&#x44f;" horiz-adv-x="1257" vert-adv-y="2458" 
d="M1093 0h-157.001v469h-267l-432 -469h-210l467 484c-66 8.66699 -120.667 23 -164 43c-57.333 27.333 -100.666 66.333 -129.999 117c-28.667 48.667 -43 102.667 -43 162c0 98 35 177 105 237c60 51.333 144.333 81.333 253 90c34 3.33301 127.667 5 281 5h297v-1138z
M934.999 619v369h-290c-121.333 0 -205.666 -12.667 -252.999 -38c-52 -28 -78 -77 -78 -147c0 -69.333 26 -118 78 -146c47.333 -25.333 131.666 -38 252.999 -38h290z" />
    <glyph glyph-name="afii10071" unicode="&#x451;" horiz-adv-x="1286" vert-adv-y="2458" 
d="M1142 305l-9.00098 -185.001c-74 -42.667 -131.667 -72.667 -173 -90c-92 -38 -187 -57 -285 -57c-174.667 0 -317 54.333 -427 163s-165 250.334 -165 425.001c0 172 54.667 314.333 164 427c54.667 56.667 119.334 100.667 194.001 132c75.333 32 154.333 48 237 48
c146.667 0 269.334 -46 368.001 -138c104.667 -98 157 -222 157 -372c0 -27.333 -1.66699 -63.333 -5 -108l-944 -61c10 -60 27.667 -112.667 53 -158c32.667 -59.333 78 -107 136 -143c69.333 -43.333 146.666 -65 231.999 -65c96 0 197.333 27.333 304 82
c38.667 20 93 53.333 163 100zM1039 679.999c-3.33301 54.667 -15.667 104.333 -37 149c-30 63.333 -76.667 112.333 -140 147c-54 29.333 -114.667 44 -182 44c-106.667 0 -200.667 -33.333 -282 -100c-82 -66.667 -130.667 -164 -146 -292zM405.998 1543
c29.333 0 55 -10.667 77 -32c22 -22.667 33 -49.667 33 -81c0 -32 -10.667 -58.667 -32 -80c-21.333 -20.667 -47.333 -31 -78 -31c-44 0 -76.667 17.667 -98 53c-10.667 18 -16 37 -16 57c0 31.333 11.333 58 34 80c23.333 22.667 50 34 80 34zM925.998 1543
c29.333 0 55.333 -11 78 -33c22 -22.667 33 -49.334 33 -80.001c0 -31.333 -10.667 -57.666 -32 -78.999s-48 -32 -80 -32c-42 0 -73.667 17.667 -95 53c-11.333 18 -17 37.333 -17 58c0 31.333 11.333 58 34 80s49 33 79 33z" />
    <glyph glyph-name="afii10099" unicode="&#x452;" horiz-adv-x="1557" vert-adv-y="2458" 
d="M492 0h-157.001v988h-362v150h362v312l157 27v-550c44 58 88.333 103.333 133 136c96 70 212.333 105 349 105c156 0 273 -45.333 351 -136c38.667 -45.333 63.667 -99.333 75 -162c8.66699 -48 13 -100.667 13 -158v-565c0 -132.667 -13.667 -224.667 -41 -276
c-60 -114.667 -175.667 -172 -347 -172c-70 0 -149.667 9.33301 -239 28l-28 164c84 -28 168.333 -42 253 -42c90.667 0 154.334 17.667 191.001 53c36 34 54 88.333 54 163v579c0 87.333 -3.66699 146.333 -11 177c-16 64.667 -45 113 -87 145c-46 35.333 -112 53 -198 53
c-128 0 -235.667 -41.667 -323 -125c-68.667 -66 -112.667 -145.333 -132 -238c-8.66699 -40 -13 -95.333 -13 -166v-490z" />
    <glyph glyph-name="afii10100" unicode="&#x453;" horiz-adv-x="1008" vert-adv-y="2458" 
d="M164 0v1138h844v-150h-687v-988h-157zM818 1661l55 -151l-541 -198l-55 151z" />
    <glyph glyph-name="afii10101" unicode="&#x454;" horiz-adv-x="1198" vert-adv-y="2458" 
d="M242 533c6.66699 -86 32.6699 -162 78.0029 -228c85.333 -122 206.666 -183 363.999 -183c100.667 0 199 24.333 295 73c36 18 86.667 48.333 152 91l-28 -188c-59.333 -38 -112 -64.667 -158 -80c-89.333 -30.667 -178.666 -46 -267.999 -46
c-167.333 0 -307.333 55.333 -420 166c-116 114 -174 255.667 -174 425c0 172.667 59.333 317 178 433c117.333 114.667 267.666 172 450.999 172c135.333 0 271.666 -34.667 408.999 -104l-26 -157c-66.667 34 -121.334 58.333 -164.001 73
c-74.667 25.333 -149.334 38 -224.001 38c-101.333 0 -189.666 -24 -264.999 -72c-94 -60 -156.667 -147.667 -188 -263h718v-150h-730z" />
    <glyph glyph-name="afii10102" unicode="&#x455;" horiz-adv-x="1016" vert-adv-y="2458" 
d="M108 243c145.333 -80.667 278.33 -121.002 398.997 -121.002c100 0 174.333 22.667 223 68c26.667 24.667 40 58 40 100c0 44 -15 79.333 -45 106c-33.333 30.667 -89.666 62.334 -168.999 95.001l-161 67c-111.333 46 -185.666 90 -222.999 132
c-39.333 44.667 -59 97.334 -59 158.001c0 86 34.667 158 104 216c82 69.333 189.333 104 322 104c92 0 194 -21.667 306 -65l-3 -173c-67.333 33.333 -121 55.333 -161 66c-50.667 14 -102 21 -154 21c-102 0 -177 -25 -225 -75c-21.333 -22.667 -32 -50 -32 -82
c0 -44 23 -80.667 69 -110c29.333 -18.667 75 -40 137 -64l161 -64c87.333 -34 154 -72.333 200 -115c60 -54 90 -126 90 -216c0 -92 -32.667 -165 -98 -219c-80 -66.667 -190.667 -100 -332 -100c-119.333 0 -240.666 30.667 -363.999 92z" />
    <glyph glyph-name="afii10103" unicode="&#x456;" horiz-adv-x="512" vert-adv-y="2458" 
d="M335 1159v-1159h-157v1133zM256 1476c30 0 55.6689 -10.668 77.002 -32.001s32 -47 32 -77s-10.333 -55.333 -31 -76c-21.333 -21.333 -47.333 -32 -78 -32c-40.667 0 -71.334 17 -92.001 51c-10.667 16.667 -16 35.334 -16 56.001c0 32 10.667 58.333 32 79
s46.666 31 75.999 31z" />
    <glyph glyph-name="afii10104" unicode="&#x457;" horiz-adv-x="512" vert-adv-y="2458" 
d="M334 1159v-1159h-157v1133zM114 1543c29.333 0 55 -10.667 77 -32c22 -22.667 33 -49.667 33 -81c0 -32 -10.667 -58.667 -32 -80c-21.333 -20.667 -47.333 -31 -78 -31c-44 0 -76.667 17.667 -98 53c-10.667 17.333 -16 36.333 -16 57c-0 31.333 11.333 58 34 80
c23.333 22.667 50 34 80 34zM401 1543c29.333 0 55.333 -10.999 78 -32.999c22 -22.667 33 -49.334 33 -80.001c0 -31.333 -10.667 -57.666 -32 -78.999s-48 -32 -80 -32c-42 0 -74 17.667 -96 53c-10.667 17.333 -16 36.666 -16 57.999c0 31.333 11.333 58 34 80
s49 33 79 33z" />
    <glyph glyph-name="afii10105" unicode="&#x458;" horiz-adv-x="512" vert-adv-y="2458" 
d="M335 1159v-1522l-157 -26v1522zM256 1476c30 0 55.6689 -10.667 77.002 -32s32 -47 32 -77s-10.333 -55.333 -31 -76c-21.333 -21.333 -47.333 -32 -78 -32c-40.667 0 -71.334 17 -92.001 51c-10.667 17.333 -16 36 -16 56c0 32 10.667 58.333 32 79s46.666 31 75.999 31
z" />
    <glyph glyph-name="afii10106" unicode="&#x459;" horiz-adv-x="1905" vert-adv-y="2458" 
d="M1085 1138l0.000976562 -469h253c176 0 298 -19.667 366 -59c106 -61.333 159 -154.333 159 -279c0 -82.667 -26 -152.667 -78 -210c-54 -60 -130.667 -97 -230 -111c-44 -6.66699 -118 -10 -222 -10h-405v988h-512v-484c-0.666992 -136 -17.334 -235.667 -50.001 -299
c-40 -81.333 -106.667 -145.666 -200 -192.999c-8.66699 -4.66699 -37 -17.667 -85 -39l-81 136c97.333 43.333 161 83.666 191 120.999c34.667 41.333 56 93 64 155c2.66699 12.667 4 89.667 4 231v522h826zM1085 150h290c121.333 0 205.666 12.667 252.999 38
c52 28 78 76.667 78 146c0 70 -26 119 -78 147c-47.333 25.333 -131.666 38 -252.999 38h-290v-369z" />
    <glyph glyph-name="afii10107" unicode="&#x45a;" horiz-adv-x="1939" vert-adv-y="2458" 
d="M1120 150l289.999 0.000976562c90 0 154.333 5 193 15c92 23.333 138 79.666 138 168.999c0 70 -26 119 -78 147c-47.333 25.333 -131.666 38 -252.999 38h-290v-369zM962.999 519.001l-642 -0.000976562v-519h-157v1138h157v-469h642v469h157v-469h253
c176 0 298 -19.667 366 -59c106 -61.333 159 -154 159 -278c0 -83.333 -26 -153.666 -78 -210.999c-54 -60 -130.667 -97 -230 -111c-44 -6.66699 -118 -10 -222 -10h-405v519z" />
    <glyph glyph-name="afii10108" unicode="&#x45b;" horiz-adv-x="1557" vert-adv-y="2458" 
d="M492 0l-157 0.000976562v988h-362v150h362v312l157 27v-550c44 58 88.333 103.333 133 136c96 70 212.333 105 349 105c156 0 273 -45.333 351 -136c39.333 -45.333 64.333 -99.333 75 -162c8.66699 -48 13 -100.667 13 -158v-712h-157v644
c0 87.333 -3.66699 146.333 -11 177c-16 64.667 -45 113 -87 145c-46 35.333 -112 53 -198 53c-128 0 -235.667 -41.667 -323 -125c-68.667 -66 -112.667 -145 -132 -237c-8.66699 -40.667 -13 -96.334 -13 -167.001v-490z" />
    <glyph glyph-name="afii10109" unicode="&#x45c;" horiz-adv-x="1246" vert-adv-y="2458" 
d="M321 587v-587h-157v1138h157v-496l567 496h213l-592 -511l765 -627h-232zM842 1661l55 -151l-541 -198l-55 151z" />
    <glyph glyph-name="afii10110" unicode="&#x45e;" horiz-adv-x="1117" vert-adv-y="2458" 
d="M0 1138h177l390 -946l372 946h178l-613 -1502l-183 -26l164 390zM951 1465c-44.667 -39.333 -80.999 -67.333 -108.999 -84c-78.667 -46.667 -169 -70 -271 -70c-110.667 0 -207 27 -289 81c-22.667 14.667 -53 39 -91 73l93 112c45.333 -34 82.666 -58 111.999 -72
c58 -27.333 116.333 -41 175 -41c66 0 130.667 17 194 51c22.667 12 53.667 32.667 93 62z" />
    <glyph glyph-name="afii10193" unicode="&#x45f;" horiz-adv-x="1420" vert-adv-y="2458" 
d="M164 0v1138h157v-988h778v988h157v-1138h-461v-363l-157 -26v389h-474z" />
    <glyph glyph-name="afii10050" unicode="&#x490;" horiz-adv-x="1051" vert-adv-y="2458" 
d="M358 0h-164v1450h680v137l164 27v-314h-680v-1300z" />
    <glyph glyph-name="afii10098" unicode="&#x491;" horiz-adv-x="1008" vert-adv-y="2458" 
d="M164 0v1138h687v137l157 27v-314h-687v-988h-157z" />
    <glyph glyph-name="hyphen" unicode="&#x2010;" horiz-adv-x="522" vert-adv-y="2458" 
d="M0 577v158h522v-158h-522z" />
    <glyph glyph-name="nbhyphen" unicode="&#x2011;" horiz-adv-x="522" vert-adv-y="2458" 
d="M0 577v158h522v-158h-522z" />
    <glyph glyph-name="figuredash" unicode="&#x2012;" horiz-adv-x="1106" vert-adv-y="2458" 
d="M82 577v158h942v-158h-942z" />
    <glyph glyph-name="endash" unicode="&#x2013;" horiz-adv-x="1106" vert-adv-y="2458" 
d="M82 577v158h942v-158h-942z" />
    <glyph glyph-name="emdash" unicode="&#x2014;" horiz-adv-x="1993" vert-adv-y="2458" 
d="M41 577v158h1911v-158h-1911z" />
    <glyph glyph-name="horizontalbar" unicode="&#x2015;" horiz-adv-x="1993" vert-adv-y="2458" 
d="M41 577v158h1911v-158h-1911z" />
    <glyph glyph-name="quoteleft" unicode="&#x2018;" horiz-adv-x="533" vert-adv-y="2458" 
d="M441 1450l-172 -528h-177l207 528h142z" />
    <glyph glyph-name="quoteright" unicode="&#x2019;" horiz-adv-x="533" vert-adv-y="2458" 
d="M92 922l172 528h177l-207 -528h-142z" />
    <glyph glyph-name="quotesinglbase" unicode="&#x201a;" horiz-adv-x="550" vert-adv-y="2458" 
d="M37 -340l172 528h177l-209 -528h-140z" />
    <glyph glyph-name="quotereversed" unicode="&#x201b;" horiz-adv-x="588" vert-adv-y="2458" 
 />
    <glyph glyph-name="quotedblleft" unicode="&#x201c;" horiz-adv-x="1009" vert-adv-y="2458" 
d="M917 1450l-173 -528h-176l207 528h142zM486 1450l-172 -528h-222l252 528h142z" />
    <glyph glyph-name="quotedblright" unicode="&#x201d;" horiz-adv-x="964" vert-adv-y="2458" 
d="M92 922l172 528h177l-207 -528h-142zM523 922l172 528h177l-207 -528h-142z" />
    <glyph glyph-name="quotedblbase" unicode="&#x201e;" horiz-adv-x="939" vert-adv-y="2458" 
d="M38 -340l172 528h177l-207 -528h-142zM469 -340l172 528h177l-207 -528h-142z" />
    <glyph glyph-name="dagger" unicode="&#x2020;" horiz-adv-x="969" vert-adv-y="2458" 
d="M406 993h-310v150h310v307h158v-307h310v-150h-310v-993h-158v993z" />
    <glyph glyph-name="daggerdbl" unicode="&#x2021;" horiz-adv-x="970" vert-adv-y="2458" 
d="M406 993h-310v150h310v307h158v-307h310v-150h-310v-178h310v-150h-310v-665h-158v665h-310v150h310v178z" />
    <glyph glyph-name="bullet" unicode="&#x2022;" horiz-adv-x="1208" vert-adv-y="2458" 
d="M604 1057c80.667 0 150 -28.666 208 -85.999s87 -127 87 -209c0 -80.667 -29 -150.334 -87 -209.001c-58.667 -58.667 -128.667 -88 -210 -88c-64 0 -121.667 18.667 -173 56c-52 38 -87.667 87 -107 147c-10 31.333 -15 62 -15 92c0 84.667 29 155 87 211
c59.333 57.333 129.333 86 210 86z" />
    <glyph glyph-name="ellipsis" unicode="&#x2026;" horiz-adv-x="1608" vert-adv-y="2458" 
d="M269 182c28 0 52.333 -10.334 73 -31.001c20.667 -20 31 -44.667 31 -74c0 -28.667 -10 -53 -30 -73c-21.333 -20.667 -46.333 -31 -75 -31c-38 0 -67.333 16.667 -88 50c-10.667 16.667 -16 34.667 -16 54c0 28.667 10.667 53.334 32 74.001c20.667 20.667 45 31 73 31z
M805 181.999c28.667 0 53 -10.334 73 -31.001c20.667 -20 31 -44.667 31 -74c0 -28 -10 -52.333 -30 -73c-20.667 -20.667 -45.667 -31 -75 -31c-38 0 -67.333 16.667 -88 50c-10.667 16.667 -16 34.667 -16 54c0 28.667 10.667 53.334 32 74.001c20.667 20.667 45 31 73 31
zM1341 181.998c28.667 0 53 -10.334 73 -31.001c20.667 -20 31 -44.667 31 -74c0 -28.667 -10 -53 -30 -73c-21.333 -20.667 -46.333 -31 -75 -31c-38 0 -67.333 16.667 -88 50c-10.667 16.667 -16 34.667 -16 54c0 28.667 10.667 53.334 32 74.001
c20.667 20.667 45 31 73 31z" />
    <glyph glyph-name="perthousand" unicode="&#x2030;" horiz-adv-x="2324" vert-adv-y="2458" 
d="M406 1477c98 0 181.667 -34.334 251 -103.001c68.667 -68 103 -148.333 103 -241c0 -98 -34.333 -181.333 -103 -250s-152.334 -103 -251.001 -103c-97.333 0 -180.666 34.333 -249.999 103c-68.667 68.667 -103 150.334 -103 245.001c0 97.333 34.333 179.333 103 246
c70.667 68.667 154 103 250 103zM407 1330c-54.667 0 -101 -18.999 -139 -56.999c-40.667 -40.667 -61 -88 -61 -142c0 -57.333 20.333 -106.333 61 -147c38 -38 84.333 -57 139 -57c54 0 100 19 138 57c40.667 40.667 61 88.667 61 144
c0 57.333 -20.333 105.666 -61 144.999c-39.333 38 -85.333 57 -138 57zM1049 1450h157l-714 -1450h-157zM1135 670c98 0 181.666 -34.334 250.999 -103.001c68.667 -68.667 103 -149 103 -241c0 -98 -34.333 -181.333 -103 -250c-69.333 -68.667 -153.333 -103 -252 -103
c-97.333 0 -180.666 34.333 -249.999 103c-68.667 68.667 -103 150.334 -103 245.001c0 97.333 34.333 179.333 103 246c71.333 68.667 155 103 251 103zM1135 522.999c-54 0 -100.334 -18.999 -139.001 -56.999c-40.667 -40 -61 -87.333 -61 -142
c0 -57.333 20.333 -106.333 61 -147c38.667 -38 85 -57 139 -57c54.667 0 101 19 139 57c40.667 40.667 61 88.667 61 144c0 57.333 -20.333 105.666 -61 144.999c-39.333 38 -85.666 57 -138.999 57zM1917 670c98 0 181.666 -34.334 250.999 -103.001
c68.667 -68 103 -148.333 103 -241c0 -98 -34.333 -181.333 -103 -250c-69.333 -68.667 -153.333 -103 -252 -103c-97.333 0 -180.666 34.333 -249.999 103c-68.667 68.667 -103 150.334 -103 245.001c0 97.333 34.333 179.333 103 246c71.333 68.667 155 103 251 103z
M1917 522.999c-54 0 -100.334 -18.999 -139.001 -56.999c-40.667 -40 -61 -87.333 -61 -142c0 -57.333 20.333 -106.333 61 -147c38 -38 84.333 -57 139 -57c54 0 100.333 19 139 57c40.667 40.667 61 88.667 61 144c0 57.333 -20.333 105.666 -61 144.999
c-39.333 38 -85.666 57 -138.999 57z" />
    <glyph glyph-name="guilsinglleft" unicode="&#x2039;" horiz-adv-x="544" vert-adv-y="2458" 
d="M82 655l252 311l114 -91l-183 -220l183 -220l-114 -91z" />
    <glyph glyph-name="guilsinglright" unicode="&#x203a;" horiz-adv-x="544" vert-adv-y="2458" 
d="M462 655l-252 -311l-114 91l183 220l-183 220l114 91z" />
    <glyph glyph-name="numero" unicode="&#x2116;" horiz-adv-x="2864" vert-adv-y="2458" 
d="M194 0v1502l1044 -1142v1090h164v-1505l-1044 1147v-1092h-164zM2165 1477c170.667 0 313.334 -57 428 -171c54.667 -53.333 97.334 -116.666 128 -189.999c31.333 -76 47 -154.667 47 -236c0 -114.667 -29.667 -220.667 -89 -318
c-56.667 -92 -132.667 -162.667 -228 -212c-87.333 -44.667 -183 -67 -287 -67c-173.333 0 -317.666 57.667 -432.999 173c-53.333 53.333 -95.333 116 -126 188c-31.333 75.333 -47 151.666 -47 228.999c0 119.333 29.333 227.666 88 324.999
c55.333 90.667 131.666 161.334 228.999 212.001c87.333 44.667 184 67 290 67zM2163 1327c-112.667 0 -209.665 -34.001 -290.998 -102.001c-60.667 -50.667 -104.334 -113.667 -131.001 -189c-17.333 -48.667 -26 -98.667 -26 -150c0 -146 52.333 -263 157 -351
c81.333 -68 178.666 -102 291.999 -102c112 0 208.667 34 290 102c104.667 88 157 203 157 345c0 88 -22 168 -66 240c-48 78.667 -115.667 136.334 -203 173.001c-54.667 22.667 -114.334 34 -179 34zM1643 -0.000976562v158h1051v-158h-1051z" />
    <glyph glyph-name="trademark" unicode="&#x2122;" horiz-adv-x="1671" vert-adv-y="2458" 
d="M312 580v731h-298v139h727v-139h-284v-731h-145zM609 580l239 901l286 -580l286 580l238 -901h-166l-117 485l-241 -525l-244 525l-124 -485h-157z" />
    <glyph glyph-name="partialdiff" unicode="&#x2202;" vert-adv-y="2458" 
d="M761 960c-84 103.333 -151 182.668 -201 238.001l-174 185l-63 67h219l72 -84c124.667 -143.333 217.334 -256 278.001 -338c61.333 -82.667 111.333 -161.334 150 -236.001c49.333 -96.667 74 -199.667 74 -309c0 -152 -53 -277.333 -159 -376
c-96 -89.333 -214.333 -134 -355 -134c-146.667 0 -268.334 46.333 -365.001 139c-100 96 -150 220.333 -150 373c0 147.333 50 269 150 365c92.667 89.333 209.667 134 351 134c53.333 0 111 -8 173 -24zM601 827.002c-98.667 0 -180.333 -30.668 -245 -92.001
c-70 -66.667 -105 -152 -105 -256c0 -107.333 35 -194 105 -260c63.333 -59.333 145 -89 245 -89c100.667 0 182.667 29.667 246 89c70 66 105 154.333 105 265c0 102.667 -35 186.334 -105 251.001c-66 61.333 -148 92 -246 92z" />
    <glyph glyph-name="Delta" unicode="&#x2206;" horiz-adv-x="1380" vert-adv-y="2458" 
d="M1401 0h-1421l730 1502zM248 162h895l-446 965z" />
    <glyph glyph-name="periodcentered" unicode="&#x2219;" horiz-adv-x="588" vert-adv-y="2458" 
d="M295 823c28 0 52.333 -10.334 73 -31.001c20.667 -20 31 -44.667 31 -74c0 -28.667 -10 -53 -30 -73c-21.333 -20.667 -46.333 -31 -75 -31c-38 0 -67.333 16.667 -88 50c-10.667 16.667 -16 34.667 -16 54c0 28.667 10.667 53.334 32 74.001c20.667 20.667 45 31 73 31z
" />
    <glyph glyph-name="radical" unicode="&#x221a;" horiz-adv-x="1450" vert-adv-y="2458" 
d="M1437 1798v-172h-405l-466 -1626h-210l-170 617h-179v172h292l159 -584l436 1593h543z" />
    <glyph glyph-name="infinity" unicode="&#x221e;" horiz-adv-x="1539" vert-adv-y="2458" 
d="M771 886c25.333 75.333 51.666 129.334 78.999 162.001c62.667 75.333 140.334 113 233.001 113c96 0 179.333 -34.667 250 -104c83.333 -82.667 125 -193.334 125 -332.001c0 -139.333 -41.667 -250 -125 -332c-70.667 -69.333 -153.667 -104 -249 -104
c-99.333 0 -179.333 41.333 -240 124c-32.667 44 -57.667 90 -75 138c-17.333 -52.667 -45 -103.334 -83 -152.001c-58 -73.333 -134.667 -110 -230 -110s-178.333 34.667 -249 104c-83.333 82 -125 192.667 -125 332c0 138.667 41.667 249.334 125 332.001
c70.667 69.333 153.667 104 249 104c100 0 180.333 -41 241 -123c22 -30 46.667 -80.667 74 -152zM691 726.001l-44.001 99c-29.333 62.667 -59 106.667 -89 132c-29.333 26 -65.666 39 -108.999 39c-60.667 0 -109.334 -23 -146.001 -69c-42.667 -54 -64 -121 -64 -201
s22 -147.667 66 -203c37.333 -47.333 85 -71 143 -71c59.333 0 108.333 27.667 147 83c18.667 28 36 58.667 52 92c30.667 64 45.334 97 44.001 99zM847.999 726.001c39.333 -90.667 71.668 -154.334 97.001 -191.001c38 -55.333 87 -83 147 -83c58 0 105.667 23.667 143 71
c44 55.333 66 123 66 203s-21.333 147 -64 201c-36.667 46 -85.334 69 -146.001 69c-61.333 0 -111 -27.667 -149 -83c-22 -33.333 -53.333 -95.666 -94 -186.999z" />
    <glyph glyph-name="approxequal" unicode="&#x2248;" horiz-adv-x="1106" vert-adv-y="2458" 
d="M946 375c-36.667 -32 -67.335 -54.667 -92.002 -68c-50.667 -27.333 -105 -41 -163 -41c-39.333 0 -74.666 6.33301 -105.999 19l-80 32c-42 17.333 -79 26 -111 26c-46 0 -99.667 -22.667 -161 -68l-72 128c36.667 32 67.334 54.667 92.001 68
c50.667 27.333 104.667 41 162 41c40 0 75.667 -6.33301 107 -19l80 -33c42 -16.667 78.667 -25 110 -25c46.667 0 100.667 22.667 162 68zM945.999 785c-36.667 -32 -67.335 -55 -92.002 -69c-50.667 -27.333 -105 -41 -163 -41c-38.667 0 -74 6.66699 -106 20l-80 32
c-41.333 16.667 -78.333 25 -111 25c-46 0 -99.667 -22.333 -161 -67l-72 127c36.667 32 67.334 54.667 92.001 68c50.667 27.333 104.667 41 162 41c41.333 0 77 -6 107 -18l80 -33c42.667 -17.333 79.334 -26 110.001 -26c46.667 0 100.667 22.667 162 68z" />
    <glyph glyph-name="notequal" unicode="&#x2260;" horiz-adv-x="1106" vert-adv-y="2458" 
d="M902 1166l122 -102l-105 -125h105v-158h-239l-210 -252h449v-158h-580l-195 -231l-121 102l108 129h-154v158h288l212 252h-500v158h632z" />
    <glyph glyph-name="lessequal" unicode="&#x2264;" horiz-adv-x="830" vert-adv-y="2458" 
d="M53 57v158h695v-158h-695zM98 792l517 517l110 -109l-401 -408l401 -408l-110 -110z" />
    <glyph glyph-name="greaterequal" unicode="&#x2265;" horiz-adv-x="830" vert-adv-y="2458" 
d="M82 57v158h695v-158h-695zM754 792l-517 -518l-110 110l401 408l-401 408l110 109z" />
    <glyph glyph-name="glyph1" horiz-adv-x="0" vert-adv-y="0" 
 />
    <glyph glyph-name="glyph2" horiz-adv-x="588" vert-adv-y="2458" 
 />
    <glyph glyph-name="cent" horiz-adv-x="1182" vert-adv-y="2458" 
d="M592 1217l0.00292969 221h164v-216c131.333 -11.333 254.333 -47 369 -107l-27 -164c-70 35.333 -127.333 60.666 -172 75.999c-78.667 26.667 -157 40 -235 40c-140.667 0 -256.334 -43.333 -347.001 -130c-95.333 -90.667 -143 -205 -143 -343
c0 -135.333 46 -248.333 138 -339c86.667 -85.333 196 -128 328 -128c105.333 0 208.666 25.333 309.999 76c37.333 18.667 90.333 50.334 159 95.001l-30 -196c-98.667 -66 -215.334 -108 -350.001 -126v-194h-164v191c-115.333 11.333 -217 49 -305 113
c-75.333 54.667 -135 123.667 -179 207c-48 91.333 -72 190.333 -72 297c0 144 42 272 126 384c102 136.667 245.333 217.667 430 243z" />
    <glyph glyph-name="sterling" vert-adv-y="2458" 
d="M112 123c68 12 123 38.998 165 80.998c70 71.333 105 172 105 302c0 44.667 -5.33301 92.334 -16 143.001h-254v150h212c-47.333 126 -71 222.667 -71 290c0 111.333 36 203 108 275c76 75.333 173.667 113 293 113c109.333 0 206 -33.667 290 -101
c39.333 -31.333 80.333 -78.333 123 -141l-122 -75c-31.333 41.333 -59.666 72.666 -84.999 93.999c-55.333 48.667 -123.666 73 -204.999 73c-72.667 0 -130 -18 -172 -54c-48.667 -40.667 -73 -101.334 -73 -182.001c0 -48 12.667 -107.667 38 -179
c3.33301 -8 12.666 -32.333 27.999 -73c4.66699 -13.333 9.66699 -26.666 15 -39.999h352v-150h-315c7.33301 -54 11 -101.333 11 -142c0 -104 -18 -194 -54 -270c51.333 -35.333 92 -60.333 122 -75c55.333 -26.667 108.666 -40 159.999 -40c56 0 101.667 16.667 137 50
c31.333 30 64.333 79.667 99 149l131 -76c-39.333 -83.333 -77.333 -143.666 -114 -180.999c-59.333 -61.333 -142 -92 -248 -92c-80 0 -163 20.667 -249 62c-30 14.667 -72.333 38.334 -127 71.001c-67.333 -69.333 -162 -113.333 -284 -132v150z" />
    <glyph glyph-name="florin" vert-adv-y="2458" 
d="M431 -368l-163.999 -40.999l188 1065h-201v150h227l85 484c17.333 97.333 52.666 172.666 105.999 225.999c64 65.333 147.667 98 251 98c46 0 99.667 -7.33301 161 -22l-45 -144c-37.333 9.33301 -71.333 14 -102 14c-67.333 0 -118.333 -15.667 -153 -47
c-30.667 -28.667 -52 -76 -64 -142l-82 -467h326v-150h-352z" />
    <glyph glyph-name="glyph172" vert-adv-y="1203" 
 />
    <glyph glyph-name="divide" horiz-adv-x="1106" vert-adv-y="2458" 
d="M554 337c28 0 52.334 -10.333 73.001 -31c20 -20 30 -44.667 30 -74c0 -28.667 -10 -53 -30 -73c-20.667 -20.667 -45.334 -31 -74.001 -31c-38.667 0 -68.667 17 -90 51c-10 16.667 -15 34 -15 52c0 29.333 10.333 54 31 74c21.333 21.333 46.333 32 75 32z
M554.001 1190c28 0 52.334 -10.333 73.001 -31c20 -20 30 -44.667 30 -74c0 -28.667 -10 -53 -30 -73c-20.667 -20.667 -45.334 -31 -74.001 -31c-38.667 0 -68.667 17 -90 51c-10 16.667 -15 34 -15 52c0 29.333 10.333 54 31 74c21.333 21.333 46.333 32 75 32z
M82.002 577v158h942v-158h-942z" />
    <glyph glyph-name="glyph339" horiz-adv-x="1365" vert-adv-y="2458" 
d="M424 1543c29.333 0 55 -10.667 77 -32c22 -22.667 33 -49.667 33 -81c0 -32 -10.667 -58.667 -32 -80c-21.333 -20.667 -47.333 -31 -78 -31c-44 0 -76.667 17.667 -98 53c-10.667 18 -16 37 -16 57c0 31.333 11.333 58 34 80c23.333 22.667 50 34 80 34zM944 1543
c29.333 0 55.333 -11 78 -33c22 -22.667 33 -49.334 33 -80.001c0 -31.333 -10.667 -57.666 -32 -78.999s-48 -32 -80 -32c-42 0 -73.667 17.667 -95 53c-11.333 18 -17 37.333 -17 58c0 31.333 11.333 58 34 80s49 33 79 33z" />
    <glyph glyph-name="glyph340" horiz-adv-x="1365" vert-adv-y="2458" 
d="M937 1661l55 -151l-541 -198l-55 151z" />
    <glyph glyph-name="glyph341" horiz-adv-x="1365" vert-adv-y="2458" 
d="M937 1920l55 -150l-541 -198l-55 150z" />
    <glyph glyph-name="glyph342" horiz-adv-x="1365" vert-adv-y="2458" 
d="M384 1807c30.667 0 57.334 -11.333 80.001 -34c23.333 -23.333 35 -51.666 35 -84.999c0 -32.667 -11.333 -60.334 -34 -83.001c-22 -22 -49 -33 -81 -33c-46 0 -80.333 18.667 -103 56c-11.333 18 -17 38 -17 60c0 32 11.667 59.667 35 83
c25.333 24 53.666 36 84.999 36zM984 1807c31.333 0 58.667 -11.667 82 -35s35 -51 35 -83c0 -33.333 -11.333 -61 -34 -83c-22 -22.667 -49.667 -34 -83 -34c-44.667 0 -78.334 18.333 -101.001 55c-11.333 18.667 -17 39 -17 61c0 33.333 11.667 61.333 35 84
c24.667 23.333 52.334 35 83.001 35z" />
    <glyph glyph-name="glyph343" horiz-adv-x="588" vert-adv-y="2458" 
 />
    </font>
</defs>
</svg>
